<?xml version="1.0" encoding="utf-8" standalone="no"?>
<!DOCTYPE svg PUBLIC "-//W3C//DTD SVG 1.1//EN"
  "http://www.w3.org/Graphics/SVG/1.1/DTD/svg11.dtd">
<!-- Created with matplotlib (http://matplotlib.org/) -->
<svg height="432pt" version="1.1" viewBox="0 0 576 432" width="576pt" xmlns="http://www.w3.org/2000/svg" xmlns:xlink="http://www.w3.org/1999/xlink">
 <defs>
  <style type="text/css">
*{stroke-linecap:butt;stroke-linejoin:round;}
  </style>
 </defs>
 <g id="figure_1">
  <g id="patch_1">
   <path d="
M0 432
L576 432
L576 0
L0 0
z
" style="fill:#ffffff;"/>
  </g>
  <g id="axes_1">
   <g id="patch_2">
    <path d="
M53.0741 379.84
L461.047 379.84
L461.047 19.26
L53.0741 19.26
z
" style="fill:#ffffff;"/>
   </g>
   <g id="PathCollection_1">
    <defs>
     <path d="
M76.8725 -52.16
L87.0718 -52.16
L93.4464 -52.16
L87.0718 -54.4136
L76.8725 -52.16" id="C0_0_1a94f8f9b2"/>
     <path d="
M114.695 -52.16
L121.07 -52.16
L138.068 -52.16
L155.067 -52.16
L172.066 -52.16
L189.065 -52.16
L206.064 -52.16
L223.063 -52.16
L240.062 -52.16
L257.06 -52.16
L274.059 -52.16
L291.058 -52.16
L308.057 -52.16
L325.056 -52.16
L342.055 -52.16
L359.054 -52.16
L376.052 -52.16
L393.051 -52.16
L410.05 -52.16
L427.049 -52.16
L444.048 -52.16
L461.047 -52.16
L461.047 -67.1842
L461.047 -82.2083
L461.047 -91.2228
L455.947 -82.2083
L444.048 -71.6914
L438.948 -67.1842
L427.049 -56.6672
L415.15 -67.1842
L427.049 -77.7011
L432.149 -82.2083
L444.048 -92.7252
L454.247 -97.2325
L461.047 -103.242
L461.047 -112.257
L461.047 -127.281
L461.047 -142.305
L461.047 -157.329
L461.047 -172.353
L461.047 -187.377
L461.047 -202.402
L461.047 -217.426
L461.047 -232.45
L461.047 -247.474
L461.047 -262.498
L461.047 -277.522
L461.047 -292.547
L461.047 -301.561
L444.048 -294.8
L438.948 -292.547
L427.049 -282.03
L415.15 -292.547
L410.05 -294.8
L407.5 -292.547
L404.951 -277.522
L393.051 -267.006
L376.052 -267.006
L359.054 -264.752
L356.504 -262.498
L342.055 -249.728
L325.056 -250.855
L314.857 -247.474
L314.857 -232.45
L308.057 -226.44
L297.858 -217.426
L291.058 -211.416
L274.059 -209.163
L257.06 -204.655
L252.811 -202.402
L240.062 -191.134
L237.512 -187.377
L223.063 -174.607
L220.513 -172.353
L223.063 -163.339
L240.062 -161.085
L244.311 -157.329
L240.062 -153.573
L223.063 -151.319
L216.263 -157.329
L206.064 -159.583
L203.514 -157.329
L189.065 -144.559
L186.515 -142.305
L172.066 -129.534
L169.516 -127.281
L155.067 -114.51
L144.868 -112.257
L138.068 -106.247
L127.869 -97.2325
L121.07 -91.2228
L108.32 -82.2083
L121.07 -73.1938
L127.869 -67.1842
L121.07 -61.1745
L114.695 -52.16
M274.059 -149.066
L264.71 -157.329
L274.059 -165.592
L291.058 -163.339
L297.858 -157.329
L291.058 -151.319
L274.059 -149.066
M342.055 -86.7156
L330.156 -97.2325
L342.055 -107.749
L349.704 -112.257
L359.054 -120.52
L364.153 -127.281
L376.052 -137.798
L381.152 -142.305
L376.052 -146.812
L364.153 -157.329
L376.052 -167.846
L381.152 -172.353
L393.051 -182.87
L410.05 -182.87
L427.049 -182.87
L444.048 -182.87
L455.947 -172.353
L444.048 -161.836
L427.049 -161.836
L410.05 -161.836
L393.051 -161.836
L387.952 -157.329
L393.051 -152.822
L404.951 -142.305
L393.051 -131.788
L387.952 -127.281
L376.052 -116.764
L368.403 -112.257
L359.054 -103.993
L353.954 -97.2325
L342.055 -86.7156
M427.049 -221.933
L415.15 -232.45
L427.049 -242.967
L438.948 -232.45
L427.049 -221.933
M410.05 -101.74
L398.151 -112.257
L410.05 -122.774
L421.949 -112.257
L410.05 -101.74" id="C0_1_dec09ab032"/>
     <path d="
M53.0741 -112.257
L53.0741 -103.242
L70.0729 -103.242
L87.0718 -98.7349
L104.071 -110.003
L106.62 -112.257
L104.071 -123.525
L99.8209 -127.281
L104.071 -131.037
L114.27 -142.305
L121.07 -148.315
L127.869 -142.305
L138.068 -140.051
L145.718 -142.305
L153.367 -157.329
L155.067 -158.832
L160.167 -172.353
L155.067 -185.875
L153.367 -187.377
L155.067 -188.88
L172.066 -193.387
L179.716 -202.402
L189.065 -210.665
L199.264 -217.426
L206.064 -223.435
L212.863 -217.426
L223.063 -214.421
L225.613 -217.426
L223.063 -226.44
L216.263 -232.45
L216.263 -247.474
L223.063 -253.484
L229.862 -247.474
L240.062 -236.206
L257.06 -241.84
L264.71 -247.474
L257.06 -253.108
L246.436 -262.498
L252.811 -277.522
L257.06 -281.279
L261.31 -277.522
L274.059 -274.142
L291.058 -275.269
L296.158 -277.522
L308.057 -288.039
L315.707 -292.547
L325.056 -300.81
L327.606 -307.571
L325.056 -314.332
L308.057 -316.585
L302.957 -307.571
L291.058 -297.054
L283.409 -292.547
L274.059 -284.283
L264.71 -292.547
L264.71 -307.571
L274.059 -315.834
L291.058 -318.088
L301.257 -322.595
L301.257 -337.619
L308.057 -343.629
L314.857 -337.619
L325.056 -330.858
L334.405 -322.595
L342.055 -320.341
L356.504 -307.571
L359.054 -300.81
L364.153 -307.571
L376.052 -318.088
L381.152 -322.595
L393.051 -333.112
L398.151 -337.619
L393.051 -342.126
L381.152 -352.643
L376.052 -354.897
L372.228 -352.643
L359.054 -341
L345.88 -352.643
L342.055 -357.151
L334.405 -352.643
L325.056 -344.38
L315.707 -352.643
L311.882 -367.668
L325.056 -379.311
L330.156 -382.692
L342.055 -393.209
L359.054 -390.955
L364.153 -397.716
L376.052 -408.233
L381.152 -412.74
L376.052 -412.74
L359.054 -412.74
L342.055 -412.74
L325.056 -412.74
L308.057 -412.74
L291.058 -412.74
L274.059 -412.74
L257.06 -412.74
L240.062 -412.74
L223.063 -412.74
L206.064 -412.74
L189.065 -412.74
L172.066 -412.74
L155.067 -412.74
L138.068 -412.74
L121.07 -412.74
L104.071 -412.74
L87.0718 -412.74
L70.0729 -412.74
L53.0741 -412.74
L53.0741 -397.716
L53.0741 -382.692
L53.0741 -367.668
L53.0741 -352.643
L53.0741 -337.619
L53.0741 -322.595
L53.0741 -307.571
L53.0741 -292.547
L53.0741 -277.522
L53.0741 -262.498
L53.0741 -247.474
L53.0741 -232.45
L53.0741 -217.426
L53.0741 -202.402
L53.0741 -187.377
L53.0741 -172.353
L53.0741 -157.329
L53.0741 -142.305
L53.0741 -133.29
L70.0729 -133.29
L76.8725 -127.281
L70.0729 -121.271
L53.0741 -121.271
L53.0741 -112.257" id="C0_2_7aeba4db5d"/>
     <path d="
M427.049 -303.064
L429.599 -307.571
L444.048 -320.341
L461.047 -313.58
L461.047 -322.595
L461.047 -331.61
L444.048 -327.102
L427.049 -324.849
L424.499 -322.595
L424.499 -307.571
L427.049 -303.064" id="C0_3_eaed30f1ea"/>
     <path d="
M461.047 -343.629
L461.047 -352.643
L461.047 -354.897
L458.497 -352.643
L461.047 -343.629" id="C0_4_30b081238d"/>
     <path d="
M393.051 -363.16
L410.05 -365.414
L415.15 -367.668
L410.05 -372.175
L393.051 -372.175
L390.502 -367.668
L393.051 -363.16" id="C0_5_107c90602b"/>
     <path d="
M444.048 -380.438
L454.247 -382.692
L444.048 -387.199
L441.498 -382.692
L444.048 -380.438" id="C0_6_20d7e7d2ee"/>
     <path d="
M393.051 -393.209
L410.05 -393.209
L427.049 -395.462
L432.149 -397.716
L444.048 -408.233
L454.247 -412.74
L444.048 -412.74
L427.049 -412.74
L410.05 -412.74
L404.951 -412.74
L393.051 -402.223
L387.952 -397.716
L393.051 -393.209" id="C0_7_1ee38347bf"/>
    </defs>
    <g clip-path="url(#p148d6a6e19)">
     <use style="fill:#121212;" x="0.0" xlink:href="#C0_0_1a94f8f9b2" y="432.0"/>
    </g>
    <g clip-path="url(#p148d6a6e19)">
     <use style="fill:#121212;" x="0.0" xlink:href="#C0_1_dec09ab032" y="432.0"/>
    </g>
    <g clip-path="url(#p148d6a6e19)">
     <use style="fill:#121212;" x="0.0" xlink:href="#C0_2_7aeba4db5d" y="432.0"/>
    </g>
    <g clip-path="url(#p148d6a6e19)">
     <use style="fill:#121212;" x="0.0" xlink:href="#C0_3_eaed30f1ea" y="432.0"/>
    </g>
    <g clip-path="url(#p148d6a6e19)">
     <use style="fill:#121212;" x="0.0" xlink:href="#C0_4_30b081238d" y="432.0"/>
    </g>
    <g clip-path="url(#p148d6a6e19)">
     <use style="fill:#121212;" x="0.0" xlink:href="#C0_5_107c90602b" y="432.0"/>
    </g>
    <g clip-path="url(#p148d6a6e19)">
     <use style="fill:#121212;" x="0.0" xlink:href="#C0_6_20d7e7d2ee" y="432.0"/>
    </g>
    <g clip-path="url(#p148d6a6e19)">
     <use style="fill:#121212;" x="0.0" xlink:href="#C0_7_1ee38347bf" y="432.0"/>
    </g>
   </g>
   <g id="PathCollection_2">
    <defs>
     <path d="
M53.0741 -52.16
L70.0729 -52.16
L76.8725 -52.16
L87.0718 -54.4136
L93.4464 -52.16
L99.8209 -52.16
L87.0718 -56.6672
L70.0729 -53.1616
L53.0741 -53.1616
L53.0741 -52.16" id="C1_0_4dac49884f"/>
     <path d="
M108.32 -52.16
L114.695 -52.16
L121.07 -61.1745
L127.869 -67.1842
L121.07 -73.1938
L108.32 -82.2083
L121.07 -91.2228
L127.869 -97.2325
L138.068 -106.247
L144.868 -112.257
L155.067 -114.51
L169.516 -127.281
L172.066 -129.534
L186.515 -142.305
L189.065 -144.559
L203.514 -157.329
L206.064 -159.583
L216.263 -157.329
L223.063 -151.319
L240.062 -153.573
L244.311 -157.329
L240.062 -161.085
L223.063 -163.339
L220.513 -172.353
L223.063 -174.607
L237.512 -187.377
L240.062 -191.134
L252.811 -202.402
L257.06 -204.655
L274.059 -209.163
L291.058 -211.416
L297.858 -217.426
L308.057 -226.44
L314.857 -232.45
L314.857 -247.474
L325.056 -250.855
L342.055 -249.728
L356.504 -262.498
L359.054 -264.752
L376.052 -267.006
L393.051 -267.006
L404.951 -277.522
L407.5 -292.547
L410.05 -294.8
L415.15 -292.547
L427.049 -282.03
L438.948 -292.547
L444.048 -294.8
L461.047 -301.561
L461.047 -307.571
L461.047 -313.58
L444.048 -320.341
L429.599 -307.571
L427.049 -303.064
L424.499 -307.571
L424.499 -322.595
L427.049 -324.849
L444.048 -327.102
L461.047 -331.61
L461.047 -337.619
L461.047 -343.629
L458.497 -352.643
L461.047 -354.897
L461.047 -357.151
L455.947 -352.643
L457.647 -337.619
L444.048 -331.61
L427.049 -327.102
L421.949 -322.595
L421.949 -307.571
L427.049 -298.556
L432.149 -307.571
L444.048 -318.088
L459.914 -307.571
L444.048 -297.054
L433.849 -292.547
L427.049 -286.537
L420.25 -292.547
L410.05 -297.054
L404.951 -292.547
L399.851 -277.522
L393.051 -271.513
L376.052 -271.513
L359.054 -267.006
L353.954 -262.498
L342.055 -251.981
L325.056 -254.235
L308.057 -248.476
L291.058 -248.476
L280.859 -247.474
L289.925 -232.45
L280.859 -217.426
L274.059 -215.923
L257.06 -206.909
L248.561 -202.402
L240.062 -194.89
L234.962 -187.377
L223.063 -176.861
L217.963 -172.353
L206.064 -161.836
L200.964 -157.329
L189.065 -146.812
L183.965 -142.305
L172.066 -131.788
L166.966 -127.281
L155.067 -116.764
L138.068 -113.258
L136.935 -112.257
L121.07 -98.2341
L119.936 -97.2325
L104.071 -84.0864
L98.4044 -82.2083
L101.946 -67.1842
L104.071 -59.6721
L108.32 -52.16" id="C1_1_29524e8c45"/>
     <path d="
M427.049 -56.6672
L438.948 -67.1842
L444.048 -71.6914
L455.947 -82.2083
L461.047 -91.2228
L461.047 -97.2325
L461.047 -103.242
L454.247 -97.2325
L444.048 -92.7252
L432.149 -82.2083
L427.049 -77.7011
L415.15 -67.1842
L427.049 -56.6672
M444.048 -76.1987
L437.248 -82.2083
L444.048 -88.218
L450.847 -82.2083
L444.048 -76.1987
M427.049 -61.1745
L420.25 -67.1842
L427.049 -73.1938
L433.849 -67.1842
L427.049 -61.1745" id="C1_2_a47dcbe482"/>
     <path d="
M53.0741 -97.2325
L53.0741 -95.7301
L70.0729 -95.7301
L87.0718 -91.2228
L89.7916 -97.2325
L104.071 -107.749
L109.17 -112.257
L107.161 -127.281
L121.07 -140.803
L138.068 -137.798
L153.367 -142.305
L155.067 -145.31
L158.953 -157.329
L165.267 -172.353
L172.066 -184.373
L173.199 -187.377
L187.365 -202.402
L189.065 -203.904
L206.064 -214.421
L223.063 -211.416
L228.162 -217.426
L240.062 -230.572
L248.561 -232.45
L257.06 -236.206
L272.359 -247.474
L257.06 -258.742
L252.811 -262.498
L257.06 -270.01
L274.059 -270.762
L291.058 -273.015
L301.257 -277.522
L308.057 -283.532
L323.356 -292.547
L325.056 -294.049
L330.156 -307.571
L325.056 -321.093
L318.256 -322.595
L325.056 -324.097
L326.756 -322.595
L342.055 -318.088
L353.954 -307.571
L359.054 -294.049
L369.253 -307.571
L376.052 -313.58
L386.252 -322.595
L393.051 -328.605
L403.251 -337.619
L393.051 -346.634
L386.252 -352.643
L376.052 -357.151
L368.403 -352.643
L359.054 -344.38
L349.704 -352.643
L342.055 -361.658
L326.756 -352.643
L325.056 -351.141
L323.356 -352.643
L315.707 -367.668
L325.056 -375.931
L335.255 -382.692
L342.055 -388.701
L359.054 -384.194
L369.253 -397.716
L376.052 -403.726
L382.852 -397.716
L393.051 -388.701
L410.05 -388.701
L427.049 -393.209
L437.248 -397.716
L444.048 -403.726
L457.647 -397.716
L444.048 -391.706
L438.948 -382.692
L444.048 -378.184
L461.047 -381.69
L461.047 -382.692
L461.047 -397.716
L461.047 -412.74
L454.247 -412.74
L444.048 -408.233
L432.149 -397.716
L427.049 -395.462
L410.05 -393.209
L393.051 -393.209
L387.952 -397.716
L393.051 -402.223
L404.951 -412.74
L399.851 -412.74
L393.051 -406.73
L386.252 -412.74
L381.152 -412.74
L376.052 -408.233
L364.153 -397.716
L359.054 -390.955
L342.055 -393.209
L330.156 -382.692
L325.056 -379.311
L311.882 -367.668
L315.707 -352.643
L325.056 -344.38
L334.405 -352.643
L342.055 -357.151
L345.88 -352.643
L359.054 -341
L372.228 -352.643
L376.052 -354.897
L381.152 -352.643
L393.051 -342.126
L398.151 -337.619
L393.051 -333.112
L381.152 -322.595
L376.052 -318.088
L364.153 -307.571
L359.054 -300.81
L356.504 -307.571
L342.055 -320.341
L334.405 -322.595
L325.056 -330.858
L314.857 -337.619
L308.057 -343.629
L301.257 -337.619
L301.257 -322.595
L291.058 -318.088
L274.059 -315.834
L264.71 -307.571
L264.71 -292.547
L274.059 -284.283
L283.409 -292.547
L291.058 -297.054
L302.957 -307.571
L308.057 -316.585
L325.056 -314.332
L327.606 -307.571
L325.056 -300.81
L315.707 -292.547
L308.057 -288.039
L296.158 -277.522
L291.058 -275.269
L274.059 -274.142
L261.31 -277.522
L257.06 -281.279
L252.811 -277.522
L246.436 -262.498
L257.06 -253.108
L264.71 -247.474
L257.06 -241.84
L240.062 -236.206
L229.862 -247.474
L223.063 -253.484
L216.263 -247.474
L216.263 -232.45
L223.063 -226.44
L225.613 -217.426
L223.063 -214.421
L212.863 -217.426
L206.064 -223.435
L199.264 -217.426
L189.065 -210.665
L179.716 -202.402
L172.066 -193.387
L155.067 -188.88
L153.367 -187.377
L155.067 -185.875
L160.167 -172.353
L155.067 -158.832
L153.367 -157.329
L145.718 -142.305
L138.068 -140.051
L127.869 -142.305
L121.07 -148.315
L114.27 -142.305
L104.071 -131.037
L99.8209 -127.281
L104.071 -123.525
L106.62 -112.257
L104.071 -110.003
L87.0718 -98.7349
L70.0729 -103.242
L53.0741 -103.242
L53.0741 -97.2325
M444.048 -380.438
L441.498 -382.692
L444.048 -387.199
L454.247 -382.692
L444.048 -380.438
M274.059 -291.044
L272.359 -292.547
L272.359 -307.571
L274.059 -309.073
L291.058 -313.58
L297.858 -307.571
L291.058 -301.561
L275.759 -292.547
L274.059 -291.044" id="C1_3_e7cf600cf1"/>
     <path d="
M342.055 -86.7156
L353.954 -97.2325
L359.054 -103.993
L368.403 -112.257
L376.052 -116.764
L387.952 -127.281
L393.051 -131.788
L404.951 -142.305
L393.051 -152.822
L387.952 -157.329
L393.051 -161.836
L410.05 -161.836
L427.049 -161.836
L444.048 -161.836
L455.947 -172.353
L444.048 -182.87
L427.049 -182.87
L410.05 -182.87
L393.051 -182.87
L381.152 -172.353
L376.052 -167.846
L364.153 -157.329
L376.052 -146.812
L381.152 -142.305
L376.052 -137.798
L364.153 -127.281
L359.054 -120.52
L349.704 -112.257
L342.055 -107.749
L330.156 -97.2325
L342.055 -86.7156
M359.054 -110.754
L357.354 -112.257
L359.054 -113.759
L360.754 -112.257
L359.054 -110.754
M376.052 -121.271
L369.253 -127.281
L376.052 -133.29
L382.852 -127.281
L376.052 -121.271
M393.051 -136.295
L386.252 -142.305
L393.051 -148.315
L399.851 -142.305
L393.051 -136.295
M393.051 -166.344
L386.252 -172.353
L393.051 -178.363
L410.05 -178.363
L427.049 -178.363
L444.048 -178.363
L450.847 -172.353
L444.048 -166.344
L427.049 -166.344
L410.05 -166.344
L393.051 -166.344
M376.052 -151.319
L369.253 -157.329
L376.052 -163.339
L382.852 -157.329
L376.052 -151.319
M342.055 -91.2228
L335.255 -97.2325
L342.055 -103.242
L348.854 -97.2325
L342.055 -91.2228" id="C1_4_cb7b383d8e"/>
     <path d="
M410.05 -101.74
L421.949 -112.257
L410.05 -122.774
L398.151 -112.257
L410.05 -101.74
M410.05 -106.247
L403.251 -112.257
L410.05 -118.266
L416.85 -112.257
L410.05 -106.247" id="C1_5_9e10fc3435"/>
     <path d="
M53.0741 -127.281
L53.0741 -121.271
L70.0729 -121.271
L76.8725 -127.281
L70.0729 -133.29
L53.0741 -133.29
L53.0741 -127.281" id="C1_6_3e143ed0b0"/>
     <path d="
M274.059 -149.066
L291.058 -151.319
L297.858 -157.329
L291.058 -163.339
L274.059 -165.592
L264.71 -157.329
L274.059 -149.066
M274.059 -155.827
L272.359 -157.329
L274.059 -158.832
L280.859 -157.329
L274.059 -155.827" id="C1_7_daae45521a"/>
     <path d="
M427.049 -221.933
L438.948 -232.45
L427.049 -242.967
L415.15 -232.45
L427.049 -221.933
M427.049 -226.44
L420.25 -232.45
L427.049 -238.46
L433.849 -232.45
L427.049 -226.44" id="C1_8_7068cc0f1d"/>
     <path d="
M393.051 -358.653
L410.05 -363.16
L420.25 -367.668
L410.05 -376.682
L393.051 -376.682
L387.952 -367.668
L393.051 -358.653
M393.051 -363.16
L390.502 -367.668
L393.051 -372.175
L410.05 -372.175
L415.15 -367.668
L410.05 -365.414
L393.051 -363.16" id="C1_9_14a54f4fb8"/>
    </defs>
    <g clip-path="url(#p148d6a6e19)">
     <use style="fill:#363636;" x="0.0" xlink:href="#C1_0_4dac49884f" y="432.0"/>
    </g>
    <g clip-path="url(#p148d6a6e19)">
     <use style="fill:#363636;" x="0.0" xlink:href="#C1_1_29524e8c45" y="432.0"/>
    </g>
    <g clip-path="url(#p148d6a6e19)">
     <use style="fill:#363636;" x="0.0" xlink:href="#C1_2_a47dcbe482" y="432.0"/>
    </g>
    <g clip-path="url(#p148d6a6e19)">
     <use style="fill:#363636;" x="0.0" xlink:href="#C1_3_e7cf600cf1" y="432.0"/>
    </g>
    <g clip-path="url(#p148d6a6e19)">
     <use style="fill:#363636;" x="0.0" xlink:href="#C1_4_cb7b383d8e" y="432.0"/>
    </g>
    <g clip-path="url(#p148d6a6e19)">
     <use style="fill:#363636;" x="0.0" xlink:href="#C1_5_9e10fc3435" y="432.0"/>
    </g>
    <g clip-path="url(#p148d6a6e19)">
     <use style="fill:#363636;" x="0.0" xlink:href="#C1_6_3e143ed0b0" y="432.0"/>
    </g>
    <g clip-path="url(#p148d6a6e19)">
     <use style="fill:#363636;" x="0.0" xlink:href="#C1_7_daae45521a" y="432.0"/>
    </g>
    <g clip-path="url(#p148d6a6e19)">
     <use style="fill:#363636;" x="0.0" xlink:href="#C1_8_7068cc0f1d" y="432.0"/>
    </g>
    <g clip-path="url(#p148d6a6e19)">
     <use style="fill:#363636;" x="0.0" xlink:href="#C1_9_14a54f4fb8" y="432.0"/>
    </g>
   </g>
   <g id="PathCollection_3">
    <defs>
     <path d="
M99.8209 -52.16
L104.071 -52.16
L108.32 -52.16
L104.071 -59.6721
L101.946 -67.1842
L98.4044 -82.2083
L104.071 -84.0864
L119.936 -97.2325
L121.07 -98.2341
L136.935 -112.257
L138.068 -113.258
L155.067 -116.764
L166.966 -127.281
L172.066 -131.788
L183.965 -142.305
L189.065 -146.812
L200.964 -157.329
L206.064 -161.836
L217.963 -172.353
L223.063 -176.861
L234.962 -187.377
L240.062 -194.89
L248.561 -202.402
L257.06 -206.909
L274.059 -215.923
L280.859 -217.426
L289.925 -232.45
L280.859 -247.474
L291.058 -248.476
L308.057 -248.476
L325.056 -254.235
L342.055 -251.981
L353.954 -262.498
L359.054 -267.006
L376.052 -271.513
L393.051 -271.513
L399.851 -277.522
L404.951 -292.547
L410.05 -297.054
L420.25 -292.547
L427.049 -286.537
L433.849 -292.547
L444.048 -297.054
L459.914 -307.571
L444.048 -318.088
L432.149 -307.571
L427.049 -298.556
L421.949 -307.571
L421.949 -322.595
L427.049 -327.102
L444.048 -331.61
L457.647 -337.619
L455.947 -352.643
L461.047 -357.151
L461.047 -359.404
L453.397 -352.643
L447.448 -337.619
L444.048 -336.117
L427.049 -329.356
L419.4 -322.595
L419.4 -307.571
L410.05 -299.308
L402.401 -292.547
L394.751 -277.522
L393.051 -276.02
L376.052 -276.02
L359.054 -269.259
L351.404 -262.498
L342.055 -254.235
L325.056 -257.615
L308.057 -251.481
L291.058 -251.481
L274.059 -252.733
L260.248 -262.498
L274.059 -267.381
L291.058 -270.762
L306.357 -277.522
L308.057 -279.025
L325.056 -289.917
L336.955 -292.547
L332.705 -307.571
L342.055 -315.834
L351.404 -307.571
L347.154 -292.547
L359.054 -289.917
L362.028 -292.547
L374.353 -307.571
L376.052 -309.073
L391.351 -322.595
L393.051 -324.097
L408.35 -337.619
L393.051 -351.141
L391.351 -352.643
L393.051 -354.146
L410.05 -360.907
L425.349 -367.668
L410.05 -381.189
L393.051 -381.189
L385.402 -367.668
L376.052 -359.404
L364.578 -352.643
L359.054 -347.76
L353.529 -352.643
L342.055 -366.165
L325.056 -357.902
L319.531 -367.668
L325.056 -372.55
L340.355 -382.692
L342.055 -384.194
L347.154 -382.692
L359.054 -377.433
L370.953 -382.692
L374.353 -397.716
L376.052 -399.218
L377.752 -397.716
L393.051 -384.194
L410.05 -384.194
L427.049 -390.955
L436.398 -382.692
L444.048 -375.931
L461.047 -378.685
L461.047 -381.69
L444.048 -378.184
L438.948 -382.692
L444.048 -391.706
L457.647 -397.716
L444.048 -403.726
L437.248 -397.716
L427.049 -393.209
L410.05 -388.701
L393.051 -388.701
L382.852 -397.716
L376.052 -403.726
L369.253 -397.716
L359.054 -384.194
L342.055 -388.701
L335.255 -382.692
L325.056 -375.931
L315.707 -367.668
L323.356 -352.643
L325.056 -351.141
L326.756 -352.643
L342.055 -361.658
L349.704 -352.643
L359.054 -344.38
L368.403 -352.643
L376.052 -357.151
L386.252 -352.643
L393.051 -346.634
L403.251 -337.619
L393.051 -328.605
L386.252 -322.595
L376.052 -313.58
L369.253 -307.571
L359.054 -294.049
L353.954 -307.571
L342.055 -318.088
L326.756 -322.595
L325.056 -324.097
L318.256 -322.595
L325.056 -321.093
L330.156 -307.571
L325.056 -294.049
L323.356 -292.547
L308.057 -283.532
L301.257 -277.522
L291.058 -273.015
L274.059 -270.762
L257.06 -270.01
L252.811 -262.498
L257.06 -258.742
L272.359 -247.474
L257.06 -236.206
L248.561 -232.45
L240.062 -230.572
L228.162 -217.426
L223.063 -211.416
L206.064 -214.421
L189.065 -203.904
L187.365 -202.402
L173.199 -187.377
L172.066 -184.373
L165.267 -172.353
L158.953 -157.329
L155.067 -145.31
L153.367 -142.305
L138.068 -137.798
L121.07 -140.803
L107.161 -127.281
L109.17 -112.257
L104.071 -107.749
L89.7916 -97.2325
L87.0718 -91.2228
L70.0729 -95.7301
L53.0741 -95.7301
L53.0741 -91.2228
L70.0729 -91.2228
L87.0718 -84.462
L92.8514 -97.2325
L104.071 -105.496
L111.72 -112.257
L111.797 -127.281
L121.07 -136.295
L138.068 -135.544
L155.067 -139.676
L158.042 -142.305
L163.324 -157.329
L170.366 -172.353
L172.066 -175.358
L176.599 -187.377
L189.065 -199.772
L200.964 -202.402
L206.064 -205.406
L223.063 -208.411
L230.712 -217.426
L240.062 -227.755
L257.06 -231.198
L258.477 -232.45
L274.059 -244.845
L286.525 -232.45
L274.059 -220.055
L271.085 -217.426
L257.06 -209.163
L244.311 -202.402
L240.062 -198.646
L232.412 -187.377
L223.063 -179.114
L215.413 -172.353
L206.064 -164.09
L198.414 -157.329
L189.065 -149.066
L181.415 -142.305
L172.066 -134.042
L164.417 -127.281
L155.067 -119.018
L138.068 -116.263
L133.535 -112.257
L121.07 -101.239
L116.536 -97.2325
L104.071 -86.9034
L89.9049 -82.2083
L98.7585 -67.1842
L87.0718 -58.9209
L70.0729 -56.1664
L53.0741 -56.1664
L53.0741 -53.1616
L70.0729 -53.1616
L87.0718 -56.6672
L99.8209 -52.16
M427.049 -291.044
L425.349 -292.547
L427.049 -294.049
L428.749 -292.547
L427.049 -291.044
M444.048 -299.308
L434.699 -307.571
L444.048 -315.834
L456.514 -307.571
L444.048 -299.308
M393.051 -358.653
L387.952 -367.668
L393.051 -376.682
L410.05 -376.682
L420.25 -367.668
L410.05 -363.16
L393.051 -358.653
M444.048 -396.213
L442.348 -397.716
L444.048 -399.218
L447.448 -397.716
L444.048 -396.213" id="C2_0_c372a2b906"/>
     <path d="
M427.049 -61.1745
L433.849 -67.1842
L427.049 -73.1938
L420.25 -67.1842
L427.049 -61.1745
M427.049 -65.6817
L425.349 -67.1842
L427.049 -68.6866
L428.749 -67.1842
L427.049 -65.6817" id="C2_1_3a7e962db2"/>
     <path d="
M444.048 -76.1987
L450.847 -82.2083
L444.048 -88.218
L437.248 -82.2083
L444.048 -76.1987
M444.048 -80.7059
L442.348 -82.2083
L444.048 -83.7107
L445.748 -82.2083
L444.048 -80.7059" id="C2_2_d3852cc4b3"/>
     <path d="
M342.055 -91.2228
L348.854 -97.2325
L342.055 -103.242
L335.255 -97.2325
L342.055 -91.2228
M342.055 -95.7301
L340.355 -97.2325
L342.055 -98.7349
L343.755 -97.2325
L342.055 -95.7301" id="C2_3_6e519171ca"/>
     <path d="
M359.054 -110.754
L360.754 -112.257
L359.054 -113.759
L357.354 -112.257
L359.054 -110.754" id="C2_4_2e2ffd276c"/>
     <path d="
M410.05 -106.247
L416.85 -112.257
L410.05 -118.266
L403.251 -112.257
L410.05 -106.247
M410.05 -110.754
L408.35 -112.257
L410.05 -113.759
L411.75 -112.257
L410.05 -110.754" id="C2_5_7b3315e01a"/>
     <path d="
M376.052 -121.271
L382.852 -127.281
L376.052 -133.29
L369.253 -127.281
L376.052 -121.271
M376.052 -125.778
L374.353 -127.281
L376.052 -128.783
L377.752 -127.281
L376.052 -125.778" id="C2_6_5fe7c3b93b"/>
     <path d="
M393.051 -136.295
L399.851 -142.305
L393.051 -148.315
L386.252 -142.305
L393.051 -136.295
M393.051 -140.803
L391.351 -142.305
L393.051 -143.807
L394.751 -142.305
L393.051 -140.803" id="C2_7_5251500234"/>
     <path d="
M274.059 -155.827
L280.859 -157.329
L274.059 -158.832
L272.359 -157.329
L274.059 -155.827" id="C2_8_9d043a4f93"/>
     <path d="
M376.052 -151.319
L382.852 -157.329
L376.052 -163.339
L369.253 -157.329
L376.052 -151.319
M376.052 -155.827
L374.353 -157.329
L376.052 -158.832
L377.752 -157.329
L376.052 -155.827" id="C2_9_7eb571739b"/>
     <path d="
M393.051 -166.344
L410.05 -166.344
L427.049 -166.344
L444.048 -166.344
L450.847 -172.353
L444.048 -178.363
L427.049 -178.363
L410.05 -178.363
L393.051 -178.363
L386.252 -172.353
L393.051 -166.344
M393.051 -170.851
L391.351 -172.353
L393.051 -173.856
L410.05 -173.856
L427.049 -173.856
L444.048 -173.856
L445.748 -172.353
L444.048 -170.851
L427.049 -170.851
L410.05 -170.851
L393.051 -170.851" id="C2_a_c2f64e1ae0"/>
     <path d="
M427.049 -226.44
L433.849 -232.45
L427.049 -238.46
L420.25 -232.45
L427.049 -226.44
M427.049 -230.948
L425.349 -232.45
L427.049 -233.952
L428.749 -232.45
L427.049 -230.948" id="C2_b_255d873d65"/>
     <path d="
M274.059 -291.044
L275.759 -292.547
L291.058 -301.561
L297.858 -307.571
L291.058 -313.58
L274.059 -309.073
L272.359 -307.571
L272.359 -292.547
L274.059 -291.044
M291.058 -306.068
L285.959 -307.571
L291.058 -309.073
L292.758 -307.571
L291.058 -306.068" id="C2_c_97b900d7da"/>
     <path d="
M393.051 -406.73
L399.851 -412.74
L394.751 -412.74
L393.051 -411.238
L391.351 -412.74
L386.252 -412.74
L393.051 -406.73" id="C2_d_acdc0574e1"/>
    </defs>
    <g clip-path="url(#p148d6a6e19)">
     <use style="fill:#5b5b5b;" x="0.0" xlink:href="#C2_0_c372a2b906" y="432.0"/>
    </g>
    <g clip-path="url(#p148d6a6e19)">
     <use style="fill:#5b5b5b;" x="0.0" xlink:href="#C2_1_3a7e962db2" y="432.0"/>
    </g>
    <g clip-path="url(#p148d6a6e19)">
     <use style="fill:#5b5b5b;" x="0.0" xlink:href="#C2_2_d3852cc4b3" y="432.0"/>
    </g>
    <g clip-path="url(#p148d6a6e19)">
     <use style="fill:#5b5b5b;" x="0.0" xlink:href="#C2_3_6e519171ca" y="432.0"/>
    </g>
    <g clip-path="url(#p148d6a6e19)">
     <use style="fill:#5b5b5b;" x="0.0" xlink:href="#C2_4_2e2ffd276c" y="432.0"/>
    </g>
    <g clip-path="url(#p148d6a6e19)">
     <use style="fill:#5b5b5b;" x="0.0" xlink:href="#C2_5_7b3315e01a" y="432.0"/>
    </g>
    <g clip-path="url(#p148d6a6e19)">
     <use style="fill:#5b5b5b;" x="0.0" xlink:href="#C2_6_5fe7c3b93b" y="432.0"/>
    </g>
    <g clip-path="url(#p148d6a6e19)">
     <use style="fill:#5b5b5b;" x="0.0" xlink:href="#C2_7_5251500234" y="432.0"/>
    </g>
    <g clip-path="url(#p148d6a6e19)">
     <use style="fill:#5b5b5b;" x="0.0" xlink:href="#C2_8_9d043a4f93" y="432.0"/>
    </g>
    <g clip-path="url(#p148d6a6e19)">
     <use style="fill:#5b5b5b;" x="0.0" xlink:href="#C2_9_7eb571739b" y="432.0"/>
    </g>
    <g clip-path="url(#p148d6a6e19)">
     <use style="fill:#5b5b5b;" x="0.0" xlink:href="#C2_a_c2f64e1ae0" y="432.0"/>
    </g>
    <g clip-path="url(#p148d6a6e19)">
     <use style="fill:#5b5b5b;" x="0.0" xlink:href="#C2_b_255d873d65" y="432.0"/>
    </g>
    <g clip-path="url(#p148d6a6e19)">
     <use style="fill:#5b5b5b;" x="0.0" xlink:href="#C2_c_97b900d7da" y="432.0"/>
    </g>
    <g clip-path="url(#p148d6a6e19)">
     <use style="fill:#5b5b5b;" x="0.0" xlink:href="#C2_d_acdc0574e1" y="432.0"/>
    </g>
   </g>
   <g id="PathCollection_4">
    <defs>
     <path d="
M53.0741 -59.1713
L53.0741 -56.1664
L70.0729 -56.1664
L87.0718 -58.9209
L98.7585 -67.1842
L89.9049 -82.2083
L104.071 -86.9034
L116.536 -97.2325
L121.07 -101.239
L133.535 -112.257
L138.068 -116.263
L155.067 -119.018
L164.417 -127.281
L172.066 -134.042
L181.415 -142.305
L189.065 -149.066
L198.414 -157.329
L206.064 -164.09
L215.413 -172.353
L223.063 -179.114
L232.412 -187.377
L240.062 -198.646
L244.311 -202.402
L257.06 -209.163
L271.085 -217.426
L274.059 -220.055
L286.525 -232.45
L274.059 -244.845
L258.477 -232.45
L257.06 -231.198
L240.062 -227.755
L230.712 -217.426
L223.063 -208.411
L206.064 -205.406
L200.964 -202.402
L189.065 -199.772
L176.599 -187.377
L172.066 -175.358
L170.366 -172.353
L163.324 -157.329
L158.042 -142.305
L155.067 -139.676
L138.068 -135.544
L121.07 -136.295
L111.797 -127.281
L111.72 -112.257
L104.071 -105.496
L92.8514 -97.2325
L87.0718 -84.462
L70.0729 -91.2228
L53.0741 -91.2228
L53.0741 -86.7156
L70.0729 -86.7156
L80.2722 -82.2083
L87.0718 -79.2035
L95.5712 -67.1842
L87.0718 -61.1745
L70.0729 -59.1713
L53.0741 -59.1713
M104.071 -89.7204
L95.9112 -97.2325
L104.071 -103.242
L113.137 -97.2325
L104.071 -89.7204
M121.07 -104.244
L114.27 -112.257
L116.433 -127.281
L121.07 -131.788
L138.068 -133.29
L155.067 -136.295
L161.867 -127.281
L155.067 -121.271
L138.068 -119.268
L130.136 -112.257
L121.07 -104.244
M172.066 -136.295
L161.867 -142.305
L167.695 -157.329
L172.066 -166.344
L175.466 -172.353
L179.999 -187.377
L189.065 -196.392
L206.064 -196.392
L212.863 -202.402
L223.063 -205.406
L240.062 -202.402
L229.862 -187.377
L223.063 -181.368
L212.863 -172.353
L206.064 -166.344
L195.865 -157.329
L189.065 -151.319
L178.866 -142.305
L172.066 -136.295
M240.062 -202.402
L233.262 -217.426
L240.062 -224.938
L257.06 -227.442
L262.727 -232.45
L274.059 -241.464
L283.125 -232.45
L274.059 -223.435
L267.26 -217.426
L257.06 -211.416
L240.062 -202.402" id="C3_0_b1b1854761"/>
     <path d="
M427.049 -65.6817
L428.749 -67.1842
L427.049 -68.6866
L425.349 -67.1842
L427.049 -65.6817" id="C3_1_82ca97c53f"/>
     <path d="
M444.048 -80.7059
L445.748 -82.2083
L444.048 -83.7107
L442.348 -82.2083
L444.048 -80.7059" id="C3_2_b07e0338b5"/>
     <path d="
M342.055 -95.7301
L343.755 -97.2325
L342.055 -98.7349
L340.355 -97.2325
L342.055 -95.7301" id="C3_3_217032ae65"/>
     <path d="
M410.05 -110.754
L411.75 -112.257
L410.05 -113.759
L408.35 -112.257
L410.05 -110.754" id="C3_4_7ca0587e75"/>
     <path d="
M376.052 -125.778
L377.752 -127.281
L376.052 -128.783
L374.353 -127.281
L376.052 -125.778" id="C3_5_302d48fe98"/>
     <path d="
M393.051 -140.803
L394.751 -142.305
L393.051 -143.807
L391.351 -142.305
L393.051 -140.803" id="C3_6_0969878b59"/>
     <path d="
M376.052 -155.827
L377.752 -157.329
L376.052 -158.832
L374.353 -157.329
L376.052 -155.827" id="C3_7_b414a0a774"/>
     <path d="
M393.051 -170.851
L410.05 -170.851
L427.049 -170.851
L444.048 -170.851
L445.748 -172.353
L444.048 -173.856
L427.049 -173.856
L410.05 -173.856
L393.051 -173.856
L391.351 -172.353
L393.051 -170.851" id="C3_8_8cf56a83bd"/>
     <path d="
M427.049 -230.948
L428.749 -232.45
L427.049 -233.952
L425.349 -232.45
L427.049 -230.948" id="C3_9_53af5a7936"/>
     <path d="
M274.059 -252.733
L291.058 -251.481
L308.057 -251.481
L325.056 -257.615
L342.055 -254.235
L351.404 -262.498
L359.054 -269.259
L376.052 -276.02
L393.051 -276.02
L394.751 -277.522
L402.401 -292.547
L410.05 -299.308
L419.4 -307.571
L419.4 -322.595
L427.049 -329.356
L444.048 -336.117
L447.448 -337.619
L453.397 -352.643
L461.047 -359.404
L461.047 -361.658
L450.847 -352.643
L444.048 -340.624
L440.648 -337.619
L427.049 -331.61
L416.85 -322.595
L416.85 -307.571
L410.05 -301.561
L399.851 -292.547
L393.051 -280.527
L376.052 -280.527
L372.653 -277.522
L359.054 -271.513
L348.854 -262.498
L342.055 -256.489
L325.056 -260.996
L308.057 -254.485
L291.058 -254.485
L274.059 -259.493
L269.81 -262.498
L274.059 -264.001
L291.058 -268.508
L308.057 -274.518
L311.457 -277.522
L325.056 -286.537
L342.055 -289.542
L359.054 -286.537
L365.853 -292.547
L376.052 -304.566
L393.051 -304.566
L396.451 -307.571
L396.451 -322.595
L410.05 -334.614
L413.45 -337.619
L410.05 -340.624
L396.451 -352.643
L410.05 -358.653
L423.649 -352.643
L427.049 -349.639
L430.449 -352.643
L430.449 -367.668
L427.049 -370.672
L413.45 -382.692
L427.049 -388.701
L433.849 -382.692
L444.048 -373.677
L461.047 -375.68
L461.047 -378.685
L444.048 -375.931
L436.398 -382.692
L427.049 -390.955
L410.05 -384.194
L393.051 -384.194
L377.752 -397.716
L376.052 -399.218
L374.353 -397.716
L370.953 -382.692
L359.054 -377.433
L347.154 -382.692
L342.055 -384.194
L340.355 -382.692
L325.056 -372.55
L319.531 -367.668
L325.056 -357.902
L342.055 -366.165
L353.529 -352.643
L359.054 -347.76
L364.578 -352.643
L376.052 -359.404
L385.402 -367.668
L393.051 -381.189
L410.05 -381.189
L425.349 -367.668
L410.05 -360.907
L393.051 -354.146
L391.351 -352.643
L393.051 -351.141
L408.35 -337.619
L393.051 -324.097
L391.351 -322.595
L376.052 -309.073
L374.353 -307.571
L362.028 -292.547
L359.054 -289.917
L347.154 -292.547
L351.404 -307.571
L342.055 -315.834
L332.705 -307.571
L336.955 -292.547
L325.056 -289.917
L308.057 -279.025
L306.357 -277.522
L291.058 -270.762
L274.059 -267.381
L260.248 -262.498
L274.059 -252.733
M342.055 -295.551
L335.255 -307.571
L342.055 -313.58
L348.854 -307.571
L342.055 -295.551
M325.056 -364.663
L323.356 -367.668
L325.056 -369.17
L331.855 -367.668
L325.056 -364.663
M359.054 -351.141
L357.354 -352.643
L352.254 -367.668
L359.054 -370.672
L376.052 -379.687
L382.852 -367.668
L376.052 -361.658
L360.754 -352.643
L359.054 -351.141" id="C3_a_b5589a4488"/>
     <path d="
M427.049 -291.044
L428.749 -292.547
L427.049 -294.049
L425.349 -292.547
L427.049 -291.044" id="C3_b_5b0ec80e43"/>
     <path d="
M291.058 -306.068
L292.758 -307.571
L291.058 -309.073
L285.959 -307.571
L291.058 -306.068" id="C3_c_7232514c66"/>
     <path d="
M444.048 -299.308
L456.514 -307.571
L444.048 -315.834
L434.699 -307.571
L444.048 -299.308
M444.048 -301.561
L437.248 -307.571
L444.048 -313.58
L453.114 -307.571
L444.048 -301.561" id="C3_d_dab70f8eaa"/>
     <path d="
M444.048 -396.213
L447.448 -397.716
L444.048 -399.218
L442.348 -397.716
L444.048 -396.213" id="C3_e_b9b4c20064"/>
     <path d="
M393.051 -411.238
L394.751 -412.74
L393.051 -412.74
L391.351 -412.74
L393.051 -411.238" id="C3_f_330d7b0131"/>
    </defs>
    <g clip-path="url(#p148d6a6e19)">
     <use style="fill:#808080;" x="0.0" xlink:href="#C3_0_b1b1854761" y="432.0"/>
    </g>
    <g clip-path="url(#p148d6a6e19)">
     <use style="fill:#808080;" x="0.0" xlink:href="#C3_1_82ca97c53f" y="432.0"/>
    </g>
    <g clip-path="url(#p148d6a6e19)">
     <use style="fill:#808080;" x="0.0" xlink:href="#C3_2_b07e0338b5" y="432.0"/>
    </g>
    <g clip-path="url(#p148d6a6e19)">
     <use style="fill:#808080;" x="0.0" xlink:href="#C3_3_217032ae65" y="432.0"/>
    </g>
    <g clip-path="url(#p148d6a6e19)">
     <use style="fill:#808080;" x="0.0" xlink:href="#C3_4_7ca0587e75" y="432.0"/>
    </g>
    <g clip-path="url(#p148d6a6e19)">
     <use style="fill:#808080;" x="0.0" xlink:href="#C3_5_302d48fe98" y="432.0"/>
    </g>
    <g clip-path="url(#p148d6a6e19)">
     <use style="fill:#808080;" x="0.0" xlink:href="#C3_6_0969878b59" y="432.0"/>
    </g>
    <g clip-path="url(#p148d6a6e19)">
     <use style="fill:#808080;" x="0.0" xlink:href="#C3_7_b414a0a774" y="432.0"/>
    </g>
    <g clip-path="url(#p148d6a6e19)">
     <use style="fill:#808080;" x="0.0" xlink:href="#C3_8_8cf56a83bd" y="432.0"/>
    </g>
    <g clip-path="url(#p148d6a6e19)">
     <use style="fill:#808080;" x="0.0" xlink:href="#C3_9_53af5a7936" y="432.0"/>
    </g>
    <g clip-path="url(#p148d6a6e19)">
     <use style="fill:#808080;" x="0.0" xlink:href="#C3_a_b5589a4488" y="432.0"/>
    </g>
    <g clip-path="url(#p148d6a6e19)">
     <use style="fill:#808080;" x="0.0" xlink:href="#C3_b_5b0ec80e43" y="432.0"/>
    </g>
    <g clip-path="url(#p148d6a6e19)">
     <use style="fill:#808080;" x="0.0" xlink:href="#C3_c_7232514c66" y="432.0"/>
    </g>
    <g clip-path="url(#p148d6a6e19)">
     <use style="fill:#808080;" x="0.0" xlink:href="#C3_d_dab70f8eaa" y="432.0"/>
    </g>
    <g clip-path="url(#p148d6a6e19)">
     <use style="fill:#808080;" x="0.0" xlink:href="#C3_e_b9b4c20064" y="432.0"/>
    </g>
    <g clip-path="url(#p148d6a6e19)">
     <use style="fill:#808080;" x="0.0" xlink:href="#C3_f_330d7b0131" y="432.0"/>
    </g>
   </g>
   <g id="PathCollection_5">
    <defs>
     <path d="
M53.0741 -62.1761
L53.0741 -59.1713
L70.0729 -59.1713
L87.0718 -61.1745
L95.5712 -67.1842
L87.0718 -79.2035
L80.2722 -82.2083
L70.0729 -86.7156
L53.0741 -86.7156
L53.0741 -82.2083
L53.0741 -82.2083
L70.0729 -82.2083
L87.0718 -74.6962
L92.3839 -67.1842
L87.0718 -63.4281
L70.0729 -62.1761
L53.0741 -62.1761" id="C4_0_d910db5bf3"/>
     <path d="
M104.071 -89.7204
L113.137 -97.2325
L104.071 -103.242
L95.9112 -97.2325
L104.071 -89.7204
M104.071 -92.5374
L98.971 -97.2325
L104.071 -100.989
L109.737 -97.2325
L104.071 -92.5374" id="C4_1_c3606f1b9a"/>
     <path d="
M121.07 -104.244
L130.136 -112.257
L138.068 -119.268
L155.067 -121.271
L161.867 -127.281
L155.067 -136.295
L138.068 -133.29
L121.07 -131.788
L116.433 -127.281
L114.27 -112.257
L121.07 -104.244
M138.068 -122.273
L121.07 -127.281
L138.068 -131.037
L155.067 -132.915
L159.317 -127.281
L155.067 -123.525
L138.068 -122.273
M121.07 -107.249
L116.82 -112.257
L121.07 -127.281
L126.736 -112.257
L121.07 -107.249" id="C4_2_9622d5d6b6"/>
     <path d="
M172.066 -136.295
L178.866 -142.305
L189.065 -151.319
L195.865 -157.329
L206.064 -166.344
L212.863 -172.353
L223.063 -181.368
L229.862 -187.377
L240.062 -202.402
L223.063 -205.406
L212.863 -202.402
L206.064 -196.392
L189.065 -196.392
L179.999 -187.377
L175.466 -172.353
L172.066 -166.344
L167.695 -157.329
L161.867 -142.305
L172.066 -136.295
M189.065 -153.573
L172.066 -157.329
L180.566 -172.353
L183.399 -187.377
L189.065 -193.012
L206.064 -187.377
L206.064 -187.377
L210.314 -172.353
L206.064 -168.597
L193.315 -157.329
L189.065 -153.573
M223.063 -183.621
L206.064 -187.377
L223.063 -202.402
L227.312 -187.377
L223.063 -183.621
M172.066 -138.549
L165.692 -142.305
L172.066 -157.329
L176.316 -142.305
L172.066 -138.549" id="C4_3_44db7fe139"/>
     <path d="
M240.062 -202.402
L257.06 -211.416
L267.26 -217.426
L274.059 -223.435
L283.125 -232.45
L274.059 -241.464
L262.727 -232.45
L257.06 -227.442
L240.062 -224.938
L233.262 -217.426
L240.062 -202.402
M274.059 -226.816
L266.976 -232.45
L274.059 -238.084
L279.726 -232.45
L274.059 -226.816
M240.062 -208.036
L235.812 -217.426
L240.062 -222.121
L257.06 -223.686
L263.435 -217.426
L257.06 -213.67
L240.062 -208.036" id="C4_4_8e4da95269"/>
     <path d="
M274.059 -259.493
L291.058 -254.485
L308.057 -254.485
L325.056 -260.996
L342.055 -256.489
L348.854 -262.498
L359.054 -271.513
L372.653 -277.522
L376.052 -280.527
L393.051 -280.527
L399.851 -292.547
L410.05 -301.561
L416.85 -307.571
L416.85 -322.595
L427.049 -331.61
L440.648 -337.619
L444.048 -340.624
L450.847 -352.643
L461.047 -361.658
L461.047 -363.911
L448.298 -352.643
L444.048 -345.131
L435.549 -352.643
L435.549 -367.668
L444.048 -371.424
L461.047 -372.676
L461.047 -375.68
L444.048 -373.677
L433.849 -382.692
L427.049 -388.701
L413.45 -382.692
L427.049 -370.672
L430.449 -367.668
L430.449 -352.643
L427.049 -349.639
L423.649 -352.643
L410.05 -358.653
L396.451 -352.643
L410.05 -340.624
L413.45 -337.619
L410.05 -334.614
L396.451 -322.595
L396.451 -307.571
L393.051 -304.566
L376.052 -304.566
L365.853 -292.547
L359.054 -286.537
L342.055 -289.542
L325.056 -286.537
L311.457 -277.522
L308.057 -274.518
L291.058 -268.508
L274.059 -264.001
L269.81 -262.498
L274.059 -259.493
M291.058 -257.49
L278.309 -262.498
L291.058 -266.254
L308.057 -270.01
L316.556 -277.522
L325.056 -283.157
L342.055 -285.035
L359.054 -283.157
L367.553 -277.522
L359.054 -273.766
L346.304 -262.498
L342.055 -258.742
L329.306 -262.498
L325.056 -266.254
L320.806 -262.498
L308.057 -257.49
L291.058 -257.49
M376.052 -285.035
L369.678 -292.547
L376.052 -300.059
L393.051 -300.059
L397.301 -292.547
L393.051 -285.035
L376.052 -285.035
M410.05 -303.815
L401.551 -307.571
L401.551 -322.595
L410.05 -330.107
L414.3 -322.595
L414.3 -307.571
L410.05 -303.815
M427.049 -333.863
L418.55 -337.619
L427.049 -345.131
L435.549 -337.619
L427.049 -333.863
M427.049 -375.18
L418.55 -382.692
L427.049 -386.448
L431.299 -382.692
L427.049 -375.18
M410.05 -345.131
L401.551 -352.643
L410.05 -356.399
L418.55 -352.643
L410.05 -345.131" id="C4_5_fb27aeabd9"/>
     <path d="
M342.055 -295.551
L348.854 -307.571
L342.055 -313.58
L335.255 -307.571
L342.055 -295.551
M342.055 -300.059
L337.805 -307.571
L342.055 -311.327
L346.304 -307.571
L342.055 -300.059" id="C4_6_4656722a65"/>
     <path d="
M444.048 -301.561
L453.114 -307.571
L444.048 -313.58
L437.248 -307.571
L444.048 -301.561
M444.048 -303.815
L439.798 -307.571
L444.048 -311.327
L449.714 -307.571
L444.048 -303.815" id="C4_7_e9b2564520"/>
     <path d="
M359.054 -351.141
L360.754 -352.643
L376.052 -361.658
L382.852 -367.668
L376.052 -379.687
L359.054 -370.672
L352.254 -367.668
L357.354 -352.643
L359.054 -351.141
M376.052 -363.911
L363.303 -367.668
L376.052 -375.18
L380.302 -367.668
L376.052 -363.911" id="C4_8_23ecd3848e"/>
     <path d="
M325.056 -364.663
L331.855 -367.668
L325.056 -369.17
L323.356 -367.668
L325.056 -364.663" id="C4_9_c49a08f6d1"/>
    </defs>
    <g clip-path="url(#p148d6a6e19)">
     <use style="fill:#a4a4a4;" x="0.0" xlink:href="#C4_0_d910db5bf3" y="432.0"/>
    </g>
    <g clip-path="url(#p148d6a6e19)">
     <use style="fill:#a4a4a4;" x="0.0" xlink:href="#C4_1_c3606f1b9a" y="432.0"/>
    </g>
    <g clip-path="url(#p148d6a6e19)">
     <use style="fill:#a4a4a4;" x="0.0" xlink:href="#C4_2_9622d5d6b6" y="432.0"/>
    </g>
    <g clip-path="url(#p148d6a6e19)">
     <use style="fill:#a4a4a4;" x="0.0" xlink:href="#C4_3_44db7fe139" y="432.0"/>
    </g>
    <g clip-path="url(#p148d6a6e19)">
     <use style="fill:#a4a4a4;" x="0.0" xlink:href="#C4_4_8e4da95269" y="432.0"/>
    </g>
    <g clip-path="url(#p148d6a6e19)">
     <use style="fill:#a4a4a4;" x="0.0" xlink:href="#C4_5_fb27aeabd9" y="432.0"/>
    </g>
    <g clip-path="url(#p148d6a6e19)">
     <use style="fill:#a4a4a4;" x="0.0" xlink:href="#C4_6_4656722a65" y="432.0"/>
    </g>
    <g clip-path="url(#p148d6a6e19)">
     <use style="fill:#a4a4a4;" x="0.0" xlink:href="#C4_7_e9b2564520" y="432.0"/>
    </g>
    <g clip-path="url(#p148d6a6e19)">
     <use style="fill:#a4a4a4;" x="0.0" xlink:href="#C4_8_23ecd3848e" y="432.0"/>
    </g>
    <g clip-path="url(#p148d6a6e19)">
     <use style="fill:#a4a4a4;" x="0.0" xlink:href="#C4_9_c49a08f6d1" y="432.0"/>
    </g>
   </g>
   <g id="PathCollection_6">
    <defs>
     <path d="
M53.0741 -65.1809
L53.0741 -62.1761
L70.0729 -62.1761
L87.0718 -63.4281
L92.3839 -67.1842
L87.0718 -74.6962
L70.0729 -82.2083
L53.0741 -82.2083
L53.0741 -73.1938
L70.0729 -73.1938
L87.0718 -70.189
L89.1966 -67.1842
L87.0718 -65.6817
L70.0729 -65.1809
L53.0741 -65.1809" id="C5_0_3926ee241e"/>
     <path d="
M104.071 -92.5374
L109.737 -97.2325
L104.071 -100.989
L98.971 -97.2325
L104.071 -92.5374
M104.071 -95.3545
L102.031 -97.2325
L104.071 -98.7349
L106.337 -97.2325
L104.071 -95.3545" id="C5_1_57d73caeaf"/>
     <path d="
M121.07 -107.249
L126.736 -112.257
L121.07 -127.281
L116.82 -112.257
L121.07 -107.249
M121.07 -110.253
L119.37 -112.257
L121.07 -118.266
L123.336 -112.257
L121.07 -110.253" id="C5_2_dfd8aea042"/>
     <path d="
M138.068 -122.273
L155.067 -123.525
L159.317 -127.281
L155.067 -132.915
L138.068 -131.037
L121.07 -127.281
L138.068 -122.273
M138.068 -125.278
L131.269 -127.281
L138.068 -128.783
L155.067 -129.534
L156.767 -127.281
L155.067 -125.778
L138.068 -125.278" id="C5_3_59f1d9d249"/>
     <path d="
M172.066 -138.549
L176.316 -142.305
L172.066 -157.329
L165.692 -142.305
L172.066 -138.549
M172.066 -140.803
L169.516 -142.305
L172.066 -148.315
L173.766 -142.305
L172.066 -140.803" id="C5_4_ff8a5d1df8"/>
     <path d="
M189.065 -153.573
L193.315 -157.329
L206.064 -168.597
L210.314 -172.353
L206.064 -187.377
L206.064 -187.377
L189.065 -193.012
L183.399 -187.377
L180.566 -172.353
L172.066 -157.329
L189.065 -153.573
M189.065 -155.827
L182.265 -157.329
L185.665 -172.353
L186.798 -187.377
L189.065 -189.631
L195.865 -187.377
L206.064 -178.363
L207.764 -172.353
L206.064 -170.851
L190.765 -157.329
L189.065 -155.827" id="C5_5_e943daabd4"/>
     <path d="
M223.063 -183.621
L227.312 -187.377
L223.063 -202.402
L206.064 -187.377
L223.063 -183.621
M223.063 -185.875
L216.263 -187.377
L223.063 -193.387
L224.763 -187.377
L223.063 -185.875" id="C5_6_95aa73b8ec"/>
     <path d="
M240.062 -208.036
L257.06 -213.67
L263.435 -217.426
L257.06 -223.686
L240.062 -222.121
L235.812 -217.426
L240.062 -208.036
M240.062 -213.67
L238.362 -217.426
L240.062 -219.304
L257.06 -219.93
L259.61 -217.426
L257.06 -215.923
L240.062 -213.67" id="C5_7_8144d6bd06"/>
     <path d="
M274.059 -226.816
L279.726 -232.45
L274.059 -238.084
L266.976 -232.45
L274.059 -226.816
M274.059 -230.196
L271.226 -232.45
L274.059 -234.704
L276.326 -232.45
L274.059 -230.196" id="C5_8_66b031426a"/>
     <path d="
M291.058 -257.49
L308.057 -257.49
L320.806 -262.498
L325.056 -266.254
L329.306 -262.498
L342.055 -258.742
L346.304 -262.498
L359.054 -273.766
L367.553 -277.522
L359.054 -283.157
L342.055 -285.035
L325.056 -283.157
L316.556 -277.522
L308.057 -270.01
L291.058 -266.254
L278.309 -262.498
L291.058 -257.49
M342.055 -260.996
L336.955 -262.498
L325.056 -273.015
L321.656 -277.522
L325.056 -279.776
L342.055 -280.527
L359.054 -279.776
L362.453 -277.522
L359.054 -276.02
L343.755 -262.498
L342.055 -260.996
M291.058 -260.495
L285.959 -262.498
L291.058 -264.001
L308.057 -265.503
L313.157 -262.498
L308.057 -260.495
L291.058 -260.495" id="C5_9_ae683a4595"/>
     <path d="
M376.052 -285.035
L393.051 -285.035
L397.301 -292.547
L393.051 -300.059
L376.052 -300.059
L369.678 -292.547
L376.052 -285.035
M376.052 -289.542
L373.503 -292.547
L376.052 -295.551
L393.051 -295.551
L394.751 -292.547
L393.051 -289.542
L376.052 -289.542" id="C5_a_7731fc8f99"/>
     <path d="
M342.055 -300.059
L346.304 -307.571
L342.055 -311.327
L337.805 -307.571
L342.055 -300.059
M342.055 -304.566
L340.355 -307.571
L342.055 -309.073
L343.755 -307.571
L342.055 -304.566" id="C5_b_bcd658c9f6"/>
     <path d="
M410.05 -303.815
L414.3 -307.571
L414.3 -322.595
L410.05 -330.107
L401.551 -322.595
L401.551 -307.571
L410.05 -303.815
M410.05 -306.068
L406.65 -307.571
L406.65 -322.595
L410.05 -325.6
L411.75 -322.595
L411.75 -307.571
L410.05 -306.068" id="C5_c_1a9df1fd69"/>
     <path d="
M444.048 -303.815
L449.714 -307.571
L444.048 -311.327
L439.798 -307.571
L444.048 -303.815
M444.048 -306.068
L442.348 -307.571
L444.048 -309.073
L446.314 -307.571
L444.048 -306.068" id="C5_d_ce9af9c11c"/>
     <path d="
M427.049 -333.863
L435.549 -337.619
L427.049 -345.131
L418.55 -337.619
L427.049 -333.863
M427.049 -336.117
L423.649 -337.619
L427.049 -340.624
L430.449 -337.619
L427.049 -336.117" id="C5_e_d484b89d41"/>
     <path d="
M410.05 -345.131
L418.55 -352.643
L410.05 -356.399
L401.551 -352.643
L410.05 -345.131
M410.05 -349.639
L406.65 -352.643
L410.05 -354.146
L413.45 -352.643
L410.05 -349.639" id="C5_f_d91244296e"/>
     <path d="
M444.048 -345.131
L448.298 -352.643
L461.047 -363.911
L461.047 -366.165
L445.748 -352.643
L444.048 -349.639
L440.648 -352.643
L440.648 -367.668
L444.048 -369.17
L461.047 -369.671
L461.047 -372.676
L444.048 -371.424
L435.549 -367.668
L435.549 -352.643
L444.048 -345.131" id="C5_10_543f4b9419"/>
     <path d="
M376.052 -363.911
L380.302 -367.668
L376.052 -375.18
L363.303 -367.668
L376.052 -363.911
M376.052 -366.165
L370.953 -367.668
L376.052 -370.672
L377.752 -367.668
L376.052 -366.165" id="C5_11_e4106ae365"/>
     <path d="
M427.049 -375.18
L431.299 -382.692
L427.049 -386.448
L418.55 -382.692
L427.049 -375.18
M427.049 -379.687
L423.649 -382.692
L427.049 -384.194
L428.749 -382.692
L427.049 -379.687" id="C5_12_fce79cb400"/>
    </defs>
    <g clip-path="url(#p148d6a6e19)">
     <use style="fill:#c9c9c9;" x="0.0" xlink:href="#C5_0_3926ee241e" y="432.0"/>
    </g>
    <g clip-path="url(#p148d6a6e19)">
     <use style="fill:#c9c9c9;" x="0.0" xlink:href="#C5_1_57d73caeaf" y="432.0"/>
    </g>
    <g clip-path="url(#p148d6a6e19)">
     <use style="fill:#c9c9c9;" x="0.0" xlink:href="#C5_2_dfd8aea042" y="432.0"/>
    </g>
    <g clip-path="url(#p148d6a6e19)">
     <use style="fill:#c9c9c9;" x="0.0" xlink:href="#C5_3_59f1d9d249" y="432.0"/>
    </g>
    <g clip-path="url(#p148d6a6e19)">
     <use style="fill:#c9c9c9;" x="0.0" xlink:href="#C5_4_ff8a5d1df8" y="432.0"/>
    </g>
    <g clip-path="url(#p148d6a6e19)">
     <use style="fill:#c9c9c9;" x="0.0" xlink:href="#C5_5_e943daabd4" y="432.0"/>
    </g>
    <g clip-path="url(#p148d6a6e19)">
     <use style="fill:#c9c9c9;" x="0.0" xlink:href="#C5_6_95aa73b8ec" y="432.0"/>
    </g>
    <g clip-path="url(#p148d6a6e19)">
     <use style="fill:#c9c9c9;" x="0.0" xlink:href="#C5_7_8144d6bd06" y="432.0"/>
    </g>
    <g clip-path="url(#p148d6a6e19)">
     <use style="fill:#c9c9c9;" x="0.0" xlink:href="#C5_8_66b031426a" y="432.0"/>
    </g>
    <g clip-path="url(#p148d6a6e19)">
     <use style="fill:#c9c9c9;" x="0.0" xlink:href="#C5_9_ae683a4595" y="432.0"/>
    </g>
    <g clip-path="url(#p148d6a6e19)">
     <use style="fill:#c9c9c9;" x="0.0" xlink:href="#C5_a_7731fc8f99" y="432.0"/>
    </g>
    <g clip-path="url(#p148d6a6e19)">
     <use style="fill:#c9c9c9;" x="0.0" xlink:href="#C5_b_bcd658c9f6" y="432.0"/>
    </g>
    <g clip-path="url(#p148d6a6e19)">
     <use style="fill:#c9c9c9;" x="0.0" xlink:href="#C5_c_1a9df1fd69" y="432.0"/>
    </g>
    <g clip-path="url(#p148d6a6e19)">
     <use style="fill:#c9c9c9;" x="0.0" xlink:href="#C5_d_ce9af9c11c" y="432.0"/>
    </g>
    <g clip-path="url(#p148d6a6e19)">
     <use style="fill:#c9c9c9;" x="0.0" xlink:href="#C5_e_d484b89d41" y="432.0"/>
    </g>
    <g clip-path="url(#p148d6a6e19)">
     <use style="fill:#c9c9c9;" x="0.0" xlink:href="#C5_f_d91244296e" y="432.0"/>
    </g>
    <g clip-path="url(#p148d6a6e19)">
     <use style="fill:#c9c9c9;" x="0.0" xlink:href="#C5_10_543f4b9419" y="432.0"/>
    </g>
    <g clip-path="url(#p148d6a6e19)">
     <use style="fill:#c9c9c9;" x="0.0" xlink:href="#C5_11_e4106ae365" y="432.0"/>
    </g>
    <g clip-path="url(#p148d6a6e19)">
     <use style="fill:#c9c9c9;" x="0.0" xlink:href="#C5_12_fce79cb400" y="432.0"/>
    </g>
   </g>
   <g id="PathCollection_7">
    <defs>
     <path d="
M53.0741 -67.1842
L53.0741 -65.1809
L70.0729 -65.1809
L87.0718 -65.6817
L89.1966 -67.1842
L87.0718 -70.189
L70.0729 -73.1938
L53.0741 -73.1938
L53.0741 -67.1842" id="C6_0_bdd0fb5b5e"/>
     <path d="
M104.071 -95.3545
L106.337 -97.2325
L104.071 -98.7349
L102.031 -97.2325
L104.071 -95.3545" id="C6_1_0088eb2782"/>
     <path d="
M121.07 -110.253
L123.336 -112.257
L121.07 -118.266
L119.37 -112.257
L121.07 -110.253" id="C6_2_ff5073f562"/>
     <path d="
M138.068 -125.278
L155.067 -125.778
L156.767 -127.281
L155.067 -129.534
L138.068 -128.783
L131.269 -127.281
L138.068 -125.278" id="C6_3_e38fdc222b"/>
     <path d="
M172.066 -140.803
L173.766 -142.305
L172.066 -148.315
L169.516 -142.305
L172.066 -140.803" id="C6_4_9953a6c724"/>
     <path d="
M189.065 -155.827
L190.765 -157.329
L206.064 -170.851
L207.764 -172.353
L206.064 -178.363
L195.865 -187.377
L189.065 -189.631
L186.798 -187.377
L185.665 -172.353
L182.265 -157.329
L189.065 -155.827" id="C6_5_be4da202d9"/>
     <path d="
M223.063 -185.875
L224.763 -187.377
L223.063 -193.387
L216.263 -187.377
L223.063 -185.875" id="C6_6_00fc576e2f"/>
     <path d="
M240.062 -213.67
L257.06 -215.923
L259.61 -217.426
L257.06 -219.93
L240.062 -219.304
L238.362 -217.426
L240.062 -213.67" id="C6_7_06feb9440d"/>
     <path d="
M274.059 -230.196
L276.326 -232.45
L274.059 -234.704
L271.226 -232.45
L274.059 -230.196" id="C6_8_c299aaf833"/>
     <path d="
M291.058 -260.495
L308.057 -260.495
L313.157 -262.498
L308.057 -265.503
L291.058 -264.001
L285.959 -262.498
L291.058 -260.495" id="C6_9_bc9f8704b4"/>
     <path d="
M342.055 -260.996
L343.755 -262.498
L359.054 -276.02
L362.453 -277.522
L359.054 -279.776
L342.055 -280.527
L325.056 -279.776
L321.656 -277.522
L325.056 -273.015
L336.955 -262.498
L342.055 -260.996" id="C6_a_2c4ffbe127"/>
     <path d="
M376.052 -289.542
L393.051 -289.542
L394.751 -292.547
L393.051 -295.551
L376.052 -295.551
L373.503 -292.547
L376.052 -289.542" id="C6_b_9071b51402"/>
     <path d="
M342.055 -304.566
L343.755 -307.571
L342.055 -309.073
L340.355 -307.571
L342.055 -304.566" id="C6_c_f1c3fb6bab"/>
     <path d="
M410.05 -306.068
L411.75 -307.571
L411.75 -322.595
L410.05 -325.6
L406.65 -322.595
L406.65 -307.571
L410.05 -306.068" id="C6_d_d8626eb458"/>
     <path d="
M444.048 -306.068
L446.314 -307.571
L444.048 -309.073
L442.348 -307.571
L444.048 -306.068" id="C6_e_526b0a3777"/>
     <path d="
M427.049 -336.117
L430.449 -337.619
L427.049 -340.624
L423.649 -337.619
L427.049 -336.117" id="C6_f_13933e2196"/>
     <path d="
M410.05 -349.639
L413.45 -352.643
L410.05 -354.146
L406.65 -352.643
L410.05 -349.639" id="C6_10_8e12738abd"/>
     <path d="
M444.048 -349.639
L445.748 -352.643
L461.047 -366.165
L461.047 -367.668
L461.047 -369.671
L444.048 -369.17
L440.648 -367.668
L440.648 -352.643
L444.048 -349.639" id="C6_11_16ec227d4b"/>
     <path d="
M376.052 -366.165
L377.752 -367.668
L376.052 -370.672
L370.953 -367.668
L376.052 -366.165" id="C6_12_55213e77a3"/>
     <path d="
M427.049 -379.687
L428.749 -382.692
L427.049 -384.194
L423.649 -382.692
L427.049 -379.687" id="C6_13_34b71dd871"/>
    </defs>
    <g clip-path="url(#p148d6a6e19)">
     <use style="fill:#ededed;" x="0.0" xlink:href="#C6_0_bdd0fb5b5e" y="432.0"/>
    </g>
    <g clip-path="url(#p148d6a6e19)">
     <use style="fill:#ededed;" x="0.0" xlink:href="#C6_1_0088eb2782" y="432.0"/>
    </g>
    <g clip-path="url(#p148d6a6e19)">
     <use style="fill:#ededed;" x="0.0" xlink:href="#C6_2_ff5073f562" y="432.0"/>
    </g>
    <g clip-path="url(#p148d6a6e19)">
     <use style="fill:#ededed;" x="0.0" xlink:href="#C6_3_e38fdc222b" y="432.0"/>
    </g>
    <g clip-path="url(#p148d6a6e19)">
     <use style="fill:#ededed;" x="0.0" xlink:href="#C6_4_9953a6c724" y="432.0"/>
    </g>
    <g clip-path="url(#p148d6a6e19)">
     <use style="fill:#ededed;" x="0.0" xlink:href="#C6_5_be4da202d9" y="432.0"/>
    </g>
    <g clip-path="url(#p148d6a6e19)">
     <use style="fill:#ededed;" x="0.0" xlink:href="#C6_6_00fc576e2f" y="432.0"/>
    </g>
    <g clip-path="url(#p148d6a6e19)">
     <use style="fill:#ededed;" x="0.0" xlink:href="#C6_7_06feb9440d" y="432.0"/>
    </g>
    <g clip-path="url(#p148d6a6e19)">
     <use style="fill:#ededed;" x="0.0" xlink:href="#C6_8_c299aaf833" y="432.0"/>
    </g>
    <g clip-path="url(#p148d6a6e19)">
     <use style="fill:#ededed;" x="0.0" xlink:href="#C6_9_bc9f8704b4" y="432.0"/>
    </g>
    <g clip-path="url(#p148d6a6e19)">
     <use style="fill:#ededed;" x="0.0" xlink:href="#C6_a_2c4ffbe127" y="432.0"/>
    </g>
    <g clip-path="url(#p148d6a6e19)">
     <use style="fill:#ededed;" x="0.0" xlink:href="#C6_b_9071b51402" y="432.0"/>
    </g>
    <g clip-path="url(#p148d6a6e19)">
     <use style="fill:#ededed;" x="0.0" xlink:href="#C6_c_f1c3fb6bab" y="432.0"/>
    </g>
    <g clip-path="url(#p148d6a6e19)">
     <use style="fill:#ededed;" x="0.0" xlink:href="#C6_d_d8626eb458" y="432.0"/>
    </g>
    <g clip-path="url(#p148d6a6e19)">
     <use style="fill:#ededed;" x="0.0" xlink:href="#C6_e_526b0a3777" y="432.0"/>
    </g>
    <g clip-path="url(#p148d6a6e19)">
     <use style="fill:#ededed;" x="0.0" xlink:href="#C6_f_13933e2196" y="432.0"/>
    </g>
    <g clip-path="url(#p148d6a6e19)">
     <use style="fill:#ededed;" x="0.0" xlink:href="#C6_10_8e12738abd" y="432.0"/>
    </g>
    <g clip-path="url(#p148d6a6e19)">
     <use style="fill:#ededed;" x="0.0" xlink:href="#C6_11_16ec227d4b" y="432.0"/>
    </g>
    <g clip-path="url(#p148d6a6e19)">
     <use style="fill:#ededed;" x="0.0" xlink:href="#C6_12_55213e77a3" y="432.0"/>
    </g>
    <g clip-path="url(#p148d6a6e19)">
     <use style="fill:#ededed;" x="0.0" xlink:href="#C6_13_34b71dd871" y="432.0"/>
    </g>
   </g>
   <g id="line2d_1">
    <path clip-path="url(#p148d6a6e19)" d="
M53.0741 364.816
L461.047 64.3325" style="fill:none;stroke:#000000;stroke-dasharray:6.000000,6.000000;stroke-dashoffset:0.0;"/>
   </g>
   <g id="patch_3">
    <path d="
M53.0741 19.26
L461.047 19.26" style="fill:none;stroke:#000000;stroke-linecap:square;stroke-linejoin:miter;"/>
   </g>
   <g id="patch_4">
    <path d="
M461.047 379.84
L461.047 19.26" style="fill:none;stroke:#000000;stroke-linecap:square;stroke-linejoin:miter;"/>
   </g>
   <g id="patch_5">
    <path d="
M53.0741 379.84
L461.047 379.84" style="fill:none;stroke:#000000;stroke-linecap:square;stroke-linejoin:miter;"/>
   </g>
   <g id="patch_6">
    <path d="
M53.0741 379.84
L53.0741 19.26" style="fill:none;stroke:#000000;stroke-linecap:square;stroke-linejoin:miter;"/>
   </g>
   <g id="matplotlib.axis_1">
    <g id="xtick_1">
     <g id="line2d_2">
      <path clip-path="url(#p148d6a6e19)" d="
M53.0741 379.84
L53.0741 19.26" style="fill:none;stroke:#000000;stroke-dasharray:1.000000,3.000000;stroke-dashoffset:0.0;stroke-width:0.5;"/>
     </g>
     <g id="line2d_3">
      <defs>
       <path d="
M0 0
L0 -4" id="m93b0483c22" style="stroke:#000000;stroke-width:0.5;"/>
      </defs>
      <g>
       <use style="stroke:#000000;stroke-width:0.5;" x="53.0740625" xlink:href="#m93b0483c22" y="379.84"/>
      </g>
     </g>
     <g id="line2d_4">
      <defs>
       <path d="
M0 0
L0 4" id="m741efc42ff" style="stroke:#000000;stroke-width:0.5;"/>
      </defs>
      <g>
       <use style="stroke:#000000;stroke-width:0.5;" x="53.0740625" xlink:href="#m741efc42ff" y="19.26"/>
      </g>
     </g>
     <g id="text_1">
      <!-- 0 -->
      <defs>
       <path d="
M31.7812 66.4062
Q24.1719 66.4062 20.3281 58.9062
Q16.5 51.4219 16.5 36.375
Q16.5 21.3906 20.3281 13.8906
Q24.1719 6.39062 31.7812 6.39062
Q39.4531 6.39062 43.2812 13.8906
Q47.125 21.3906 47.125 36.375
Q47.125 51.4219 43.2812 58.9062
Q39.4531 66.4062 31.7812 66.4062
M31.7812 74.2188
Q44.0469 74.2188 50.5156 64.5156
Q56.9844 54.8281 56.9844 36.375
Q56.9844 17.9688 50.5156 8.26562
Q44.0469 -1.42188 31.7812 -1.42188
Q19.5312 -1.42188 13.0625 8.26562
Q6.59375 17.9688 6.59375 36.375
Q6.59375 54.8281 13.0625 64.5156
Q19.5312 74.2188 31.7812 74.2188" id="BitstreamVeraSans-Roman-30"/>
      </defs>
      <g transform="translate(50.050625 392.958125)scale(0.12 -0.12)">
       <use xlink:href="#BitstreamVeraSans-Roman-30"/>
      </g>
     </g>
    </g>
    <g id="xtick_2">
     <g id="line2d_5">
      <path clip-path="url(#p148d6a6e19)" d="
M138.068 379.84
L138.068 19.26" style="fill:none;stroke:#000000;stroke-dasharray:1.000000,3.000000;stroke-dashoffset:0.0;stroke-width:0.5;"/>
     </g>
     <g id="line2d_6">
      <g>
       <use style="stroke:#000000;stroke-width:0.5;" x="138.068385417" xlink:href="#m93b0483c22" y="379.84"/>
      </g>
     </g>
     <g id="line2d_7">
      <g>
       <use style="stroke:#000000;stroke-width:0.5;" x="138.068385417" xlink:href="#m741efc42ff" y="19.26"/>
      </g>
     </g>
     <g id="text_2">
      <!-- 5 -->
      <defs>
       <path d="
M10.7969 72.9062
L49.5156 72.9062
L49.5156 64.5938
L19.8281 64.5938
L19.8281 46.7344
Q21.9688 47.4688 24.1094 47.8281
Q26.2656 48.1875 28.4219 48.1875
Q40.625 48.1875 47.75 41.5
Q54.8906 34.8125 54.8906 23.3906
Q54.8906 11.625 47.5625 5.09375
Q40.2344 -1.42188 26.9062 -1.42188
Q22.3125 -1.42188 17.5469 -0.640625
Q12.7969 0.140625 7.71875 1.70312
L7.71875 11.625
Q12.1094 9.23438 16.7969 8.0625
Q21.4844 6.89062 26.7031 6.89062
Q35.1562 6.89062 40.0781 11.3281
Q45.0156 15.7656 45.0156 23.3906
Q45.0156 31 40.0781 35.4375
Q35.1562 39.8906 26.7031 39.8906
Q22.75 39.8906 18.8125 39.0156
Q14.8906 38.1406 10.7969 36.2812
z
" id="BitstreamVeraSans-Roman-35"/>
      </defs>
      <g transform="translate(135.238072917 392.958125)scale(0.12 -0.12)">
       <use xlink:href="#BitstreamVeraSans-Roman-35"/>
      </g>
     </g>
    </g>
    <g id="xtick_3">
     <g id="line2d_8">
      <path clip-path="url(#p148d6a6e19)" d="
M223.063 379.84
L223.063 19.26" style="fill:none;stroke:#000000;stroke-dasharray:1.000000,3.000000;stroke-dashoffset:0.0;stroke-width:0.5;"/>
     </g>
     <g id="line2d_9">
      <g>
       <use style="stroke:#000000;stroke-width:0.5;" x="223.062708333" xlink:href="#m93b0483c22" y="379.84"/>
      </g>
     </g>
     <g id="line2d_10">
      <g>
       <use style="stroke:#000000;stroke-width:0.5;" x="223.062708333" xlink:href="#m741efc42ff" y="19.26"/>
      </g>
     </g>
     <g id="text_3">
      <!-- 10 -->
      <defs>
       <path d="
M12.4062 8.29688
L28.5156 8.29688
L28.5156 63.9219
L10.9844 60.4062
L10.9844 69.3906
L28.4219 72.9062
L38.2812 72.9062
L38.2812 8.29688
L54.3906 8.29688
L54.3906 0
L12.4062 0
z
" id="BitstreamVeraSans-Roman-31"/>
      </defs>
      <g transform="translate(216.485208333 392.958125)scale(0.12 -0.12)">
       <use xlink:href="#BitstreamVeraSans-Roman-31"/>
       <use x="63.623046875" xlink:href="#BitstreamVeraSans-Roman-30"/>
      </g>
     </g>
    </g>
    <g id="xtick_4">
     <g id="line2d_11">
      <path clip-path="url(#p148d6a6e19)" d="
M308.057 379.84
L308.057 19.26" style="fill:none;stroke:#000000;stroke-dasharray:1.000000,3.000000;stroke-dashoffset:0.0;stroke-width:0.5;"/>
     </g>
     <g id="line2d_12">
      <g>
       <use style="stroke:#000000;stroke-width:0.5;" x="308.05703125" xlink:href="#m93b0483c22" y="379.84"/>
      </g>
     </g>
     <g id="line2d_13">
      <g>
       <use style="stroke:#000000;stroke-width:0.5;" x="308.05703125" xlink:href="#m741efc42ff" y="19.26"/>
      </g>
     </g>
     <g id="text_4">
      <!-- 15 -->
      <g transform="translate(301.60515625 392.958125)scale(0.12 -0.12)">
       <use xlink:href="#BitstreamVeraSans-Roman-31"/>
       <use x="63.623046875" xlink:href="#BitstreamVeraSans-Roman-35"/>
      </g>
     </g>
    </g>
    <g id="xtick_5">
     <g id="line2d_14">
      <path clip-path="url(#p148d6a6e19)" d="
M393.051 379.84
L393.051 19.26" style="fill:none;stroke:#000000;stroke-dasharray:1.000000,3.000000;stroke-dashoffset:0.0;stroke-width:0.5;"/>
     </g>
     <g id="line2d_15">
      <g>
       <use style="stroke:#000000;stroke-width:0.5;" x="393.051354167" xlink:href="#m93b0483c22" y="379.84"/>
      </g>
     </g>
     <g id="line2d_16">
      <g>
       <use style="stroke:#000000;stroke-width:0.5;" x="393.051354167" xlink:href="#m741efc42ff" y="19.26"/>
      </g>
     </g>
     <g id="text_5">
      <!-- 20 -->
      <defs>
       <path d="
M19.1875 8.29688
L53.6094 8.29688
L53.6094 0
L7.32812 0
L7.32812 8.29688
Q12.9375 14.1094 22.625 23.8906
Q32.3281 33.6875 34.8125 36.5312
Q39.5469 41.8438 41.4219 45.5312
Q43.3125 49.2188 43.3125 52.7812
Q43.3125 58.5938 39.2344 62.25
Q35.1562 65.9219 28.6094 65.9219
Q23.9688 65.9219 18.8125 64.3125
Q13.6719 62.7031 7.8125 59.4219
L7.8125 69.3906
Q13.7656 71.7812 18.9375 73
Q24.125 74.2188 28.4219 74.2188
Q39.75 74.2188 46.4844 68.5469
Q53.2188 62.8906 53.2188 53.4219
Q53.2188 48.9219 51.5312 44.8906
Q49.8594 40.875 45.4062 35.4062
Q44.1875 33.9844 37.6406 27.2188
Q31.1094 20.4531 19.1875 8.29688" id="BitstreamVeraSans-Roman-32"/>
      </defs>
      <g transform="translate(386.254479167 392.958125)scale(0.12 -0.12)">
       <use xlink:href="#BitstreamVeraSans-Roman-32"/>
       <use x="63.623046875" xlink:href="#BitstreamVeraSans-Roman-30"/>
      </g>
     </g>
    </g>
    <g id="text_6">
     <!-- Replay image index # -->
     <defs>
      <path id="BitstreamVeraSans-Roman-20"/>
      <path d="
M51.125 44
L36.9219 44
L32.8125 27.6875
L47.125 27.6875
z

M43.7969 71.7812
L38.7188 51.5156
L52.9844 51.5156
L58.1094 71.7812
L65.9219 71.7812
L60.8906 51.5156
L76.125 51.5156
L76.125 44
L58.9844 44
L54.9844 27.6875
L70.5156 27.6875
L70.5156 20.2188
L53.0781 20.2188
L48 0
L40.1875 0
L45.2188 20.2188
L30.9062 20.2188
L25.875 0
L18.0156 0
L23.0938 20.2188
L7.71875 20.2188
L7.71875 27.6875
L24.9062 27.6875
L29 44
L13.2812 44
L13.2812 51.5156
L30.9062 51.5156
L35.8906 71.7812
z
" id="BitstreamVeraSans-Roman-23"/>
      <path d="
M54.8906 33.0156
L54.8906 0
L45.9062 0
L45.9062 32.7188
Q45.9062 40.4844 42.875 44.3281
Q39.8438 48.1875 33.7969 48.1875
Q26.5156 48.1875 22.3125 43.5469
Q18.1094 38.9219 18.1094 30.9062
L18.1094 0
L9.07812 0
L9.07812 54.6875
L18.1094 54.6875
L18.1094 46.1875
Q21.3438 51.125 25.7031 53.5625
Q30.0781 56 35.7969 56
Q45.2188 56 50.0469 50.1719
Q54.8906 44.3438 54.8906 33.0156" id="BitstreamVeraSans-Roman-6e"/>
      <path d="
M52 44.1875
Q55.375 50.25 60.0625 53.125
Q64.75 56 71.0938 56
Q79.6406 56 84.2812 50.0156
Q88.9219 44.0469 88.9219 33.0156
L88.9219 0
L79.8906 0
L79.8906 32.7188
Q79.8906 40.5781 77.0938 44.375
Q74.3125 48.1875 68.6094 48.1875
Q61.625 48.1875 57.5625 43.5469
Q53.5156 38.9219 53.5156 30.9062
L53.5156 0
L44.4844 0
L44.4844 32.7188
Q44.4844 40.625 41.7031 44.4062
Q38.9219 48.1875 33.1094 48.1875
Q26.2188 48.1875 22.1562 43.5312
Q18.1094 38.875 18.1094 30.9062
L18.1094 0
L9.07812 0
L9.07812 54.6875
L18.1094 54.6875
L18.1094 46.1875
Q21.1875 51.2188 25.4844 53.6094
Q29.7812 56 35.6875 56
Q41.6562 56 45.8281 52.9688
Q50 49.9531 52 44.1875" id="BitstreamVeraSans-Roman-6d"/>
      <path d="
M9.42188 75.9844
L18.4062 75.9844
L18.4062 0
L9.42188 0
z
" id="BitstreamVeraSans-Roman-6c"/>
      <path d="
M44.3906 34.1875
Q47.5625 33.1094 50.5625 29.5938
Q53.5625 26.0781 56.5938 19.9219
L66.6094 0
L56 0
L46.6875 18.7031
Q43.0625 26.0312 39.6719 28.4219
Q36.2812 30.8125 30.4219 30.8125
L19.6719 30.8125
L19.6719 0
L9.8125 0
L9.8125 72.9062
L32.0781 72.9062
Q44.5781 72.9062 50.7344 67.6719
Q56.8906 62.4531 56.8906 51.9062
Q56.8906 45.0156 53.6875 40.4688
Q50.4844 35.9375 44.3906 34.1875
M19.6719 64.7969
L19.6719 38.9219
L32.0781 38.9219
Q39.2031 38.9219 42.8438 42.2188
Q46.4844 45.5156 46.4844 51.9062
Q46.4844 58.2969 42.8438 61.5469
Q39.2031 64.7969 32.0781 64.7969
z
" id="BitstreamVeraSans-Roman-52"/>
      <path d="
M9.42188 54.6875
L18.4062 54.6875
L18.4062 0
L9.42188 0
z

M9.42188 75.9844
L18.4062 75.9844
L18.4062 64.5938
L9.42188 64.5938
z
" id="BitstreamVeraSans-Roman-69"/>
      <path d="
M54.8906 54.6875
L35.1094 28.0781
L55.9062 0
L45.3125 0
L29.3906 21.4844
L13.4844 0
L2.875 0
L24.125 28.6094
L4.6875 54.6875
L15.2812 54.6875
L29.7812 35.2031
L44.2812 54.6875
z
" id="BitstreamVeraSans-Roman-78"/>
      <path d="
M32.1719 -5.07812
Q28.375 -14.8438 24.75 -17.8125
Q21.1406 -20.7969 15.0938 -20.7969
L7.90625 -20.7969
L7.90625 -13.2812
L13.1875 -13.2812
Q16.8906 -13.2812 18.9375 -11.5156
Q21 -9.76562 23.4844 -3.21875
L25.0938 0.875
L2.98438 54.6875
L12.5 54.6875
L29.5938 11.9219
L46.6875 54.6875
L56.2031 54.6875
z
" id="BitstreamVeraSans-Roman-79"/>
      <path d="
M56.2031 29.5938
L56.2031 25.2031
L14.8906 25.2031
Q15.4844 15.9219 20.4844 11.0625
Q25.4844 6.20312 34.4219 6.20312
Q39.5938 6.20312 44.4531 7.46875
Q49.3125 8.73438 54.1094 11.2812
L54.1094 2.78125
Q49.2656 0.734375 44.1875 -0.34375
Q39.1094 -1.42188 33.8906 -1.42188
Q20.7969 -1.42188 13.1562 6.1875
Q5.51562 13.8125 5.51562 26.8125
Q5.51562 40.2344 12.7656 48.1094
Q20.0156 56 32.3281 56
Q43.3594 56 49.7812 48.8906
Q56.2031 41.7969 56.2031 29.5938
M47.2188 32.2344
Q47.125 39.5938 43.0938 43.9844
Q39.0625 48.3906 32.4219 48.3906
Q24.9062 48.3906 20.3906 44.1406
Q15.875 39.8906 15.1875 32.1719
z
" id="BitstreamVeraSans-Roman-65"/>
      <path d="
M45.4062 46.3906
L45.4062 75.9844
L54.3906 75.9844
L54.3906 0
L45.4062 0
L45.4062 8.20312
Q42.5781 3.32812 38.25 0.953125
Q33.9375 -1.42188 27.875 -1.42188
Q17.9688 -1.42188 11.7344 6.48438
Q5.51562 14.4062 5.51562 27.2969
Q5.51562 40.1875 11.7344 48.0938
Q17.9688 56 27.875 56
Q33.9375 56 38.25 53.625
Q42.5781 51.2656 45.4062 46.3906
M14.7969 27.2969
Q14.7969 17.3906 18.875 11.75
Q22.9531 6.10938 30.0781 6.10938
Q37.2031 6.10938 41.2969 11.75
Q45.4062 17.3906 45.4062 27.2969
Q45.4062 37.2031 41.2969 42.8438
Q37.2031 48.4844 30.0781 48.4844
Q22.9531 48.4844 18.875 42.8438
Q14.7969 37.2031 14.7969 27.2969" id="BitstreamVeraSans-Roman-64"/>
      <path d="
M45.4062 27.9844
Q45.4062 37.75 41.375 43.1094
Q37.3594 48.4844 30.0781 48.4844
Q22.8594 48.4844 18.8281 43.1094
Q14.7969 37.75 14.7969 27.9844
Q14.7969 18.2656 18.8281 12.8906
Q22.8594 7.51562 30.0781 7.51562
Q37.3594 7.51562 41.375 12.8906
Q45.4062 18.2656 45.4062 27.9844
M54.3906 6.78125
Q54.3906 -7.17188 48.1875 -13.9844
Q42 -20.7969 29.2031 -20.7969
Q24.4688 -20.7969 20.2656 -20.0938
Q16.0625 -19.3906 12.1094 -17.9219
L12.1094 -9.1875
Q16.0625 -11.3281 19.9219 -12.3438
Q23.7812 -13.375 27.7812 -13.375
Q36.625 -13.375 41.0156 -8.76562
Q45.4062 -4.15625 45.4062 5.17188
L45.4062 9.625
Q42.625 4.78125 38.2812 2.39062
Q33.9375 0 27.875 0
Q17.8281 0 11.6719 7.65625
Q5.51562 15.3281 5.51562 27.9844
Q5.51562 40.6719 11.6719 48.3281
Q17.8281 56 27.875 56
Q33.9375 56 38.2812 53.6094
Q42.625 51.2188 45.4062 46.3906
L45.4062 54.6875
L54.3906 54.6875
z
" id="BitstreamVeraSans-Roman-67"/>
      <path d="
M34.2812 27.4844
Q23.3906 27.4844 19.1875 25
Q14.9844 22.5156 14.9844 16.5
Q14.9844 11.7188 18.1406 8.90625
Q21.2969 6.10938 26.7031 6.10938
Q34.1875 6.10938 38.7031 11.4062
Q43.2188 16.7031 43.2188 25.4844
L43.2188 27.4844
z

M52.2031 31.2031
L52.2031 0
L43.2188 0
L43.2188 8.29688
Q40.1406 3.32812 35.5469 0.953125
Q30.9531 -1.42188 24.3125 -1.42188
Q15.9219 -1.42188 10.9531 3.29688
Q6 8.01562 6 15.9219
Q6 25.1406 12.1719 29.8281
Q18.3594 34.5156 30.6094 34.5156
L43.2188 34.5156
L43.2188 35.4062
Q43.2188 41.6094 39.1406 45
Q35.0625 48.3906 27.6875 48.3906
Q23 48.3906 18.5469 47.2656
Q14.1094 46.1406 10.0156 43.8906
L10.0156 52.2031
Q14.9375 54.1094 19.5781 55.0469
Q24.2188 56 28.6094 56
Q40.4844 56 46.3438 49.8438
Q52.2031 43.7031 52.2031 31.2031" id="BitstreamVeraSans-Roman-61"/>
      <path d="
M18.1094 8.20312
L18.1094 -20.7969
L9.07812 -20.7969
L9.07812 54.6875
L18.1094 54.6875
L18.1094 46.3906
Q20.9531 51.2656 25.2656 53.625
Q29.5938 56 35.5938 56
Q45.5625 56 51.7812 48.0938
Q58.0156 40.1875 58.0156 27.2969
Q58.0156 14.4062 51.7812 6.48438
Q45.5625 -1.42188 35.5938 -1.42188
Q29.5938 -1.42188 25.2656 0.953125
Q20.9531 3.32812 18.1094 8.20312
M48.6875 27.2969
Q48.6875 37.2031 44.6094 42.8438
Q40.5312 48.4844 33.4062 48.4844
Q26.2656 48.4844 22.1875 42.8438
Q18.1094 37.2031 18.1094 27.2969
Q18.1094 17.3906 22.1875 11.75
Q26.2656 6.10938 33.4062 6.10938
Q40.5312 6.10938 44.6094 11.75
Q48.6875 17.3906 48.6875 27.2969" id="BitstreamVeraSans-Roman-70"/>
     </defs>
     <g transform="translate(191.3716875 414.571875)scale(0.12 -0.12)">
      <use xlink:href="#BitstreamVeraSans-Roman-52"/>
      <use x="64.982421875" xlink:href="#BitstreamVeraSans-Roman-65"/>
      <use x="126.505859375" xlink:href="#BitstreamVeraSans-Roman-70"/>
      <use x="189.982421875" xlink:href="#BitstreamVeraSans-Roman-6c"/>
      <use x="217.765625" xlink:href="#BitstreamVeraSans-Roman-61"/>
      <use x="279.044921875" xlink:href="#BitstreamVeraSans-Roman-79"/>
      <use x="338.224609375" xlink:href="#BitstreamVeraSans-Roman-20"/>
      <use x="370.01171875" xlink:href="#BitstreamVeraSans-Roman-69"/>
      <use x="397.794921875" xlink:href="#BitstreamVeraSans-Roman-6d"/>
      <use x="495.20703125" xlink:href="#BitstreamVeraSans-Roman-61"/>
      <use x="556.486328125" xlink:href="#BitstreamVeraSans-Roman-67"/>
      <use x="619.962890625" xlink:href="#BitstreamVeraSans-Roman-65"/>
      <use x="681.486328125" xlink:href="#BitstreamVeraSans-Roman-20"/>
      <use x="713.2734375" xlink:href="#BitstreamVeraSans-Roman-69"/>
      <use x="741.056640625" xlink:href="#BitstreamVeraSans-Roman-6e"/>
      <use x="804.435546875" xlink:href="#BitstreamVeraSans-Roman-64"/>
      <use x="867.912109375" xlink:href="#BitstreamVeraSans-Roman-65"/>
      <use x="927.685546875" xlink:href="#BitstreamVeraSans-Roman-78"/>
      <use x="986.865234375" xlink:href="#BitstreamVeraSans-Roman-20"/>
      <use x="1018.65234375" xlink:href="#BitstreamVeraSans-Roman-23"/>
     </g>
    </g>
   </g>
   <g id="matplotlib.axis_2">
    <g id="ytick_1">
     <g id="line2d_17">
      <path clip-path="url(#p148d6a6e19)" d="
M53.0741 379.84
L461.047 379.84" style="fill:none;stroke:#000000;stroke-dasharray:1.000000,3.000000;stroke-dashoffset:0.0;stroke-width:0.5;"/>
     </g>
     <g id="line2d_18">
      <defs>
       <path d="
M0 0
L4 0" id="m728421d6d4" style="stroke:#000000;stroke-width:0.5;"/>
      </defs>
      <g>
       <use style="stroke:#000000;stroke-width:0.5;" x="53.0740625" xlink:href="#m728421d6d4" y="379.84"/>
      </g>
     </g>
     <g id="line2d_19">
      <defs>
       <path d="
M0 0
L-4 0" id="mcb0005524f" style="stroke:#000000;stroke-width:0.5;"/>
      </defs>
      <g>
       <use style="stroke:#000000;stroke-width:0.5;" x="461.0468125" xlink:href="#mcb0005524f" y="379.84"/>
      </g>
     </g>
     <g id="text_7">
      <!-- 0 -->
      <g transform="translate(43.0271875 383.15125)scale(0.12 -0.12)">
       <use xlink:href="#BitstreamVeraSans-Roman-30"/>
      </g>
     </g>
    </g>
    <g id="ytick_2">
     <g id="line2d_20">
      <path clip-path="url(#p148d6a6e19)" d="
M53.0741 304.719
L461.047 304.719" style="fill:none;stroke:#000000;stroke-dasharray:1.000000,3.000000;stroke-dashoffset:0.0;stroke-width:0.5;"/>
     </g>
     <g id="line2d_21">
      <g>
       <use style="stroke:#000000;stroke-width:0.5;" x="53.0740625" xlink:href="#m728421d6d4" y="304.719166667"/>
      </g>
     </g>
     <g id="line2d_22">
      <g>
       <use style="stroke:#000000;stroke-width:0.5;" x="461.0468125" xlink:href="#mcb0005524f" y="304.719166667"/>
      </g>
     </g>
     <g id="text_8">
      <!-- 5 -->
      <g transform="translate(43.4134375 308.030416667)scale(0.12 -0.12)">
       <use xlink:href="#BitstreamVeraSans-Roman-35"/>
      </g>
     </g>
    </g>
    <g id="ytick_3">
     <g id="line2d_23">
      <path clip-path="url(#p148d6a6e19)" d="
M53.0741 229.598
L461.047 229.598" style="fill:none;stroke:#000000;stroke-dasharray:1.000000,3.000000;stroke-dashoffset:0.0;stroke-width:0.5;"/>
     </g>
     <g id="line2d_24">
      <g>
       <use style="stroke:#000000;stroke-width:0.5;" x="53.0740625" xlink:href="#m728421d6d4" y="229.598333333"/>
      </g>
     </g>
     <g id="line2d_25">
      <g>
       <use style="stroke:#000000;stroke-width:0.5;" x="461.0468125" xlink:href="#mcb0005524f" y="229.598333333"/>
      </g>
     </g>
     <g id="text_9">
      <!-- 10 -->
      <g transform="translate(35.9190625 232.909583333)scale(0.12 -0.12)">
       <use xlink:href="#BitstreamVeraSans-Roman-31"/>
       <use x="63.623046875" xlink:href="#BitstreamVeraSans-Roman-30"/>
      </g>
     </g>
    </g>
    <g id="ytick_4">
     <g id="line2d_26">
      <path clip-path="url(#p148d6a6e19)" d="
M53.0741 154.478
L461.047 154.478" style="fill:none;stroke:#000000;stroke-dasharray:1.000000,3.000000;stroke-dashoffset:0.0;stroke-width:0.5;"/>
     </g>
     <g id="line2d_27">
      <g>
       <use style="stroke:#000000;stroke-width:0.5;" x="53.0740625" xlink:href="#m728421d6d4" y="154.4775"/>
      </g>
     </g>
     <g id="line2d_28">
      <g>
       <use style="stroke:#000000;stroke-width:0.5;" x="461.0468125" xlink:href="#mcb0005524f" y="154.4775"/>
      </g>
     </g>
     <g id="text_10">
      <!-- 15 -->
      <g transform="translate(36.1703125 157.78875)scale(0.12 -0.12)">
       <use xlink:href="#BitstreamVeraSans-Roman-31"/>
       <use x="63.623046875" xlink:href="#BitstreamVeraSans-Roman-35"/>
      </g>
     </g>
    </g>
    <g id="ytick_5">
     <g id="line2d_29">
      <path clip-path="url(#p148d6a6e19)" d="
M53.0741 79.3567
L461.047 79.3567" style="fill:none;stroke:#000000;stroke-dasharray:1.000000,3.000000;stroke-dashoffset:0.0;stroke-width:0.5;"/>
     </g>
     <g id="line2d_30">
      <g>
       <use style="stroke:#000000;stroke-width:0.5;" x="53.0740625" xlink:href="#m728421d6d4" y="79.3566666667"/>
      </g>
     </g>
     <g id="line2d_31">
      <g>
       <use style="stroke:#000000;stroke-width:0.5;" x="461.0468125" xlink:href="#mcb0005524f" y="79.3566666667"/>
      </g>
     </g>
     <g id="text_11">
      <!-- 20 -->
      <g transform="translate(35.4803125 82.6679166667)scale(0.12 -0.12)">
       <use xlink:href="#BitstreamVeraSans-Roman-32"/>
       <use x="63.623046875" xlink:href="#BitstreamVeraSans-Roman-30"/>
      </g>
     </g>
    </g>
    <g id="text_12">
     <!-- Teach image index # -->
     <defs>
      <path d="
M-0.296875 72.9062
L61.375 72.9062
L61.375 64.5938
L35.5 64.5938
L35.5 0
L25.5938 0
L25.5938 64.5938
L-0.296875 64.5938
z
" id="BitstreamVeraSans-Roman-54"/>
      <path d="
M54.8906 33.0156
L54.8906 0
L45.9062 0
L45.9062 32.7188
Q45.9062 40.4844 42.875 44.3281
Q39.8438 48.1875 33.7969 48.1875
Q26.5156 48.1875 22.3125 43.5469
Q18.1094 38.9219 18.1094 30.9062
L18.1094 0
L9.07812 0
L9.07812 75.9844
L18.1094 75.9844
L18.1094 46.1875
Q21.3438 51.125 25.7031 53.5625
Q30.0781 56 35.7969 56
Q45.2188 56 50.0469 50.1719
Q54.8906 44.3438 54.8906 33.0156" id="BitstreamVeraSans-Roman-68"/>
      <path d="
M48.7812 52.5938
L48.7812 44.1875
Q44.9688 46.2969 41.1406 47.3438
Q37.3125 48.3906 33.4062 48.3906
Q24.6562 48.3906 19.8125 42.8438
Q14.9844 37.3125 14.9844 27.2969
Q14.9844 17.2812 19.8125 11.7344
Q24.6562 6.20312 33.4062 6.20312
Q37.3125 6.20312 41.1406 7.25
Q44.9688 8.29688 48.7812 10.4062
L48.7812 2.09375
Q45.0156 0.34375 40.9844 -0.53125
Q36.9688 -1.42188 32.4219 -1.42188
Q20.0625 -1.42188 12.7812 6.34375
Q5.51562 14.1094 5.51562 27.2969
Q5.51562 40.6719 12.8594 48.3281
Q20.2188 56 33.0156 56
Q37.1562 56 41.1094 55.1406
Q45.0625 54.2969 48.7812 52.5938" id="BitstreamVeraSans-Roman-63"/>
     </defs>
     <g transform="translate(22.9846875 262.0765625)rotate(-90.0)scale(0.12 -0.12)">
      <use xlink:href="#BitstreamVeraSans-Roman-54"/>
      <use x="44.083984375" xlink:href="#BitstreamVeraSans-Roman-65"/>
      <use x="105.607421875" xlink:href="#BitstreamVeraSans-Roman-61"/>
      <use x="166.88671875" xlink:href="#BitstreamVeraSans-Roman-63"/>
      <use x="221.8671875" xlink:href="#BitstreamVeraSans-Roman-68"/>
      <use x="285.24609375" xlink:href="#BitstreamVeraSans-Roman-20"/>
      <use x="317.033203125" xlink:href="#BitstreamVeraSans-Roman-69"/>
      <use x="344.81640625" xlink:href="#BitstreamVeraSans-Roman-6d"/>
      <use x="442.228515625" xlink:href="#BitstreamVeraSans-Roman-61"/>
      <use x="503.5078125" xlink:href="#BitstreamVeraSans-Roman-67"/>
      <use x="566.984375" xlink:href="#BitstreamVeraSans-Roman-65"/>
      <use x="628.5078125" xlink:href="#BitstreamVeraSans-Roman-20"/>
      <use x="660.294921875" xlink:href="#BitstreamVeraSans-Roman-69"/>
      <use x="688.078125" xlink:href="#BitstreamVeraSans-Roman-6e"/>
      <use x="751.45703125" xlink:href="#BitstreamVeraSans-Roman-64"/>
      <use x="814.93359375" xlink:href="#BitstreamVeraSans-Roman-65"/>
      <use x="874.70703125" xlink:href="#BitstreamVeraSans-Roman-78"/>
      <use x="933.88671875" xlink:href="#BitstreamVeraSans-Roman-20"/>
      <use x="965.673828125" xlink:href="#BitstreamVeraSans-Roman-23"/>
     </g>
    </g>
   </g>
  </g>
  <g id="axes_2">
   <g id="patch_7">
    <path clip-path="url(#pc0aa0b088a)" d="
M486.545 379.84
L486.545 328.329
L486.545 70.7714
L486.545 19.26
L504.574 19.26
L504.574 70.7714
L504.574 328.329
L504.574 379.84
z
" style="fill:#ffffff;stroke:#ffffff;stroke-linejoin:miter;stroke-width:0.01;"/>
   </g>
   <g id="QuadMesh_1">
    <defs>
     <path d="
M486.545 -52.16
L504.574 -52.16
L504.574 -103.671
L486.545 -103.671
L486.545 -52.16" id="C7_0_b75817fa8f"/>
     <path d="
M486.545 -103.671
L504.574 -103.671
L504.574 -155.183
L486.545 -155.183
L486.545 -103.671" id="C7_1_d75429b04c"/>
     <path d="
M486.545 -155.183
L504.574 -155.183
L504.574 -206.694
L486.545 -206.694
L486.545 -155.183" id="C7_2_11be5272be"/>
     <path d="
M486.545 -206.694
L504.574 -206.694
L504.574 -258.206
L486.545 -258.206
L486.545 -206.694" id="C7_3_5ef3b573fd"/>
     <path d="
M486.545 -258.206
L504.574 -258.206
L504.574 -309.717
L486.545 -309.717
L486.545 -258.206" id="C7_4_fc499adfff"/>
     <path d="
M486.545 -309.717
L504.574 -309.717
L504.574 -361.229
L486.545 -361.229
L486.545 -309.717" id="C7_5_3ce8ad59ed"/>
     <path d="
M486.545 -361.229
L504.574 -361.229
L504.574 -412.74
L486.545 -412.74
L486.545 -361.229" id="C7_6_3505d950c0"/>
    </defs>
    <g clip-path="url(#pc0aa0b088a)">
     <use style="fill:#121212;" x="0.0" xlink:href="#C7_0_b75817fa8f" y="432.0"/>
    </g>
    <g clip-path="url(#pc0aa0b088a)">
     <use style="fill:#363636;" x="0.0" xlink:href="#C7_1_d75429b04c" y="432.0"/>
    </g>
    <g clip-path="url(#pc0aa0b088a)">
     <use style="fill:#5b5b5b;" x="0.0" xlink:href="#C7_2_11be5272be" y="432.0"/>
    </g>
    <g clip-path="url(#pc0aa0b088a)">
     <use style="fill:#808080;" x="0.0" xlink:href="#C7_3_5ef3b573fd" y="432.0"/>
    </g>
    <g clip-path="url(#pc0aa0b088a)">
     <use style="fill:#a4a4a4;" x="0.0" xlink:href="#C7_4_fc499adfff" y="432.0"/>
    </g>
    <g clip-path="url(#pc0aa0b088a)">
     <use style="fill:#c9c9c9;" x="0.0" xlink:href="#C7_5_3ce8ad59ed" y="432.0"/>
    </g>
    <g clip-path="url(#pc0aa0b088a)">
     <use style="fill:#ededed;" x="0.0" xlink:href="#C7_6_3505d950c0" y="432.0"/>
    </g>
   </g>
   <g id="patch_8">
    <path d="
M486.545 379.84
L486.545 328.329
L486.545 70.7714
L486.545 19.26
L504.574 19.26
L504.574 70.7714
L504.574 328.329
L504.574 379.84
z
" style="fill:none;stroke:#000000;stroke-linejoin:miter;"/>
   </g>
   <g id="matplotlib.axis_3"/>
   <g id="matplotlib.axis_4">
    <g id="ytick_6">
     <g id="line2d_32">
      <g>
       <use style="stroke:#000000;stroke-width:0.5;" x="504.574109375" xlink:href="#mcb0005524f" y="379.84"/>
      </g>
     </g>
     <g id="text_13">
      <!-- 0 -->
      <g transform="translate(508.574109375 383.15125)scale(0.12 -0.12)">
       <use xlink:href="#BitstreamVeraSans-Roman-30"/>
      </g>
     </g>
    </g>
    <g id="ytick_7">
     <g id="line2d_33">
      <g>
       <use style="stroke:#000000;stroke-width:0.5;" x="504.574109375" xlink:href="#mcb0005524f" y="328.328571429"/>
      </g>
     </g>
     <g id="text_14">
      <!-- 15 -->
      <g transform="translate(508.574109375 331.639821429)scale(0.12 -0.12)">
       <use xlink:href="#BitstreamVeraSans-Roman-31"/>
       <use x="63.623046875" xlink:href="#BitstreamVeraSans-Roman-35"/>
      </g>
     </g>
    </g>
    <g id="ytick_8">
     <g id="line2d_34">
      <g>
       <use style="stroke:#000000;stroke-width:0.5;" x="504.574109375" xlink:href="#mcb0005524f" y="276.817142857"/>
      </g>
     </g>
     <g id="text_15">
      <!-- 30 -->
      <defs>
       <path d="
M40.5781 39.3125
Q47.6562 37.7969 51.625 33
Q55.6094 28.2188 55.6094 21.1875
Q55.6094 10.4062 48.1875 4.48438
Q40.7656 -1.42188 27.0938 -1.42188
Q22.5156 -1.42188 17.6562 -0.515625
Q12.7969 0.390625 7.625 2.20312
L7.625 11.7188
Q11.7188 9.32812 16.5938 8.10938
Q21.4844 6.89062 26.8125 6.89062
Q36.0781 6.89062 40.9375 10.5469
Q45.7969 14.2031 45.7969 21.1875
Q45.7969 27.6406 41.2812 31.2656
Q36.7656 34.9062 28.7188 34.9062
L20.2188 34.9062
L20.2188 43.0156
L29.1094 43.0156
Q36.375 43.0156 40.2344 45.9219
Q44.0938 48.8281 44.0938 54.2969
Q44.0938 59.9062 40.1094 62.9062
Q36.1406 65.9219 28.7188 65.9219
Q24.6562 65.9219 20.0156 65.0312
Q15.375 64.1562 9.8125 62.3125
L9.8125 71.0938
Q15.4375 72.6562 20.3438 73.4375
Q25.25 74.2188 29.5938 74.2188
Q40.8281 74.2188 47.3594 69.1094
Q53.9062 64.0156 53.9062 55.3281
Q53.9062 49.2656 50.4375 45.0938
Q46.9688 40.9219 40.5781 39.3125" id="BitstreamVeraSans-Roman-33"/>
      </defs>
      <g transform="translate(508.574109375 280.128392857)scale(0.12 -0.12)">
       <use xlink:href="#BitstreamVeraSans-Roman-33"/>
       <use x="63.623046875" xlink:href="#BitstreamVeraSans-Roman-30"/>
      </g>
     </g>
    </g>
    <g id="ytick_9">
     <g id="line2d_35">
      <g>
       <use style="stroke:#000000;stroke-width:0.5;" x="504.574109375" xlink:href="#mcb0005524f" y="225.305714286"/>
      </g>
     </g>
     <g id="text_16">
      <!-- 45 -->
      <defs>
       <path d="
M37.7969 64.3125
L12.8906 25.3906
L37.7969 25.3906
z

M35.2031 72.9062
L47.6094 72.9062
L47.6094 25.3906
L58.0156 25.3906
L58.0156 17.1875
L47.6094 17.1875
L47.6094 0
L37.7969 0
L37.7969 17.1875
L4.89062 17.1875
L4.89062 26.7031
z
" id="BitstreamVeraSans-Roman-34"/>
      </defs>
      <g transform="translate(508.574109375 228.616964286)scale(0.12 -0.12)">
       <use xlink:href="#BitstreamVeraSans-Roman-34"/>
       <use x="63.623046875" xlink:href="#BitstreamVeraSans-Roman-35"/>
      </g>
     </g>
    </g>
    <g id="ytick_10">
     <g id="line2d_36">
      <g>
       <use style="stroke:#000000;stroke-width:0.5;" x="504.574109375" xlink:href="#mcb0005524f" y="173.794285714"/>
      </g>
     </g>
     <g id="text_17">
      <!-- 60 -->
      <defs>
       <path d="
M33.0156 40.375
Q26.375 40.375 22.4844 35.8281
Q18.6094 31.2969 18.6094 23.3906
Q18.6094 15.5312 22.4844 10.9531
Q26.375 6.39062 33.0156 6.39062
Q39.6562 6.39062 43.5312 10.9531
Q47.4062 15.5312 47.4062 23.3906
Q47.4062 31.2969 43.5312 35.8281
Q39.6562 40.375 33.0156 40.375
M52.5938 71.2969
L52.5938 62.3125
Q48.875 64.0625 45.0938 64.9844
Q41.3125 65.9219 37.5938 65.9219
Q27.8281 65.9219 22.6719 59.3281
Q17.5312 52.7344 16.7969 39.4062
Q19.6719 43.6562 24.0156 45.9219
Q28.375 48.1875 33.5938 48.1875
Q44.5781 48.1875 50.9531 41.5156
Q57.3281 34.8594 57.3281 23.3906
Q57.3281 12.1562 50.6875 5.35938
Q44.0469 -1.42188 33.0156 -1.42188
Q20.3594 -1.42188 13.6719 8.26562
Q6.98438 17.9688 6.98438 36.375
Q6.98438 53.6562 15.1875 63.9375
Q23.3906 74.2188 37.2031 74.2188
Q40.9219 74.2188 44.7031 73.4844
Q48.4844 72.75 52.5938 71.2969" id="BitstreamVeraSans-Roman-36"/>
      </defs>
      <g transform="translate(508.574109375 177.105535714)scale(0.12 -0.12)">
       <use xlink:href="#BitstreamVeraSans-Roman-36"/>
       <use x="63.623046875" xlink:href="#BitstreamVeraSans-Roman-30"/>
      </g>
     </g>
    </g>
    <g id="ytick_11">
     <g id="line2d_37">
      <g>
       <use style="stroke:#000000;stroke-width:0.5;" x="504.574109375" xlink:href="#mcb0005524f" y="122.282857143"/>
      </g>
     </g>
     <g id="text_18">
      <!-- 75 -->
      <defs>
       <path d="
M8.20312 72.9062
L55.0781 72.9062
L55.0781 68.7031
L28.6094 0
L18.3125 0
L43.2188 64.5938
L8.20312 64.5938
z
" id="BitstreamVeraSans-Roman-37"/>
      </defs>
      <g transform="translate(508.574109375 125.594107143)scale(0.12 -0.12)">
       <use xlink:href="#BitstreamVeraSans-Roman-37"/>
       <use x="63.623046875" xlink:href="#BitstreamVeraSans-Roman-35"/>
      </g>
     </g>
    </g>
    <g id="ytick_12">
     <g id="line2d_38">
      <g>
       <use style="stroke:#000000;stroke-width:0.5;" x="504.574109375" xlink:href="#mcb0005524f" y="70.7714285714"/>
      </g>
     </g>
     <g id="text_19">
      <!-- 90 -->
      <defs>
       <path d="
M10.9844 1.51562
L10.9844 10.5
Q14.7031 8.73438 18.5 7.8125
Q22.3125 6.89062 25.9844 6.89062
Q35.75 6.89062 40.8906 13.4531
Q46.0469 20.0156 46.7812 33.4062
Q43.9531 29.2031 39.5938 26.9531
Q35.25 24.7031 29.9844 24.7031
Q19.0469 24.7031 12.6719 31.3125
Q6.29688 37.9375 6.29688 49.4219
Q6.29688 60.6406 12.9375 67.4219
Q19.5781 74.2188 30.6094 74.2188
Q43.2656 74.2188 49.9219 64.5156
Q56.5938 54.8281 56.5938 36.375
Q56.5938 19.1406 48.4062 8.85938
Q40.2344 -1.42188 26.4219 -1.42188
Q22.7031 -1.42188 18.8906 -0.6875
Q15.0938 0.046875 10.9844 1.51562
M30.6094 32.4219
Q37.25 32.4219 41.125 36.9531
Q45.0156 41.5 45.0156 49.4219
Q45.0156 57.2812 41.125 61.8438
Q37.25 66.4062 30.6094 66.4062
Q23.9688 66.4062 20.0938 61.8438
Q16.2188 57.2812 16.2188 49.4219
Q16.2188 41.5 20.0938 36.9531
Q23.9688 32.4219 30.6094 32.4219" id="BitstreamVeraSans-Roman-39"/>
      </defs>
      <g transform="translate(508.574109375 74.0826785714)scale(0.12 -0.12)">
       <use xlink:href="#BitstreamVeraSans-Roman-39"/>
       <use x="63.623046875" xlink:href="#BitstreamVeraSans-Roman-30"/>
      </g>
     </g>
    </g>
    <g id="ytick_13">
     <g id="line2d_39">
      <g>
       <use style="stroke:#000000;stroke-width:0.5;" x="504.574109375" xlink:href="#mcb0005524f" y="19.26"/>
      </g>
     </g>
     <g id="text_20">
      <!-- 105 -->
      <g transform="translate(508.574109375 22.57125)scale(0.12 -0.12)">
       <use xlink:href="#BitstreamVeraSans-Roman-31"/>
       <use x="63.623046875" xlink:href="#BitstreamVeraSans-Roman-30"/>
       <use x="127.24609375" xlink:href="#BitstreamVeraSans-Roman-35"/>
      </g>
     </g>
    </g>
   </g>
  </g>
 </g>
 <defs>
  <clipPath id="pc0aa0b088a">
   <rect height="360.58" width="18.029" x="486.545109375" y="19.26"/>
  </clipPath>
  <clipPath id="p148d6a6e19">
   <rect height="360.58" width="407.97275" x="53.0740625" y="19.26"/>
  </clipPath>
 </defs>
</svg>
