<?xml version="1.0" encoding="utf-8" standalone="no"?>
<!DOCTYPE svg PUBLIC "-//W3C//DTD SVG 1.1//EN"
  "http://www.w3.org/Graphics/SVG/1.1/DTD/svg11.dtd">
<!-- Created with matplotlib (http://matplotlib.org/) -->
<svg height="432pt" version="1.1" viewBox="0 0 576 432" width="576pt" xmlns="http://www.w3.org/2000/svg" xmlns:xlink="http://www.w3.org/1999/xlink">
 <defs>
  <style type="text/css">
*{stroke-linecap:butt;stroke-linejoin:round;}
  </style>
 </defs>
 <g id="figure_1">
  <g id="patch_1">
   <path d="
M0 432
L576 432
L576 0
L0 0
z
" style="fill:#ffffff;"/>
  </g>
  <g id="axes_1">
   <g id="patch_2">
    <path d="
M53.0741 379.84
L461.047 379.84
L461.047 19.26
L53.0741 19.26
z
" style="fill:#ffffff;"/>
   </g>
   <g id="PathCollection_1">
    <defs>
     <path d="
M53.0741 -52.16
L63.2734 -52.16
L53.0741 -54.4136
L53.0741 -52.16" id="C0_0_005dc655f5"/>
     <path d="
M76.8725 -52.16
L87.0718 -52.16
L104.071 -52.16
L121.07 -52.16
L138.068 -52.16
L155.067 -52.16
L172.066 -52.16
L189.065 -52.16
L206.064 -52.16
L223.063 -52.16
L240.062 -52.16
L257.06 -52.16
L274.059 -52.16
L291.058 -52.16
L308.057 -52.16
L325.056 -52.16
L342.055 -52.16
L359.054 -52.16
L376.052 -52.16
L393.051 -52.16
L410.05 -52.16
L427.049 -52.16
L444.048 -52.16
L461.047 -52.16
L461.047 -67.1842
L461.047 -82.2083
L461.047 -97.2325
L461.047 -112.257
L461.047 -127.281
L461.047 -142.305
L461.047 -157.329
L461.047 -172.353
L461.047 -187.377
L461.047 -202.402
L461.047 -217.426
L461.047 -232.45
L461.047 -247.474
L461.047 -262.498
L461.047 -277.522
L461.047 -292.547
L461.047 -307.571
L461.047 -322.595
L461.047 -337.619
L461.047 -352.643
L461.047 -367.668
L461.047 -382.692
L461.047 -397.716
L461.047 -399.969
L444.048 -398.145
L427.049 -399.969
L410.05 -404.477
L393.051 -404.477
L376.052 -404.477
L366.703 -412.74
L359.054 -412.74
L342.055 -412.74
L325.056 -412.74
L308.057 -412.74
L291.058 -412.74
L274.059 -412.74
L257.06 -412.74
L240.062 -412.74
L223.063 -412.74
L206.064 -412.74
L189.065 -412.74
L172.066 -412.74
L155.067 -412.74
L138.068 -412.74
L121.07 -412.74
L104.071 -412.74
L87.0718 -412.74
L70.0729 -412.74
L53.0741 -412.74
L53.0741 -397.716
L53.0741 -382.692
L53.0741 -367.668
L53.0741 -352.643
L53.0741 -337.619
L53.0741 -322.595
L53.0741 -307.571
L53.0741 -292.547
L53.0741 -277.522
L53.0741 -262.498
L53.0741 -247.474
L53.0741 -232.45
L53.0741 -217.426
L53.0741 -202.402
L53.0741 -187.377
L53.0741 -172.353
L53.0741 -157.329
L53.0741 -142.305
L53.0741 -127.281
L53.0741 -112.257
L53.0741 -97.2325
L53.0741 -93.8521
L55.6239 -97.2325
L70.0729 -110.003
L77.7224 -112.257
L73.8977 -127.281
L87.0718 -138.925
L104.071 -140.051
L119.37 -142.305
L121.07 -143.807
L122.769 -142.305
L138.068 -136.671
L155.067 -140.051
L172.066 -131.037
L189.065 -133.29
L206.064 -133.29
L223.063 -135.544
L232.412 -127.281
L223.063 -119.018
L206.064 -121.271
L195.865 -112.257
L189.065 -106.247
L182.265 -112.257
L172.066 -123.525
L155.067 -114.51
L138.068 -117.891
L122.769 -112.257
L121.07 -110.754
L119.37 -112.257
L104.071 -114.51
L96.4212 -112.257
L101.521 -97.2325
L96.4212 -82.2083
L104.071 -68.6866
L105.771 -67.1842
L104.071 -65.6817
L87.0718 -55.5404
L76.8725 -52.16
M121.07 -80.7059
L119.37 -82.2083
L121.07 -83.7107
L138.068 -85.9644
L155.067 -88.218
L161.867 -82.2083
L155.067 -76.1987
L138.068 -78.4523
L121.07 -80.7059
M172.066 -63.4281
L167.816 -67.1842
L172.066 -70.9402
L176.316 -67.1842
L172.066 -63.4281
M274.059 -177.987
L263.435 -187.377
L274.059 -196.768
L289.358 -202.402
L291.058 -203.904
L292.758 -202.402
L302.957 -187.377
L291.058 -185.875
L274.059 -177.987
M325.056 -181.368
L309.19 -187.377
L325.056 -193.387
L342.055 -200.148
L356.504 -187.377
L342.055 -174.607
L325.056 -181.368
M70.0729 -181.368
L63.2734 -187.377
L70.0729 -193.387
L76.8725 -187.377
L70.0729 -181.368
M87.0718 -314.332
L77.7224 -322.595
L87.0718 -330.858
L96.4212 -322.595
L87.0718 -314.332
M104.071 -164.09
L94.7213 -172.353
L102.371 -187.377
L104.071 -188.88
L105.771 -187.377
L121.07 -173.856
L123.619 -187.377
L138.068 -200.148
L143.168 -202.402
L155.067 -212.919
L172.066 -211.792
L189.065 -208.411
L191.615 -217.426
L206.064 -230.196
L223.063 -230.196
L233.262 -232.45
L240.062 -238.46
L246.861 -232.45
L240.062 -226.44
L237.512 -217.426
L240.062 -212.919
L247.711 -217.426
L257.06 -225.689
L266.41 -217.426
L257.06 -209.163
L251.961 -202.402
L246.861 -187.377
L240.062 -181.368
L223.063 -179.114
L206.064 -176.861
L200.964 -172.353
L189.065 -161.836
L177.166 -172.353
L172.066 -174.607
L155.067 -175.358
L138.068 -174.607
L122.769 -172.353
L121.07 -170.851
L104.071 -164.09
M138.068 -288.791
L133.819 -292.547
L138.068 -296.303
L142.318 -292.547
L138.068 -288.791
M138.068 -318.839
L133.819 -322.595
L138.068 -326.351
L142.318 -322.595
L138.068 -318.839
M172.066 -318.839
L167.816 -322.595
L172.066 -326.351
L176.316 -322.595
L172.066 -318.839
M189.065 -286.537
L182.265 -292.547
L189.065 -298.556
L195.865 -292.547
L189.065 -286.537
M206.064 -251.981
L194.165 -262.498
L206.064 -273.015
L223.063 -274.142
L233.262 -277.522
L240.062 -283.532
L247.711 -292.547
L257.06 -300.81
L263.435 -307.571
L257.06 -309.824
L246.861 -307.571
L240.062 -301.561
L233.262 -307.571
L240.062 -313.58
L242.611 -322.595
L257.06 -335.366
L274.059 -326.351
L291.058 -324.097
L308.057 -335.366
L318.256 -337.619
L325.056 -343.629
L330.156 -352.643
L342.055 -363.16
L354.804 -367.668
L354.804 -382.692
L359.054 -386.448
L363.303 -382.692
L376.052 -379.311
L393.051 -380.438
L408.35 -382.692
L410.05 -384.194
L427.049 -386.448
L431.299 -382.692
L443.153 -367.668
L427.049 -356.399
L410.05 -354.897
L393.051 -354.897
L376.052 -356.024
L359.054 -363.911
L353.954 -352.643
L353.954 -337.619
L359.054 -335.366
L361.603 -337.619
L376.052 -350.39
L393.051 -349.263
L406.225 -337.619
L407.5 -322.595
L393.051 -309.824
L385.402 -307.571
L376.052 -299.308
L359.054 -298.181
L353.954 -292.547
L353.954 -277.522
L359.054 -266.254
L376.052 -270.762
L393.051 -270.762
L410.05 -264.001
L427.049 -266.254
L431.299 -262.498
L427.049 -258.742
L410.05 -260.996
L393.051 -254.235
L376.052 -254.235
L359.054 -258.742
L354.804 -262.498
L342.055 -267.006
L325.056 -271.513
L309.19 -277.522
L325.056 -283.532
L330.156 -292.547
L325.056 -295.551
L311.457 -307.571
L308.057 -309.824
L292.758 -307.571
L291.058 -306.068
L274.059 -298.181
L266.41 -292.547
L270.235 -277.522
L274.059 -275.269
L291.058 -275.269
L307.915 -262.498
L291.058 -249.728
L274.059 -249.728
L257.06 -249.728
L240.062 -249.728
L223.063 -250.855
L206.064 -251.981
M223.063 -284.283
L213.713 -292.547
L223.063 -300.81
L232.412 -292.547
L223.063 -284.283
M223.063 -314.332
L213.713 -322.595
L223.063 -330.858
L232.412 -322.595
L223.063 -314.332" id="C0_1_80e125b5ad"/>
    </defs>
    <g clip-path="url(#p148d6a6e19)">
     <use style="fill:#121212;" x="0.0" xlink:href="#C0_0_005dc655f5" y="432.0"/>
    </g>
    <g clip-path="url(#p148d6a6e19)">
     <use style="fill:#121212;" x="0.0" xlink:href="#C0_1_80e125b5ad" y="432.0"/>
    </g>
   </g>
   <g id="PathCollection_2">
    <defs>
     <path d="
M63.2734 -52.16
L70.0729 -52.16
L76.8725 -52.16
L87.0718 -55.5404
L104.071 -65.6817
L105.771 -67.1842
L104.071 -68.6866
L96.4212 -82.2083
L101.521 -97.2325
L96.4212 -112.257
L104.071 -114.51
L119.37 -112.257
L121.07 -110.754
L122.769 -112.257
L138.068 -117.891
L155.067 -114.51
L172.066 -123.525
L182.265 -112.257
L189.065 -106.247
L195.865 -112.257
L206.064 -121.271
L223.063 -119.018
L232.412 -127.281
L223.063 -135.544
L206.064 -133.29
L189.065 -133.29
L172.066 -131.037
L155.067 -140.051
L138.068 -136.671
L122.769 -142.305
L121.07 -143.807
L119.37 -142.305
L104.071 -140.051
L87.0718 -138.925
L73.8977 -127.281
L77.7224 -112.257
L70.0729 -110.003
L55.6239 -97.2325
L53.0741 -93.8521
L53.0741 -90.4716
L58.1737 -97.2325
L70.0729 -107.749
L85.3719 -112.257
L77.7224 -127.281
L87.0718 -135.544
L104.071 -137.798
L121.07 -139.901
L138.068 -131.037
L155.067 -137.798
L169.941 -127.281
L155.067 -116.764
L138.068 -123.525
L121.07 -114.661
L104.071 -116.764
L88.7717 -112.257
L98.971 -97.2325
L88.7717 -82.2083
L99.5376 -67.1842
L87.0718 -58.9209
L70.0729 -55.1648
L53.0741 -56.6672
L53.0741 -54.4136
L63.2734 -52.16
M223.063 -125.778
L216.263 -127.281
L223.063 -128.783
L224.763 -127.281
L223.063 -125.778" id="C1_0_639f83e214"/>
     <path d="
M172.066 -63.4281
L176.316 -67.1842
L172.066 -70.9402
L167.816 -67.1842
L172.066 -63.4281" id="C1_1_18a70271ca"/>
     <path d="
M121.07 -80.7059
L138.068 -78.4523
L155.067 -76.1987
L161.867 -82.2083
L155.067 -88.218
L138.068 -85.9644
L121.07 -83.7107
L119.37 -82.2083
L121.07 -80.7059" id="C1_2_d44130d834"/>
     <path d="
M104.071 -164.09
L121.07 -170.851
L122.769 -172.353
L138.068 -174.607
L155.067 -175.358
L172.066 -174.607
L177.166 -172.353
L189.065 -161.836
L200.964 -172.353
L206.064 -176.861
L223.063 -179.114
L240.062 -181.368
L246.861 -187.377
L251.961 -202.402
L257.06 -209.163
L266.41 -217.426
L257.06 -225.689
L247.711 -217.426
L240.062 -212.919
L237.512 -217.426
L240.062 -226.44
L246.861 -232.45
L240.062 -238.46
L233.262 -232.45
L223.063 -230.196
L206.064 -230.196
L191.615 -217.426
L189.065 -208.411
L172.066 -211.792
L155.067 -212.919
L143.168 -202.402
L138.068 -200.148
L123.619 -187.377
L121.07 -173.856
L105.771 -187.377
L104.071 -188.88
L102.371 -187.377
L94.7213 -172.353
L104.071 -164.09
M189.065 -166.344
L182.265 -172.353
L172.066 -176.861
L155.067 -178.363
L138.068 -176.861
L126.169 -187.377
L138.068 -197.894
L148.268 -202.402
L155.067 -208.411
L172.066 -206.158
L183.399 -202.402
L189.065 -201.4
L206.064 -199.397
L216.263 -202.402
L206.064 -203.403
L194.165 -217.426
L206.064 -227.943
L223.063 -227.943
L234.962 -217.426
L240.062 -208.411
L246.861 -202.402
L240.062 -190.382
L229.862 -187.377
L223.063 -185.875
L206.064 -181.368
L195.865 -172.353
L189.065 -166.344
M257.06 -215.923
L255.361 -217.426
L257.06 -218.928
L258.76 -217.426
L257.06 -215.923
M104.071 -170.851
L102.371 -172.353
L104.071 -175.358
L107.47 -172.353
L104.071 -170.851" id="C1_3_37c23570cc"/>
     <path d="
M70.0729 -181.368
L76.8725 -187.377
L70.0729 -193.387
L63.2734 -187.377
L70.0729 -181.368" id="C1_4_8046dd14ad"/>
     <path d="
M274.059 -177.987
L291.058 -185.875
L302.957 -187.377
L292.758 -202.402
L291.058 -203.904
L289.358 -202.402
L274.059 -196.768
L263.435 -187.377
L274.059 -177.987
M274.059 -183.621
L269.81 -187.377
L274.059 -191.134
L281.345 -187.377
L274.059 -183.621" id="C1_5_85019aa7cd"/>
     <path d="
M325.056 -181.368
L342.055 -174.607
L356.504 -187.377
L342.055 -200.148
L325.056 -193.387
L309.19 -187.377
L325.056 -181.368
M342.055 -176.861
L326.189 -187.377
L342.055 -197.894
L353.954 -187.377
L342.055 -176.861" id="C1_6_3efc358688"/>
     <path d="
M206.064 -251.981
L223.063 -250.855
L240.062 -249.728
L257.06 -249.728
L274.059 -249.728
L291.058 -249.728
L307.915 -262.498
L291.058 -275.269
L274.059 -275.269
L270.235 -277.522
L266.41 -292.547
L274.059 -298.181
L291.058 -306.068
L292.758 -307.571
L308.057 -309.824
L311.457 -307.571
L325.056 -295.551
L330.156 -292.547
L325.056 -283.532
L309.19 -277.522
L325.056 -271.513
L342.055 -267.006
L354.804 -262.498
L359.054 -258.742
L376.052 -254.235
L393.051 -254.235
L410.05 -260.996
L427.049 -258.742
L431.299 -262.498
L427.049 -266.254
L410.05 -264.001
L393.051 -270.762
L376.052 -270.762
L359.054 -266.254
L353.954 -277.522
L353.954 -292.547
L359.054 -298.181
L376.052 -299.308
L385.402 -307.571
L393.051 -309.824
L407.5 -322.595
L406.225 -337.619
L393.051 -349.263
L376.052 -350.39
L361.603 -337.619
L359.054 -335.366
L353.954 -337.619
L353.954 -352.643
L359.054 -363.911
L376.052 -356.024
L393.051 -354.897
L410.05 -354.897
L427.049 -356.399
L443.153 -367.668
L431.299 -382.692
L427.049 -386.448
L410.05 -384.194
L408.35 -382.692
L393.051 -380.438
L376.052 -379.311
L363.303 -382.692
L359.054 -386.448
L354.804 -382.692
L354.804 -367.668
L342.055 -363.16
L330.156 -352.643
L325.056 -343.629
L318.256 -337.619
L308.057 -335.366
L291.058 -324.097
L274.059 -326.351
L257.06 -335.366
L242.611 -322.595
L240.062 -313.58
L233.262 -307.571
L240.062 -301.561
L246.861 -307.571
L257.06 -309.824
L263.435 -307.571
L257.06 -300.81
L247.711 -292.547
L240.062 -283.532
L233.262 -277.522
L223.063 -274.142
L206.064 -273.015
L194.165 -262.498
L206.064 -251.981
M274.059 -303.815
L269.81 -307.571
L257.06 -312.078
L245.161 -322.595
L257.06 -333.112
L271.934 -322.595
L274.059 -315.083
L281.345 -307.571
L274.059 -303.815
M342.055 -271.513
L328.456 -277.522
L335.255 -292.547
L325.056 -298.556
L314.857 -307.571
L308.057 -312.078
L293.778 -322.595
L308.057 -333.112
L325.056 -336.618
L328.456 -337.619
L335.255 -352.643
L342.055 -358.653
L348.854 -352.643
L348.854 -337.619
L359.054 -333.112
L364.153 -337.619
L376.052 -348.136
L393.051 -345.882
L402.401 -337.619
L404.951 -322.595
L393.051 -312.078
L377.752 -307.571
L376.052 -306.068
L359.054 -303.815
L348.854 -292.547
L348.854 -277.522
L342.055 -271.513
M376.052 -260.996
L371.803 -262.498
L376.052 -264.001
L393.051 -264.001
L396.451 -262.498
L393.051 -260.996
L376.052 -260.996
M376.052 -359.404
L362.696 -367.668
L376.052 -375.931
L393.051 -378.184
L410.05 -380.288
L427.049 -378.936
L437.785 -367.668
L427.049 -360.155
L410.05 -357.151
L393.051 -357.151
L376.052 -359.404
M206.064 -256.489
L199.264 -262.498
L206.064 -268.508
L223.063 -270.762
L240.062 -276.521
L242.101 -277.522
L255.361 -292.547
L257.06 -294.049
L258.76 -292.547
L266.41 -277.522
L274.059 -273.015
L291.058 -273.015
L304.941 -262.498
L291.058 -251.981
L274.059 -251.981
L257.06 -251.981
L240.062 -251.981
L223.063 -254.235
L206.064 -256.489" id="C1_7_6297e15ab1"/>
     <path d="
M138.068 -288.791
L142.318 -292.547
L138.068 -296.303
L133.819 -292.547
L138.068 -288.791" id="C1_8_bcea527539"/>
     <path d="
M189.065 -286.537
L195.865 -292.547
L189.065 -298.556
L182.265 -292.547
L189.065 -286.537" id="C1_9_08f6721d8b"/>
     <path d="
M223.063 -284.283
L232.412 -292.547
L223.063 -300.81
L213.713 -292.547
L223.063 -284.283
M223.063 -291.044
L221.363 -292.547
L223.063 -294.049
L224.763 -292.547
L223.063 -291.044" id="C1_a_b5a16926e9"/>
     <path d="
M87.0718 -314.332
L96.4212 -322.595
L87.0718 -330.858
L77.7224 -322.595
L87.0718 -314.332
M87.0718 -321.093
L85.3719 -322.595
L87.0718 -324.097
L88.7717 -322.595
L87.0718 -321.093" id="C1_b_b99e398a78"/>
     <path d="
M138.068 -318.839
L142.318 -322.595
L138.068 -326.351
L133.819 -322.595
L138.068 -318.839" id="C1_c_52ec5b88db"/>
     <path d="
M172.066 -318.839
L176.316 -322.595
L172.066 -326.351
L167.816 -322.595
L172.066 -318.839" id="C1_d_008fc3013f"/>
     <path d="
M223.063 -314.332
L232.412 -322.595
L223.063 -330.858
L213.713 -322.595
L223.063 -314.332
M223.063 -321.093
L221.363 -322.595
L223.063 -324.097
L224.763 -322.595
L223.063 -321.093" id="C1_e_6f68b0d8be"/>
     <path d="
M376.052 -404.477
L393.051 -404.477
L410.05 -404.477
L427.049 -399.969
L444.048 -398.145
L461.047 -399.969
L461.047 -402.223
L444.048 -400.721
L427.049 -402.223
L410.05 -411.238
L393.051 -411.238
L376.052 -411.238
L374.353 -412.74
L366.703 -412.74
L376.052 -404.477" id="C1_f_2a1f138b17"/>
    </defs>
    <g clip-path="url(#p148d6a6e19)">
     <use style="fill:#363636;" x="0.0" xlink:href="#C1_0_639f83e214" y="432.0"/>
    </g>
    <g clip-path="url(#p148d6a6e19)">
     <use style="fill:#363636;" x="0.0" xlink:href="#C1_1_18a70271ca" y="432.0"/>
    </g>
    <g clip-path="url(#p148d6a6e19)">
     <use style="fill:#363636;" x="0.0" xlink:href="#C1_2_d44130d834" y="432.0"/>
    </g>
    <g clip-path="url(#p148d6a6e19)">
     <use style="fill:#363636;" x="0.0" xlink:href="#C1_3_37c23570cc" y="432.0"/>
    </g>
    <g clip-path="url(#p148d6a6e19)">
     <use style="fill:#363636;" x="0.0" xlink:href="#C1_4_8046dd14ad" y="432.0"/>
    </g>
    <g clip-path="url(#p148d6a6e19)">
     <use style="fill:#363636;" x="0.0" xlink:href="#C1_5_85019aa7cd" y="432.0"/>
    </g>
    <g clip-path="url(#p148d6a6e19)">
     <use style="fill:#363636;" x="0.0" xlink:href="#C1_6_3efc358688" y="432.0"/>
    </g>
    <g clip-path="url(#p148d6a6e19)">
     <use style="fill:#363636;" x="0.0" xlink:href="#C1_7_6297e15ab1" y="432.0"/>
    </g>
    <g clip-path="url(#p148d6a6e19)">
     <use style="fill:#363636;" x="0.0" xlink:href="#C1_8_bcea527539" y="432.0"/>
    </g>
    <g clip-path="url(#p148d6a6e19)">
     <use style="fill:#363636;" x="0.0" xlink:href="#C1_9_08f6721d8b" y="432.0"/>
    </g>
    <g clip-path="url(#p148d6a6e19)">
     <use style="fill:#363636;" x="0.0" xlink:href="#C1_a_b5a16926e9" y="432.0"/>
    </g>
    <g clip-path="url(#p148d6a6e19)">
     <use style="fill:#363636;" x="0.0" xlink:href="#C1_b_b99e398a78" y="432.0"/>
    </g>
    <g clip-path="url(#p148d6a6e19)">
     <use style="fill:#363636;" x="0.0" xlink:href="#C1_c_52ec5b88db" y="432.0"/>
    </g>
    <g clip-path="url(#p148d6a6e19)">
     <use style="fill:#363636;" x="0.0" xlink:href="#C1_d_008fc3013f" y="432.0"/>
    </g>
    <g clip-path="url(#p148d6a6e19)">
     <use style="fill:#363636;" x="0.0" xlink:href="#C1_e_6f68b0d8be" y="432.0"/>
    </g>
    <g clip-path="url(#p148d6a6e19)">
     <use style="fill:#363636;" x="0.0" xlink:href="#C1_f_2a1f138b17" y="432.0"/>
    </g>
   </g>
   <g id="PathCollection_3">
    <defs>
     <path d="
M53.0741 -58.9209
L53.0741 -56.6672
L70.0729 -55.1648
L87.0718 -58.9209
L99.5376 -67.1842
L88.7717 -82.2083
L98.971 -97.2325
L88.7717 -112.257
L104.071 -116.764
L121.07 -114.661
L138.068 -123.525
L155.067 -116.764
L169.941 -127.281
L155.067 -137.798
L138.068 -131.037
L121.07 -139.901
L104.071 -137.798
L87.0718 -135.544
L77.7224 -127.281
L85.3719 -112.257
L70.0729 -107.749
L58.1737 -97.2325
L53.0741 -90.4716
L53.0741 -87.0912
L60.7236 -97.2325
L70.0729 -105.496
L87.0718 -109.627
L96.4212 -97.2325
L87.0718 -84.8376
L75.1726 -82.2083
L87.0718 -76.9499
L94.438 -67.1842
L87.0718 -62.3013
L70.0729 -64.1793
L53.0741 -58.9209
M155.067 -119.018
L139.485 -127.281
L155.067 -135.544
L166.754 -127.281
L155.067 -119.018
M87.0718 -117.515
L81.5472 -127.281
L87.0718 -132.164
L104.071 -135.544
L121.07 -137.197
L136.652 -127.281
L121.07 -117.365
L104.071 -119.018
L87.0718 -117.515" id="C2_0_87d1086460"/>
     <path d="
M223.063 -125.778
L224.763 -127.281
L223.063 -128.783
L216.263 -127.281
L223.063 -125.778" id="C2_1_2a6ae6c36b"/>
     <path d="
M104.071 -170.851
L107.47 -172.353
L104.071 -175.358
L102.371 -172.353
L104.071 -170.851" id="C2_2_723c8868fb"/>
     <path d="
M189.065 -166.344
L195.865 -172.353
L206.064 -181.368
L223.063 -185.875
L229.862 -187.377
L240.062 -190.382
L246.861 -202.402
L240.062 -208.411
L234.962 -217.426
L223.063 -227.943
L206.064 -227.943
L194.165 -217.426
L206.064 -203.403
L216.263 -202.402
L206.064 -199.397
L189.065 -201.4
L183.399 -202.402
L172.066 -206.158
L155.067 -208.411
L148.268 -202.402
L138.068 -197.894
L126.169 -187.377
L138.068 -176.861
L155.067 -178.363
L172.066 -176.861
L182.265 -172.353
L189.065 -166.344
M240.062 -199.397
L234.962 -202.402
L223.063 -205.031
L206.064 -206.408
L196.714 -217.426
L206.064 -225.689
L223.063 -225.689
L232.412 -217.426
L240.062 -203.904
L241.761 -202.402
L240.062 -199.397
M189.065 -170.851
L187.365 -172.353
L172.066 -179.114
L155.067 -181.368
L138.068 -179.114
L128.719 -187.377
L138.068 -195.641
L153.367 -202.402
L155.067 -203.904
L163.567 -202.402
L172.066 -201.15
L189.065 -198.395
L206.064 -190.382
L211.164 -187.377
L206.064 -185.875
L190.765 -172.353
L189.065 -170.851" id="C2_3_f87526fe5a"/>
     <path d="
M274.059 -183.621
L281.345 -187.377
L274.059 -191.134
L269.81 -187.377
L274.059 -183.621" id="C2_4_0120bf89c1"/>
     <path d="
M342.055 -176.861
L353.954 -187.377
L342.055 -197.894
L326.189 -187.377
L342.055 -176.861
M342.055 -179.114
L329.589 -187.377
L342.055 -195.641
L351.404 -187.377
L342.055 -179.114" id="C2_5_95cecda709"/>
     <path d="
M257.06 -215.923
L258.76 -217.426
L257.06 -218.928
L255.361 -217.426
L257.06 -215.923" id="C2_6_a1e63d79e5"/>
     <path d="
M206.064 -256.489
L223.063 -254.235
L240.062 -251.981
L257.06 -251.981
L274.059 -251.981
L291.058 -251.981
L304.941 -262.498
L291.058 -273.015
L274.059 -273.015
L266.41 -277.522
L258.76 -292.547
L257.06 -294.049
L255.361 -292.547
L242.101 -277.522
L240.062 -276.521
L223.063 -270.762
L206.064 -268.508
L199.264 -262.498
L206.064 -256.489
M206.064 -260.996
L204.364 -262.498
L206.064 -264.001
L223.063 -267.381
L240.062 -273.516
L248.221 -277.522
L257.06 -287.288
L262.585 -277.522
L274.059 -270.762
L291.058 -270.762
L301.966 -262.498
L291.058 -254.235
L274.059 -254.235
L257.06 -254.235
L240.062 -254.235
L223.063 -257.615
L206.064 -260.996" id="C2_7_c9dcdfebce"/>
     <path d="
M376.052 -260.996
L393.051 -260.996
L396.451 -262.498
L393.051 -264.001
L376.052 -264.001
L371.803 -262.498
L376.052 -260.996" id="C2_8_c3ef9a5a26"/>
     <path d="
M342.055 -271.513
L348.854 -277.522
L348.854 -292.547
L359.054 -303.815
L376.052 -306.068
L377.752 -307.571
L393.051 -312.078
L404.951 -322.595
L402.401 -337.619
L393.051 -345.882
L376.052 -348.136
L364.153 -337.619
L359.054 -333.112
L348.854 -337.619
L348.854 -352.643
L342.055 -358.653
L335.255 -352.643
L328.456 -337.619
L325.056 -336.618
L308.057 -333.112
L293.778 -322.595
L308.057 -312.078
L314.857 -307.571
L325.056 -298.556
L335.255 -292.547
L328.456 -277.522
L342.055 -271.513
M342.055 -276.02
L338.655 -277.522
L340.355 -292.547
L325.056 -301.561
L318.256 -307.571
L308.057 -314.332
L296.838 -322.595
L308.057 -330.858
L325.056 -333.613
L338.655 -337.619
L340.355 -352.643
L342.055 -354.146
L343.755 -352.643
L343.755 -337.619
L359.054 -330.858
L366.703 -337.619
L376.052 -345.882
L393.051 -342.502
L398.576 -337.619
L402.401 -322.595
L393.051 -314.332
L376.052 -312.829
L359.054 -308.823
L357.637 -307.571
L343.755 -292.547
L343.755 -277.522
L342.055 -276.02" id="C2_9_33ba063782"/>
     <path d="
M223.063 -291.044
L224.763 -292.547
L223.063 -294.049
L221.363 -292.547
L223.063 -291.044" id="C2_a_4030e81f58"/>
     <path d="
M274.059 -303.815
L281.345 -307.571
L274.059 -315.083
L271.934 -322.595
L257.06 -333.112
L245.161 -322.595
L257.06 -312.078
L269.81 -307.571
L274.059 -303.815
M257.06 -314.332
L247.711 -322.595
L257.06 -330.858
L268.747 -322.595
L257.06 -314.332" id="C2_b_2b2db49a5e"/>
     <path d="
M87.0718 -321.093
L88.7717 -322.595
L87.0718 -324.097
L85.3719 -322.595
L87.0718 -321.093" id="C2_c_ace278d332"/>
     <path d="
M223.063 -321.093
L224.763 -322.595
L223.063 -324.097
L221.363 -322.595
L223.063 -321.093" id="C2_d_1fa21dd753"/>
     <path d="
M376.052 -359.404
L393.051 -357.151
L410.05 -357.151
L427.049 -360.155
L437.785 -367.668
L427.049 -378.936
L410.05 -380.288
L393.051 -378.184
L376.052 -375.931
L362.696 -367.668
L376.052 -359.404
M376.052 -362.785
L368.16 -367.668
L376.052 -372.55
L393.051 -375.931
L410.05 -377.583
L427.049 -373.302
L432.417 -367.668
L427.049 -363.911
L410.05 -359.404
L393.051 -359.404
L376.052 -362.785" id="C2_e_5bb3fd487e"/>
     <path d="
M376.052 -411.238
L393.051 -411.238
L410.05 -411.238
L427.049 -402.223
L444.048 -400.721
L461.047 -402.223
L461.047 -404.477
L444.048 -403.296
L427.049 -404.477
L413.025 -412.74
L410.05 -412.74
L393.051 -412.74
L376.052 -412.74
L374.353 -412.74
L376.052 -411.238" id="C2_f_f7e885aa4c"/>
    </defs>
    <g clip-path="url(#p148d6a6e19)">
     <use style="fill:#5b5b5b;" x="0.0" xlink:href="#C2_0_87d1086460" y="432.0"/>
    </g>
    <g clip-path="url(#p148d6a6e19)">
     <use style="fill:#5b5b5b;" x="0.0" xlink:href="#C2_1_2a6ae6c36b" y="432.0"/>
    </g>
    <g clip-path="url(#p148d6a6e19)">
     <use style="fill:#5b5b5b;" x="0.0" xlink:href="#C2_2_723c8868fb" y="432.0"/>
    </g>
    <g clip-path="url(#p148d6a6e19)">
     <use style="fill:#5b5b5b;" x="0.0" xlink:href="#C2_3_f87526fe5a" y="432.0"/>
    </g>
    <g clip-path="url(#p148d6a6e19)">
     <use style="fill:#5b5b5b;" x="0.0" xlink:href="#C2_4_0120bf89c1" y="432.0"/>
    </g>
    <g clip-path="url(#p148d6a6e19)">
     <use style="fill:#5b5b5b;" x="0.0" xlink:href="#C2_5_95cecda709" y="432.0"/>
    </g>
    <g clip-path="url(#p148d6a6e19)">
     <use style="fill:#5b5b5b;" x="0.0" xlink:href="#C2_6_a1e63d79e5" y="432.0"/>
    </g>
    <g clip-path="url(#p148d6a6e19)">
     <use style="fill:#5b5b5b;" x="0.0" xlink:href="#C2_7_c9dcdfebce" y="432.0"/>
    </g>
    <g clip-path="url(#p148d6a6e19)">
     <use style="fill:#5b5b5b;" x="0.0" xlink:href="#C2_8_c3ef9a5a26" y="432.0"/>
    </g>
    <g clip-path="url(#p148d6a6e19)">
     <use style="fill:#5b5b5b;" x="0.0" xlink:href="#C2_9_33ba063782" y="432.0"/>
    </g>
    <g clip-path="url(#p148d6a6e19)">
     <use style="fill:#5b5b5b;" x="0.0" xlink:href="#C2_a_4030e81f58" y="432.0"/>
    </g>
    <g clip-path="url(#p148d6a6e19)">
     <use style="fill:#5b5b5b;" x="0.0" xlink:href="#C2_b_2b2db49a5e" y="432.0"/>
    </g>
    <g clip-path="url(#p148d6a6e19)">
     <use style="fill:#5b5b5b;" x="0.0" xlink:href="#C2_c_ace278d332" y="432.0"/>
    </g>
    <g clip-path="url(#p148d6a6e19)">
     <use style="fill:#5b5b5b;" x="0.0" xlink:href="#C2_d_1fa21dd753" y="432.0"/>
    </g>
    <g clip-path="url(#p148d6a6e19)">
     <use style="fill:#5b5b5b;" x="0.0" xlink:href="#C2_e_5bb3fd487e" y="432.0"/>
    </g>
    <g clip-path="url(#p148d6a6e19)">
     <use style="fill:#5b5b5b;" x="0.0" xlink:href="#C2_f_f7e885aa4c" y="432.0"/>
    </g>
   </g>
   <g id="PathCollection_4">
    <defs>
     <path d="
M53.0741 -61.1745
L53.0741 -58.9209
L70.0729 -64.1793
L87.0718 -62.3013
L94.438 -67.1842
L87.0718 -76.9499
L75.1726 -82.2083
L87.0718 -84.8376
L96.4212 -97.2325
L87.0718 -109.627
L70.0729 -105.496
L60.7236 -97.2325
L53.0741 -87.0912
L53.0741 -83.7107
L59.8736 -82.2083
L66.6732 -67.1842
L53.0741 -61.1745
M70.0729 -85.2132
L63.2734 -97.2325
L70.0729 -103.242
L87.0718 -106.247
L93.8713 -97.2325
L87.0718 -88.218
L70.0729 -85.2132
M87.0718 -65.6817
L80.2722 -67.1842
L87.0718 -70.189
L89.3383 -67.1842
L87.0718 -65.6817" id="C3_0_2a57c500ed"/>
     <path d="
M87.0718 -117.515
L104.071 -119.018
L121.07 -117.365
L136.652 -127.281
L121.07 -137.197
L104.071 -135.544
L87.0718 -132.164
L81.5472 -127.281
L87.0718 -117.515
M87.0718 -124.276
L85.3719 -127.281
L87.0718 -128.783
L104.071 -133.29
L121.07 -134.492
L132.402 -127.281
L121.07 -120.069
L104.071 -121.271
L87.0718 -124.276" id="C3_1_f267d14856"/>
     <path d="
M155.067 -119.018
L166.754 -127.281
L155.067 -135.544
L139.485 -127.281
L155.067 -119.018
M155.067 -121.271
L143.735 -127.281
L155.067 -133.29
L163.567 -127.281
L155.067 -121.271" id="C3_2_e2417dd33e"/>
     <path d="
M189.065 -170.851
L190.765 -172.353
L206.064 -185.875
L211.164 -187.377
L206.064 -190.382
L189.065 -198.395
L172.066 -201.15
L163.567 -202.402
L155.067 -203.904
L153.367 -202.402
L138.068 -195.641
L128.719 -187.377
L138.068 -179.114
L155.067 -181.368
L172.066 -179.114
L187.365 -172.353
L189.065 -170.851
M138.068 -181.368
L131.269 -187.377
L138.068 -193.387
L155.067 -196.392
L172.066 -197.394
L189.065 -195.39
L202.664 -187.377
L189.065 -175.358
L172.066 -181.368
L155.067 -184.373
L138.068 -181.368" id="C3_3_33359cad6b"/>
     <path d="
M342.055 -179.114
L351.404 -187.377
L342.055 -195.641
L329.589 -187.377
L342.055 -179.114
M342.055 -181.368
L332.989 -187.377
L342.055 -193.387
L348.854 -187.377
L342.055 -181.368" id="C3_4_b100c947ea"/>
     <path d="
M240.062 -199.397
L241.761 -202.402
L240.062 -203.904
L232.412 -217.426
L223.063 -225.689
L206.064 -225.689
L196.714 -217.426
L206.064 -206.408
L223.063 -205.031
L234.962 -202.402
L240.062 -199.397
M206.064 -209.413
L199.264 -217.426
L206.064 -223.435
L223.063 -223.435
L229.862 -217.426
L223.063 -208.411
L206.064 -209.413" id="C3_5_372be11665"/>
     <path d="
M206.064 -260.996
L223.063 -257.615
L240.062 -254.235
L257.06 -254.235
L274.059 -254.235
L291.058 -254.235
L301.966 -262.498
L291.058 -270.762
L274.059 -270.762
L262.585 -277.522
L257.06 -287.288
L248.221 -277.522
L240.062 -273.516
L223.063 -267.381
L206.064 -264.001
L204.364 -262.498
L206.064 -260.996
M223.063 -260.996
L216.263 -262.498
L223.063 -264.001
L240.062 -270.511
L254.341 -277.522
L257.06 -280.527
L258.76 -277.522
L274.059 -268.508
L291.058 -268.508
L298.991 -262.498
L291.058 -256.489
L274.059 -256.489
L257.06 -256.489
L240.062 -256.489
L223.063 -260.996" id="C3_6_c2f74886ca"/>
     <path d="
M342.055 -276.02
L343.755 -277.522
L343.755 -292.547
L357.637 -307.571
L359.054 -308.823
L376.052 -312.829
L393.051 -314.332
L402.401 -322.595
L398.576 -337.619
L393.051 -342.502
L376.052 -345.882
L366.703 -337.619
L359.054 -330.858
L343.755 -337.619
L343.755 -352.643
L342.055 -354.146
L340.355 -352.643
L338.655 -337.619
L325.056 -333.613
L308.057 -330.858
L296.838 -322.595
L308.057 -314.332
L318.256 -307.571
L325.056 -301.561
L340.355 -292.547
L338.655 -277.522
L342.055 -276.02
M325.056 -304.566
L321.656 -307.571
L308.057 -316.585
L299.898 -322.595
L308.057 -328.605
L325.056 -330.608
L342.055 -334.614
L359.054 -328.605
L369.253 -337.619
L376.052 -343.629
L393.051 -339.122
L394.751 -337.619
L399.851 -322.595
L393.051 -316.585
L376.052 -319.59
L359.054 -312.579
L353.387 -307.571
L342.055 -295.551
L325.056 -304.566" id="C3_7_24f4e707f1"/>
     <path d="
M257.06 -314.332
L268.747 -322.595
L257.06 -330.858
L247.711 -322.595
L257.06 -314.332
M257.06 -316.585
L250.261 -322.595
L257.06 -328.605
L265.56 -322.595
L257.06 -316.585" id="C3_8_c2bb81fa54"/>
     <path d="
M376.052 -362.785
L393.051 -359.404
L410.05 -359.404
L427.049 -363.911
L432.417 -367.668
L427.049 -373.302
L410.05 -377.583
L393.051 -375.931
L376.052 -372.55
L368.16 -367.668
L376.052 -362.785
M376.052 -366.165
L373.624 -367.668
L376.052 -369.17
L393.051 -373.677
L410.05 -374.879
L427.049 -367.668
L410.05 -361.658
L393.051 -361.658
L376.052 -366.165" id="C3_9_f17b0b107e"/>
     <path d="
M427.049 -404.477
L444.048 -403.296
L461.047 -404.477
L461.047 -406.73
L444.048 -405.872
L427.049 -406.73
L416.85 -412.74
L413.025 -412.74
L427.049 -404.477" id="C3_a_d8f72805c7"/>
    </defs>
    <g clip-path="url(#p148d6a6e19)">
     <use style="fill:#808080;" x="0.0" xlink:href="#C3_0_2a57c500ed" y="432.0"/>
    </g>
    <g clip-path="url(#p148d6a6e19)">
     <use style="fill:#808080;" x="0.0" xlink:href="#C3_1_f267d14856" y="432.0"/>
    </g>
    <g clip-path="url(#p148d6a6e19)">
     <use style="fill:#808080;" x="0.0" xlink:href="#C3_2_e2417dd33e" y="432.0"/>
    </g>
    <g clip-path="url(#p148d6a6e19)">
     <use style="fill:#808080;" x="0.0" xlink:href="#C3_3_33359cad6b" y="432.0"/>
    </g>
    <g clip-path="url(#p148d6a6e19)">
     <use style="fill:#808080;" x="0.0" xlink:href="#C3_4_b100c947ea" y="432.0"/>
    </g>
    <g clip-path="url(#p148d6a6e19)">
     <use style="fill:#808080;" x="0.0" xlink:href="#C3_5_372be11665" y="432.0"/>
    </g>
    <g clip-path="url(#p148d6a6e19)">
     <use style="fill:#808080;" x="0.0" xlink:href="#C3_6_c2f74886ca" y="432.0"/>
    </g>
    <g clip-path="url(#p148d6a6e19)">
     <use style="fill:#808080;" x="0.0" xlink:href="#C3_7_24f4e707f1" y="432.0"/>
    </g>
    <g clip-path="url(#p148d6a6e19)">
     <use style="fill:#808080;" x="0.0" xlink:href="#C3_8_c2bb81fa54" y="432.0"/>
    </g>
    <g clip-path="url(#p148d6a6e19)">
     <use style="fill:#808080;" x="0.0" xlink:href="#C3_9_f17b0b107e" y="432.0"/>
    </g>
    <g clip-path="url(#p148d6a6e19)">
     <use style="fill:#808080;" x="0.0" xlink:href="#C3_a_d8f72805c7" y="432.0"/>
    </g>
   </g>
   <g id="PathCollection_5">
    <defs>
     <path d="
M53.0741 -63.4281
L53.0741 -61.1745
L66.6732 -67.1842
L59.8736 -82.2083
L53.0741 -83.7107
L53.0741 -82.2083
L53.0741 -78.4523
L61.5735 -67.1842
L53.0741 -63.4281" id="C4_0_17b95c7c8d"/>
     <path d="
M87.0718 -65.6817
L89.3383 -67.1842
L87.0718 -70.189
L80.2722 -67.1842
L87.0718 -65.6817" id="C4_1_bd57000688"/>
     <path d="
M70.0729 -85.2132
L87.0718 -88.218
L93.8713 -97.2325
L87.0718 -106.247
L70.0729 -103.242
L63.2734 -97.2325
L70.0729 -85.2132
M70.0729 -89.7204
L65.8232 -97.2325
L70.0729 -100.989
L87.0718 -102.867
L91.3215 -97.2325
L87.0718 -91.5984
L70.0729 -89.7204" id="C4_2_eac17b620e"/>
     <path d="
M87.0718 -124.276
L104.071 -121.271
L121.07 -120.069
L132.402 -127.281
L121.07 -134.492
L104.071 -133.29
L87.0718 -128.783
L85.3719 -127.281
L87.0718 -124.276
M104.071 -123.525
L91.3215 -127.281
L104.071 -131.037
L121.07 -131.788
L128.152 -127.281
L121.07 -122.774
L104.071 -123.525" id="C4_3_0025bce142"/>
     <path d="
M155.067 -121.271
L163.567 -127.281
L155.067 -133.29
L143.735 -127.281
L155.067 -121.271
M155.067 -123.525
L147.984 -127.281
L155.067 -131.037
L160.379 -127.281
L155.067 -123.525" id="C4_4_2a862f6c14"/>
     <path d="
M138.068 -181.368
L155.067 -184.373
L172.066 -181.368
L189.065 -175.358
L202.664 -187.377
L189.065 -195.39
L172.066 -197.394
L155.067 -196.392
L138.068 -193.387
L131.269 -187.377
L138.068 -181.368
M172.066 -183.621
L155.067 -187.377
L172.066 -193.638
L189.065 -192.386
L197.564 -187.377
L189.065 -179.865
L172.066 -183.621
M138.068 -183.621
L133.819 -187.377
L138.068 -191.134
L155.067 -187.377
L138.068 -183.621" id="C4_5_1d824682a9"/>
     <path d="
M342.055 -181.368
L348.854 -187.377
L342.055 -193.387
L332.989 -187.377
L342.055 -181.368
M342.055 -183.621
L336.388 -187.377
L342.055 -191.134
L346.304 -187.377
L342.055 -183.621" id="C4_6_870271103c"/>
     <path d="
M206.064 -209.413
L223.063 -208.411
L229.862 -217.426
L223.063 -223.435
L206.064 -223.435
L199.264 -217.426
L206.064 -209.413
M206.064 -212.418
L201.814 -217.426
L206.064 -221.182
L223.063 -221.182
L227.312 -217.426
L223.063 -211.792
L206.064 -212.418" id="C4_7_f494cae6fc"/>
     <path d="
M223.063 -260.996
L240.062 -256.489
L257.06 -256.489
L274.059 -256.489
L291.058 -256.489
L298.991 -262.498
L291.058 -268.508
L274.059 -268.508
L258.76 -277.522
L257.06 -280.527
L254.341 -277.522
L240.062 -270.511
L223.063 -264.001
L216.263 -262.498
L223.063 -260.996
M240.062 -258.742
L227.312 -262.498
L240.062 -267.506
L257.06 -273.766
L274.059 -266.254
L291.058 -266.254
L296.016 -262.498
L291.058 -258.742
L274.059 -258.742
L257.06 -258.742
L240.062 -258.742" id="C4_8_062c7f6715"/>
     <path d="
M325.056 -304.566
L342.055 -295.551
L353.387 -307.571
L359.054 -312.579
L376.052 -319.59
L393.051 -316.585
L399.851 -322.595
L394.751 -337.619
L393.051 -339.122
L376.052 -343.629
L369.253 -337.619
L359.054 -328.605
L342.055 -334.614
L325.056 -330.608
L308.057 -328.605
L299.898 -322.595
L308.057 -316.585
L321.656 -307.571
L325.056 -304.566
M342.055 -300.059
L325.056 -307.571
L325.056 -307.571
L308.057 -318.839
L302.957 -322.595
L308.057 -326.351
L325.056 -327.603
L342.055 -330.107
L359.054 -326.351
L371.803 -322.595
L359.054 -316.335
L349.138 -307.571
L342.055 -300.059
M393.051 -318.839
L380.302 -322.595
L376.052 -326.351
L371.803 -337.619
L376.052 -341.375
L388.802 -337.619
L393.051 -333.863
L397.301 -322.595
L393.051 -318.839" id="C4_9_9c9e5d6101"/>
     <path d="
M257.06 -316.585
L265.56 -322.595
L257.06 -328.605
L250.261 -322.595
L257.06 -316.585
M257.06 -318.839
L252.811 -322.595
L257.06 -326.351
L262.373 -322.595
L257.06 -318.839" id="C4_a_26ec57077d"/>
     <path d="
M376.052 -366.165
L393.051 -361.658
L410.05 -361.658
L427.049 -367.668
L410.05 -374.879
L393.051 -373.677
L376.052 -369.17
L373.624 -367.668
L376.052 -366.165
M393.051 -363.911
L380.302 -367.668
L393.051 -371.424
L410.05 -372.175
L420.675 -367.668
L410.05 -363.911
L393.051 -363.911" id="C4_b_2eafb6d4e2"/>
     <path d="
M427.049 -406.73
L444.048 -405.872
L461.047 -406.73
L461.047 -408.984
L444.048 -408.447
L427.049 -408.984
L420.675 -412.74
L416.85 -412.74
L427.049 -406.73" id="C4_c_3c185a3548"/>
    </defs>
    <g clip-path="url(#p148d6a6e19)">
     <use style="fill:#a4a4a4;" x="0.0" xlink:href="#C4_0_17b95c7c8d" y="432.0"/>
    </g>
    <g clip-path="url(#p148d6a6e19)">
     <use style="fill:#a4a4a4;" x="0.0" xlink:href="#C4_1_bd57000688" y="432.0"/>
    </g>
    <g clip-path="url(#p148d6a6e19)">
     <use style="fill:#a4a4a4;" x="0.0" xlink:href="#C4_2_eac17b620e" y="432.0"/>
    </g>
    <g clip-path="url(#p148d6a6e19)">
     <use style="fill:#a4a4a4;" x="0.0" xlink:href="#C4_3_0025bce142" y="432.0"/>
    </g>
    <g clip-path="url(#p148d6a6e19)">
     <use style="fill:#a4a4a4;" x="0.0" xlink:href="#C4_4_2a862f6c14" y="432.0"/>
    </g>
    <g clip-path="url(#p148d6a6e19)">
     <use style="fill:#a4a4a4;" x="0.0" xlink:href="#C4_5_1d824682a9" y="432.0"/>
    </g>
    <g clip-path="url(#p148d6a6e19)">
     <use style="fill:#a4a4a4;" x="0.0" xlink:href="#C4_6_870271103c" y="432.0"/>
    </g>
    <g clip-path="url(#p148d6a6e19)">
     <use style="fill:#a4a4a4;" x="0.0" xlink:href="#C4_7_f494cae6fc" y="432.0"/>
    </g>
    <g clip-path="url(#p148d6a6e19)">
     <use style="fill:#a4a4a4;" x="0.0" xlink:href="#C4_8_062c7f6715" y="432.0"/>
    </g>
    <g clip-path="url(#p148d6a6e19)">
     <use style="fill:#a4a4a4;" x="0.0" xlink:href="#C4_9_9c9e5d6101" y="432.0"/>
    </g>
    <g clip-path="url(#p148d6a6e19)">
     <use style="fill:#a4a4a4;" x="0.0" xlink:href="#C4_a_26ec57077d" y="432.0"/>
    </g>
    <g clip-path="url(#p148d6a6e19)">
     <use style="fill:#a4a4a4;" x="0.0" xlink:href="#C4_b_2eafb6d4e2" y="432.0"/>
    </g>
    <g clip-path="url(#p148d6a6e19)">
     <use style="fill:#a4a4a4;" x="0.0" xlink:href="#C4_c_3c185a3548" y="432.0"/>
    </g>
   </g>
   <g id="PathCollection_6">
    <defs>
     <path d="
M53.0741 -65.6817
L53.0741 -63.4281
L61.5735 -67.1842
L53.0741 -78.4523
L53.0741 -71.6914
L56.4738 -67.1842
L53.0741 -65.6817" id="C5_0_303db54a1f"/>
     <path d="
M70.0729 -89.7204
L87.0718 -91.5984
L91.3215 -97.2325
L87.0718 -102.867
L70.0729 -100.989
L65.8232 -97.2325
L70.0729 -89.7204
M70.0729 -94.2277
L68.373 -97.2325
L70.0729 -98.7349
L87.0718 -99.4861
L88.7717 -97.2325
L87.0718 -94.9789
L70.0729 -94.2277" id="C5_1_939ccdac79"/>
     <path d="
M104.071 -123.525
L121.07 -122.774
L128.152 -127.281
L121.07 -131.788
L104.071 -131.037
L91.3215 -127.281
L104.071 -123.525
M104.071 -125.778
L98.971 -127.281
L104.071 -128.783
L121.07 -129.084
L123.903 -127.281
L121.07 -125.478
L104.071 -125.778" id="C5_2_772719548b"/>
     <path d="
M155.067 -123.525
L160.379 -127.281
L155.067 -131.037
L147.984 -127.281
L155.067 -123.525
M155.067 -125.778
L152.234 -127.281
L155.067 -128.783
L157.192 -127.281
L155.067 -125.778" id="C5_3_a1b2fc542c"/>
     <path d="
M138.068 -183.621
L155.067 -187.377
L138.068 -191.134
L133.819 -187.377
L138.068 -183.621
M138.068 -185.875
L136.368 -187.377
L138.068 -188.88
L144.868 -187.377
L138.068 -185.875" id="C5_4_591b652532"/>
     <path d="
M172.066 -183.621
L189.065 -179.865
L197.564 -187.377
L189.065 -192.386
L172.066 -193.638
L155.067 -187.377
L172.066 -183.621
M172.066 -185.875
L165.267 -187.377
L172.066 -189.882
L189.065 -189.381
L192.465 -187.377
L189.065 -184.373
L172.066 -185.875" id="C5_5_7a2ef9583a"/>
     <path d="
M342.055 -183.621
L346.304 -187.377
L342.055 -191.134
L336.388 -187.377
L342.055 -183.621
M342.055 -185.875
L339.788 -187.377
L342.055 -188.88
L343.755 -187.377
L342.055 -185.875" id="C5_6_79cbddc3f5"/>
     <path d="
M206.064 -212.418
L223.063 -211.792
L227.312 -217.426
L223.063 -221.182
L206.064 -221.182
L201.814 -217.426
L206.064 -212.418
M206.064 -215.423
L204.364 -217.426
L206.064 -218.928
L223.063 -218.928
L224.763 -217.426
L223.063 -215.172
L206.064 -215.423" id="C5_7_d84aa14619"/>
     <path d="
M240.062 -258.742
L257.06 -258.742
L274.059 -258.742
L291.058 -258.742
L296.016 -262.498
L291.058 -266.254
L274.059 -266.254
L257.06 -273.766
L240.062 -267.506
L227.312 -262.498
L240.062 -258.742
M240.062 -260.996
L234.962 -262.498
L240.062 -264.502
L257.06 -267.006
L274.059 -264.001
L291.058 -264.001
L293.041 -262.498
L291.058 -260.996
L274.059 -260.996
L257.06 -260.996
L240.062 -260.996" id="C5_8_d2042a8ef6"/>
     <path d="
M342.055 -300.059
L349.138 -307.571
L359.054 -316.335
L371.803 -322.595
L359.054 -326.351
L342.055 -330.107
L325.056 -327.603
L308.057 -326.351
L302.957 -322.595
L308.057 -318.839
L325.056 -307.571
L325.056 -307.571
L342.055 -300.059
M342.055 -304.566
L335.255 -307.571
L325.056 -316.585
L308.057 -321.093
L306.017 -322.595
L308.057 -324.097
L325.056 -324.598
L342.055 -325.6
L359.054 -324.097
L364.153 -322.595
L359.054 -320.091
L344.888 -307.571
L342.055 -304.566" id="C5_9_177d073bd1"/>
     <path d="
M257.06 -318.839
L262.373 -322.595
L257.06 -326.351
L252.811 -322.595
L257.06 -318.839
M257.06 -321.093
L255.361 -322.595
L257.06 -324.097
L259.185 -322.595
L257.06 -321.093" id="C5_a_aaa6d471ee"/>
     <path d="
M393.051 -318.839
L397.301 -322.595
L393.051 -333.863
L388.802 -337.619
L376.052 -341.375
L371.803 -337.619
L376.052 -326.351
L380.302 -322.595
L393.051 -318.839
M376.052 -333.112
L374.353 -337.619
L376.052 -339.122
L381.152 -337.619
L376.052 -333.112
M393.051 -321.093
L387.952 -322.595
L393.051 -327.102
L394.751 -322.595
L393.051 -321.093" id="C5_b_514e961fcc"/>
     <path d="
M393.051 -363.911
L410.05 -363.911
L420.675 -367.668
L410.05 -372.175
L393.051 -371.424
L380.302 -367.668
L393.051 -363.911
M393.051 -366.165
L387.952 -367.668
L393.051 -369.17
L410.05 -369.47
L414.3 -367.668
L410.05 -366.165
L393.051 -366.165" id="C5_c_d9a9cc4d89"/>
     <path d="
M427.049 -408.984
L444.048 -408.447
L461.047 -408.984
L461.047 -411.238
L444.048 -411.023
L427.049 -411.238
L424.499 -412.74
L420.675 -412.74
L427.049 -408.984" id="C5_d_d78ffa7a45"/>
    </defs>
    <g clip-path="url(#p148d6a6e19)">
     <use style="fill:#c9c9c9;" x="0.0" xlink:href="#C5_0_303db54a1f" y="432.0"/>
    </g>
    <g clip-path="url(#p148d6a6e19)">
     <use style="fill:#c9c9c9;" x="0.0" xlink:href="#C5_1_939ccdac79" y="432.0"/>
    </g>
    <g clip-path="url(#p148d6a6e19)">
     <use style="fill:#c9c9c9;" x="0.0" xlink:href="#C5_2_772719548b" y="432.0"/>
    </g>
    <g clip-path="url(#p148d6a6e19)">
     <use style="fill:#c9c9c9;" x="0.0" xlink:href="#C5_3_a1b2fc542c" y="432.0"/>
    </g>
    <g clip-path="url(#p148d6a6e19)">
     <use style="fill:#c9c9c9;" x="0.0" xlink:href="#C5_4_591b652532" y="432.0"/>
    </g>
    <g clip-path="url(#p148d6a6e19)">
     <use style="fill:#c9c9c9;" x="0.0" xlink:href="#C5_5_7a2ef9583a" y="432.0"/>
    </g>
    <g clip-path="url(#p148d6a6e19)">
     <use style="fill:#c9c9c9;" x="0.0" xlink:href="#C5_6_79cbddc3f5" y="432.0"/>
    </g>
    <g clip-path="url(#p148d6a6e19)">
     <use style="fill:#c9c9c9;" x="0.0" xlink:href="#C5_7_d84aa14619" y="432.0"/>
    </g>
    <g clip-path="url(#p148d6a6e19)">
     <use style="fill:#c9c9c9;" x="0.0" xlink:href="#C5_8_d2042a8ef6" y="432.0"/>
    </g>
    <g clip-path="url(#p148d6a6e19)">
     <use style="fill:#c9c9c9;" x="0.0" xlink:href="#C5_9_177d073bd1" y="432.0"/>
    </g>
    <g clip-path="url(#p148d6a6e19)">
     <use style="fill:#c9c9c9;" x="0.0" xlink:href="#C5_a_aaa6d471ee" y="432.0"/>
    </g>
    <g clip-path="url(#p148d6a6e19)">
     <use style="fill:#c9c9c9;" x="0.0" xlink:href="#C5_b_514e961fcc" y="432.0"/>
    </g>
    <g clip-path="url(#p148d6a6e19)">
     <use style="fill:#c9c9c9;" x="0.0" xlink:href="#C5_c_d9a9cc4d89" y="432.0"/>
    </g>
    <g clip-path="url(#p148d6a6e19)">
     <use style="fill:#c9c9c9;" x="0.0" xlink:href="#C5_d_d78ffa7a45" y="432.0"/>
    </g>
   </g>
   <g id="PathCollection_7">
    <defs>
     <path d="
M53.0741 -67.1842
L53.0741 -65.6817
L56.4738 -67.1842
L53.0741 -71.6914
L53.0741 -67.1842" id="C6_0_2889e78c1d"/>
     <path d="
M70.0729 -94.2277
L87.0718 -94.9789
L88.7717 -97.2325
L87.0718 -99.4861
L70.0729 -98.7349
L68.373 -97.2325
L70.0729 -94.2277" id="C6_1_80549478fd"/>
     <path d="
M104.071 -125.778
L121.07 -125.478
L123.903 -127.281
L121.07 -129.084
L104.071 -128.783
L98.971 -127.281
L104.071 -125.778" id="C6_2_ad1859361a"/>
     <path d="
M155.067 -125.778
L157.192 -127.281
L155.067 -128.783
L152.234 -127.281
L155.067 -125.778" id="C6_3_156f5da8ac"/>
     <path d="
M138.068 -185.875
L144.868 -187.377
L138.068 -188.88
L136.368 -187.377
L138.068 -185.875" id="C6_4_235133002b"/>
     <path d="
M172.066 -185.875
L189.065 -184.373
L192.465 -187.377
L189.065 -189.381
L172.066 -189.882
L165.267 -187.377
L172.066 -185.875" id="C6_5_0034ec4b34"/>
     <path d="
M342.055 -185.875
L343.755 -187.377
L342.055 -188.88
L339.788 -187.377
L342.055 -185.875" id="C6_6_d30fea328b"/>
     <path d="
M206.064 -215.423
L223.063 -215.172
L224.763 -217.426
L223.063 -218.928
L206.064 -218.928
L204.364 -217.426
L206.064 -215.423" id="C6_7_1821cac69c"/>
     <path d="
M240.062 -260.996
L257.06 -260.996
L274.059 -260.996
L291.058 -260.996
L293.041 -262.498
L291.058 -264.001
L274.059 -264.001
L257.06 -267.006
L240.062 -264.502
L234.962 -262.498
L240.062 -260.996" id="C6_8_5cbca3b1e6"/>
     <path d="
M342.055 -304.566
L344.888 -307.571
L359.054 -320.091
L364.153 -322.595
L359.054 -324.097
L342.055 -325.6
L325.056 -324.598
L308.057 -324.097
L306.017 -322.595
L308.057 -321.093
L325.056 -316.585
L335.255 -307.571
L342.055 -304.566" id="C6_9_e7e461fb01"/>
     <path d="
M257.06 -321.093
L259.185 -322.595
L257.06 -324.097
L255.361 -322.595
L257.06 -321.093" id="C6_a_c0394d3178"/>
     <path d="
M393.051 -321.093
L394.751 -322.595
L393.051 -327.102
L387.952 -322.595
L393.051 -321.093" id="C6_b_c26ab0e739"/>
     <path d="
M376.052 -333.112
L381.152 -337.619
L376.052 -339.122
L374.353 -337.619
L376.052 -333.112" id="C6_c_db4647d91f"/>
     <path d="
M393.051 -366.165
L410.05 -366.165
L414.3 -367.668
L410.05 -369.47
L393.051 -369.17
L387.952 -367.668
L393.051 -366.165" id="C6_d_05d2fa227c"/>
     <path d="
M427.049 -411.238
L444.048 -411.023
L461.047 -411.238
L461.047 -412.74
L444.048 -412.74
L427.049 -412.74
L424.499 -412.74
L427.049 -411.238" id="C6_e_305b9d9e3f"/>
    </defs>
    <g clip-path="url(#p148d6a6e19)">
     <use style="fill:#ededed;" x="0.0" xlink:href="#C6_0_2889e78c1d" y="432.0"/>
    </g>
    <g clip-path="url(#p148d6a6e19)">
     <use style="fill:#ededed;" x="0.0" xlink:href="#C6_1_80549478fd" y="432.0"/>
    </g>
    <g clip-path="url(#p148d6a6e19)">
     <use style="fill:#ededed;" x="0.0" xlink:href="#C6_2_ad1859361a" y="432.0"/>
    </g>
    <g clip-path="url(#p148d6a6e19)">
     <use style="fill:#ededed;" x="0.0" xlink:href="#C6_3_156f5da8ac" y="432.0"/>
    </g>
    <g clip-path="url(#p148d6a6e19)">
     <use style="fill:#ededed;" x="0.0" xlink:href="#C6_4_235133002b" y="432.0"/>
    </g>
    <g clip-path="url(#p148d6a6e19)">
     <use style="fill:#ededed;" x="0.0" xlink:href="#C6_5_0034ec4b34" y="432.0"/>
    </g>
    <g clip-path="url(#p148d6a6e19)">
     <use style="fill:#ededed;" x="0.0" xlink:href="#C6_6_d30fea328b" y="432.0"/>
    </g>
    <g clip-path="url(#p148d6a6e19)">
     <use style="fill:#ededed;" x="0.0" xlink:href="#C6_7_1821cac69c" y="432.0"/>
    </g>
    <g clip-path="url(#p148d6a6e19)">
     <use style="fill:#ededed;" x="0.0" xlink:href="#C6_8_5cbca3b1e6" y="432.0"/>
    </g>
    <g clip-path="url(#p148d6a6e19)">
     <use style="fill:#ededed;" x="0.0" xlink:href="#C6_9_e7e461fb01" y="432.0"/>
    </g>
    <g clip-path="url(#p148d6a6e19)">
     <use style="fill:#ededed;" x="0.0" xlink:href="#C6_a_c0394d3178" y="432.0"/>
    </g>
    <g clip-path="url(#p148d6a6e19)">
     <use style="fill:#ededed;" x="0.0" xlink:href="#C6_b_c26ab0e739" y="432.0"/>
    </g>
    <g clip-path="url(#p148d6a6e19)">
     <use style="fill:#ededed;" x="0.0" xlink:href="#C6_c_db4647d91f" y="432.0"/>
    </g>
    <g clip-path="url(#p148d6a6e19)">
     <use style="fill:#ededed;" x="0.0" xlink:href="#C6_d_05d2fa227c" y="432.0"/>
    </g>
    <g clip-path="url(#p148d6a6e19)">
     <use style="fill:#ededed;" x="0.0" xlink:href="#C6_e_305b9d9e3f" y="432.0"/>
    </g>
   </g>
   <g id="line2d_1">
    <path clip-path="url(#p148d6a6e19)" d="
M53.0741 379.84
L461.047 19.26" style="fill:none;stroke:#ffffff;stroke-dasharray:6.000000,6.000000;stroke-dashoffset:0.0;"/>
   </g>
   <g id="patch_3">
    <path d="
M53.0741 19.26
L461.047 19.26" style="fill:none;stroke:#000000;stroke-linecap:square;stroke-linejoin:miter;"/>
   </g>
   <g id="patch_4">
    <path d="
M461.047 379.84
L461.047 19.26" style="fill:none;stroke:#000000;stroke-linecap:square;stroke-linejoin:miter;"/>
   </g>
   <g id="patch_5">
    <path d="
M53.0741 379.84
L461.047 379.84" style="fill:none;stroke:#000000;stroke-linecap:square;stroke-linejoin:miter;"/>
   </g>
   <g id="patch_6">
    <path d="
M53.0741 379.84
L53.0741 19.26" style="fill:none;stroke:#000000;stroke-linecap:square;stroke-linejoin:miter;"/>
   </g>
   <g id="matplotlib.axis_1">
    <g id="xtick_1">
     <g id="line2d_2">
      <path clip-path="url(#p148d6a6e19)" d="
M53.0741 379.84
L53.0741 19.26" style="fill:none;stroke:#000000;stroke-dasharray:1.000000,3.000000;stroke-dashoffset:0.0;stroke-width:0.5;"/>
     </g>
     <g id="line2d_3">
      <defs>
       <path d="
M0 0
L0 -4" id="m93b0483c22" style="stroke:#000000;stroke-width:0.5;"/>
      </defs>
      <g>
       <use style="stroke:#000000;stroke-width:0.5;" x="53.0740625" xlink:href="#m93b0483c22" y="379.84"/>
      </g>
     </g>
     <g id="line2d_4">
      <defs>
       <path d="
M0 0
L0 4" id="m741efc42ff" style="stroke:#000000;stroke-width:0.5;"/>
      </defs>
      <g>
       <use style="stroke:#000000;stroke-width:0.5;" x="53.0740625" xlink:href="#m741efc42ff" y="19.26"/>
      </g>
     </g>
     <g id="text_1">
      <!-- 0 -->
      <defs>
       <path d="
M31.7812 66.4062
Q24.1719 66.4062 20.3281 58.9062
Q16.5 51.4219 16.5 36.375
Q16.5 21.3906 20.3281 13.8906
Q24.1719 6.39062 31.7812 6.39062
Q39.4531 6.39062 43.2812 13.8906
Q47.125 21.3906 47.125 36.375
Q47.125 51.4219 43.2812 58.9062
Q39.4531 66.4062 31.7812 66.4062
M31.7812 74.2188
Q44.0469 74.2188 50.5156 64.5156
Q56.9844 54.8281 56.9844 36.375
Q56.9844 17.9688 50.5156 8.26562
Q44.0469 -1.42188 31.7812 -1.42188
Q19.5312 -1.42188 13.0625 8.26562
Q6.59375 17.9688 6.59375 36.375
Q6.59375 54.8281 13.0625 64.5156
Q19.5312 74.2188 31.7812 74.2188" id="BitstreamVeraSans-Roman-30"/>
      </defs>
      <g transform="translate(50.050625 392.958125)scale(0.12 -0.12)">
       <use xlink:href="#BitstreamVeraSans-Roman-30"/>
      </g>
     </g>
    </g>
    <g id="xtick_2">
     <g id="line2d_5">
      <path clip-path="url(#p148d6a6e19)" d="
M138.068 379.84
L138.068 19.26" style="fill:none;stroke:#000000;stroke-dasharray:1.000000,3.000000;stroke-dashoffset:0.0;stroke-width:0.5;"/>
     </g>
     <g id="line2d_6">
      <g>
       <use style="stroke:#000000;stroke-width:0.5;" x="138.068385417" xlink:href="#m93b0483c22" y="379.84"/>
      </g>
     </g>
     <g id="line2d_7">
      <g>
       <use style="stroke:#000000;stroke-width:0.5;" x="138.068385417" xlink:href="#m741efc42ff" y="19.26"/>
      </g>
     </g>
     <g id="text_2">
      <!-- 5 -->
      <defs>
       <path d="
M10.7969 72.9062
L49.5156 72.9062
L49.5156 64.5938
L19.8281 64.5938
L19.8281 46.7344
Q21.9688 47.4688 24.1094 47.8281
Q26.2656 48.1875 28.4219 48.1875
Q40.625 48.1875 47.75 41.5
Q54.8906 34.8125 54.8906 23.3906
Q54.8906 11.625 47.5625 5.09375
Q40.2344 -1.42188 26.9062 -1.42188
Q22.3125 -1.42188 17.5469 -0.640625
Q12.7969 0.140625 7.71875 1.70312
L7.71875 11.625
Q12.1094 9.23438 16.7969 8.0625
Q21.4844 6.89062 26.7031 6.89062
Q35.1562 6.89062 40.0781 11.3281
Q45.0156 15.7656 45.0156 23.3906
Q45.0156 31 40.0781 35.4375
Q35.1562 39.8906 26.7031 39.8906
Q22.75 39.8906 18.8125 39.0156
Q14.8906 38.1406 10.7969 36.2812
z
" id="BitstreamVeraSans-Roman-35"/>
      </defs>
      <g transform="translate(135.238072917 392.958125)scale(0.12 -0.12)">
       <use xlink:href="#BitstreamVeraSans-Roman-35"/>
      </g>
     </g>
    </g>
    <g id="xtick_3">
     <g id="line2d_8">
      <path clip-path="url(#p148d6a6e19)" d="
M223.063 379.84
L223.063 19.26" style="fill:none;stroke:#000000;stroke-dasharray:1.000000,3.000000;stroke-dashoffset:0.0;stroke-width:0.5;"/>
     </g>
     <g id="line2d_9">
      <g>
       <use style="stroke:#000000;stroke-width:0.5;" x="223.062708333" xlink:href="#m93b0483c22" y="379.84"/>
      </g>
     </g>
     <g id="line2d_10">
      <g>
       <use style="stroke:#000000;stroke-width:0.5;" x="223.062708333" xlink:href="#m741efc42ff" y="19.26"/>
      </g>
     </g>
     <g id="text_3">
      <!-- 10 -->
      <defs>
       <path d="
M12.4062 8.29688
L28.5156 8.29688
L28.5156 63.9219
L10.9844 60.4062
L10.9844 69.3906
L28.4219 72.9062
L38.2812 72.9062
L38.2812 8.29688
L54.3906 8.29688
L54.3906 0
L12.4062 0
z
" id="BitstreamVeraSans-Roman-31"/>
      </defs>
      <g transform="translate(216.485208333 392.958125)scale(0.12 -0.12)">
       <use xlink:href="#BitstreamVeraSans-Roman-31"/>
       <use x="63.623046875" xlink:href="#BitstreamVeraSans-Roman-30"/>
      </g>
     </g>
    </g>
    <g id="xtick_4">
     <g id="line2d_11">
      <path clip-path="url(#p148d6a6e19)" d="
M308.057 379.84
L308.057 19.26" style="fill:none;stroke:#000000;stroke-dasharray:1.000000,3.000000;stroke-dashoffset:0.0;stroke-width:0.5;"/>
     </g>
     <g id="line2d_12">
      <g>
       <use style="stroke:#000000;stroke-width:0.5;" x="308.05703125" xlink:href="#m93b0483c22" y="379.84"/>
      </g>
     </g>
     <g id="line2d_13">
      <g>
       <use style="stroke:#000000;stroke-width:0.5;" x="308.05703125" xlink:href="#m741efc42ff" y="19.26"/>
      </g>
     </g>
     <g id="text_4">
      <!-- 15 -->
      <g transform="translate(301.60515625 392.958125)scale(0.12 -0.12)">
       <use xlink:href="#BitstreamVeraSans-Roman-31"/>
       <use x="63.623046875" xlink:href="#BitstreamVeraSans-Roman-35"/>
      </g>
     </g>
    </g>
    <g id="xtick_5">
     <g id="line2d_14">
      <path clip-path="url(#p148d6a6e19)" d="
M393.051 379.84
L393.051 19.26" style="fill:none;stroke:#000000;stroke-dasharray:1.000000,3.000000;stroke-dashoffset:0.0;stroke-width:0.5;"/>
     </g>
     <g id="line2d_15">
      <g>
       <use style="stroke:#000000;stroke-width:0.5;" x="393.051354167" xlink:href="#m93b0483c22" y="379.84"/>
      </g>
     </g>
     <g id="line2d_16">
      <g>
       <use style="stroke:#000000;stroke-width:0.5;" x="393.051354167" xlink:href="#m741efc42ff" y="19.26"/>
      </g>
     </g>
     <g id="text_5">
      <!-- 20 -->
      <defs>
       <path d="
M19.1875 8.29688
L53.6094 8.29688
L53.6094 0
L7.32812 0
L7.32812 8.29688
Q12.9375 14.1094 22.625 23.8906
Q32.3281 33.6875 34.8125 36.5312
Q39.5469 41.8438 41.4219 45.5312
Q43.3125 49.2188 43.3125 52.7812
Q43.3125 58.5938 39.2344 62.25
Q35.1562 65.9219 28.6094 65.9219
Q23.9688 65.9219 18.8125 64.3125
Q13.6719 62.7031 7.8125 59.4219
L7.8125 69.3906
Q13.7656 71.7812 18.9375 73
Q24.125 74.2188 28.4219 74.2188
Q39.75 74.2188 46.4844 68.5469
Q53.2188 62.8906 53.2188 53.4219
Q53.2188 48.9219 51.5312 44.8906
Q49.8594 40.875 45.4062 35.4062
Q44.1875 33.9844 37.6406 27.2188
Q31.1094 20.4531 19.1875 8.29688" id="BitstreamVeraSans-Roman-32"/>
      </defs>
      <g transform="translate(386.254479167 392.958125)scale(0.12 -0.12)">
       <use xlink:href="#BitstreamVeraSans-Roman-32"/>
       <use x="63.623046875" xlink:href="#BitstreamVeraSans-Roman-30"/>
      </g>
     </g>
    </g>
    <g id="text_6">
     <!-- Replay image index # -->
     <defs>
      <path id="BitstreamVeraSans-Roman-20"/>
      <path d="
M51.125 44
L36.9219 44
L32.8125 27.6875
L47.125 27.6875
z

M43.7969 71.7812
L38.7188 51.5156
L52.9844 51.5156
L58.1094 71.7812
L65.9219 71.7812
L60.8906 51.5156
L76.125 51.5156
L76.125 44
L58.9844 44
L54.9844 27.6875
L70.5156 27.6875
L70.5156 20.2188
L53.0781 20.2188
L48 0
L40.1875 0
L45.2188 20.2188
L30.9062 20.2188
L25.875 0
L18.0156 0
L23.0938 20.2188
L7.71875 20.2188
L7.71875 27.6875
L24.9062 27.6875
L29 44
L13.2812 44
L13.2812 51.5156
L30.9062 51.5156
L35.8906 71.7812
z
" id="BitstreamVeraSans-Roman-23"/>
      <path d="
M54.8906 33.0156
L54.8906 0
L45.9062 0
L45.9062 32.7188
Q45.9062 40.4844 42.875 44.3281
Q39.8438 48.1875 33.7969 48.1875
Q26.5156 48.1875 22.3125 43.5469
Q18.1094 38.9219 18.1094 30.9062
L18.1094 0
L9.07812 0
L9.07812 54.6875
L18.1094 54.6875
L18.1094 46.1875
Q21.3438 51.125 25.7031 53.5625
Q30.0781 56 35.7969 56
Q45.2188 56 50.0469 50.1719
Q54.8906 44.3438 54.8906 33.0156" id="BitstreamVeraSans-Roman-6e"/>
      <path d="
M52 44.1875
Q55.375 50.25 60.0625 53.125
Q64.75 56 71.0938 56
Q79.6406 56 84.2812 50.0156
Q88.9219 44.0469 88.9219 33.0156
L88.9219 0
L79.8906 0
L79.8906 32.7188
Q79.8906 40.5781 77.0938 44.375
Q74.3125 48.1875 68.6094 48.1875
Q61.625 48.1875 57.5625 43.5469
Q53.5156 38.9219 53.5156 30.9062
L53.5156 0
L44.4844 0
L44.4844 32.7188
Q44.4844 40.625 41.7031 44.4062
Q38.9219 48.1875 33.1094 48.1875
Q26.2188 48.1875 22.1562 43.5312
Q18.1094 38.875 18.1094 30.9062
L18.1094 0
L9.07812 0
L9.07812 54.6875
L18.1094 54.6875
L18.1094 46.1875
Q21.1875 51.2188 25.4844 53.6094
Q29.7812 56 35.6875 56
Q41.6562 56 45.8281 52.9688
Q50 49.9531 52 44.1875" id="BitstreamVeraSans-Roman-6d"/>
      <path d="
M9.42188 75.9844
L18.4062 75.9844
L18.4062 0
L9.42188 0
z
" id="BitstreamVeraSans-Roman-6c"/>
      <path d="
M44.3906 34.1875
Q47.5625 33.1094 50.5625 29.5938
Q53.5625 26.0781 56.5938 19.9219
L66.6094 0
L56 0
L46.6875 18.7031
Q43.0625 26.0312 39.6719 28.4219
Q36.2812 30.8125 30.4219 30.8125
L19.6719 30.8125
L19.6719 0
L9.8125 0
L9.8125 72.9062
L32.0781 72.9062
Q44.5781 72.9062 50.7344 67.6719
Q56.8906 62.4531 56.8906 51.9062
Q56.8906 45.0156 53.6875 40.4688
Q50.4844 35.9375 44.3906 34.1875
M19.6719 64.7969
L19.6719 38.9219
L32.0781 38.9219
Q39.2031 38.9219 42.8438 42.2188
Q46.4844 45.5156 46.4844 51.9062
Q46.4844 58.2969 42.8438 61.5469
Q39.2031 64.7969 32.0781 64.7969
z
" id="BitstreamVeraSans-Roman-52"/>
      <path d="
M9.42188 54.6875
L18.4062 54.6875
L18.4062 0
L9.42188 0
z

M9.42188 75.9844
L18.4062 75.9844
L18.4062 64.5938
L9.42188 64.5938
z
" id="BitstreamVeraSans-Roman-69"/>
      <path d="
M54.8906 54.6875
L35.1094 28.0781
L55.9062 0
L45.3125 0
L29.3906 21.4844
L13.4844 0
L2.875 0
L24.125 28.6094
L4.6875 54.6875
L15.2812 54.6875
L29.7812 35.2031
L44.2812 54.6875
z
" id="BitstreamVeraSans-Roman-78"/>
      <path d="
M32.1719 -5.07812
Q28.375 -14.8438 24.75 -17.8125
Q21.1406 -20.7969 15.0938 -20.7969
L7.90625 -20.7969
L7.90625 -13.2812
L13.1875 -13.2812
Q16.8906 -13.2812 18.9375 -11.5156
Q21 -9.76562 23.4844 -3.21875
L25.0938 0.875
L2.98438 54.6875
L12.5 54.6875
L29.5938 11.9219
L46.6875 54.6875
L56.2031 54.6875
z
" id="BitstreamVeraSans-Roman-79"/>
      <path d="
M56.2031 29.5938
L56.2031 25.2031
L14.8906 25.2031
Q15.4844 15.9219 20.4844 11.0625
Q25.4844 6.20312 34.4219 6.20312
Q39.5938 6.20312 44.4531 7.46875
Q49.3125 8.73438 54.1094 11.2812
L54.1094 2.78125
Q49.2656 0.734375 44.1875 -0.34375
Q39.1094 -1.42188 33.8906 -1.42188
Q20.7969 -1.42188 13.1562 6.1875
Q5.51562 13.8125 5.51562 26.8125
Q5.51562 40.2344 12.7656 48.1094
Q20.0156 56 32.3281 56
Q43.3594 56 49.7812 48.8906
Q56.2031 41.7969 56.2031 29.5938
M47.2188 32.2344
Q47.125 39.5938 43.0938 43.9844
Q39.0625 48.3906 32.4219 48.3906
Q24.9062 48.3906 20.3906 44.1406
Q15.875 39.8906 15.1875 32.1719
z
" id="BitstreamVeraSans-Roman-65"/>
      <path d="
M45.4062 46.3906
L45.4062 75.9844
L54.3906 75.9844
L54.3906 0
L45.4062 0
L45.4062 8.20312
Q42.5781 3.32812 38.25 0.953125
Q33.9375 -1.42188 27.875 -1.42188
Q17.9688 -1.42188 11.7344 6.48438
Q5.51562 14.4062 5.51562 27.2969
Q5.51562 40.1875 11.7344 48.0938
Q17.9688 56 27.875 56
Q33.9375 56 38.25 53.625
Q42.5781 51.2656 45.4062 46.3906
M14.7969 27.2969
Q14.7969 17.3906 18.875 11.75
Q22.9531 6.10938 30.0781 6.10938
Q37.2031 6.10938 41.2969 11.75
Q45.4062 17.3906 45.4062 27.2969
Q45.4062 37.2031 41.2969 42.8438
Q37.2031 48.4844 30.0781 48.4844
Q22.9531 48.4844 18.875 42.8438
Q14.7969 37.2031 14.7969 27.2969" id="BitstreamVeraSans-Roman-64"/>
      <path d="
M45.4062 27.9844
Q45.4062 37.75 41.375 43.1094
Q37.3594 48.4844 30.0781 48.4844
Q22.8594 48.4844 18.8281 43.1094
Q14.7969 37.75 14.7969 27.9844
Q14.7969 18.2656 18.8281 12.8906
Q22.8594 7.51562 30.0781 7.51562
Q37.3594 7.51562 41.375 12.8906
Q45.4062 18.2656 45.4062 27.9844
M54.3906 6.78125
Q54.3906 -7.17188 48.1875 -13.9844
Q42 -20.7969 29.2031 -20.7969
Q24.4688 -20.7969 20.2656 -20.0938
Q16.0625 -19.3906 12.1094 -17.9219
L12.1094 -9.1875
Q16.0625 -11.3281 19.9219 -12.3438
Q23.7812 -13.375 27.7812 -13.375
Q36.625 -13.375 41.0156 -8.76562
Q45.4062 -4.15625 45.4062 5.17188
L45.4062 9.625
Q42.625 4.78125 38.2812 2.39062
Q33.9375 0 27.875 0
Q17.8281 0 11.6719 7.65625
Q5.51562 15.3281 5.51562 27.9844
Q5.51562 40.6719 11.6719 48.3281
Q17.8281 56 27.875 56
Q33.9375 56 38.2812 53.6094
Q42.625 51.2188 45.4062 46.3906
L45.4062 54.6875
L54.3906 54.6875
z
" id="BitstreamVeraSans-Roman-67"/>
      <path d="
M34.2812 27.4844
Q23.3906 27.4844 19.1875 25
Q14.9844 22.5156 14.9844 16.5
Q14.9844 11.7188 18.1406 8.90625
Q21.2969 6.10938 26.7031 6.10938
Q34.1875 6.10938 38.7031 11.4062
Q43.2188 16.7031 43.2188 25.4844
L43.2188 27.4844
z

M52.2031 31.2031
L52.2031 0
L43.2188 0
L43.2188 8.29688
Q40.1406 3.32812 35.5469 0.953125
Q30.9531 -1.42188 24.3125 -1.42188
Q15.9219 -1.42188 10.9531 3.29688
Q6 8.01562 6 15.9219
Q6 25.1406 12.1719 29.8281
Q18.3594 34.5156 30.6094 34.5156
L43.2188 34.5156
L43.2188 35.4062
Q43.2188 41.6094 39.1406 45
Q35.0625 48.3906 27.6875 48.3906
Q23 48.3906 18.5469 47.2656
Q14.1094 46.1406 10.0156 43.8906
L10.0156 52.2031
Q14.9375 54.1094 19.5781 55.0469
Q24.2188 56 28.6094 56
Q40.4844 56 46.3438 49.8438
Q52.2031 43.7031 52.2031 31.2031" id="BitstreamVeraSans-Roman-61"/>
      <path d="
M18.1094 8.20312
L18.1094 -20.7969
L9.07812 -20.7969
L9.07812 54.6875
L18.1094 54.6875
L18.1094 46.3906
Q20.9531 51.2656 25.2656 53.625
Q29.5938 56 35.5938 56
Q45.5625 56 51.7812 48.0938
Q58.0156 40.1875 58.0156 27.2969
Q58.0156 14.4062 51.7812 6.48438
Q45.5625 -1.42188 35.5938 -1.42188
Q29.5938 -1.42188 25.2656 0.953125
Q20.9531 3.32812 18.1094 8.20312
M48.6875 27.2969
Q48.6875 37.2031 44.6094 42.8438
Q40.5312 48.4844 33.4062 48.4844
Q26.2656 48.4844 22.1875 42.8438
Q18.1094 37.2031 18.1094 27.2969
Q18.1094 17.3906 22.1875 11.75
Q26.2656 6.10938 33.4062 6.10938
Q40.5312 6.10938 44.6094 11.75
Q48.6875 17.3906 48.6875 27.2969" id="BitstreamVeraSans-Roman-70"/>
     </defs>
     <g transform="translate(191.3716875 414.571875)scale(0.12 -0.12)">
      <use xlink:href="#BitstreamVeraSans-Roman-52"/>
      <use x="64.982421875" xlink:href="#BitstreamVeraSans-Roman-65"/>
      <use x="126.505859375" xlink:href="#BitstreamVeraSans-Roman-70"/>
      <use x="189.982421875" xlink:href="#BitstreamVeraSans-Roman-6c"/>
      <use x="217.765625" xlink:href="#BitstreamVeraSans-Roman-61"/>
      <use x="279.044921875" xlink:href="#BitstreamVeraSans-Roman-79"/>
      <use x="338.224609375" xlink:href="#BitstreamVeraSans-Roman-20"/>
      <use x="370.01171875" xlink:href="#BitstreamVeraSans-Roman-69"/>
      <use x="397.794921875" xlink:href="#BitstreamVeraSans-Roman-6d"/>
      <use x="495.20703125" xlink:href="#BitstreamVeraSans-Roman-61"/>
      <use x="556.486328125" xlink:href="#BitstreamVeraSans-Roman-67"/>
      <use x="619.962890625" xlink:href="#BitstreamVeraSans-Roman-65"/>
      <use x="681.486328125" xlink:href="#BitstreamVeraSans-Roman-20"/>
      <use x="713.2734375" xlink:href="#BitstreamVeraSans-Roman-69"/>
      <use x="741.056640625" xlink:href="#BitstreamVeraSans-Roman-6e"/>
      <use x="804.435546875" xlink:href="#BitstreamVeraSans-Roman-64"/>
      <use x="867.912109375" xlink:href="#BitstreamVeraSans-Roman-65"/>
      <use x="927.685546875" xlink:href="#BitstreamVeraSans-Roman-78"/>
      <use x="986.865234375" xlink:href="#BitstreamVeraSans-Roman-20"/>
      <use x="1018.65234375" xlink:href="#BitstreamVeraSans-Roman-23"/>
     </g>
    </g>
   </g>
   <g id="matplotlib.axis_2">
    <g id="ytick_1">
     <g id="line2d_17">
      <path clip-path="url(#p148d6a6e19)" d="
M53.0741 379.84
L461.047 379.84" style="fill:none;stroke:#000000;stroke-dasharray:1.000000,3.000000;stroke-dashoffset:0.0;stroke-width:0.5;"/>
     </g>
     <g id="line2d_18">
      <defs>
       <path d="
M0 0
L4 0" id="m728421d6d4" style="stroke:#000000;stroke-width:0.5;"/>
      </defs>
      <g>
       <use style="stroke:#000000;stroke-width:0.5;" x="53.0740625" xlink:href="#m728421d6d4" y="379.84"/>
      </g>
     </g>
     <g id="line2d_19">
      <defs>
       <path d="
M0 0
L-4 0" id="mcb0005524f" style="stroke:#000000;stroke-width:0.5;"/>
      </defs>
      <g>
       <use style="stroke:#000000;stroke-width:0.5;" x="461.0468125" xlink:href="#mcb0005524f" y="379.84"/>
      </g>
     </g>
     <g id="text_7">
      <!-- 0 -->
      <g transform="translate(43.0271875 383.15125)scale(0.12 -0.12)">
       <use xlink:href="#BitstreamVeraSans-Roman-30"/>
      </g>
     </g>
    </g>
    <g id="ytick_2">
     <g id="line2d_20">
      <path clip-path="url(#p148d6a6e19)" d="
M53.0741 304.719
L461.047 304.719" style="fill:none;stroke:#000000;stroke-dasharray:1.000000,3.000000;stroke-dashoffset:0.0;stroke-width:0.5;"/>
     </g>
     <g id="line2d_21">
      <g>
       <use style="stroke:#000000;stroke-width:0.5;" x="53.0740625" xlink:href="#m728421d6d4" y="304.719166667"/>
      </g>
     </g>
     <g id="line2d_22">
      <g>
       <use style="stroke:#000000;stroke-width:0.5;" x="461.0468125" xlink:href="#mcb0005524f" y="304.719166667"/>
      </g>
     </g>
     <g id="text_8">
      <!-- 5 -->
      <g transform="translate(43.4134375 308.030416667)scale(0.12 -0.12)">
       <use xlink:href="#BitstreamVeraSans-Roman-35"/>
      </g>
     </g>
    </g>
    <g id="ytick_3">
     <g id="line2d_23">
      <path clip-path="url(#p148d6a6e19)" d="
M53.0741 229.598
L461.047 229.598" style="fill:none;stroke:#000000;stroke-dasharray:1.000000,3.000000;stroke-dashoffset:0.0;stroke-width:0.5;"/>
     </g>
     <g id="line2d_24">
      <g>
       <use style="stroke:#000000;stroke-width:0.5;" x="53.0740625" xlink:href="#m728421d6d4" y="229.598333333"/>
      </g>
     </g>
     <g id="line2d_25">
      <g>
       <use style="stroke:#000000;stroke-width:0.5;" x="461.0468125" xlink:href="#mcb0005524f" y="229.598333333"/>
      </g>
     </g>
     <g id="text_9">
      <!-- 10 -->
      <g transform="translate(35.9190625 232.909583333)scale(0.12 -0.12)">
       <use xlink:href="#BitstreamVeraSans-Roman-31"/>
       <use x="63.623046875" xlink:href="#BitstreamVeraSans-Roman-30"/>
      </g>
     </g>
    </g>
    <g id="ytick_4">
     <g id="line2d_26">
      <path clip-path="url(#p148d6a6e19)" d="
M53.0741 154.478
L461.047 154.478" style="fill:none;stroke:#000000;stroke-dasharray:1.000000,3.000000;stroke-dashoffset:0.0;stroke-width:0.5;"/>
     </g>
     <g id="line2d_27">
      <g>
       <use style="stroke:#000000;stroke-width:0.5;" x="53.0740625" xlink:href="#m728421d6d4" y="154.4775"/>
      </g>
     </g>
     <g id="line2d_28">
      <g>
       <use style="stroke:#000000;stroke-width:0.5;" x="461.0468125" xlink:href="#mcb0005524f" y="154.4775"/>
      </g>
     </g>
     <g id="text_10">
      <!-- 15 -->
      <g transform="translate(36.1703125 157.78875)scale(0.12 -0.12)">
       <use xlink:href="#BitstreamVeraSans-Roman-31"/>
       <use x="63.623046875" xlink:href="#BitstreamVeraSans-Roman-35"/>
      </g>
     </g>
    </g>
    <g id="ytick_5">
     <g id="line2d_29">
      <path clip-path="url(#p148d6a6e19)" d="
M53.0741 79.3567
L461.047 79.3567" style="fill:none;stroke:#000000;stroke-dasharray:1.000000,3.000000;stroke-dashoffset:0.0;stroke-width:0.5;"/>
     </g>
     <g id="line2d_30">
      <g>
       <use style="stroke:#000000;stroke-width:0.5;" x="53.0740625" xlink:href="#m728421d6d4" y="79.3566666667"/>
      </g>
     </g>
     <g id="line2d_31">
      <g>
       <use style="stroke:#000000;stroke-width:0.5;" x="461.0468125" xlink:href="#mcb0005524f" y="79.3566666667"/>
      </g>
     </g>
     <g id="text_11">
      <!-- 20 -->
      <g transform="translate(35.4803125 82.6679166667)scale(0.12 -0.12)">
       <use xlink:href="#BitstreamVeraSans-Roman-32"/>
       <use x="63.623046875" xlink:href="#BitstreamVeraSans-Roman-30"/>
      </g>
     </g>
    </g>
    <g id="text_12">
     <!-- Teach image index # -->
     <defs>
      <path d="
M-0.296875 72.9062
L61.375 72.9062
L61.375 64.5938
L35.5 64.5938
L35.5 0
L25.5938 0
L25.5938 64.5938
L-0.296875 64.5938
z
" id="BitstreamVeraSans-Roman-54"/>
      <path d="
M54.8906 33.0156
L54.8906 0
L45.9062 0
L45.9062 32.7188
Q45.9062 40.4844 42.875 44.3281
Q39.8438 48.1875 33.7969 48.1875
Q26.5156 48.1875 22.3125 43.5469
Q18.1094 38.9219 18.1094 30.9062
L18.1094 0
L9.07812 0
L9.07812 75.9844
L18.1094 75.9844
L18.1094 46.1875
Q21.3438 51.125 25.7031 53.5625
Q30.0781 56 35.7969 56
Q45.2188 56 50.0469 50.1719
Q54.8906 44.3438 54.8906 33.0156" id="BitstreamVeraSans-Roman-68"/>
      <path d="
M48.7812 52.5938
L48.7812 44.1875
Q44.9688 46.2969 41.1406 47.3438
Q37.3125 48.3906 33.4062 48.3906
Q24.6562 48.3906 19.8125 42.8438
Q14.9844 37.3125 14.9844 27.2969
Q14.9844 17.2812 19.8125 11.7344
Q24.6562 6.20312 33.4062 6.20312
Q37.3125 6.20312 41.1406 7.25
Q44.9688 8.29688 48.7812 10.4062
L48.7812 2.09375
Q45.0156 0.34375 40.9844 -0.53125
Q36.9688 -1.42188 32.4219 -1.42188
Q20.0625 -1.42188 12.7812 6.34375
Q5.51562 14.1094 5.51562 27.2969
Q5.51562 40.6719 12.8594 48.3281
Q20.2188 56 33.0156 56
Q37.1562 56 41.1094 55.1406
Q45.0625 54.2969 48.7812 52.5938" id="BitstreamVeraSans-Roman-63"/>
     </defs>
     <g transform="translate(22.9846875 262.0765625)rotate(-90.0)scale(0.12 -0.12)">
      <use xlink:href="#BitstreamVeraSans-Roman-54"/>
      <use x="44.083984375" xlink:href="#BitstreamVeraSans-Roman-65"/>
      <use x="105.607421875" xlink:href="#BitstreamVeraSans-Roman-61"/>
      <use x="166.88671875" xlink:href="#BitstreamVeraSans-Roman-63"/>
      <use x="221.8671875" xlink:href="#BitstreamVeraSans-Roman-68"/>
      <use x="285.24609375" xlink:href="#BitstreamVeraSans-Roman-20"/>
      <use x="317.033203125" xlink:href="#BitstreamVeraSans-Roman-69"/>
      <use x="344.81640625" xlink:href="#BitstreamVeraSans-Roman-6d"/>
      <use x="442.228515625" xlink:href="#BitstreamVeraSans-Roman-61"/>
      <use x="503.5078125" xlink:href="#BitstreamVeraSans-Roman-67"/>
      <use x="566.984375" xlink:href="#BitstreamVeraSans-Roman-65"/>
      <use x="628.5078125" xlink:href="#BitstreamVeraSans-Roman-20"/>
      <use x="660.294921875" xlink:href="#BitstreamVeraSans-Roman-69"/>
      <use x="688.078125" xlink:href="#BitstreamVeraSans-Roman-6e"/>
      <use x="751.45703125" xlink:href="#BitstreamVeraSans-Roman-64"/>
      <use x="814.93359375" xlink:href="#BitstreamVeraSans-Roman-65"/>
      <use x="874.70703125" xlink:href="#BitstreamVeraSans-Roman-78"/>
      <use x="933.88671875" xlink:href="#BitstreamVeraSans-Roman-20"/>
      <use x="965.673828125" xlink:href="#BitstreamVeraSans-Roman-23"/>
     </g>
    </g>
   </g>
  </g>
  <g id="axes_2">
   <g id="patch_7">
    <path clip-path="url(#pc0aa0b088a)" d="
M486.545 379.84
L486.545 328.329
L486.545 70.7714
L486.545 19.26
L504.574 19.26
L504.574 70.7714
L504.574 328.329
L504.574 379.84
z
" style="fill:#ffffff;stroke:#ffffff;stroke-linejoin:miter;stroke-width:0.01;"/>
   </g>
   <g id="QuadMesh_1">
    <defs>
     <path d="
M486.545 -52.16
L504.574 -52.16
L504.574 -103.671
L486.545 -103.671
L486.545 -52.16" id="C7_0_b75817fa8f"/>
     <path d="
M486.545 -103.671
L504.574 -103.671
L504.574 -155.183
L486.545 -155.183
L486.545 -103.671" id="C7_1_d75429b04c"/>
     <path d="
M486.545 -155.183
L504.574 -155.183
L504.574 -206.694
L486.545 -206.694
L486.545 -155.183" id="C7_2_11be5272be"/>
     <path d="
M486.545 -206.694
L504.574 -206.694
L504.574 -258.206
L486.545 -258.206
L486.545 -206.694" id="C7_3_5ef3b573fd"/>
     <path d="
M486.545 -258.206
L504.574 -258.206
L504.574 -309.717
L486.545 -309.717
L486.545 -258.206" id="C7_4_fc499adfff"/>
     <path d="
M486.545 -309.717
L504.574 -309.717
L504.574 -361.229
L486.545 -361.229
L486.545 -309.717" id="C7_5_3ce8ad59ed"/>
     <path d="
M486.545 -361.229
L504.574 -361.229
L504.574 -412.74
L486.545 -412.74
L486.545 -361.229" id="C7_6_3505d950c0"/>
    </defs>
    <g clip-path="url(#pc0aa0b088a)">
     <use style="fill:#121212;" x="0.0" xlink:href="#C7_0_b75817fa8f" y="432.0"/>
    </g>
    <g clip-path="url(#pc0aa0b088a)">
     <use style="fill:#363636;" x="0.0" xlink:href="#C7_1_d75429b04c" y="432.0"/>
    </g>
    <g clip-path="url(#pc0aa0b088a)">
     <use style="fill:#5b5b5b;" x="0.0" xlink:href="#C7_2_11be5272be" y="432.0"/>
    </g>
    <g clip-path="url(#pc0aa0b088a)">
     <use style="fill:#808080;" x="0.0" xlink:href="#C7_3_5ef3b573fd" y="432.0"/>
    </g>
    <g clip-path="url(#pc0aa0b088a)">
     <use style="fill:#a4a4a4;" x="0.0" xlink:href="#C7_4_fc499adfff" y="432.0"/>
    </g>
    <g clip-path="url(#pc0aa0b088a)">
     <use style="fill:#c9c9c9;" x="0.0" xlink:href="#C7_5_3ce8ad59ed" y="432.0"/>
    </g>
    <g clip-path="url(#pc0aa0b088a)">
     <use style="fill:#ededed;" x="0.0" xlink:href="#C7_6_3505d950c0" y="432.0"/>
    </g>
   </g>
   <g id="patch_8">
    <path d="
M486.545 379.84
L486.545 328.329
L486.545 70.7714
L486.545 19.26
L504.574 19.26
L504.574 70.7714
L504.574 328.329
L504.574 379.84
z
" style="fill:none;stroke:#000000;stroke-linejoin:miter;"/>
   </g>
   <g id="matplotlib.axis_3"/>
   <g id="matplotlib.axis_4">
    <g id="ytick_6">
     <g id="line2d_32">
      <g>
       <use style="stroke:#000000;stroke-width:0.5;" x="504.574109375" xlink:href="#mcb0005524f" y="379.84"/>
      </g>
     </g>
     <g id="text_13">
      <!-- 0 -->
      <g transform="translate(508.574109375 383.15125)scale(0.12 -0.12)">
       <use xlink:href="#BitstreamVeraSans-Roman-30"/>
      </g>
     </g>
    </g>
    <g id="ytick_7">
     <g id="line2d_33">
      <g>
       <use style="stroke:#000000;stroke-width:0.5;" x="504.574109375" xlink:href="#mcb0005524f" y="328.328571429"/>
      </g>
     </g>
     <g id="text_14">
      <!-- 15 -->
      <g transform="translate(508.574109375 331.639821429)scale(0.12 -0.12)">
       <use xlink:href="#BitstreamVeraSans-Roman-31"/>
       <use x="63.623046875" xlink:href="#BitstreamVeraSans-Roman-35"/>
      </g>
     </g>
    </g>
    <g id="ytick_8">
     <g id="line2d_34">
      <g>
       <use style="stroke:#000000;stroke-width:0.5;" x="504.574109375" xlink:href="#mcb0005524f" y="276.817142857"/>
      </g>
     </g>
     <g id="text_15">
      <!-- 30 -->
      <defs>
       <path d="
M40.5781 39.3125
Q47.6562 37.7969 51.625 33
Q55.6094 28.2188 55.6094 21.1875
Q55.6094 10.4062 48.1875 4.48438
Q40.7656 -1.42188 27.0938 -1.42188
Q22.5156 -1.42188 17.6562 -0.515625
Q12.7969 0.390625 7.625 2.20312
L7.625 11.7188
Q11.7188 9.32812 16.5938 8.10938
Q21.4844 6.89062 26.8125 6.89062
Q36.0781 6.89062 40.9375 10.5469
Q45.7969 14.2031 45.7969 21.1875
Q45.7969 27.6406 41.2812 31.2656
Q36.7656 34.9062 28.7188 34.9062
L20.2188 34.9062
L20.2188 43.0156
L29.1094 43.0156
Q36.375 43.0156 40.2344 45.9219
Q44.0938 48.8281 44.0938 54.2969
Q44.0938 59.9062 40.1094 62.9062
Q36.1406 65.9219 28.7188 65.9219
Q24.6562 65.9219 20.0156 65.0312
Q15.375 64.1562 9.8125 62.3125
L9.8125 71.0938
Q15.4375 72.6562 20.3438 73.4375
Q25.25 74.2188 29.5938 74.2188
Q40.8281 74.2188 47.3594 69.1094
Q53.9062 64.0156 53.9062 55.3281
Q53.9062 49.2656 50.4375 45.0938
Q46.9688 40.9219 40.5781 39.3125" id="BitstreamVeraSans-Roman-33"/>
      </defs>
      <g transform="translate(508.574109375 280.128392857)scale(0.12 -0.12)">
       <use xlink:href="#BitstreamVeraSans-Roman-33"/>
       <use x="63.623046875" xlink:href="#BitstreamVeraSans-Roman-30"/>
      </g>
     </g>
    </g>
    <g id="ytick_9">
     <g id="line2d_35">
      <g>
       <use style="stroke:#000000;stroke-width:0.5;" x="504.574109375" xlink:href="#mcb0005524f" y="225.305714286"/>
      </g>
     </g>
     <g id="text_16">
      <!-- 45 -->
      <defs>
       <path d="
M37.7969 64.3125
L12.8906 25.3906
L37.7969 25.3906
z

M35.2031 72.9062
L47.6094 72.9062
L47.6094 25.3906
L58.0156 25.3906
L58.0156 17.1875
L47.6094 17.1875
L47.6094 0
L37.7969 0
L37.7969 17.1875
L4.89062 17.1875
L4.89062 26.7031
z
" id="BitstreamVeraSans-Roman-34"/>
      </defs>
      <g transform="translate(508.574109375 228.616964286)scale(0.12 -0.12)">
       <use xlink:href="#BitstreamVeraSans-Roman-34"/>
       <use x="63.623046875" xlink:href="#BitstreamVeraSans-Roman-35"/>
      </g>
     </g>
    </g>
    <g id="ytick_10">
     <g id="line2d_36">
      <g>
       <use style="stroke:#000000;stroke-width:0.5;" x="504.574109375" xlink:href="#mcb0005524f" y="173.794285714"/>
      </g>
     </g>
     <g id="text_17">
      <!-- 60 -->
      <defs>
       <path d="
M33.0156 40.375
Q26.375 40.375 22.4844 35.8281
Q18.6094 31.2969 18.6094 23.3906
Q18.6094 15.5312 22.4844 10.9531
Q26.375 6.39062 33.0156 6.39062
Q39.6562 6.39062 43.5312 10.9531
Q47.4062 15.5312 47.4062 23.3906
Q47.4062 31.2969 43.5312 35.8281
Q39.6562 40.375 33.0156 40.375
M52.5938 71.2969
L52.5938 62.3125
Q48.875 64.0625 45.0938 64.9844
Q41.3125 65.9219 37.5938 65.9219
Q27.8281 65.9219 22.6719 59.3281
Q17.5312 52.7344 16.7969 39.4062
Q19.6719 43.6562 24.0156 45.9219
Q28.375 48.1875 33.5938 48.1875
Q44.5781 48.1875 50.9531 41.5156
Q57.3281 34.8594 57.3281 23.3906
Q57.3281 12.1562 50.6875 5.35938
Q44.0469 -1.42188 33.0156 -1.42188
Q20.3594 -1.42188 13.6719 8.26562
Q6.98438 17.9688 6.98438 36.375
Q6.98438 53.6562 15.1875 63.9375
Q23.3906 74.2188 37.2031 74.2188
Q40.9219 74.2188 44.7031 73.4844
Q48.4844 72.75 52.5938 71.2969" id="BitstreamVeraSans-Roman-36"/>
      </defs>
      <g transform="translate(508.574109375 177.105535714)scale(0.12 -0.12)">
       <use xlink:href="#BitstreamVeraSans-Roman-36"/>
       <use x="63.623046875" xlink:href="#BitstreamVeraSans-Roman-30"/>
      </g>
     </g>
    </g>
    <g id="ytick_11">
     <g id="line2d_37">
      <g>
       <use style="stroke:#000000;stroke-width:0.5;" x="504.574109375" xlink:href="#mcb0005524f" y="122.282857143"/>
      </g>
     </g>
     <g id="text_18">
      <!-- 75 -->
      <defs>
       <path d="
M8.20312 72.9062
L55.0781 72.9062
L55.0781 68.7031
L28.6094 0
L18.3125 0
L43.2188 64.5938
L8.20312 64.5938
z
" id="BitstreamVeraSans-Roman-37"/>
      </defs>
      <g transform="translate(508.574109375 125.594107143)scale(0.12 -0.12)">
       <use xlink:href="#BitstreamVeraSans-Roman-37"/>
       <use x="63.623046875" xlink:href="#BitstreamVeraSans-Roman-35"/>
      </g>
     </g>
    </g>
    <g id="ytick_12">
     <g id="line2d_38">
      <g>
       <use style="stroke:#000000;stroke-width:0.5;" x="504.574109375" xlink:href="#mcb0005524f" y="70.7714285714"/>
      </g>
     </g>
     <g id="text_19">
      <!-- 90 -->
      <defs>
       <path d="
M10.9844 1.51562
L10.9844 10.5
Q14.7031 8.73438 18.5 7.8125
Q22.3125 6.89062 25.9844 6.89062
Q35.75 6.89062 40.8906 13.4531
Q46.0469 20.0156 46.7812 33.4062
Q43.9531 29.2031 39.5938 26.9531
Q35.25 24.7031 29.9844 24.7031
Q19.0469 24.7031 12.6719 31.3125
Q6.29688 37.9375 6.29688 49.4219
Q6.29688 60.6406 12.9375 67.4219
Q19.5781 74.2188 30.6094 74.2188
Q43.2656 74.2188 49.9219 64.5156
Q56.5938 54.8281 56.5938 36.375
Q56.5938 19.1406 48.4062 8.85938
Q40.2344 -1.42188 26.4219 -1.42188
Q22.7031 -1.42188 18.8906 -0.6875
Q15.0938 0.046875 10.9844 1.51562
M30.6094 32.4219
Q37.25 32.4219 41.125 36.9531
Q45.0156 41.5 45.0156 49.4219
Q45.0156 57.2812 41.125 61.8438
Q37.25 66.4062 30.6094 66.4062
Q23.9688 66.4062 20.0938 61.8438
Q16.2188 57.2812 16.2188 49.4219
Q16.2188 41.5 20.0938 36.9531
Q23.9688 32.4219 30.6094 32.4219" id="BitstreamVeraSans-Roman-39"/>
      </defs>
      <g transform="translate(508.574109375 74.0826785714)scale(0.12 -0.12)">
       <use xlink:href="#BitstreamVeraSans-Roman-39"/>
       <use x="63.623046875" xlink:href="#BitstreamVeraSans-Roman-30"/>
      </g>
     </g>
    </g>
    <g id="ytick_13">
     <g id="line2d_39">
      <g>
       <use style="stroke:#000000;stroke-width:0.5;" x="504.574109375" xlink:href="#mcb0005524f" y="19.26"/>
      </g>
     </g>
     <g id="text_20">
      <!-- 105 -->
      <g transform="translate(508.574109375 22.57125)scale(0.12 -0.12)">
       <use xlink:href="#BitstreamVeraSans-Roman-31"/>
       <use x="63.623046875" xlink:href="#BitstreamVeraSans-Roman-30"/>
       <use x="127.24609375" xlink:href="#BitstreamVeraSans-Roman-35"/>
      </g>
     </g>
    </g>
   </g>
  </g>
 </g>
 <defs>
  <clipPath id="pc0aa0b088a">
   <rect height="360.58" width="18.029" x="486.545109375" y="19.26"/>
  </clipPath>
  <clipPath id="p148d6a6e19">
   <rect height="360.58" width="407.97275" x="53.0740625" y="19.26"/>
  </clipPath>
 </defs>
</svg>
