<?xml version="1.0" encoding="utf-8" standalone="no"?>
<!DOCTYPE svg PUBLIC "-//W3C//DTD SVG 1.1//EN"
  "http://www.w3.org/Graphics/SVG/1.1/DTD/svg11.dtd">
<!-- Created with matplotlib (http://matplotlib.org/) -->
<svg height="432pt" version="1.1" viewBox="0 0 576 432" width="576pt" xmlns="http://www.w3.org/2000/svg" xmlns:xlink="http://www.w3.org/1999/xlink">
 <defs>
  <style type="text/css">
*{stroke-linecap:butt;stroke-linejoin:round;}
  </style>
 </defs>
 <g id="figure_1">
  <g id="patch_1">
   <path d="
M0 432
L576 432
L576 0
L0 0
z
" style="fill:#ffffff;"/>
  </g>
  <g id="axes_1">
   <g id="patch_2">
    <path d="
M53.0741 379.84
L461.047 379.84
L461.047 19.26
L53.0741 19.26
z
" style="fill:#ffffff;"/>
   </g>
   <g id="PathCollection_1">
    <defs>
     <path d="
M57.3238 -52.16
L70.0729 -52.16
L87.0718 -52.16
L104.071 -52.16
L121.07 -52.16
L138.068 -52.16
L155.067 -52.16
L172.066 -52.16
L189.065 -52.16
L199.264 -52.16
L206.064 -58.1697
L212.863 -52.16
L223.063 -52.16
L240.062 -52.16
L257.06 -52.16
L274.059 -52.16
L291.058 -52.16
L308.057 -52.16
L325.056 -52.16
L342.055 -52.16
L359.054 -52.16
L376.052 -52.16
L393.051 -52.16
L410.05 -52.16
L427.049 -52.16
L444.048 -52.16
L461.047 -52.16
L461.047 -67.1842
L461.047 -82.2083
L461.047 -97.2325
L461.047 -112.257
L461.047 -127.281
L461.047 -142.305
L461.047 -157.329
L461.047 -172.353
L461.047 -187.377
L461.047 -202.402
L461.047 -217.426
L461.047 -232.45
L461.047 -247.474
L461.047 -262.498
L461.047 -277.522
L461.047 -292.547
L461.047 -307.571
L461.047 -322.595
L461.047 -337.619
L461.047 -352.643
L461.047 -367.668
L461.047 -382.692
L461.047 -397.716
L461.047 -399.969
L444.048 -399.969
L428.749 -397.716
L444.048 -393.209
L460.707 -382.692
L444.048 -372.175
L428.749 -367.668
L427.049 -366.165
L410.05 -366.165
L393.051 -363.911
L376.052 -360.531
L359.054 -354.897
L344.605 -367.668
L342.055 -374.428
L334.405 -367.668
L325.056 -359.404
L317.406 -352.643
L325.056 -350.39
L339.505 -337.619
L342.055 -334.239
L359.054 -330.858
L368.403 -322.595
L368.403 -307.571
L359.054 -299.308
L349.704 -307.571
L342.055 -310.951
L334.405 -307.571
L325.056 -299.308
L308.057 -299.308
L291.058 -294.8
L274.059 -301.561
L268.96 -292.547
L257.06 -282.03
L245.161 -292.547
L257.06 -303.064
L267.26 -307.571
L260.46 -322.595
L257.06 -327.102
L253.236 -322.595
L240.062 -310.951
L234.962 -307.571
L237.512 -292.547
L223.063 -279.776
L208.614 -292.547
L211.164 -307.571
L206.064 -316.585
L199.264 -322.595
L206.064 -328.605
L223.063 -333.112
L240.062 -334.239
L245.161 -337.619
L257.06 -348.136
L268.96 -337.619
L274.059 -334.614
L291.058 -335.366
L308.057 -335.366
L310.607 -337.619
L308.057 -344.38
L291.058 -344.38
L281.709 -352.643
L291.058 -360.907
L308.057 -360.907
L315.707 -367.668
L308.057 -374.428
L298.708 -382.692
L308.057 -390.955
L311.882 -397.716
L308.057 -401.096
L291.058 -404.477
L281.709 -412.74
L274.059 -412.74
L268.96 -412.74
L257.06 -402.223
L240.062 -399.969
L223.063 -399.969
L208.614 -412.74
L206.064 -412.74
L203.514 -412.74
L189.065 -399.969
L181.415 -397.716
L189.065 -390.955
L198.414 -382.692
L189.065 -374.428
L179.716 -382.692
L172.066 -389.453
L162.717 -397.716
L155.067 -399.969
L142.318 -397.716
L138.068 -393.96
L121.07 -387.199
L113.42 -382.692
L104.071 -374.428
L94.7213 -382.692
L104.071 -390.955
L109.17 -397.716
L104.071 -404.477
L94.7213 -412.74
L87.0718 -412.74
L70.0729 -412.74
L53.0741 -412.74
L53.0741 -397.716
L53.0741 -382.692
L53.0741 -367.668
L53.0741 -352.643
L53.0741 -337.619
L53.0741 -322.595
L53.0741 -307.571
L53.0741 -292.547
L53.0741 -277.522
L53.0741 -262.498
L53.0741 -247.474
L53.0741 -232.45
L53.0741 -217.426
L53.0741 -202.402
L53.0741 -187.377
L53.0741 -172.353
L53.0741 -157.329
L53.0741 -142.305
L53.0741 -127.281
L53.0741 -112.257
L53.0741 -100.989
L70.0729 -100.989
L87.0718 -98.7349
L104.071 -105.496
L121.07 -107.749
L132.969 -97.2325
L138.068 -85.9644
L142.318 -82.2083
L155.067 -73.1938
L172.066 -75.4475
L189.065 -75.4475
L198.414 -67.1842
L189.065 -58.9209
L172.066 -58.9209
L155.067 -61.1745
L138.068 -63.4281
L121.07 -56.6672
L104.071 -55.5404
L87.0718 -56.6672
L70.0729 -54.4136
L57.3238 -52.16
M223.063 -86.7156
L211.164 -97.2325
L223.063 -107.749
L234.962 -97.2325
L223.063 -86.7156
M223.063 -206.909
L211.164 -217.426
L206.064 -221.933
L189.065 -224.187
L172.066 -224.187
L162.717 -232.45
L172.066 -240.713
L189.065 -240.713
L206.064 -242.967
L223.063 -242.967
L234.962 -232.45
L234.962 -217.426
L223.063 -206.909
M206.064 -256.489
L199.264 -262.498
L206.064 -268.508
L212.863 -262.498
L206.064 -256.489
M240.062 -55.5404
L226.887 -67.1842
L240.062 -78.8279
L253.236 -67.1842
L240.062 -55.5404
M240.062 -130.661
L226.887 -142.305
L240.062 -153.949
L257.06 -155.076
L271.509 -142.305
L257.06 -129.534
L240.062 -130.661
M257.06 -191.885
L245.161 -202.402
L245.161 -217.426
L257.06 -227.943
L268.96 -217.426
L268.96 -202.402
L257.06 -191.885
M257.06 -234.704
L242.611 -247.474
L245.161 -262.498
L257.06 -273.015
L274.059 -275.269
L291.058 -270.762
L300.408 -262.498
L291.058 -254.235
L280.859 -247.474
L274.059 -241.464
L257.06 -234.704
M274.059 -61.1745
L267.26 -67.1842
L274.059 -73.1938
L280.859 -67.1842
L274.059 -61.1745
M291.058 -119.018
L281.709 -127.281
L291.058 -135.544
L308.057 -135.544
L315.707 -142.305
L325.056 -150.568
L334.405 -142.305
L325.056 -134.042
L317.406 -127.281
L308.057 -119.018
L291.058 -119.018
M308.057 -179.114
L298.708 -187.377
L308.057 -195.641
L317.406 -187.377
L308.057 -179.114
M342.055 -73.945
L332.705 -82.2083
L342.055 -90.4716
L351.404 -82.2083
L342.055 -73.945
M342.055 -179.114
L332.705 -187.377
L342.055 -195.641
L351.404 -187.377
L342.055 -179.114
M393.051 -318.839
L388.802 -322.595
L393.051 -326.351
L400.701 -337.619
L410.05 -345.882
L419.4 -337.619
L427.049 -324.097
L444.048 -334.614
L457.647 -322.595
L444.048 -310.576
L427.049 -321.093
L410.05 -321.093
L393.051 -318.839
M427.049 -140.803
L425.349 -142.305
L427.049 -143.807
L428.749 -142.305
L427.049 -140.803
M444.048 -241.464
L437.248 -247.474
L444.048 -253.484
L450.847 -247.474
L444.048 -241.464
M223.063 -357.151
L211.164 -367.668
L223.063 -378.184
L230.712 -382.692
L240.062 -390.955
L249.411 -382.692
L240.062 -374.428
L234.962 -367.668
L223.063 -357.151
M121.07 -114.51
L106.62 -127.281
L104.071 -129.534
L89.6216 -142.305
L94.7213 -157.329
L104.071 -165.592
L109.17 -172.353
L121.07 -182.87
L138.068 -176.109
L142.318 -172.353
L138.068 -168.597
L132.969 -157.329
L138.068 -155.076
L148.268 -157.329
L155.067 -163.339
L158.892 -172.353
L162.717 -187.377
L172.066 -195.641
L179.716 -202.402
L189.065 -210.665
L198.414 -202.402
L206.064 -200.148
L220.513 -187.377
L212.863 -172.353
L206.064 -166.344
L199.264 -172.353
L191.615 -187.377
L189.065 -194.138
L181.415 -187.377
L185.24 -172.353
L181.415 -157.329
L189.065 -155.076
L203.514 -142.305
L189.065 -129.534
L172.066 -129.534
L155.067 -129.534
L142.318 -127.281
L138.068 -123.525
L121.07 -114.51
M121.07 -312.078
L109.17 -322.595
L104.071 -329.356
L94.7213 -337.619
L104.071 -345.882
L113.42 -337.619
L121.07 -333.112
L132.969 -322.595
L121.07 -312.078" id="C0_0_e1fbb5525e"/>
     <path d="
M104.071 -78.8279
L121.07 -77.7011
L133.819 -82.2083
L121.07 -86.7156
L104.071 -88.9692
L101.521 -82.2083
L104.071 -78.8279" id="C0_1_160f7ea713"/>
     <path d="
M325.056 -375.931
L332.705 -382.692
L325.056 -386.072
L317.406 -382.692
L325.056 -375.931" id="C0_2_580da9d608"/>
     <path d="
M359.054 -380.438
L376.052 -374.804
L382.427 -382.692
L378.177 -397.716
L376.052 -397.841
L375.821 -397.716
L359.054 -386.072
L351.404 -382.692
L359.054 -380.438" id="C0_3_48a66250e4"/>
     <path d="
M410.05 -369.17
L427.049 -369.17
L432.149 -382.692
L427.049 -396.213
L425.349 -397.716
L410.05 -399.969
L397.301 -397.716
L403.676 -382.692
L410.05 -369.17" id="C0_4_43807021b1"/>
     <path d="
M121.07 -408.233
L138.068 -401.472
L140.618 -412.74
L138.068 -412.74
L121.07 -412.74
L113.42 -412.74
L121.07 -408.233" id="C0_5_43abced7df"/>
     <path d="
M172.066 -405.979
L174.616 -412.74
L172.066 -412.74
L169.516 -412.74
L172.066 -405.979" id="C0_6_b199171adf"/>
    </defs>
    <g clip-path="url(#p148d6a6e19)">
     <use style="fill:#121212;" x="0.0" xlink:href="#C0_0_e1fbb5525e" y="432.0"/>
    </g>
    <g clip-path="url(#p148d6a6e19)">
     <use style="fill:#121212;" x="0.0" xlink:href="#C0_1_160f7ea713" y="432.0"/>
    </g>
    <g clip-path="url(#p148d6a6e19)">
     <use style="fill:#121212;" x="0.0" xlink:href="#C0_2_580da9d608" y="432.0"/>
    </g>
    <g clip-path="url(#p148d6a6e19)">
     <use style="fill:#121212;" x="0.0" xlink:href="#C0_3_48a66250e4" y="432.0"/>
    </g>
    <g clip-path="url(#p148d6a6e19)">
     <use style="fill:#121212;" x="0.0" xlink:href="#C0_4_43807021b1" y="432.0"/>
    </g>
    <g clip-path="url(#p148d6a6e19)">
     <use style="fill:#121212;" x="0.0" xlink:href="#C0_5_43abced7df" y="432.0"/>
    </g>
    <g clip-path="url(#p148d6a6e19)">
     <use style="fill:#121212;" x="0.0" xlink:href="#C0_6_b199171adf" y="432.0"/>
    </g>
   </g>
   <g id="PathCollection_2">
    <defs>
     <path d="
M53.0741 -52.16
L57.3238 -52.16
L70.0729 -54.4136
L87.0718 -56.6672
L104.071 -55.5404
L121.07 -56.6672
L138.068 -63.4281
L155.067 -61.1745
L172.066 -58.9209
L189.065 -58.9209
L198.414 -67.1842
L189.065 -75.4475
L172.066 -75.4475
L155.067 -73.1938
L142.318 -82.2083
L138.068 -85.9644
L132.969 -97.2325
L121.07 -107.749
L104.071 -105.496
L87.0718 -98.7349
L70.0729 -100.989
L53.0741 -100.989
L53.0741 -97.2325
L53.0741 -93.4765
L70.0729 -94.7285
L87.0718 -94.8286
L100.671 -97.2325
L104.071 -98.7349
L121.07 -103.242
L127.869 -97.2325
L121.07 -91.2228
L104.071 -95.7301
L98.971 -82.2083
L104.071 -75.4475
L121.07 -73.1938
L132.402 -67.1842
L121.07 -61.1745
L104.071 -58.9209
L87.0718 -61.1745
L70.0729 -56.6672
L53.0741 -54.038
L53.0741 -52.16
M172.066 -65.6817
L165.267 -67.1842
L172.066 -68.6866
L189.065 -68.6866
L190.765 -67.1842
L189.065 -65.6817
L172.066 -65.6817
M104.071 -78.8279
L101.521 -82.2083
L104.071 -88.9692
L121.07 -86.7156
L133.819 -82.2083
L121.07 -77.7011
L104.071 -78.8279" id="C1_0_048a33fc14"/>
     <path d="
M199.264 -52.16
L206.064 -52.16
L212.863 -52.16
L206.064 -58.1697
L199.264 -52.16" id="C1_1_6c27a84ea6"/>
     <path d="
M240.062 -55.5404
L253.236 -67.1842
L240.062 -78.8279
L226.887 -67.1842
L240.062 -55.5404
M240.062 -58.9209
L230.712 -67.1842
L240.062 -75.4475
L249.411 -67.1842
L240.062 -58.9209" id="C1_2_b0d14db07e"/>
     <path d="
M274.059 -61.1745
L280.859 -67.1842
L274.059 -73.1938
L267.26 -67.1842
L274.059 -61.1745" id="C1_3_40bbce91c3"/>
     <path d="
M342.055 -73.945
L351.404 -82.2083
L342.055 -90.4716
L332.705 -82.2083
L342.055 -73.945
M342.055 -80.7059
L340.355 -82.2083
L342.055 -83.7107
L343.755 -82.2083
L342.055 -80.7059" id="C1_4_6a65452ef8"/>
     <path d="
M223.063 -86.7156
L234.962 -97.2325
L223.063 -107.749
L211.164 -97.2325
L223.063 -86.7156
M223.063 -91.2228
L216.263 -97.2325
L223.063 -103.242
L229.862 -97.2325
L223.063 -91.2228" id="C1_5_cc17479d31"/>
     <path d="
M121.07 -114.51
L138.068 -123.525
L142.318 -127.281
L155.067 -129.534
L172.066 -129.534
L189.065 -129.534
L203.514 -142.305
L189.065 -155.076
L181.415 -157.329
L185.24 -172.353
L181.415 -187.377
L189.065 -194.138
L191.615 -187.377
L199.264 -172.353
L206.064 -166.344
L212.863 -172.353
L220.513 -187.377
L206.064 -200.148
L198.414 -202.402
L189.065 -210.665
L179.716 -202.402
L172.066 -195.641
L162.717 -187.377
L158.892 -172.353
L155.067 -163.339
L148.268 -157.329
L138.068 -155.076
L132.969 -157.329
L138.068 -168.597
L142.318 -172.353
L138.068 -176.109
L121.07 -182.87
L109.17 -172.353
L104.071 -165.592
L94.7213 -157.329
L89.6216 -142.305
L104.071 -129.534
L106.62 -127.281
L121.07 -114.51
M206.064 -173.355
L194.165 -187.377
L189.065 -200.899
L187.365 -202.402
L189.065 -203.904
L190.765 -202.402
L206.064 -197.894
L217.963 -187.377
L206.064 -173.355
M121.07 -116.764
L109.17 -127.281
L104.071 -131.788
L92.1715 -142.305
L102.371 -157.329
L104.071 -158.832
L114.27 -172.353
L121.07 -178.363
L132.402 -172.353
L127.869 -157.329
L138.068 -152.822
L155.067 -156.328
L165.267 -157.329
L162.717 -172.353
L170.366 -187.377
L172.066 -188.88
L173.766 -187.377
L181.415 -172.353
L173.766 -157.329
L189.065 -152.822
L200.964 -142.305
L189.065 -131.788
L172.066 -131.788
L155.067 -131.788
L138.068 -129.159
L135.944 -127.281
L121.07 -116.764" id="C1_6_d5d7538bdb"/>
     <path d="
M291.058 -119.018
L308.057 -119.018
L317.406 -127.281
L325.056 -134.042
L334.405 -142.305
L325.056 -150.568
L315.707 -142.305
L308.057 -135.544
L291.058 -135.544
L281.709 -127.281
L291.058 -119.018
M325.056 -140.803
L323.356 -142.305
L325.056 -143.807
L326.756 -142.305
L325.056 -140.803
M291.058 -125.778
L289.358 -127.281
L291.058 -128.783
L308.057 -128.783
L309.757 -127.281
L308.057 -125.778
L291.058 -125.778" id="C1_7_1de791c167"/>
     <path d="
M240.062 -130.661
L257.06 -129.534
L271.509 -142.305
L257.06 -155.076
L240.062 -153.949
L226.887 -142.305
L240.062 -130.661
M240.062 -134.042
L230.712 -142.305
L240.062 -150.568
L257.06 -152.822
L268.96 -142.305
L257.06 -131.788
L240.062 -134.042" id="C1_8_a261772ef9"/>
     <path d="
M427.049 -140.803
L428.749 -142.305
L427.049 -143.807
L425.349 -142.305
L427.049 -140.803" id="C1_9_fcaf52aea0"/>
     <path d="
M308.057 -179.114
L317.406 -187.377
L308.057 -195.641
L298.708 -187.377
L308.057 -179.114
M308.057 -185.875
L306.357 -187.377
L308.057 -188.88
L309.757 -187.377
L308.057 -185.875" id="C1_a_b21b2b578c"/>
     <path d="
M342.055 -179.114
L351.404 -187.377
L342.055 -195.641
L332.705 -187.377
L342.055 -179.114
M342.055 -185.875
L340.355 -187.377
L342.055 -188.88
L343.755 -187.377
L342.055 -185.875" id="C1_b_5271cc6426"/>
     <path d="
M257.06 -191.885
L268.96 -202.402
L268.96 -217.426
L257.06 -227.943
L245.161 -217.426
L245.161 -202.402
L257.06 -191.885
M257.06 -196.392
L250.261 -202.402
L250.261 -217.426
L257.06 -223.435
L263.86 -217.426
L263.86 -202.402
L257.06 -196.392" id="C1_c_5f9ce081f1"/>
     <path d="
M223.063 -206.909
L234.962 -217.426
L234.962 -232.45
L223.063 -242.967
L206.064 -242.967
L189.065 -240.713
L172.066 -240.713
L162.717 -232.45
L172.066 -224.187
L189.065 -224.187
L206.064 -221.933
L211.164 -217.426
L223.063 -206.909
M223.063 -211.416
L216.263 -217.426
L206.064 -226.44
L189.065 -230.948
L172.066 -230.948
L170.366 -232.45
L172.066 -233.952
L189.065 -233.952
L206.064 -238.46
L223.063 -238.46
L229.862 -232.45
L229.862 -217.426
L223.063 -211.416" id="C1_d_846ec0a2f9"/>
     <path d="
M257.06 -234.704
L274.059 -241.464
L280.859 -247.474
L291.058 -254.235
L300.408 -262.498
L291.058 -270.762
L274.059 -275.269
L257.06 -273.015
L245.161 -262.498
L242.611 -247.474
L257.06 -234.704
M257.06 -236.957
L245.161 -247.474
L250.261 -262.498
L257.06 -268.508
L274.059 -273.015
L291.058 -264.001
L292.758 -262.498
L291.058 -260.996
L274.059 -248.476
L272.926 -247.474
L257.06 -236.957" id="C1_e_4d26ae8045"/>
     <path d="
M444.048 -241.464
L450.847 -247.474
L444.048 -253.484
L437.248 -247.474
L444.048 -241.464" id="C1_f_fcdaeb4033"/>
     <path d="
M206.064 -256.489
L212.863 -262.498
L206.064 -268.508
L199.264 -262.498
L206.064 -256.489" id="C1_10_b3f39579fd"/>
     <path d="
M223.063 -279.776
L237.512 -292.547
L234.962 -307.571
L240.062 -310.951
L253.236 -322.595
L257.06 -327.102
L260.46 -322.595
L267.26 -307.571
L257.06 -303.064
L245.161 -292.547
L257.06 -282.03
L268.96 -292.547
L274.059 -301.561
L291.058 -294.8
L308.057 -299.308
L325.056 -299.308
L334.405 -307.571
L342.055 -310.951
L349.704 -307.571
L359.054 -299.308
L368.403 -307.571
L368.403 -322.595
L359.054 -330.858
L342.055 -334.239
L339.505 -337.619
L325.056 -350.39
L317.406 -352.643
L325.056 -359.404
L334.405 -367.668
L342.055 -374.428
L344.605 -367.668
L359.054 -354.897
L376.052 -360.531
L393.051 -363.911
L410.05 -366.165
L427.049 -366.165
L428.749 -367.668
L444.048 -372.175
L460.707 -382.692
L444.048 -393.209
L428.749 -397.716
L444.048 -399.969
L461.047 -399.969
L461.047 -402.223
L444.048 -402.223
L427.049 -400.12
L410.05 -402.223
L393.051 -399.594
L376.052 -400.47
L370.953 -397.716
L359.054 -389.453
L343.755 -382.692
L359.054 -378.184
L375.713 -367.668
L359.054 -357.151
L347.154 -367.668
L342.055 -381.189
L340.355 -382.692
L325.056 -389.453
L315.707 -397.716
L308.057 -404.477
L291.058 -411.238
L289.358 -412.74
L281.709 -412.74
L291.058 -404.477
L308.057 -401.096
L311.882 -397.716
L308.057 -390.955
L298.708 -382.692
L308.057 -374.428
L315.707 -367.668
L308.057 -360.907
L291.058 -360.907
L281.709 -352.643
L291.058 -344.38
L308.057 -344.38
L310.607 -337.619
L308.057 -335.366
L291.058 -335.366
L274.059 -334.614
L268.96 -337.619
L257.06 -348.136
L245.161 -337.619
L240.062 -334.239
L223.063 -333.112
L206.064 -328.605
L199.264 -322.595
L206.064 -316.585
L211.164 -307.571
L208.614 -292.547
L223.063 -279.776
M257.06 -286.537
L250.261 -292.547
L257.06 -298.556
L263.86 -292.547
L257.06 -286.537
M291.058 -297.054
L275.193 -307.571
L274.059 -309.073
L263.86 -322.595
L257.06 -331.61
L250.261 -337.619
L257.06 -343.629
L263.86 -337.619
L274.059 -331.61
L291.058 -333.112
L308.057 -333.112
L313.157 -337.619
L308.057 -351.141
L291.058 -351.141
L289.358 -352.643
L291.058 -354.146
L308.057 -354.146
L309.757 -352.643
L325.056 -348.136
L336.955 -337.619
L342.055 -330.858
L359.054 -324.097
L360.754 -322.595
L360.754 -307.571
L359.054 -306.068
L357.354 -307.571
L342.055 -314.332
L326.756 -307.571
L325.056 -306.068
L308.057 -306.068
L291.058 -297.054
M325.056 -366.165
L323.356 -367.668
L325.056 -369.17
L326.756 -367.668
L325.056 -366.165
M325.056 -375.931
L317.406 -382.692
L325.056 -386.072
L332.705 -382.692
L325.056 -375.931
M393.051 -375.18
L388.802 -382.692
L393.051 -390.204
L397.301 -382.692
L393.051 -375.18
M410.05 -369.17
L403.676 -382.692
L397.301 -397.716
L410.05 -399.969
L425.349 -397.716
L427.049 -396.213
L432.149 -382.692
L427.049 -369.17
L410.05 -369.17
M444.048 -376.682
L437.248 -382.692
L444.048 -388.701
L453.567 -382.692
L444.048 -376.682
M359.054 -380.438
L351.404 -382.692
L359.054 -386.072
L375.821 -397.716
L376.052 -397.841
L378.177 -397.716
L382.427 -382.692
L376.052 -374.804
L359.054 -380.438
M308.057 -381.189
L306.357 -382.692
L308.057 -384.194
L309.757 -382.692
L308.057 -381.189
M223.063 -282.03
L211.164 -292.547
L216.263 -307.571
L209.464 -322.595
L223.063 -328.605
L240.062 -330.858
L249.411 -322.595
L240.062 -314.332
L229.862 -307.571
L234.962 -292.547
L223.063 -282.03" id="C1_11_1abf7c2359"/>
     <path d="
M121.07 -312.078
L132.969 -322.595
L121.07 -333.112
L113.42 -337.619
L104.071 -345.882
L94.7213 -337.619
L104.071 -329.356
L109.17 -322.595
L121.07 -312.078
M104.071 -336.117
L102.371 -337.619
L104.071 -339.122
L105.771 -337.619
L104.071 -336.117
M121.07 -316.585
L114.27 -322.595
L121.07 -328.605
L127.869 -322.595
L121.07 -316.585" id="C1_12_e85959e972"/>
     <path d="
M393.051 -318.839
L410.05 -321.093
L427.049 -321.093
L444.048 -310.576
L457.647 -322.595
L444.048 -334.614
L427.049 -324.097
L419.4 -337.619
L410.05 -345.882
L400.701 -337.619
L393.051 -326.351
L388.802 -322.595
L393.051 -318.839
M410.05 -334.614
L408.35 -337.619
L410.05 -339.122
L411.75 -337.619
L410.05 -334.614
M444.048 -313.58
L430.935 -322.595
L444.048 -331.61
L454.247 -322.595
L444.048 -313.58" id="C1_13_bbd8b14e41"/>
     <path d="
M223.063 -357.151
L234.962 -367.668
L240.062 -374.428
L249.411 -382.692
L240.062 -390.955
L230.712 -382.692
L223.063 -378.184
L211.164 -367.668
L223.063 -357.151
M240.062 -381.189
L238.362 -382.692
L240.062 -384.194
L241.761 -382.692
L240.062 -381.189
M223.063 -361.658
L216.263 -367.668
L223.063 -373.677
L229.862 -367.668
L223.063 -361.658" id="C1_14_3fa35e476c"/>
     <path d="
M104.071 -374.428
L113.42 -382.692
L121.07 -387.199
L138.068 -393.96
L142.318 -397.716
L155.067 -399.969
L162.717 -397.716
L172.066 -389.453
L179.716 -382.692
L189.065 -374.428
L198.414 -382.692
L189.065 -390.955
L181.415 -397.716
L189.065 -399.969
L203.514 -412.74
L200.964 -412.74
L189.065 -402.223
L173.766 -397.716
L172.066 -396.213
L170.366 -397.716
L155.067 -402.223
L143.168 -412.74
L140.618 -412.74
L138.068 -401.472
L121.07 -408.233
L113.42 -412.74
L105.771 -412.74
L104.071 -411.238
L102.371 -412.74
L94.7213 -412.74
L104.071 -404.477
L109.17 -397.716
L104.071 -390.955
L94.7213 -382.692
L104.071 -374.428
M121.07 -391.706
L114.27 -397.716
L121.07 -403.726
L132.402 -397.716
L121.07 -391.706
M189.065 -381.189
L187.365 -382.692
L189.065 -384.194
L190.765 -382.692
L189.065 -381.189
M104.071 -381.189
L102.371 -382.692
L104.071 -384.194
L105.771 -382.692
L104.071 -381.189" id="C1_15_2c8a8298f4"/>
     <path d="
M172.066 -399.218
L177.166 -412.74
L174.616 -412.74
L172.066 -405.979
L169.516 -412.74
L166.966 -412.74
L172.066 -399.218" id="C1_16_6af072285d"/>
     <path d="
M223.063 -399.969
L240.062 -399.969
L257.06 -402.223
L268.96 -412.74
L263.86 -412.74
L257.06 -406.73
L240.062 -402.223
L223.063 -402.223
L211.164 -412.74
L208.614 -412.74
L223.063 -399.969" id="C1_17_a56910037e"/>
    </defs>
    <g clip-path="url(#p148d6a6e19)">
     <use style="fill:#363636;" x="0.0" xlink:href="#C1_0_048a33fc14" y="432.0"/>
    </g>
    <g clip-path="url(#p148d6a6e19)">
     <use style="fill:#363636;" x="0.0" xlink:href="#C1_1_6c27a84ea6" y="432.0"/>
    </g>
    <g clip-path="url(#p148d6a6e19)">
     <use style="fill:#363636;" x="0.0" xlink:href="#C1_2_b0d14db07e" y="432.0"/>
    </g>
    <g clip-path="url(#p148d6a6e19)">
     <use style="fill:#363636;" x="0.0" xlink:href="#C1_3_40bbce91c3" y="432.0"/>
    </g>
    <g clip-path="url(#p148d6a6e19)">
     <use style="fill:#363636;" x="0.0" xlink:href="#C1_4_6a65452ef8" y="432.0"/>
    </g>
    <g clip-path="url(#p148d6a6e19)">
     <use style="fill:#363636;" x="0.0" xlink:href="#C1_5_cc17479d31" y="432.0"/>
    </g>
    <g clip-path="url(#p148d6a6e19)">
     <use style="fill:#363636;" x="0.0" xlink:href="#C1_6_d5d7538bdb" y="432.0"/>
    </g>
    <g clip-path="url(#p148d6a6e19)">
     <use style="fill:#363636;" x="0.0" xlink:href="#C1_7_1de791c167" y="432.0"/>
    </g>
    <g clip-path="url(#p148d6a6e19)">
     <use style="fill:#363636;" x="0.0" xlink:href="#C1_8_a261772ef9" y="432.0"/>
    </g>
    <g clip-path="url(#p148d6a6e19)">
     <use style="fill:#363636;" x="0.0" xlink:href="#C1_9_fcaf52aea0" y="432.0"/>
    </g>
    <g clip-path="url(#p148d6a6e19)">
     <use style="fill:#363636;" x="0.0" xlink:href="#C1_a_b21b2b578c" y="432.0"/>
    </g>
    <g clip-path="url(#p148d6a6e19)">
     <use style="fill:#363636;" x="0.0" xlink:href="#C1_b_5271cc6426" y="432.0"/>
    </g>
    <g clip-path="url(#p148d6a6e19)">
     <use style="fill:#363636;" x="0.0" xlink:href="#C1_c_5f9ce081f1" y="432.0"/>
    </g>
    <g clip-path="url(#p148d6a6e19)">
     <use style="fill:#363636;" x="0.0" xlink:href="#C1_d_846ec0a2f9" y="432.0"/>
    </g>
    <g clip-path="url(#p148d6a6e19)">
     <use style="fill:#363636;" x="0.0" xlink:href="#C1_e_4d26ae8045" y="432.0"/>
    </g>
    <g clip-path="url(#p148d6a6e19)">
     <use style="fill:#363636;" x="0.0" xlink:href="#C1_f_fcdaeb4033" y="432.0"/>
    </g>
    <g clip-path="url(#p148d6a6e19)">
     <use style="fill:#363636;" x="0.0" xlink:href="#C1_10_b3f39579fd" y="432.0"/>
    </g>
    <g clip-path="url(#p148d6a6e19)">
     <use style="fill:#363636;" x="0.0" xlink:href="#C1_11_1abf7c2359" y="432.0"/>
    </g>
    <g clip-path="url(#p148d6a6e19)">
     <use style="fill:#363636;" x="0.0" xlink:href="#C1_12_e85959e972" y="432.0"/>
    </g>
    <g clip-path="url(#p148d6a6e19)">
     <use style="fill:#363636;" x="0.0" xlink:href="#C1_13_bbd8b14e41" y="432.0"/>
    </g>
    <g clip-path="url(#p148d6a6e19)">
     <use style="fill:#363636;" x="0.0" xlink:href="#C1_14_3fa35e476c" y="432.0"/>
    </g>
    <g clip-path="url(#p148d6a6e19)">
     <use style="fill:#363636;" x="0.0" xlink:href="#C1_15_2c8a8298f4" y="432.0"/>
    </g>
    <g clip-path="url(#p148d6a6e19)">
     <use style="fill:#363636;" x="0.0" xlink:href="#C1_16_6af072285d" y="432.0"/>
    </g>
    <g clip-path="url(#p148d6a6e19)">
     <use style="fill:#363636;" x="0.0" xlink:href="#C1_17_a56910037e" y="432.0"/>
    </g>
   </g>
   <g id="PathCollection_3">
    <defs>
     <path d="
M53.0741 -56.8551
L53.0741 -54.038
L70.0729 -56.6672
L87.0718 -61.1745
L104.071 -58.9209
L121.07 -61.1745
L132.402 -67.1842
L121.07 -73.1938
L104.071 -75.4475
L98.971 -82.2083
L104.071 -95.7301
L121.07 -91.2228
L127.869 -97.2325
L121.07 -103.242
L104.071 -98.7349
L100.671 -97.2325
L87.0718 -94.8286
L70.0729 -94.7285
L53.0741 -93.4765
L53.0741 -87.8424
L70.0729 -90.9724
L87.0718 -92.1243
L96.4212 -82.2083
L104.071 -72.067
L121.07 -68.6866
L123.903 -67.1842
L121.07 -65.6817
L104.071 -62.3013
L87.0718 -65.6817
L70.0729 -58.9209
L53.0741 -56.8551
M121.07 -95.7301
L115.97 -97.2325
L121.07 -98.7349
L122.769 -97.2325
L121.07 -95.7301" id="C2_0_b70d5edd47"/>
     <path d="
M172.066 -65.6817
L189.065 -65.6817
L190.765 -67.1842
L189.065 -68.6866
L172.066 -68.6866
L165.267 -67.1842
L172.066 -65.6817" id="C2_1_ba3f40b4da"/>
     <path d="
M240.062 -58.9209
L249.411 -67.1842
L240.062 -75.4475
L230.712 -67.1842
L240.062 -58.9209
M240.062 -62.3013
L234.537 -67.1842
L240.062 -72.067
L245.586 -67.1842
L240.062 -62.3013" id="C2_2_6dfcf3ac1c"/>
     <path d="
M342.055 -80.7059
L343.755 -82.2083
L342.055 -83.7107
L340.355 -82.2083
L342.055 -80.7059" id="C2_3_10456cb2b7"/>
     <path d="
M223.063 -91.2228
L229.862 -97.2325
L223.063 -103.242
L216.263 -97.2325
L223.063 -91.2228
M223.063 -95.7301
L221.363 -97.2325
L223.063 -98.7349
L224.763 -97.2325
L223.063 -95.7301" id="C2_4_349c53b8e3"/>
     <path d="
M121.07 -116.764
L135.944 -127.281
L138.068 -129.159
L155.067 -131.788
L172.066 -131.788
L189.065 -131.788
L200.964 -142.305
L189.065 -152.822
L173.766 -157.329
L181.415 -172.353
L173.766 -187.377
L172.066 -188.88
L170.366 -187.377
L162.717 -172.353
L165.267 -157.329
L155.067 -156.328
L138.068 -152.822
L127.869 -157.329
L132.402 -172.353
L121.07 -178.363
L114.27 -172.353
L104.071 -158.832
L102.371 -157.329
L92.1715 -142.305
L104.071 -131.788
L109.17 -127.281
L121.07 -116.764
M121.07 -119.018
L111.72 -127.281
L104.071 -134.042
L94.7213 -142.305
L104.071 -154.7
L115.97 -157.329
L119.37 -172.353
L121.07 -173.856
L123.903 -172.353
L122.769 -157.329
L138.068 -150.568
L155.067 -153.323
L172.066 -154.7
L189.065 -150.568
L198.414 -142.305
L189.065 -134.042
L172.066 -134.042
L155.067 -134.042
L138.068 -131.976
L132.756 -127.281
L121.07 -119.018
M172.066 -162.588
L166.541 -172.353
L172.066 -182.119
L177.591 -172.353
L172.066 -162.588" id="C2_5_1749673197"/>
     <path d="
M291.058 -125.778
L308.057 -125.778
L309.757 -127.281
L308.057 -128.783
L291.058 -128.783
L289.358 -127.281
L291.058 -125.778" id="C2_6_46c17395c1"/>
     <path d="
M240.062 -134.042
L257.06 -131.788
L268.96 -142.305
L257.06 -152.822
L240.062 -150.568
L230.712 -142.305
L240.062 -134.042
M240.062 -137.422
L234.537 -142.305
L240.062 -147.188
L257.06 -150.568
L266.41 -142.305
L257.06 -134.042
L240.062 -137.422" id="C2_7_7be73a89c7"/>
     <path d="
M325.056 -140.803
L326.756 -142.305
L325.056 -143.807
L323.356 -142.305
L325.056 -140.803" id="C2_8_83a468c746"/>
     <path d="
M206.064 -173.355
L217.963 -187.377
L206.064 -197.894
L190.765 -202.402
L189.065 -203.904
L187.365 -202.402
L189.065 -200.899
L194.165 -187.377
L206.064 -173.355
M206.064 -176.36
L196.714 -187.377
L206.064 -195.641
L215.413 -187.377
L206.064 -176.36" id="C2_9_03d1bcf4cf"/>
     <path d="
M308.057 -185.875
L309.757 -187.377
L308.057 -188.88
L306.357 -187.377
L308.057 -185.875" id="C2_a_f1af15f11d"/>
     <path d="
M342.055 -185.875
L343.755 -187.377
L342.055 -188.88
L340.355 -187.377
L342.055 -185.875" id="C2_b_eeefeaf396"/>
     <path d="
M257.06 -196.392
L263.86 -202.402
L263.86 -217.426
L257.06 -223.435
L250.261 -217.426
L250.261 -202.402
L257.06 -196.392
M257.06 -200.899
L255.361 -202.402
L255.361 -217.426
L257.06 -218.928
L258.76 -217.426
L258.76 -202.402
L257.06 -200.899" id="C2_c_3acaa4b181"/>
     <path d="
M223.063 -211.416
L229.862 -217.426
L229.862 -232.45
L223.063 -238.46
L206.064 -238.46
L189.065 -233.952
L172.066 -233.952
L170.366 -232.45
L172.066 -230.948
L189.065 -230.948
L206.064 -226.44
L216.263 -217.426
L223.063 -211.416
M223.063 -215.923
L221.363 -217.426
L206.064 -230.948
L200.964 -232.45
L206.064 -233.952
L223.063 -233.952
L224.763 -232.45
L224.763 -217.426
L223.063 -215.923" id="C2_d_9bc12801cf"/>
     <path d="
M257.06 -236.957
L272.926 -247.474
L274.059 -248.476
L291.058 -260.996
L292.758 -262.498
L291.058 -264.001
L274.059 -273.015
L257.06 -268.508
L250.261 -262.498
L245.161 -247.474
L257.06 -236.957
M257.06 -239.211
L247.711 -247.474
L255.361 -262.498
L257.06 -264.001
L274.059 -270.762
L288.083 -262.498
L274.059 -251.481
L269.526 -247.474
L257.06 -239.211" id="C2_e_18fd66c34c"/>
     <path d="
M223.063 -282.03
L234.962 -292.547
L229.862 -307.571
L240.062 -314.332
L249.411 -322.595
L240.062 -330.858
L223.063 -328.605
L209.464 -322.595
L216.263 -307.571
L211.164 -292.547
L223.063 -282.03
M223.063 -284.283
L213.713 -292.547
L221.363 -307.571
L219.663 -322.595
L223.063 -324.097
L240.062 -327.478
L245.586 -322.595
L240.062 -317.712
L224.763 -307.571
L232.412 -292.547
L223.063 -284.283" id="C2_f_46bc0146e0"/>
     <path d="
M257.06 -286.537
L263.86 -292.547
L257.06 -298.556
L250.261 -292.547
L257.06 -286.537
M257.06 -291.044
L255.361 -292.547
L257.06 -294.049
L258.76 -292.547
L257.06 -291.044" id="C2_10_4609a78991"/>
     <path d="
M291.058 -297.054
L308.057 -306.068
L325.056 -306.068
L326.756 -307.571
L342.055 -314.332
L357.354 -307.571
L359.054 -306.068
L360.754 -307.571
L360.754 -322.595
L359.054 -324.097
L342.055 -330.858
L336.955 -337.619
L325.056 -348.136
L309.757 -352.643
L308.057 -354.146
L291.058 -354.146
L289.358 -352.643
L291.058 -351.141
L308.057 -351.141
L313.157 -337.619
L308.057 -333.112
L291.058 -333.112
L274.059 -331.61
L263.86 -337.619
L257.06 -343.629
L250.261 -337.619
L257.06 -331.61
L263.86 -322.595
L274.059 -309.073
L275.193 -307.571
L291.058 -297.054
M257.06 -336.117
L255.361 -337.619
L257.06 -339.122
L258.76 -337.619
L257.06 -336.117
M291.058 -299.308
L278.592 -307.571
L274.059 -313.58
L267.26 -322.595
L274.059 -328.605
L291.058 -330.858
L308.057 -330.858
L315.707 -337.619
L325.056 -345.882
L334.405 -337.619
L342.055 -327.478
L353.104 -322.595
L342.055 -317.712
L331.005 -322.595
L325.056 -325.224
L322.081 -322.595
L308.057 -310.2
L305.082 -307.571
L291.058 -299.308" id="C2_11_b4d86f6c94"/>
     <path d="
M121.07 -316.585
L127.869 -322.595
L121.07 -328.605
L114.27 -322.595
L121.07 -316.585
M121.07 -321.093
L119.37 -322.595
L121.07 -324.097
L122.769 -322.595
L121.07 -321.093" id="C2_12_063082c36f"/>
     <path d="
M444.048 -313.58
L454.247 -322.595
L444.048 -331.61
L430.935 -322.595
L444.048 -313.58
M444.048 -316.585
L435.306 -322.595
L444.048 -328.605
L450.847 -322.595
L444.048 -316.585" id="C2_13_7225cae2aa"/>
     <path d="
M104.071 -336.117
L105.771 -337.619
L104.071 -339.122
L102.371 -337.619
L104.071 -336.117" id="C2_14_6b46effee8"/>
     <path d="
M410.05 -334.614
L411.75 -337.619
L410.05 -339.122
L408.35 -337.619
L410.05 -334.614" id="C2_15_7d91e08242"/>
     <path d="
M223.063 -361.658
L229.862 -367.668
L223.063 -373.677
L216.263 -367.668
L223.063 -361.658
M223.063 -366.165
L221.363 -367.668
L223.063 -369.17
L224.763 -367.668
L223.063 -366.165" id="C2_16_19e0596889"/>
     <path d="
M325.056 -366.165
L326.756 -367.668
L325.056 -369.17
L323.356 -367.668
L325.056 -366.165" id="C2_17_6ceedb6481"/>
     <path d="
M359.054 -357.151
L375.713 -367.668
L359.054 -378.184
L343.755 -382.692
L359.054 -389.453
L370.953 -397.716
L376.052 -400.47
L393.051 -399.594
L410.05 -402.223
L427.049 -400.12
L444.048 -402.223
L461.047 -402.223
L461.047 -404.477
L444.048 -404.477
L427.049 -402.824
L410.05 -404.477
L393.051 -402.411
L376.052 -403.099
L366.085 -397.716
L359.054 -392.833
L342.055 -387.95
L325.056 -392.833
L319.531 -397.716
L325.056 -407.482
L328.031 -412.74
L325.056 -412.74
L319.106 -412.74
L308.057 -407.857
L297.008 -412.74
L291.058 -412.74
L289.358 -412.74
L291.058 -411.238
L308.057 -404.477
L315.707 -397.716
L325.056 -389.453
L340.355 -382.692
L342.055 -381.189
L347.154 -367.668
L359.054 -357.151
M359.054 -359.404
L349.704 -367.668
L359.054 -375.931
L372.143 -367.668
L359.054 -359.404" id="C2_18_ad07d1e205"/>
     <path d="
M104.071 -381.189
L105.771 -382.692
L104.071 -384.194
L102.371 -382.692
L104.071 -381.189" id="C2_19_16d9aa7b7e"/>
     <path d="
M189.065 -381.189
L190.765 -382.692
L189.065 -384.194
L187.365 -382.692
L189.065 -381.189" id="C2_1a_ed5b38de8a"/>
     <path d="
M240.062 -381.189
L241.761 -382.692
L240.062 -384.194
L238.362 -382.692
L240.062 -381.189" id="C2_1b_566ffea4be"/>
     <path d="
M308.057 -381.189
L309.757 -382.692
L308.057 -384.194
L306.357 -382.692
L308.057 -381.189" id="C2_1c_5cf2b6537f"/>
     <path d="
M393.051 -375.18
L397.301 -382.692
L393.051 -390.204
L388.802 -382.692
L393.051 -375.18" id="C2_1d_c28037e0f6"/>
     <path d="
M444.048 -376.682
L453.567 -382.692
L444.048 -388.701
L437.248 -382.692
L444.048 -376.682
M444.048 -381.189
L442.348 -382.692
L444.048 -384.194
L446.428 -382.692
L444.048 -381.189" id="C2_1e_569de4b334"/>
     <path d="
M121.07 -391.706
L132.402 -397.716
L121.07 -403.726
L114.27 -397.716
L121.07 -391.706
M121.07 -396.213
L119.37 -397.716
L121.07 -399.218
L123.903 -397.716
L121.07 -396.213" id="C2_1f_b04dcb2171"/>
     <path d="
M172.066 -396.213
L173.766 -397.716
L189.065 -402.223
L200.964 -412.74
L198.414 -412.74
L189.065 -404.477
L179.716 -412.74
L177.166 -412.74
L172.066 -399.218
L166.966 -412.74
L164.417 -412.74
L155.067 -404.477
L145.718 -412.74
L143.168 -412.74
L155.067 -402.223
L170.366 -397.716
L172.066 -396.213" id="C2_20_bd9d4832ca"/>
     <path d="
M104.071 -411.238
L105.771 -412.74
L104.071 -412.74
L102.371 -412.74
L104.071 -411.238" id="C2_21_30b99c22b9"/>
     <path d="
M223.063 -402.223
L240.062 -402.223
L257.06 -406.73
L263.86 -412.74
L258.76 -412.74
L257.06 -411.238
L240.062 -404.477
L223.063 -404.477
L213.713 -412.74
L211.164 -412.74
L223.063 -402.223" id="C2_22_d54d1bc2c8"/>
    </defs>
    <g clip-path="url(#p148d6a6e19)">
     <use style="fill:#5b5b5b;" x="0.0" xlink:href="#C2_0_b70d5edd47" y="432.0"/>
    </g>
    <g clip-path="url(#p148d6a6e19)">
     <use style="fill:#5b5b5b;" x="0.0" xlink:href="#C2_1_ba3f40b4da" y="432.0"/>
    </g>
    <g clip-path="url(#p148d6a6e19)">
     <use style="fill:#5b5b5b;" x="0.0" xlink:href="#C2_2_6dfcf3ac1c" y="432.0"/>
    </g>
    <g clip-path="url(#p148d6a6e19)">
     <use style="fill:#5b5b5b;" x="0.0" xlink:href="#C2_3_10456cb2b7" y="432.0"/>
    </g>
    <g clip-path="url(#p148d6a6e19)">
     <use style="fill:#5b5b5b;" x="0.0" xlink:href="#C2_4_349c53b8e3" y="432.0"/>
    </g>
    <g clip-path="url(#p148d6a6e19)">
     <use style="fill:#5b5b5b;" x="0.0" xlink:href="#C2_5_1749673197" y="432.0"/>
    </g>
    <g clip-path="url(#p148d6a6e19)">
     <use style="fill:#5b5b5b;" x="0.0" xlink:href="#C2_6_46c17395c1" y="432.0"/>
    </g>
    <g clip-path="url(#p148d6a6e19)">
     <use style="fill:#5b5b5b;" x="0.0" xlink:href="#C2_7_7be73a89c7" y="432.0"/>
    </g>
    <g clip-path="url(#p148d6a6e19)">
     <use style="fill:#5b5b5b;" x="0.0" xlink:href="#C2_8_83a468c746" y="432.0"/>
    </g>
    <g clip-path="url(#p148d6a6e19)">
     <use style="fill:#5b5b5b;" x="0.0" xlink:href="#C2_9_03d1bcf4cf" y="432.0"/>
    </g>
    <g clip-path="url(#p148d6a6e19)">
     <use style="fill:#5b5b5b;" x="0.0" xlink:href="#C2_a_f1af15f11d" y="432.0"/>
    </g>
    <g clip-path="url(#p148d6a6e19)">
     <use style="fill:#5b5b5b;" x="0.0" xlink:href="#C2_b_eeefeaf396" y="432.0"/>
    </g>
    <g clip-path="url(#p148d6a6e19)">
     <use style="fill:#5b5b5b;" x="0.0" xlink:href="#C2_c_3acaa4b181" y="432.0"/>
    </g>
    <g clip-path="url(#p148d6a6e19)">
     <use style="fill:#5b5b5b;" x="0.0" xlink:href="#C2_d_9bc12801cf" y="432.0"/>
    </g>
    <g clip-path="url(#p148d6a6e19)">
     <use style="fill:#5b5b5b;" x="0.0" xlink:href="#C2_e_18fd66c34c" y="432.0"/>
    </g>
    <g clip-path="url(#p148d6a6e19)">
     <use style="fill:#5b5b5b;" x="0.0" xlink:href="#C2_f_46bc0146e0" y="432.0"/>
    </g>
    <g clip-path="url(#p148d6a6e19)">
     <use style="fill:#5b5b5b;" x="0.0" xlink:href="#C2_10_4609a78991" y="432.0"/>
    </g>
    <g clip-path="url(#p148d6a6e19)">
     <use style="fill:#5b5b5b;" x="0.0" xlink:href="#C2_11_b4d86f6c94" y="432.0"/>
    </g>
    <g clip-path="url(#p148d6a6e19)">
     <use style="fill:#5b5b5b;" x="0.0" xlink:href="#C2_12_063082c36f" y="432.0"/>
    </g>
    <g clip-path="url(#p148d6a6e19)">
     <use style="fill:#5b5b5b;" x="0.0" xlink:href="#C2_13_7225cae2aa" y="432.0"/>
    </g>
    <g clip-path="url(#p148d6a6e19)">
     <use style="fill:#5b5b5b;" x="0.0" xlink:href="#C2_14_6b46effee8" y="432.0"/>
    </g>
    <g clip-path="url(#p148d6a6e19)">
     <use style="fill:#5b5b5b;" x="0.0" xlink:href="#C2_15_7d91e08242" y="432.0"/>
    </g>
    <g clip-path="url(#p148d6a6e19)">
     <use style="fill:#5b5b5b;" x="0.0" xlink:href="#C2_16_19e0596889" y="432.0"/>
    </g>
    <g clip-path="url(#p148d6a6e19)">
     <use style="fill:#5b5b5b;" x="0.0" xlink:href="#C2_17_6ceedb6481" y="432.0"/>
    </g>
    <g clip-path="url(#p148d6a6e19)">
     <use style="fill:#5b5b5b;" x="0.0" xlink:href="#C2_18_ad07d1e205" y="432.0"/>
    </g>
    <g clip-path="url(#p148d6a6e19)">
     <use style="fill:#5b5b5b;" x="0.0" xlink:href="#C2_19_16d9aa7b7e" y="432.0"/>
    </g>
    <g clip-path="url(#p148d6a6e19)">
     <use style="fill:#5b5b5b;" x="0.0" xlink:href="#C2_1a_ed5b38de8a" y="432.0"/>
    </g>
    <g clip-path="url(#p148d6a6e19)">
     <use style="fill:#5b5b5b;" x="0.0" xlink:href="#C2_1b_566ffea4be" y="432.0"/>
    </g>
    <g clip-path="url(#p148d6a6e19)">
     <use style="fill:#5b5b5b;" x="0.0" xlink:href="#C2_1c_5cf2b6537f" y="432.0"/>
    </g>
    <g clip-path="url(#p148d6a6e19)">
     <use style="fill:#5b5b5b;" x="0.0" xlink:href="#C2_1d_c28037e0f6" y="432.0"/>
    </g>
    <g clip-path="url(#p148d6a6e19)">
     <use style="fill:#5b5b5b;" x="0.0" xlink:href="#C2_1e_569de4b334" y="432.0"/>
    </g>
    <g clip-path="url(#p148d6a6e19)">
     <use style="fill:#5b5b5b;" x="0.0" xlink:href="#C2_1f_b04dcb2171" y="432.0"/>
    </g>
    <g clip-path="url(#p148d6a6e19)">
     <use style="fill:#5b5b5b;" x="0.0" xlink:href="#C2_20_bd9d4832ca" y="432.0"/>
    </g>
    <g clip-path="url(#p148d6a6e19)">
     <use style="fill:#5b5b5b;" x="0.0" xlink:href="#C2_21_30b99c22b9" y="432.0"/>
    </g>
    <g clip-path="url(#p148d6a6e19)">
     <use style="fill:#5b5b5b;" x="0.0" xlink:href="#C2_22_d54d1bc2c8" y="432.0"/>
    </g>
   </g>
   <g id="PathCollection_4">
    <defs>
     <path d="
M53.0741 -59.6721
L53.0741 -56.8551
L70.0729 -58.9209
L87.0718 -65.6817
L104.071 -62.3013
L121.07 -65.6817
L123.903 -67.1842
L121.07 -68.6866
L104.071 -72.067
L96.4212 -82.2083
L87.0718 -92.1243
L70.0729 -90.9724
L53.0741 -87.8424
L53.0741 -82.2083
L53.0741 -82.2083
L53.0741 -82.2083
L70.0729 -87.2164
L87.0718 -89.4199
L93.8713 -82.2083
L87.0718 -70.189
L83.672 -67.1842
L70.0729 -61.1745
L53.0741 -59.6721
M104.071 -65.6817
L97.2711 -67.1842
L104.071 -68.6866
L110.87 -67.1842
L104.071 -65.6817" id="C3_0_8fa8145ba6"/>
     <path d="
M240.062 -62.3013
L245.586 -67.1842
L240.062 -72.067
L234.537 -67.1842
L240.062 -62.3013
M240.062 -65.6817
L238.362 -67.1842
L240.062 -68.6866
L241.761 -67.1842
L240.062 -65.6817" id="C3_1_bbc493630c"/>
     <path d="
M121.07 -95.7301
L122.769 -97.2325
L121.07 -98.7349
L115.97 -97.2325
L121.07 -95.7301" id="C3_2_3dd3bf2d9a"/>
     <path d="
M223.063 -95.7301
L224.763 -97.2325
L223.063 -98.7349
L221.363 -97.2325
L223.063 -95.7301" id="C3_3_ec89f7b77c"/>
     <path d="
M121.07 -119.018
L132.756 -127.281
L138.068 -131.976
L155.067 -134.042
L172.066 -134.042
L189.065 -134.042
L198.414 -142.305
L189.065 -150.568
L172.066 -154.7
L155.067 -153.323
L138.068 -150.568
L122.769 -157.329
L123.903 -172.353
L121.07 -173.856
L119.37 -172.353
L115.97 -157.329
L104.071 -154.7
L94.7213 -142.305
L104.071 -134.042
L111.72 -127.281
L121.07 -119.018
M121.07 -121.271
L114.27 -127.281
L104.071 -136.295
L97.2711 -142.305
L104.071 -151.319
L121.07 -154.324
L138.068 -148.315
L155.067 -150.318
L172.066 -151.319
L189.065 -148.315
L195.865 -142.305
L189.065 -136.295
L172.066 -136.295
L155.067 -136.295
L138.068 -134.793
L129.569 -127.281
L121.07 -121.271" id="C3_4_e4daaabf02"/>
     <path d="
M240.062 -137.422
L257.06 -134.042
L266.41 -142.305
L257.06 -150.568
L240.062 -147.188
L234.537 -142.305
L240.062 -137.422
M240.062 -140.803
L238.362 -142.305
L240.062 -143.807
L257.06 -148.315
L263.86 -142.305
L257.06 -136.295
L240.062 -140.803" id="C3_5_1087789d44"/>
     <path d="
M172.066 -162.588
L177.591 -172.353
L172.066 -182.119
L166.541 -172.353
L172.066 -162.588
M172.066 -169.349
L170.366 -172.353
L172.066 -175.358
L173.766 -172.353
L172.066 -169.349" id="C3_6_52b859bbbe"/>
     <path d="
M206.064 -176.36
L215.413 -187.377
L206.064 -195.641
L196.714 -187.377
L206.064 -176.36
M206.064 -179.365
L199.264 -187.377
L206.064 -193.387
L212.863 -187.377
L206.064 -179.365" id="C3_7_19c151e1a0"/>
     <path d="
M257.06 -200.899
L258.76 -202.402
L258.76 -217.426
L257.06 -218.928
L255.361 -217.426
L255.361 -202.402
L257.06 -200.899" id="C3_8_d6a1008fe1"/>
     <path d="
M223.063 -215.923
L224.763 -217.426
L224.763 -232.45
L223.063 -233.952
L206.064 -233.952
L200.964 -232.45
L206.064 -230.948
L221.363 -217.426
L223.063 -215.923" id="C3_9_366ef133c2"/>
     <path d="
M257.06 -239.211
L269.526 -247.474
L274.059 -251.481
L288.083 -262.498
L274.059 -270.762
L257.06 -264.001
L255.361 -262.498
L247.711 -247.474
L257.06 -239.211
M257.06 -241.464
L250.261 -247.474
L257.06 -259.493
L260.46 -262.498
L274.059 -268.508
L284.259 -262.498
L274.059 -254.485
L266.126 -247.474
L257.06 -241.464" id="C3_a_2efb95be70"/>
     <path d="
M223.063 -284.283
L232.412 -292.547
L224.763 -307.571
L240.062 -317.712
L245.586 -322.595
L240.062 -327.478
L223.063 -324.097
L219.663 -322.595
L221.363 -307.571
L213.713 -292.547
L223.063 -284.283
M240.062 -321.093
L233.262 -322.595
L240.062 -324.097
L241.761 -322.595
L240.062 -321.093
M223.063 -286.537
L216.263 -292.547
L223.063 -304.566
L229.862 -292.547
L223.063 -286.537" id="C3_b_bbdba93e4d"/>
     <path d="
M257.06 -291.044
L258.76 -292.547
L257.06 -294.049
L255.361 -292.547
L257.06 -291.044" id="C3_c_bc3f9dfcec"/>
     <path d="
M291.058 -299.308
L305.082 -307.571
L308.057 -310.2
L322.081 -322.595
L325.056 -325.224
L331.005 -322.595
L342.055 -317.712
L353.104 -322.595
L342.055 -327.478
L334.405 -337.619
L325.056 -345.882
L315.707 -337.619
L308.057 -330.858
L291.058 -330.858
L274.059 -328.605
L267.26 -322.595
L274.059 -313.58
L278.592 -307.571
L291.058 -299.308
M325.056 -328.605
L318.256 -337.619
L325.056 -343.629
L331.855 -337.619
L325.056 -328.605
M342.055 -321.093
L338.655 -322.595
L342.055 -324.097
L345.455 -322.595
L342.055 -321.093
M291.058 -301.561
L281.992 -307.571
L274.059 -318.088
L270.66 -322.595
L274.059 -325.6
L291.058 -328.605
L308.057 -328.605
L318.256 -322.595
L308.057 -313.58
L301.257 -307.571
L291.058 -301.561" id="C3_d_2c46fe42f4"/>
     <path d="
M121.07 -321.093
L122.769 -322.595
L121.07 -324.097
L119.37 -322.595
L121.07 -321.093" id="C3_e_c9752815f0"/>
     <path d="
M444.048 -316.585
L450.847 -322.595
L444.048 -328.605
L435.306 -322.595
L444.048 -316.585
M444.048 -319.59
L439.677 -322.595
L444.048 -325.6
L447.448 -322.595
L444.048 -319.59" id="C3_f_b3e0113dae"/>
     <path d="
M257.06 -336.117
L258.76 -337.619
L257.06 -339.122
L255.361 -337.619
L257.06 -336.117" id="C3_10_ba957a5f93"/>
     <path d="
M223.063 -366.165
L224.763 -367.668
L223.063 -369.17
L221.363 -367.668
L223.063 -366.165" id="C3_11_624dfb294e"/>
     <path d="
M359.054 -359.404
L372.143 -367.668
L359.054 -375.931
L349.704 -367.668
L359.054 -359.404
M359.054 -361.658
L352.254 -367.668
L359.054 -373.677
L368.573 -367.668
L359.054 -361.658" id="C3_12_af19b199aa"/>
     <path d="
M444.048 -381.189
L446.428 -382.692
L444.048 -384.194
L442.348 -382.692
L444.048 -381.189" id="C3_13_de64746f79"/>
     <path d="
M121.07 -396.213
L123.903 -397.716
L121.07 -399.218
L119.37 -397.716
L121.07 -396.213" id="C3_14_d233847fe2"/>
     <path d="
M325.056 -392.833
L342.055 -387.95
L359.054 -392.833
L366.085 -397.716
L376.052 -403.099
L393.051 -402.411
L410.05 -404.477
L427.049 -402.824
L444.048 -404.477
L461.047 -404.477
L461.047 -406.73
L444.048 -406.73
L427.049 -405.528
L410.05 -406.73
L393.051 -405.228
L376.052 -405.729
L361.217 -397.716
L359.054 -396.213
L342.055 -394.711
L325.056 -396.213
L323.356 -397.716
L325.056 -400.721
L331.855 -412.74
L328.031 -412.74
L325.056 -407.482
L319.531 -397.716
L325.056 -392.833" id="C3_15_b5d86213ad"/>
     <path d="
M155.067 -404.477
L164.417 -412.74
L161.867 -412.74
L155.067 -406.73
L148.268 -412.74
L145.718 -412.74
L155.067 -404.477" id="C3_16_3e28618fd6"/>
     <path d="
M189.065 -404.477
L198.414 -412.74
L195.865 -412.74
L189.065 -406.73
L182.265 -412.74
L179.716 -412.74
L189.065 -404.477" id="C3_17_f6857ee0cb"/>
     <path d="
M223.063 -404.477
L240.062 -404.477
L257.06 -411.238
L258.76 -412.74
L257.06 -412.74
L253.661 -412.74
L240.062 -406.73
L223.063 -406.73
L216.263 -412.74
L213.713 -412.74
L223.063 -404.477" id="C3_18_dd3143b12d"/>
     <path d="
M308.057 -407.857
L319.106 -412.74
L311.457 -412.74
L308.057 -411.238
L304.657 -412.74
L297.008 -412.74
L308.057 -407.857" id="C3_19_087aaaef6b"/>
    </defs>
    <g clip-path="url(#p148d6a6e19)">
     <use style="fill:#808080;" x="0.0" xlink:href="#C3_0_8fa8145ba6" y="432.0"/>
    </g>
    <g clip-path="url(#p148d6a6e19)">
     <use style="fill:#808080;" x="0.0" xlink:href="#C3_1_bbc493630c" y="432.0"/>
    </g>
    <g clip-path="url(#p148d6a6e19)">
     <use style="fill:#808080;" x="0.0" xlink:href="#C3_2_3dd3bf2d9a" y="432.0"/>
    </g>
    <g clip-path="url(#p148d6a6e19)">
     <use style="fill:#808080;" x="0.0" xlink:href="#C3_3_ec89f7b77c" y="432.0"/>
    </g>
    <g clip-path="url(#p148d6a6e19)">
     <use style="fill:#808080;" x="0.0" xlink:href="#C3_4_e4daaabf02" y="432.0"/>
    </g>
    <g clip-path="url(#p148d6a6e19)">
     <use style="fill:#808080;" x="0.0" xlink:href="#C3_5_1087789d44" y="432.0"/>
    </g>
    <g clip-path="url(#p148d6a6e19)">
     <use style="fill:#808080;" x="0.0" xlink:href="#C3_6_52b859bbbe" y="432.0"/>
    </g>
    <g clip-path="url(#p148d6a6e19)">
     <use style="fill:#808080;" x="0.0" xlink:href="#C3_7_19c151e1a0" y="432.0"/>
    </g>
    <g clip-path="url(#p148d6a6e19)">
     <use style="fill:#808080;" x="0.0" xlink:href="#C3_8_d6a1008fe1" y="432.0"/>
    </g>
    <g clip-path="url(#p148d6a6e19)">
     <use style="fill:#808080;" x="0.0" xlink:href="#C3_9_366ef133c2" y="432.0"/>
    </g>
    <g clip-path="url(#p148d6a6e19)">
     <use style="fill:#808080;" x="0.0" xlink:href="#C3_a_2efb95be70" y="432.0"/>
    </g>
    <g clip-path="url(#p148d6a6e19)">
     <use style="fill:#808080;" x="0.0" xlink:href="#C3_b_bbdba93e4d" y="432.0"/>
    </g>
    <g clip-path="url(#p148d6a6e19)">
     <use style="fill:#808080;" x="0.0" xlink:href="#C3_c_bc3f9dfcec" y="432.0"/>
    </g>
    <g clip-path="url(#p148d6a6e19)">
     <use style="fill:#808080;" x="0.0" xlink:href="#C3_d_2c46fe42f4" y="432.0"/>
    </g>
    <g clip-path="url(#p148d6a6e19)">
     <use style="fill:#808080;" x="0.0" xlink:href="#C3_e_c9752815f0" y="432.0"/>
    </g>
    <g clip-path="url(#p148d6a6e19)">
     <use style="fill:#808080;" x="0.0" xlink:href="#C3_f_b3e0113dae" y="432.0"/>
    </g>
    <g clip-path="url(#p148d6a6e19)">
     <use style="fill:#808080;" x="0.0" xlink:href="#C3_10_ba957a5f93" y="432.0"/>
    </g>
    <g clip-path="url(#p148d6a6e19)">
     <use style="fill:#808080;" x="0.0" xlink:href="#C3_11_624dfb294e" y="432.0"/>
    </g>
    <g clip-path="url(#p148d6a6e19)">
     <use style="fill:#808080;" x="0.0" xlink:href="#C3_12_af19b199aa" y="432.0"/>
    </g>
    <g clip-path="url(#p148d6a6e19)">
     <use style="fill:#808080;" x="0.0" xlink:href="#C3_13_de64746f79" y="432.0"/>
    </g>
    <g clip-path="url(#p148d6a6e19)">
     <use style="fill:#808080;" x="0.0" xlink:href="#C3_14_d233847fe2" y="432.0"/>
    </g>
    <g clip-path="url(#p148d6a6e19)">
     <use style="fill:#808080;" x="0.0" xlink:href="#C3_15_b5d86213ad" y="432.0"/>
    </g>
    <g clip-path="url(#p148d6a6e19)">
     <use style="fill:#808080;" x="0.0" xlink:href="#C3_16_3e28618fd6" y="432.0"/>
    </g>
    <g clip-path="url(#p148d6a6e19)">
     <use style="fill:#808080;" x="0.0" xlink:href="#C3_17_f6857ee0cb" y="432.0"/>
    </g>
    <g clip-path="url(#p148d6a6e19)">
     <use style="fill:#808080;" x="0.0" xlink:href="#C3_18_dd3143b12d" y="432.0"/>
    </g>
    <g clip-path="url(#p148d6a6e19)">
     <use style="fill:#808080;" x="0.0" xlink:href="#C3_19_087aaaef6b" y="432.0"/>
    </g>
   </g>
   <g id="PathCollection_5">
    <defs>
     <path d="
M53.0741 -62.4891
L53.0741 -59.6721
L70.0729 -61.1745
L83.672 -67.1842
L87.0718 -70.189
L93.8713 -82.2083
L87.0718 -89.4199
L70.0729 -87.2164
L53.0741 -82.2083
L53.0741 -82.2083
L53.0741 -76.5743
L65.8232 -82.2083
L70.0729 -83.4603
L87.0718 -86.7156
L91.3215 -82.2083
L87.0718 -74.6962
L78.5724 -67.1842
L70.0729 -63.4281
L53.0741 -62.4891" id="C4_0_c345aaa65c"/>
     <path d="
M104.071 -65.6817
L110.87 -67.1842
L104.071 -68.6866
L97.2711 -67.1842
L104.071 -65.6817" id="C4_1_1e3f31be91"/>
     <path d="
M240.062 -65.6817
L241.761 -67.1842
L240.062 -68.6866
L238.362 -67.1842
L240.062 -65.6817" id="C4_2_e66a5cfa41"/>
     <path d="
M121.07 -121.271
L129.569 -127.281
L138.068 -134.793
L155.067 -136.295
L172.066 -136.295
L189.065 -136.295
L195.865 -142.305
L189.065 -148.315
L172.066 -151.319
L155.067 -150.318
L138.068 -148.315
L121.07 -154.324
L104.071 -151.319
L97.2711 -142.305
L104.071 -136.295
L114.27 -127.281
L121.07 -121.271
M121.07 -123.525
L116.82 -127.281
L104.071 -138.549
L99.8209 -142.305
L104.071 -147.939
L121.07 -149.817
L138.068 -146.061
L155.067 -147.313
L172.066 -147.939
L189.065 -146.061
L193.315 -142.305
L189.065 -138.549
L172.066 -138.549
L155.067 -138.549
L138.068 -137.61
L126.382 -127.281
L121.07 -123.525" id="C4_3_e09079b6c2"/>
     <path d="
M240.062 -140.803
L257.06 -136.295
L263.86 -142.305
L257.06 -148.315
L240.062 -143.807
L238.362 -142.305
L240.062 -140.803
M257.06 -138.549
L244.311 -142.305
L257.06 -146.061
L261.31 -142.305
L257.06 -138.549" id="C4_4_fad3300dda"/>
     <path d="
M172.066 -169.349
L173.766 -172.353
L172.066 -175.358
L170.366 -172.353
L172.066 -169.349" id="C4_5_ab2fec404f"/>
     <path d="
M206.064 -179.365
L212.863 -187.377
L206.064 -193.387
L199.264 -187.377
L206.064 -179.365
M206.064 -182.369
L201.814 -187.377
L206.064 -191.134
L210.314 -187.377
L206.064 -182.369" id="C4_6_83653db535"/>
     <path d="
M257.06 -241.464
L266.126 -247.474
L274.059 -254.485
L284.259 -262.498
L274.059 -268.508
L260.46 -262.498
L257.06 -259.493
L250.261 -247.474
L257.06 -241.464
M274.059 -257.49
L265.56 -262.498
L274.059 -266.254
L280.434 -262.498
L274.059 -257.49
M257.06 -243.718
L252.811 -247.474
L257.06 -254.986
L262.727 -247.474
L257.06 -243.718" id="C4_7_8b4c94a907"/>
     <path d="
M223.063 -286.537
L229.862 -292.547
L223.063 -304.566
L216.263 -292.547
L223.063 -286.537
M223.063 -288.791
L218.813 -292.547
L223.063 -300.059
L227.312 -292.547
L223.063 -288.791" id="C4_8_6ea8b687af"/>
     <path d="
M291.058 -301.561
L301.257 -307.571
L308.057 -313.58
L318.256 -322.595
L308.057 -328.605
L291.058 -328.605
L274.059 -325.6
L270.66 -322.595
L274.059 -318.088
L281.992 -307.571
L291.058 -301.561
M291.058 -303.815
L285.392 -307.571
L274.059 -322.595
L291.058 -326.351
L308.057 -326.351
L314.432 -322.595
L308.057 -316.961
L297.433 -307.571
L291.058 -303.815" id="C4_9_8b22648a80"/>
     <path d="
M240.062 -321.093
L241.761 -322.595
L240.062 -324.097
L233.262 -322.595
L240.062 -321.093" id="C4_a_5f8908182c"/>
     <path d="
M342.055 -321.093
L345.455 -322.595
L342.055 -324.097
L338.655 -322.595
L342.055 -321.093" id="C4_b_325393a11a"/>
     <path d="
M444.048 -319.59
L447.448 -322.595
L444.048 -325.6
L439.677 -322.595
L444.048 -319.59" id="C4_c_21f639eca8"/>
     <path d="
M325.056 -328.605
L331.855 -337.619
L325.056 -343.629
L318.256 -337.619
L325.056 -328.605
M325.056 -331.985
L320.806 -337.619
L325.056 -341.375
L329.306 -337.619
L325.056 -331.985" id="C4_d_715508f0cf"/>
     <path d="
M359.054 -361.658
L368.573 -367.668
L359.054 -373.677
L352.254 -367.668
L359.054 -361.658
M359.054 -363.911
L354.804 -367.668
L359.054 -371.424
L365.003 -367.668
L359.054 -363.911" id="C4_e_87c387d603"/>
     <path d="
M325.056 -396.213
L342.055 -394.711
L359.054 -396.213
L361.217 -397.716
L376.052 -405.729
L393.051 -405.228
L410.05 -406.73
L427.049 -405.528
L444.048 -406.73
L461.047 -406.73
L461.047 -408.984
L444.048 -408.984
L427.049 -408.233
L410.05 -408.984
L393.051 -408.045
L376.052 -408.358
L359.054 -401.472
L342.055 -401.472
L335.68 -412.74
L331.855 -412.74
L325.056 -400.721
L323.356 -397.716
L325.056 -396.213" id="C4_f_fbe8626499"/>
     <path d="
M155.067 -406.73
L161.867 -412.74
L159.317 -412.74
L155.067 -408.984
L150.818 -412.74
L148.268 -412.74
L155.067 -406.73" id="C4_10_24618bb8d7"/>
     <path d="
M189.065 -406.73
L195.865 -412.74
L193.315 -412.74
L189.065 -408.984
L184.815 -412.74
L182.265 -412.74
L189.065 -406.73" id="C4_11_6b5d151edc"/>
     <path d="
M223.063 -406.73
L240.062 -406.73
L253.661 -412.74
L248.561 -412.74
L240.062 -408.984
L223.063 -408.984
L218.813 -412.74
L216.263 -412.74
L223.063 -406.73" id="C4_12_8be5ab25fa"/>
     <path d="
M308.057 -411.238
L311.457 -412.74
L308.057 -412.74
L304.657 -412.74
L308.057 -411.238" id="C4_13_06a62f6691"/>
    </defs>
    <g clip-path="url(#p148d6a6e19)">
     <use style="fill:#a4a4a4;" x="0.0" xlink:href="#C4_0_c345aaa65c" y="432.0"/>
    </g>
    <g clip-path="url(#p148d6a6e19)">
     <use style="fill:#a4a4a4;" x="0.0" xlink:href="#C4_1_1e3f31be91" y="432.0"/>
    </g>
    <g clip-path="url(#p148d6a6e19)">
     <use style="fill:#a4a4a4;" x="0.0" xlink:href="#C4_2_e66a5cfa41" y="432.0"/>
    </g>
    <g clip-path="url(#p148d6a6e19)">
     <use style="fill:#a4a4a4;" x="0.0" xlink:href="#C4_3_e09079b6c2" y="432.0"/>
    </g>
    <g clip-path="url(#p148d6a6e19)">
     <use style="fill:#a4a4a4;" x="0.0" xlink:href="#C4_4_fad3300dda" y="432.0"/>
    </g>
    <g clip-path="url(#p148d6a6e19)">
     <use style="fill:#a4a4a4;" x="0.0" xlink:href="#C4_5_ab2fec404f" y="432.0"/>
    </g>
    <g clip-path="url(#p148d6a6e19)">
     <use style="fill:#a4a4a4;" x="0.0" xlink:href="#C4_6_83653db535" y="432.0"/>
    </g>
    <g clip-path="url(#p148d6a6e19)">
     <use style="fill:#a4a4a4;" x="0.0" xlink:href="#C4_7_8b4c94a907" y="432.0"/>
    </g>
    <g clip-path="url(#p148d6a6e19)">
     <use style="fill:#a4a4a4;" x="0.0" xlink:href="#C4_8_6ea8b687af" y="432.0"/>
    </g>
    <g clip-path="url(#p148d6a6e19)">
     <use style="fill:#a4a4a4;" x="0.0" xlink:href="#C4_9_8b22648a80" y="432.0"/>
    </g>
    <g clip-path="url(#p148d6a6e19)">
     <use style="fill:#a4a4a4;" x="0.0" xlink:href="#C4_a_5f8908182c" y="432.0"/>
    </g>
    <g clip-path="url(#p148d6a6e19)">
     <use style="fill:#a4a4a4;" x="0.0" xlink:href="#C4_b_325393a11a" y="432.0"/>
    </g>
    <g clip-path="url(#p148d6a6e19)">
     <use style="fill:#a4a4a4;" x="0.0" xlink:href="#C4_c_21f639eca8" y="432.0"/>
    </g>
    <g clip-path="url(#p148d6a6e19)">
     <use style="fill:#a4a4a4;" x="0.0" xlink:href="#C4_d_715508f0cf" y="432.0"/>
    </g>
    <g clip-path="url(#p148d6a6e19)">
     <use style="fill:#a4a4a4;" x="0.0" xlink:href="#C4_e_87c387d603" y="432.0"/>
    </g>
    <g clip-path="url(#p148d6a6e19)">
     <use style="fill:#a4a4a4;" x="0.0" xlink:href="#C4_f_fbe8626499" y="432.0"/>
    </g>
    <g clip-path="url(#p148d6a6e19)">
     <use style="fill:#a4a4a4;" x="0.0" xlink:href="#C4_10_24618bb8d7" y="432.0"/>
    </g>
    <g clip-path="url(#p148d6a6e19)">
     <use style="fill:#a4a4a4;" x="0.0" xlink:href="#C4_11_6b5d151edc" y="432.0"/>
    </g>
    <g clip-path="url(#p148d6a6e19)">
     <use style="fill:#a4a4a4;" x="0.0" xlink:href="#C4_12_8be5ab25fa" y="432.0"/>
    </g>
    <g clip-path="url(#p148d6a6e19)">
     <use style="fill:#a4a4a4;" x="0.0" xlink:href="#C4_13_06a62f6691" y="432.0"/>
    </g>
   </g>
   <g id="PathCollection_6">
    <defs>
     <path d="
M53.0741 -65.3061
L53.0741 -62.4891
L70.0729 -63.4281
L78.5724 -67.1842
L87.0718 -74.6962
L91.3215 -82.2083
L87.0718 -86.7156
L70.0729 -83.4603
L65.8232 -82.2083
L53.0741 -76.5743
L53.0741 -70.9402
L70.0729 -74.6962
L73.4727 -67.1842
L70.0729 -65.6817
L53.0741 -65.3061
M87.0718 -79.2035
L78.5724 -82.2083
L87.0718 -84.0112
L88.7717 -82.2083
L87.0718 -79.2035" id="C5_0_123d6c04cd"/>
     <path d="
M121.07 -123.525
L126.382 -127.281
L138.068 -137.61
L155.067 -138.549
L172.066 -138.549
L189.065 -138.549
L193.315 -142.305
L189.065 -146.061
L172.066 -147.939
L155.067 -147.313
L138.068 -146.061
L121.07 -149.817
L104.071 -147.939
L99.8209 -142.305
L104.071 -138.549
L116.82 -127.281
L121.07 -123.525
M121.07 -125.778
L119.37 -127.281
L104.071 -140.803
L102.371 -142.305
L104.071 -144.559
L121.07 -145.31
L138.068 -143.807
L155.067 -144.308
L172.066 -144.559
L189.065 -143.807
L190.765 -142.305
L189.065 -140.803
L172.066 -140.803
L155.067 -140.803
L138.068 -140.427
L123.194 -127.281
L121.07 -125.778" id="C5_1_3cee1e278e"/>
     <path d="
M257.06 -138.549
L261.31 -142.305
L257.06 -146.061
L244.311 -142.305
L257.06 -138.549
M257.06 -140.803
L251.961 -142.305
L257.06 -143.807
L258.76 -142.305
L257.06 -140.803" id="C5_2_688c9321f3"/>
     <path d="
M206.064 -182.369
L210.314 -187.377
L206.064 -191.134
L201.814 -187.377
L206.064 -182.369
M206.064 -185.374
L204.364 -187.377
L206.064 -188.88
L207.764 -187.377
L206.064 -185.374" id="C5_3_c20681004d"/>
     <path d="
M257.06 -243.718
L262.727 -247.474
L257.06 -254.986
L252.811 -247.474
L257.06 -243.718
M257.06 -245.972
L255.361 -247.474
L257.06 -250.479
L259.327 -247.474
L257.06 -245.972" id="C5_4_dcb3c31876"/>
     <path d="
M274.059 -257.49
L280.434 -262.498
L274.059 -266.254
L265.56 -262.498
L274.059 -257.49
M274.059 -260.495
L270.66 -262.498
L274.059 -264.001
L276.609 -262.498
L274.059 -260.495" id="C5_5_bf805386d1"/>
     <path d="
M223.063 -288.791
L227.312 -292.547
L223.063 -300.059
L218.813 -292.547
L223.063 -288.791
M223.063 -291.044
L221.363 -292.547
L223.063 -295.551
L224.763 -292.547
L223.063 -291.044" id="C5_6_d1e0d1665f"/>
     <path d="
M291.058 -303.815
L297.433 -307.571
L308.057 -316.961
L314.432 -322.595
L308.057 -326.351
L291.058 -326.351
L274.059 -322.595
L285.392 -307.571
L291.058 -303.815
M291.058 -306.068
L288.792 -307.571
L284.259 -322.595
L291.058 -324.097
L308.057 -324.097
L310.607 -322.595
L308.057 -320.341
L293.608 -307.571
L291.058 -306.068" id="C5_7_cd4ee9ef4f"/>
     <path d="
M325.056 -331.985
L329.306 -337.619
L325.056 -341.375
L320.806 -337.619
L325.056 -331.985
M325.056 -335.366
L323.356 -337.619
L325.056 -339.122
L326.756 -337.619
L325.056 -335.366" id="C5_8_f553eeeb42"/>
     <path d="
M359.054 -363.911
L365.003 -367.668
L359.054 -371.424
L354.804 -367.668
L359.054 -363.911
M359.054 -366.165
L357.354 -367.668
L359.054 -369.17
L361.433 -367.668
L359.054 -366.165" id="C5_9_34eb9e9562"/>
     <path d="
M155.067 -408.984
L159.317 -412.74
L156.767 -412.74
L155.067 -411.238
L153.367 -412.74
L150.818 -412.74
L155.067 -408.984" id="C5_a_1ab795dbef"/>
     <path d="
M189.065 -408.984
L193.315 -412.74
L190.765 -412.74
L189.065 -411.238
L187.365 -412.74
L184.815 -412.74
L189.065 -408.984" id="C5_b_848af45866"/>
     <path d="
M223.063 -408.984
L240.062 -408.984
L248.561 -412.74
L243.461 -412.74
L240.062 -411.238
L223.063 -411.238
L221.363 -412.74
L218.813 -412.74
L223.063 -408.984" id="C5_c_d9ca79ac8b"/>
     <path d="
M342.055 -401.472
L359.054 -401.472
L376.052 -408.358
L393.051 -408.045
L410.05 -408.984
L427.049 -408.233
L444.048 -408.984
L461.047 -408.984
L461.047 -411.238
L444.048 -411.238
L427.049 -410.937
L410.05 -411.238
L393.051 -410.862
L376.052 -410.987
L359.054 -408.233
L342.055 -408.233
L339.505 -412.74
L335.68 -412.74
L342.055 -401.472" id="C5_d_98fce1d13c"/>
    </defs>
    <g clip-path="url(#p148d6a6e19)">
     <use style="fill:#c9c9c9;" x="0.0" xlink:href="#C5_0_123d6c04cd" y="432.0"/>
    </g>
    <g clip-path="url(#p148d6a6e19)">
     <use style="fill:#c9c9c9;" x="0.0" xlink:href="#C5_1_3cee1e278e" y="432.0"/>
    </g>
    <g clip-path="url(#p148d6a6e19)">
     <use style="fill:#c9c9c9;" x="0.0" xlink:href="#C5_2_688c9321f3" y="432.0"/>
    </g>
    <g clip-path="url(#p148d6a6e19)">
     <use style="fill:#c9c9c9;" x="0.0" xlink:href="#C5_3_c20681004d" y="432.0"/>
    </g>
    <g clip-path="url(#p148d6a6e19)">
     <use style="fill:#c9c9c9;" x="0.0" xlink:href="#C5_4_dcb3c31876" y="432.0"/>
    </g>
    <g clip-path="url(#p148d6a6e19)">
     <use style="fill:#c9c9c9;" x="0.0" xlink:href="#C5_5_bf805386d1" y="432.0"/>
    </g>
    <g clip-path="url(#p148d6a6e19)">
     <use style="fill:#c9c9c9;" x="0.0" xlink:href="#C5_6_d1e0d1665f" y="432.0"/>
    </g>
    <g clip-path="url(#p148d6a6e19)">
     <use style="fill:#c9c9c9;" x="0.0" xlink:href="#C5_7_cd4ee9ef4f" y="432.0"/>
    </g>
    <g clip-path="url(#p148d6a6e19)">
     <use style="fill:#c9c9c9;" x="0.0" xlink:href="#C5_8_f553eeeb42" y="432.0"/>
    </g>
    <g clip-path="url(#p148d6a6e19)">
     <use style="fill:#c9c9c9;" x="0.0" xlink:href="#C5_9_34eb9e9562" y="432.0"/>
    </g>
    <g clip-path="url(#p148d6a6e19)">
     <use style="fill:#c9c9c9;" x="0.0" xlink:href="#C5_a_1ab795dbef" y="432.0"/>
    </g>
    <g clip-path="url(#p148d6a6e19)">
     <use style="fill:#c9c9c9;" x="0.0" xlink:href="#C5_b_848af45866" y="432.0"/>
    </g>
    <g clip-path="url(#p148d6a6e19)">
     <use style="fill:#c9c9c9;" x="0.0" xlink:href="#C5_c_d9ca79ac8b" y="432.0"/>
    </g>
    <g clip-path="url(#p148d6a6e19)">
     <use style="fill:#c9c9c9;" x="0.0" xlink:href="#C5_d_98fce1d13c" y="432.0"/>
    </g>
   </g>
   <g id="PathCollection_7">
    <defs>
     <path d="
M53.0741 -67.1842
L53.0741 -65.3061
L70.0729 -65.6817
L73.4727 -67.1842
L70.0729 -74.6962
L53.0741 -70.9402
L53.0741 -67.1842" id="C6_0_b09a0f05c1"/>
     <path d="
M87.0718 -79.2035
L88.7717 -82.2083
L87.0718 -84.0112
L78.5724 -82.2083
L87.0718 -79.2035" id="C6_1_5cce1b27cb"/>
     <path d="
M121.07 -125.778
L123.194 -127.281
L138.068 -140.427
L155.067 -140.803
L172.066 -140.803
L189.065 -140.803
L190.765 -142.305
L189.065 -143.807
L172.066 -144.559
L155.067 -144.308
L138.068 -143.807
L121.07 -145.31
L104.071 -144.559
L102.371 -142.305
L104.071 -140.803
L119.37 -127.281
L121.07 -125.778" id="C6_2_c592d36904"/>
     <path d="
M257.06 -140.803
L258.76 -142.305
L257.06 -143.807
L251.961 -142.305
L257.06 -140.803" id="C6_3_b535f4e60a"/>
     <path d="
M206.064 -185.374
L207.764 -187.377
L206.064 -188.88
L204.364 -187.377
L206.064 -185.374" id="C6_4_54763a8386"/>
     <path d="
M257.06 -245.972
L259.327 -247.474
L257.06 -250.479
L255.361 -247.474
L257.06 -245.972" id="C6_5_e8df3507e1"/>
     <path d="
M274.059 -260.495
L276.609 -262.498
L274.059 -264.001
L270.66 -262.498
L274.059 -260.495" id="C6_6_1028c6afca"/>
     <path d="
M223.063 -291.044
L224.763 -292.547
L223.063 -295.551
L221.363 -292.547
L223.063 -291.044" id="C6_7_e514d34603"/>
     <path d="
M291.058 -306.068
L293.608 -307.571
L308.057 -320.341
L310.607 -322.595
L308.057 -324.097
L291.058 -324.097
L284.259 -322.595
L288.792 -307.571
L291.058 -306.068" id="C6_8_380ae2ecf7"/>
     <path d="
M325.056 -335.366
L326.756 -337.619
L325.056 -339.122
L323.356 -337.619
L325.056 -335.366" id="C6_9_7855739820"/>
     <path d="
M359.054 -366.165
L361.433 -367.668
L359.054 -369.17
L357.354 -367.668
L359.054 -366.165" id="C6_a_fa31f4354d"/>
     <path d="
M155.067 -411.238
L156.767 -412.74
L155.067 -412.74
L153.367 -412.74
L155.067 -411.238" id="C6_b_62a99db2e8"/>
     <path d="
M189.065 -411.238
L190.765 -412.74
L189.065 -412.74
L187.365 -412.74
L189.065 -411.238" id="C6_c_cbe1518ea3"/>
     <path d="
M223.063 -411.238
L240.062 -411.238
L243.461 -412.74
L240.062 -412.74
L223.063 -412.74
L221.363 -412.74
L223.063 -411.238" id="C6_d_aedf7186ff"/>
     <path d="
M342.055 -408.233
L359.054 -408.233
L376.052 -410.987
L393.051 -410.862
L410.05 -411.238
L427.049 -410.937
L444.048 -411.238
L461.047 -411.238
L461.047 -412.74
L444.048 -412.74
L427.049 -412.74
L410.05 -412.74
L393.051 -412.74
L376.052 -412.74
L359.054 -412.74
L342.055 -412.74
L339.505 -412.74
L342.055 -408.233" id="C6_e_06e42b6077"/>
    </defs>
    <g clip-path="url(#p148d6a6e19)">
     <use style="fill:#ededed;" x="0.0" xlink:href="#C6_0_b09a0f05c1" y="432.0"/>
    </g>
    <g clip-path="url(#p148d6a6e19)">
     <use style="fill:#ededed;" x="0.0" xlink:href="#C6_1_5cce1b27cb" y="432.0"/>
    </g>
    <g clip-path="url(#p148d6a6e19)">
     <use style="fill:#ededed;" x="0.0" xlink:href="#C6_2_c592d36904" y="432.0"/>
    </g>
    <g clip-path="url(#p148d6a6e19)">
     <use style="fill:#ededed;" x="0.0" xlink:href="#C6_3_b535f4e60a" y="432.0"/>
    </g>
    <g clip-path="url(#p148d6a6e19)">
     <use style="fill:#ededed;" x="0.0" xlink:href="#C6_4_54763a8386" y="432.0"/>
    </g>
    <g clip-path="url(#p148d6a6e19)">
     <use style="fill:#ededed;" x="0.0" xlink:href="#C6_5_e8df3507e1" y="432.0"/>
    </g>
    <g clip-path="url(#p148d6a6e19)">
     <use style="fill:#ededed;" x="0.0" xlink:href="#C6_6_1028c6afca" y="432.0"/>
    </g>
    <g clip-path="url(#p148d6a6e19)">
     <use style="fill:#ededed;" x="0.0" xlink:href="#C6_7_e514d34603" y="432.0"/>
    </g>
    <g clip-path="url(#p148d6a6e19)">
     <use style="fill:#ededed;" x="0.0" xlink:href="#C6_8_380ae2ecf7" y="432.0"/>
    </g>
    <g clip-path="url(#p148d6a6e19)">
     <use style="fill:#ededed;" x="0.0" xlink:href="#C6_9_7855739820" y="432.0"/>
    </g>
    <g clip-path="url(#p148d6a6e19)">
     <use style="fill:#ededed;" x="0.0" xlink:href="#C6_a_fa31f4354d" y="432.0"/>
    </g>
    <g clip-path="url(#p148d6a6e19)">
     <use style="fill:#ededed;" x="0.0" xlink:href="#C6_b_62a99db2e8" y="432.0"/>
    </g>
    <g clip-path="url(#p148d6a6e19)">
     <use style="fill:#ededed;" x="0.0" xlink:href="#C6_c_cbe1518ea3" y="432.0"/>
    </g>
    <g clip-path="url(#p148d6a6e19)">
     <use style="fill:#ededed;" x="0.0" xlink:href="#C6_d_aedf7186ff" y="432.0"/>
    </g>
    <g clip-path="url(#p148d6a6e19)">
     <use style="fill:#ededed;" x="0.0" xlink:href="#C6_e_06e42b6077" y="432.0"/>
    </g>
   </g>
   <g id="line2d_1">
    <path clip-path="url(#p148d6a6e19)" d="
M70.0729 379.84
L308.057 19.26" style="fill:none;stroke:#ffffff;stroke-dasharray:6.000000,6.000000;stroke-dashoffset:0.0;"/>
   </g>
   <g id="patch_3">
    <path d="
M53.0741 19.26
L461.047 19.26" style="fill:none;stroke:#000000;stroke-linecap:square;stroke-linejoin:miter;"/>
   </g>
   <g id="patch_4">
    <path d="
M461.047 379.84
L461.047 19.26" style="fill:none;stroke:#000000;stroke-linecap:square;stroke-linejoin:miter;"/>
   </g>
   <g id="patch_5">
    <path d="
M53.0741 379.84
L461.047 379.84" style="fill:none;stroke:#000000;stroke-linecap:square;stroke-linejoin:miter;"/>
   </g>
   <g id="patch_6">
    <path d="
M53.0741 379.84
L53.0741 19.26" style="fill:none;stroke:#000000;stroke-linecap:square;stroke-linejoin:miter;"/>
   </g>
   <g id="matplotlib.axis_1">
    <g id="xtick_1">
     <g id="line2d_2">
      <path clip-path="url(#p148d6a6e19)" d="
M53.0741 379.84
L53.0741 19.26" style="fill:none;stroke:#000000;stroke-dasharray:1.000000,3.000000;stroke-dashoffset:0.0;stroke-width:0.5;"/>
     </g>
     <g id="line2d_3">
      <defs>
       <path d="
M0 0
L0 -4" id="m93b0483c22" style="stroke:#000000;stroke-width:0.5;"/>
      </defs>
      <g>
       <use style="stroke:#000000;stroke-width:0.5;" x="53.0740625" xlink:href="#m93b0483c22" y="379.84"/>
      </g>
     </g>
     <g id="line2d_4">
      <defs>
       <path d="
M0 0
L0 4" id="m741efc42ff" style="stroke:#000000;stroke-width:0.5;"/>
      </defs>
      <g>
       <use style="stroke:#000000;stroke-width:0.5;" x="53.0740625" xlink:href="#m741efc42ff" y="19.26"/>
      </g>
     </g>
     <g id="text_1">
      <!-- 0 -->
      <defs>
       <path d="
M31.7812 66.4062
Q24.1719 66.4062 20.3281 58.9062
Q16.5 51.4219 16.5 36.375
Q16.5 21.3906 20.3281 13.8906
Q24.1719 6.39062 31.7812 6.39062
Q39.4531 6.39062 43.2812 13.8906
Q47.125 21.3906 47.125 36.375
Q47.125 51.4219 43.2812 58.9062
Q39.4531 66.4062 31.7812 66.4062
M31.7812 74.2188
Q44.0469 74.2188 50.5156 64.5156
Q56.9844 54.8281 56.9844 36.375
Q56.9844 17.9688 50.5156 8.26562
Q44.0469 -1.42188 31.7812 -1.42188
Q19.5312 -1.42188 13.0625 8.26562
Q6.59375 17.9688 6.59375 36.375
Q6.59375 54.8281 13.0625 64.5156
Q19.5312 74.2188 31.7812 74.2188" id="BitstreamVeraSans-Roman-30"/>
      </defs>
      <g transform="translate(50.050625 392.958125)scale(0.12 -0.12)">
       <use xlink:href="#BitstreamVeraSans-Roman-30"/>
      </g>
     </g>
    </g>
    <g id="xtick_2">
     <g id="line2d_5">
      <path clip-path="url(#p148d6a6e19)" d="
M138.068 379.84
L138.068 19.26" style="fill:none;stroke:#000000;stroke-dasharray:1.000000,3.000000;stroke-dashoffset:0.0;stroke-width:0.5;"/>
     </g>
     <g id="line2d_6">
      <g>
       <use style="stroke:#000000;stroke-width:0.5;" x="138.068385417" xlink:href="#m93b0483c22" y="379.84"/>
      </g>
     </g>
     <g id="line2d_7">
      <g>
       <use style="stroke:#000000;stroke-width:0.5;" x="138.068385417" xlink:href="#m741efc42ff" y="19.26"/>
      </g>
     </g>
     <g id="text_2">
      <!-- 5 -->
      <defs>
       <path d="
M10.7969 72.9062
L49.5156 72.9062
L49.5156 64.5938
L19.8281 64.5938
L19.8281 46.7344
Q21.9688 47.4688 24.1094 47.8281
Q26.2656 48.1875 28.4219 48.1875
Q40.625 48.1875 47.75 41.5
Q54.8906 34.8125 54.8906 23.3906
Q54.8906 11.625 47.5625 5.09375
Q40.2344 -1.42188 26.9062 -1.42188
Q22.3125 -1.42188 17.5469 -0.640625
Q12.7969 0.140625 7.71875 1.70312
L7.71875 11.625
Q12.1094 9.23438 16.7969 8.0625
Q21.4844 6.89062 26.7031 6.89062
Q35.1562 6.89062 40.0781 11.3281
Q45.0156 15.7656 45.0156 23.3906
Q45.0156 31 40.0781 35.4375
Q35.1562 39.8906 26.7031 39.8906
Q22.75 39.8906 18.8125 39.0156
Q14.8906 38.1406 10.7969 36.2812
z
" id="BitstreamVeraSans-Roman-35"/>
      </defs>
      <g transform="translate(135.238072917 392.958125)scale(0.12 -0.12)">
       <use xlink:href="#BitstreamVeraSans-Roman-35"/>
      </g>
     </g>
    </g>
    <g id="xtick_3">
     <g id="line2d_8">
      <path clip-path="url(#p148d6a6e19)" d="
M223.063 379.84
L223.063 19.26" style="fill:none;stroke:#000000;stroke-dasharray:1.000000,3.000000;stroke-dashoffset:0.0;stroke-width:0.5;"/>
     </g>
     <g id="line2d_9">
      <g>
       <use style="stroke:#000000;stroke-width:0.5;" x="223.062708333" xlink:href="#m93b0483c22" y="379.84"/>
      </g>
     </g>
     <g id="line2d_10">
      <g>
       <use style="stroke:#000000;stroke-width:0.5;" x="223.062708333" xlink:href="#m741efc42ff" y="19.26"/>
      </g>
     </g>
     <g id="text_3">
      <!-- 10 -->
      <defs>
       <path d="
M12.4062 8.29688
L28.5156 8.29688
L28.5156 63.9219
L10.9844 60.4062
L10.9844 69.3906
L28.4219 72.9062
L38.2812 72.9062
L38.2812 8.29688
L54.3906 8.29688
L54.3906 0
L12.4062 0
z
" id="BitstreamVeraSans-Roman-31"/>
      </defs>
      <g transform="translate(216.485208333 392.958125)scale(0.12 -0.12)">
       <use xlink:href="#BitstreamVeraSans-Roman-31"/>
       <use x="63.623046875" xlink:href="#BitstreamVeraSans-Roman-30"/>
      </g>
     </g>
    </g>
    <g id="xtick_4">
     <g id="line2d_11">
      <path clip-path="url(#p148d6a6e19)" d="
M308.057 379.84
L308.057 19.26" style="fill:none;stroke:#000000;stroke-dasharray:1.000000,3.000000;stroke-dashoffset:0.0;stroke-width:0.5;"/>
     </g>
     <g id="line2d_12">
      <g>
       <use style="stroke:#000000;stroke-width:0.5;" x="308.05703125" xlink:href="#m93b0483c22" y="379.84"/>
      </g>
     </g>
     <g id="line2d_13">
      <g>
       <use style="stroke:#000000;stroke-width:0.5;" x="308.05703125" xlink:href="#m741efc42ff" y="19.26"/>
      </g>
     </g>
     <g id="text_4">
      <!-- 15 -->
      <g transform="translate(301.60515625 392.958125)scale(0.12 -0.12)">
       <use xlink:href="#BitstreamVeraSans-Roman-31"/>
       <use x="63.623046875" xlink:href="#BitstreamVeraSans-Roman-35"/>
      </g>
     </g>
    </g>
    <g id="xtick_5">
     <g id="line2d_14">
      <path clip-path="url(#p148d6a6e19)" d="
M393.051 379.84
L393.051 19.26" style="fill:none;stroke:#000000;stroke-dasharray:1.000000,3.000000;stroke-dashoffset:0.0;stroke-width:0.5;"/>
     </g>
     <g id="line2d_15">
      <g>
       <use style="stroke:#000000;stroke-width:0.5;" x="393.051354167" xlink:href="#m93b0483c22" y="379.84"/>
      </g>
     </g>
     <g id="line2d_16">
      <g>
       <use style="stroke:#000000;stroke-width:0.5;" x="393.051354167" xlink:href="#m741efc42ff" y="19.26"/>
      </g>
     </g>
     <g id="text_5">
      <!-- 20 -->
      <defs>
       <path d="
M19.1875 8.29688
L53.6094 8.29688
L53.6094 0
L7.32812 0
L7.32812 8.29688
Q12.9375 14.1094 22.625 23.8906
Q32.3281 33.6875 34.8125 36.5312
Q39.5469 41.8438 41.4219 45.5312
Q43.3125 49.2188 43.3125 52.7812
Q43.3125 58.5938 39.2344 62.25
Q35.1562 65.9219 28.6094 65.9219
Q23.9688 65.9219 18.8125 64.3125
Q13.6719 62.7031 7.8125 59.4219
L7.8125 69.3906
Q13.7656 71.7812 18.9375 73
Q24.125 74.2188 28.4219 74.2188
Q39.75 74.2188 46.4844 68.5469
Q53.2188 62.8906 53.2188 53.4219
Q53.2188 48.9219 51.5312 44.8906
Q49.8594 40.875 45.4062 35.4062
Q44.1875 33.9844 37.6406 27.2188
Q31.1094 20.4531 19.1875 8.29688" id="BitstreamVeraSans-Roman-32"/>
      </defs>
      <g transform="translate(386.254479167 392.958125)scale(0.12 -0.12)">
       <use xlink:href="#BitstreamVeraSans-Roman-32"/>
       <use x="63.623046875" xlink:href="#BitstreamVeraSans-Roman-30"/>
      </g>
     </g>
    </g>
    <g id="text_6">
     <!-- Replay image index # -->
     <defs>
      <path id="BitstreamVeraSans-Roman-20"/>
      <path d="
M51.125 44
L36.9219 44
L32.8125 27.6875
L47.125 27.6875
z

M43.7969 71.7812
L38.7188 51.5156
L52.9844 51.5156
L58.1094 71.7812
L65.9219 71.7812
L60.8906 51.5156
L76.125 51.5156
L76.125 44
L58.9844 44
L54.9844 27.6875
L70.5156 27.6875
L70.5156 20.2188
L53.0781 20.2188
L48 0
L40.1875 0
L45.2188 20.2188
L30.9062 20.2188
L25.875 0
L18.0156 0
L23.0938 20.2188
L7.71875 20.2188
L7.71875 27.6875
L24.9062 27.6875
L29 44
L13.2812 44
L13.2812 51.5156
L30.9062 51.5156
L35.8906 71.7812
z
" id="BitstreamVeraSans-Roman-23"/>
      <path d="
M54.8906 33.0156
L54.8906 0
L45.9062 0
L45.9062 32.7188
Q45.9062 40.4844 42.875 44.3281
Q39.8438 48.1875 33.7969 48.1875
Q26.5156 48.1875 22.3125 43.5469
Q18.1094 38.9219 18.1094 30.9062
L18.1094 0
L9.07812 0
L9.07812 54.6875
L18.1094 54.6875
L18.1094 46.1875
Q21.3438 51.125 25.7031 53.5625
Q30.0781 56 35.7969 56
Q45.2188 56 50.0469 50.1719
Q54.8906 44.3438 54.8906 33.0156" id="BitstreamVeraSans-Roman-6e"/>
      <path d="
M52 44.1875
Q55.375 50.25 60.0625 53.125
Q64.75 56 71.0938 56
Q79.6406 56 84.2812 50.0156
Q88.9219 44.0469 88.9219 33.0156
L88.9219 0
L79.8906 0
L79.8906 32.7188
Q79.8906 40.5781 77.0938 44.375
Q74.3125 48.1875 68.6094 48.1875
Q61.625 48.1875 57.5625 43.5469
Q53.5156 38.9219 53.5156 30.9062
L53.5156 0
L44.4844 0
L44.4844 32.7188
Q44.4844 40.625 41.7031 44.4062
Q38.9219 48.1875 33.1094 48.1875
Q26.2188 48.1875 22.1562 43.5312
Q18.1094 38.875 18.1094 30.9062
L18.1094 0
L9.07812 0
L9.07812 54.6875
L18.1094 54.6875
L18.1094 46.1875
Q21.1875 51.2188 25.4844 53.6094
Q29.7812 56 35.6875 56
Q41.6562 56 45.8281 52.9688
Q50 49.9531 52 44.1875" id="BitstreamVeraSans-Roman-6d"/>
      <path d="
M9.42188 75.9844
L18.4062 75.9844
L18.4062 0
L9.42188 0
z
" id="BitstreamVeraSans-Roman-6c"/>
      <path d="
M44.3906 34.1875
Q47.5625 33.1094 50.5625 29.5938
Q53.5625 26.0781 56.5938 19.9219
L66.6094 0
L56 0
L46.6875 18.7031
Q43.0625 26.0312 39.6719 28.4219
Q36.2812 30.8125 30.4219 30.8125
L19.6719 30.8125
L19.6719 0
L9.8125 0
L9.8125 72.9062
L32.0781 72.9062
Q44.5781 72.9062 50.7344 67.6719
Q56.8906 62.4531 56.8906 51.9062
Q56.8906 45.0156 53.6875 40.4688
Q50.4844 35.9375 44.3906 34.1875
M19.6719 64.7969
L19.6719 38.9219
L32.0781 38.9219
Q39.2031 38.9219 42.8438 42.2188
Q46.4844 45.5156 46.4844 51.9062
Q46.4844 58.2969 42.8438 61.5469
Q39.2031 64.7969 32.0781 64.7969
z
" id="BitstreamVeraSans-Roman-52"/>
      <path d="
M9.42188 54.6875
L18.4062 54.6875
L18.4062 0
L9.42188 0
z

M9.42188 75.9844
L18.4062 75.9844
L18.4062 64.5938
L9.42188 64.5938
z
" id="BitstreamVeraSans-Roman-69"/>
      <path d="
M54.8906 54.6875
L35.1094 28.0781
L55.9062 0
L45.3125 0
L29.3906 21.4844
L13.4844 0
L2.875 0
L24.125 28.6094
L4.6875 54.6875
L15.2812 54.6875
L29.7812 35.2031
L44.2812 54.6875
z
" id="BitstreamVeraSans-Roman-78"/>
      <path d="
M32.1719 -5.07812
Q28.375 -14.8438 24.75 -17.8125
Q21.1406 -20.7969 15.0938 -20.7969
L7.90625 -20.7969
L7.90625 -13.2812
L13.1875 -13.2812
Q16.8906 -13.2812 18.9375 -11.5156
Q21 -9.76562 23.4844 -3.21875
L25.0938 0.875
L2.98438 54.6875
L12.5 54.6875
L29.5938 11.9219
L46.6875 54.6875
L56.2031 54.6875
z
" id="BitstreamVeraSans-Roman-79"/>
      <path d="
M56.2031 29.5938
L56.2031 25.2031
L14.8906 25.2031
Q15.4844 15.9219 20.4844 11.0625
Q25.4844 6.20312 34.4219 6.20312
Q39.5938 6.20312 44.4531 7.46875
Q49.3125 8.73438 54.1094 11.2812
L54.1094 2.78125
Q49.2656 0.734375 44.1875 -0.34375
Q39.1094 -1.42188 33.8906 -1.42188
Q20.7969 -1.42188 13.1562 6.1875
Q5.51562 13.8125 5.51562 26.8125
Q5.51562 40.2344 12.7656 48.1094
Q20.0156 56 32.3281 56
Q43.3594 56 49.7812 48.8906
Q56.2031 41.7969 56.2031 29.5938
M47.2188 32.2344
Q47.125 39.5938 43.0938 43.9844
Q39.0625 48.3906 32.4219 48.3906
Q24.9062 48.3906 20.3906 44.1406
Q15.875 39.8906 15.1875 32.1719
z
" id="BitstreamVeraSans-Roman-65"/>
      <path d="
M45.4062 46.3906
L45.4062 75.9844
L54.3906 75.9844
L54.3906 0
L45.4062 0
L45.4062 8.20312
Q42.5781 3.32812 38.25 0.953125
Q33.9375 -1.42188 27.875 -1.42188
Q17.9688 -1.42188 11.7344 6.48438
Q5.51562 14.4062 5.51562 27.2969
Q5.51562 40.1875 11.7344 48.0938
Q17.9688 56 27.875 56
Q33.9375 56 38.25 53.625
Q42.5781 51.2656 45.4062 46.3906
M14.7969 27.2969
Q14.7969 17.3906 18.875 11.75
Q22.9531 6.10938 30.0781 6.10938
Q37.2031 6.10938 41.2969 11.75
Q45.4062 17.3906 45.4062 27.2969
Q45.4062 37.2031 41.2969 42.8438
Q37.2031 48.4844 30.0781 48.4844
Q22.9531 48.4844 18.875 42.8438
Q14.7969 37.2031 14.7969 27.2969" id="BitstreamVeraSans-Roman-64"/>
      <path d="
M45.4062 27.9844
Q45.4062 37.75 41.375 43.1094
Q37.3594 48.4844 30.0781 48.4844
Q22.8594 48.4844 18.8281 43.1094
Q14.7969 37.75 14.7969 27.9844
Q14.7969 18.2656 18.8281 12.8906
Q22.8594 7.51562 30.0781 7.51562
Q37.3594 7.51562 41.375 12.8906
Q45.4062 18.2656 45.4062 27.9844
M54.3906 6.78125
Q54.3906 -7.17188 48.1875 -13.9844
Q42 -20.7969 29.2031 -20.7969
Q24.4688 -20.7969 20.2656 -20.0938
Q16.0625 -19.3906 12.1094 -17.9219
L12.1094 -9.1875
Q16.0625 -11.3281 19.9219 -12.3438
Q23.7812 -13.375 27.7812 -13.375
Q36.625 -13.375 41.0156 -8.76562
Q45.4062 -4.15625 45.4062 5.17188
L45.4062 9.625
Q42.625 4.78125 38.2812 2.39062
Q33.9375 0 27.875 0
Q17.8281 0 11.6719 7.65625
Q5.51562 15.3281 5.51562 27.9844
Q5.51562 40.6719 11.6719 48.3281
Q17.8281 56 27.875 56
Q33.9375 56 38.2812 53.6094
Q42.625 51.2188 45.4062 46.3906
L45.4062 54.6875
L54.3906 54.6875
z
" id="BitstreamVeraSans-Roman-67"/>
      <path d="
M34.2812 27.4844
Q23.3906 27.4844 19.1875 25
Q14.9844 22.5156 14.9844 16.5
Q14.9844 11.7188 18.1406 8.90625
Q21.2969 6.10938 26.7031 6.10938
Q34.1875 6.10938 38.7031 11.4062
Q43.2188 16.7031 43.2188 25.4844
L43.2188 27.4844
z

M52.2031 31.2031
L52.2031 0
L43.2188 0
L43.2188 8.29688
Q40.1406 3.32812 35.5469 0.953125
Q30.9531 -1.42188 24.3125 -1.42188
Q15.9219 -1.42188 10.9531 3.29688
Q6 8.01562 6 15.9219
Q6 25.1406 12.1719 29.8281
Q18.3594 34.5156 30.6094 34.5156
L43.2188 34.5156
L43.2188 35.4062
Q43.2188 41.6094 39.1406 45
Q35.0625 48.3906 27.6875 48.3906
Q23 48.3906 18.5469 47.2656
Q14.1094 46.1406 10.0156 43.8906
L10.0156 52.2031
Q14.9375 54.1094 19.5781 55.0469
Q24.2188 56 28.6094 56
Q40.4844 56 46.3438 49.8438
Q52.2031 43.7031 52.2031 31.2031" id="BitstreamVeraSans-Roman-61"/>
      <path d="
M18.1094 8.20312
L18.1094 -20.7969
L9.07812 -20.7969
L9.07812 54.6875
L18.1094 54.6875
L18.1094 46.3906
Q20.9531 51.2656 25.2656 53.625
Q29.5938 56 35.5938 56
Q45.5625 56 51.7812 48.0938
Q58.0156 40.1875 58.0156 27.2969
Q58.0156 14.4062 51.7812 6.48438
Q45.5625 -1.42188 35.5938 -1.42188
Q29.5938 -1.42188 25.2656 0.953125
Q20.9531 3.32812 18.1094 8.20312
M48.6875 27.2969
Q48.6875 37.2031 44.6094 42.8438
Q40.5312 48.4844 33.4062 48.4844
Q26.2656 48.4844 22.1875 42.8438
Q18.1094 37.2031 18.1094 27.2969
Q18.1094 17.3906 22.1875 11.75
Q26.2656 6.10938 33.4062 6.10938
Q40.5312 6.10938 44.6094 11.75
Q48.6875 17.3906 48.6875 27.2969" id="BitstreamVeraSans-Roman-70"/>
     </defs>
     <g transform="translate(191.3716875 414.571875)scale(0.12 -0.12)">
      <use xlink:href="#BitstreamVeraSans-Roman-52"/>
      <use x="64.982421875" xlink:href="#BitstreamVeraSans-Roman-65"/>
      <use x="126.505859375" xlink:href="#BitstreamVeraSans-Roman-70"/>
      <use x="189.982421875" xlink:href="#BitstreamVeraSans-Roman-6c"/>
      <use x="217.765625" xlink:href="#BitstreamVeraSans-Roman-61"/>
      <use x="279.044921875" xlink:href="#BitstreamVeraSans-Roman-79"/>
      <use x="338.224609375" xlink:href="#BitstreamVeraSans-Roman-20"/>
      <use x="370.01171875" xlink:href="#BitstreamVeraSans-Roman-69"/>
      <use x="397.794921875" xlink:href="#BitstreamVeraSans-Roman-6d"/>
      <use x="495.20703125" xlink:href="#BitstreamVeraSans-Roman-61"/>
      <use x="556.486328125" xlink:href="#BitstreamVeraSans-Roman-67"/>
      <use x="619.962890625" xlink:href="#BitstreamVeraSans-Roman-65"/>
      <use x="681.486328125" xlink:href="#BitstreamVeraSans-Roman-20"/>
      <use x="713.2734375" xlink:href="#BitstreamVeraSans-Roman-69"/>
      <use x="741.056640625" xlink:href="#BitstreamVeraSans-Roman-6e"/>
      <use x="804.435546875" xlink:href="#BitstreamVeraSans-Roman-64"/>
      <use x="867.912109375" xlink:href="#BitstreamVeraSans-Roman-65"/>
      <use x="927.685546875" xlink:href="#BitstreamVeraSans-Roman-78"/>
      <use x="986.865234375" xlink:href="#BitstreamVeraSans-Roman-20"/>
      <use x="1018.65234375" xlink:href="#BitstreamVeraSans-Roman-23"/>
     </g>
    </g>
   </g>
   <g id="matplotlib.axis_2">
    <g id="ytick_1">
     <g id="line2d_17">
      <path clip-path="url(#p148d6a6e19)" d="
M53.0741 379.84
L461.047 379.84" style="fill:none;stroke:#000000;stroke-dasharray:1.000000,3.000000;stroke-dashoffset:0.0;stroke-width:0.5;"/>
     </g>
     <g id="line2d_18">
      <defs>
       <path d="
M0 0
L4 0" id="m728421d6d4" style="stroke:#000000;stroke-width:0.5;"/>
      </defs>
      <g>
       <use style="stroke:#000000;stroke-width:0.5;" x="53.0740625" xlink:href="#m728421d6d4" y="379.84"/>
      </g>
     </g>
     <g id="line2d_19">
      <defs>
       <path d="
M0 0
L-4 0" id="mcb0005524f" style="stroke:#000000;stroke-width:0.5;"/>
      </defs>
      <g>
       <use style="stroke:#000000;stroke-width:0.5;" x="461.0468125" xlink:href="#mcb0005524f" y="379.84"/>
      </g>
     </g>
     <g id="text_7">
      <!-- 0 -->
      <g transform="translate(43.0271875 383.15125)scale(0.12 -0.12)">
       <use xlink:href="#BitstreamVeraSans-Roman-30"/>
      </g>
     </g>
    </g>
    <g id="ytick_2">
     <g id="line2d_20">
      <path clip-path="url(#p148d6a6e19)" d="
M53.0741 304.719
L461.047 304.719" style="fill:none;stroke:#000000;stroke-dasharray:1.000000,3.000000;stroke-dashoffset:0.0;stroke-width:0.5;"/>
     </g>
     <g id="line2d_21">
      <g>
       <use style="stroke:#000000;stroke-width:0.5;" x="53.0740625" xlink:href="#m728421d6d4" y="304.719166667"/>
      </g>
     </g>
     <g id="line2d_22">
      <g>
       <use style="stroke:#000000;stroke-width:0.5;" x="461.0468125" xlink:href="#mcb0005524f" y="304.719166667"/>
      </g>
     </g>
     <g id="text_8">
      <!-- 5 -->
      <g transform="translate(43.4134375 308.030416667)scale(0.12 -0.12)">
       <use xlink:href="#BitstreamVeraSans-Roman-35"/>
      </g>
     </g>
    </g>
    <g id="ytick_3">
     <g id="line2d_23">
      <path clip-path="url(#p148d6a6e19)" d="
M53.0741 229.598
L461.047 229.598" style="fill:none;stroke:#000000;stroke-dasharray:1.000000,3.000000;stroke-dashoffset:0.0;stroke-width:0.5;"/>
     </g>
     <g id="line2d_24">
      <g>
       <use style="stroke:#000000;stroke-width:0.5;" x="53.0740625" xlink:href="#m728421d6d4" y="229.598333333"/>
      </g>
     </g>
     <g id="line2d_25">
      <g>
       <use style="stroke:#000000;stroke-width:0.5;" x="461.0468125" xlink:href="#mcb0005524f" y="229.598333333"/>
      </g>
     </g>
     <g id="text_9">
      <!-- 10 -->
      <g transform="translate(35.9190625 232.909583333)scale(0.12 -0.12)">
       <use xlink:href="#BitstreamVeraSans-Roman-31"/>
       <use x="63.623046875" xlink:href="#BitstreamVeraSans-Roman-30"/>
      </g>
     </g>
    </g>
    <g id="ytick_4">
     <g id="line2d_26">
      <path clip-path="url(#p148d6a6e19)" d="
M53.0741 154.478
L461.047 154.478" style="fill:none;stroke:#000000;stroke-dasharray:1.000000,3.000000;stroke-dashoffset:0.0;stroke-width:0.5;"/>
     </g>
     <g id="line2d_27">
      <g>
       <use style="stroke:#000000;stroke-width:0.5;" x="53.0740625" xlink:href="#m728421d6d4" y="154.4775"/>
      </g>
     </g>
     <g id="line2d_28">
      <g>
       <use style="stroke:#000000;stroke-width:0.5;" x="461.0468125" xlink:href="#mcb0005524f" y="154.4775"/>
      </g>
     </g>
     <g id="text_10">
      <!-- 15 -->
      <g transform="translate(36.1703125 157.78875)scale(0.12 -0.12)">
       <use xlink:href="#BitstreamVeraSans-Roman-31"/>
       <use x="63.623046875" xlink:href="#BitstreamVeraSans-Roman-35"/>
      </g>
     </g>
    </g>
    <g id="ytick_5">
     <g id="line2d_29">
      <path clip-path="url(#p148d6a6e19)" d="
M53.0741 79.3567
L461.047 79.3567" style="fill:none;stroke:#000000;stroke-dasharray:1.000000,3.000000;stroke-dashoffset:0.0;stroke-width:0.5;"/>
     </g>
     <g id="line2d_30">
      <g>
       <use style="stroke:#000000;stroke-width:0.5;" x="53.0740625" xlink:href="#m728421d6d4" y="79.3566666667"/>
      </g>
     </g>
     <g id="line2d_31">
      <g>
       <use style="stroke:#000000;stroke-width:0.5;" x="461.0468125" xlink:href="#mcb0005524f" y="79.3566666667"/>
      </g>
     </g>
     <g id="text_11">
      <!-- 20 -->
      <g transform="translate(35.4803125 82.6679166667)scale(0.12 -0.12)">
       <use xlink:href="#BitstreamVeraSans-Roman-32"/>
       <use x="63.623046875" xlink:href="#BitstreamVeraSans-Roman-30"/>
      </g>
     </g>
    </g>
    <g id="text_12">
     <!-- Teach image index # -->
     <defs>
      <path d="
M-0.296875 72.9062
L61.375 72.9062
L61.375 64.5938
L35.5 64.5938
L35.5 0
L25.5938 0
L25.5938 64.5938
L-0.296875 64.5938
z
" id="BitstreamVeraSans-Roman-54"/>
      <path d="
M54.8906 33.0156
L54.8906 0
L45.9062 0
L45.9062 32.7188
Q45.9062 40.4844 42.875 44.3281
Q39.8438 48.1875 33.7969 48.1875
Q26.5156 48.1875 22.3125 43.5469
Q18.1094 38.9219 18.1094 30.9062
L18.1094 0
L9.07812 0
L9.07812 75.9844
L18.1094 75.9844
L18.1094 46.1875
Q21.3438 51.125 25.7031 53.5625
Q30.0781 56 35.7969 56
Q45.2188 56 50.0469 50.1719
Q54.8906 44.3438 54.8906 33.0156" id="BitstreamVeraSans-Roman-68"/>
      <path d="
M48.7812 52.5938
L48.7812 44.1875
Q44.9688 46.2969 41.1406 47.3438
Q37.3125 48.3906 33.4062 48.3906
Q24.6562 48.3906 19.8125 42.8438
Q14.9844 37.3125 14.9844 27.2969
Q14.9844 17.2812 19.8125 11.7344
Q24.6562 6.20312 33.4062 6.20312
Q37.3125 6.20312 41.1406 7.25
Q44.9688 8.29688 48.7812 10.4062
L48.7812 2.09375
Q45.0156 0.34375 40.9844 -0.53125
Q36.9688 -1.42188 32.4219 -1.42188
Q20.0625 -1.42188 12.7812 6.34375
Q5.51562 14.1094 5.51562 27.2969
Q5.51562 40.6719 12.8594 48.3281
Q20.2188 56 33.0156 56
Q37.1562 56 41.1094 55.1406
Q45.0625 54.2969 48.7812 52.5938" id="BitstreamVeraSans-Roman-63"/>
     </defs>
     <g transform="translate(22.9846875 262.0765625)rotate(-90.0)scale(0.12 -0.12)">
      <use xlink:href="#BitstreamVeraSans-Roman-54"/>
      <use x="44.083984375" xlink:href="#BitstreamVeraSans-Roman-65"/>
      <use x="105.607421875" xlink:href="#BitstreamVeraSans-Roman-61"/>
      <use x="166.88671875" xlink:href="#BitstreamVeraSans-Roman-63"/>
      <use x="221.8671875" xlink:href="#BitstreamVeraSans-Roman-68"/>
      <use x="285.24609375" xlink:href="#BitstreamVeraSans-Roman-20"/>
      <use x="317.033203125" xlink:href="#BitstreamVeraSans-Roman-69"/>
      <use x="344.81640625" xlink:href="#BitstreamVeraSans-Roman-6d"/>
      <use x="442.228515625" xlink:href="#BitstreamVeraSans-Roman-61"/>
      <use x="503.5078125" xlink:href="#BitstreamVeraSans-Roman-67"/>
      <use x="566.984375" xlink:href="#BitstreamVeraSans-Roman-65"/>
      <use x="628.5078125" xlink:href="#BitstreamVeraSans-Roman-20"/>
      <use x="660.294921875" xlink:href="#BitstreamVeraSans-Roman-69"/>
      <use x="688.078125" xlink:href="#BitstreamVeraSans-Roman-6e"/>
      <use x="751.45703125" xlink:href="#BitstreamVeraSans-Roman-64"/>
      <use x="814.93359375" xlink:href="#BitstreamVeraSans-Roman-65"/>
      <use x="874.70703125" xlink:href="#BitstreamVeraSans-Roman-78"/>
      <use x="933.88671875" xlink:href="#BitstreamVeraSans-Roman-20"/>
      <use x="965.673828125" xlink:href="#BitstreamVeraSans-Roman-23"/>
     </g>
    </g>
   </g>
  </g>
  <g id="axes_2">
   <g id="patch_7">
    <path clip-path="url(#pc0aa0b088a)" d="
M486.545 379.84
L486.545 328.329
L486.545 70.7714
L486.545 19.26
L504.574 19.26
L504.574 70.7714
L504.574 328.329
L504.574 379.84
z
" style="fill:#ffffff;stroke:#ffffff;stroke-linejoin:miter;stroke-width:0.01;"/>
   </g>
   <g id="QuadMesh_1">
    <defs>
     <path d="
M486.545 -52.16
L504.574 -52.16
L504.574 -103.671
L486.545 -103.671
L486.545 -52.16" id="C7_0_b75817fa8f"/>
     <path d="
M486.545 -103.671
L504.574 -103.671
L504.574 -155.183
L486.545 -155.183
L486.545 -103.671" id="C7_1_d75429b04c"/>
     <path d="
M486.545 -155.183
L504.574 -155.183
L504.574 -206.694
L486.545 -206.694
L486.545 -155.183" id="C7_2_11be5272be"/>
     <path d="
M486.545 -206.694
L504.574 -206.694
L504.574 -258.206
L486.545 -258.206
L486.545 -206.694" id="C7_3_5ef3b573fd"/>
     <path d="
M486.545 -258.206
L504.574 -258.206
L504.574 -309.717
L486.545 -309.717
L486.545 -258.206" id="C7_4_fc499adfff"/>
     <path d="
M486.545 -309.717
L504.574 -309.717
L504.574 -361.229
L486.545 -361.229
L486.545 -309.717" id="C7_5_3ce8ad59ed"/>
     <path d="
M486.545 -361.229
L504.574 -361.229
L504.574 -412.74
L486.545 -412.74
L486.545 -361.229" id="C7_6_3505d950c0"/>
    </defs>
    <g clip-path="url(#pc0aa0b088a)">
     <use style="fill:#121212;" x="0.0" xlink:href="#C7_0_b75817fa8f" y="432.0"/>
    </g>
    <g clip-path="url(#pc0aa0b088a)">
     <use style="fill:#363636;" x="0.0" xlink:href="#C7_1_d75429b04c" y="432.0"/>
    </g>
    <g clip-path="url(#pc0aa0b088a)">
     <use style="fill:#5b5b5b;" x="0.0" xlink:href="#C7_2_11be5272be" y="432.0"/>
    </g>
    <g clip-path="url(#pc0aa0b088a)">
     <use style="fill:#808080;" x="0.0" xlink:href="#C7_3_5ef3b573fd" y="432.0"/>
    </g>
    <g clip-path="url(#pc0aa0b088a)">
     <use style="fill:#a4a4a4;" x="0.0" xlink:href="#C7_4_fc499adfff" y="432.0"/>
    </g>
    <g clip-path="url(#pc0aa0b088a)">
     <use style="fill:#c9c9c9;" x="0.0" xlink:href="#C7_5_3ce8ad59ed" y="432.0"/>
    </g>
    <g clip-path="url(#pc0aa0b088a)">
     <use style="fill:#ededed;" x="0.0" xlink:href="#C7_6_3505d950c0" y="432.0"/>
    </g>
   </g>
   <g id="patch_8">
    <path d="
M486.545 379.84
L486.545 328.329
L486.545 70.7714
L486.545 19.26
L504.574 19.26
L504.574 70.7714
L504.574 328.329
L504.574 379.84
z
" style="fill:none;stroke:#000000;stroke-linejoin:miter;"/>
   </g>
   <g id="matplotlib.axis_3"/>
   <g id="matplotlib.axis_4">
    <g id="ytick_6">
     <g id="line2d_32">
      <g>
       <use style="stroke:#000000;stroke-width:0.5;" x="504.574109375" xlink:href="#mcb0005524f" y="379.84"/>
      </g>
     </g>
     <g id="text_13">
      <!-- 0 -->
      <g transform="translate(508.574109375 383.15125)scale(0.12 -0.12)">
       <use xlink:href="#BitstreamVeraSans-Roman-30"/>
      </g>
     </g>
    </g>
    <g id="ytick_7">
     <g id="line2d_33">
      <g>
       <use style="stroke:#000000;stroke-width:0.5;" x="504.574109375" xlink:href="#mcb0005524f" y="328.328571429"/>
      </g>
     </g>
     <g id="text_14">
      <!-- 15 -->
      <g transform="translate(508.574109375 331.639821429)scale(0.12 -0.12)">
       <use xlink:href="#BitstreamVeraSans-Roman-31"/>
       <use x="63.623046875" xlink:href="#BitstreamVeraSans-Roman-35"/>
      </g>
     </g>
    </g>
    <g id="ytick_8">
     <g id="line2d_34">
      <g>
       <use style="stroke:#000000;stroke-width:0.5;" x="504.574109375" xlink:href="#mcb0005524f" y="276.817142857"/>
      </g>
     </g>
     <g id="text_15">
      <!-- 30 -->
      <defs>
       <path d="
M40.5781 39.3125
Q47.6562 37.7969 51.625 33
Q55.6094 28.2188 55.6094 21.1875
Q55.6094 10.4062 48.1875 4.48438
Q40.7656 -1.42188 27.0938 -1.42188
Q22.5156 -1.42188 17.6562 -0.515625
Q12.7969 0.390625 7.625 2.20312
L7.625 11.7188
Q11.7188 9.32812 16.5938 8.10938
Q21.4844 6.89062 26.8125 6.89062
Q36.0781 6.89062 40.9375 10.5469
Q45.7969 14.2031 45.7969 21.1875
Q45.7969 27.6406 41.2812 31.2656
Q36.7656 34.9062 28.7188 34.9062
L20.2188 34.9062
L20.2188 43.0156
L29.1094 43.0156
Q36.375 43.0156 40.2344 45.9219
Q44.0938 48.8281 44.0938 54.2969
Q44.0938 59.9062 40.1094 62.9062
Q36.1406 65.9219 28.7188 65.9219
Q24.6562 65.9219 20.0156 65.0312
Q15.375 64.1562 9.8125 62.3125
L9.8125 71.0938
Q15.4375 72.6562 20.3438 73.4375
Q25.25 74.2188 29.5938 74.2188
Q40.8281 74.2188 47.3594 69.1094
Q53.9062 64.0156 53.9062 55.3281
Q53.9062 49.2656 50.4375 45.0938
Q46.9688 40.9219 40.5781 39.3125" id="BitstreamVeraSans-Roman-33"/>
      </defs>
      <g transform="translate(508.574109375 280.128392857)scale(0.12 -0.12)">
       <use xlink:href="#BitstreamVeraSans-Roman-33"/>
       <use x="63.623046875" xlink:href="#BitstreamVeraSans-Roman-30"/>
      </g>
     </g>
    </g>
    <g id="ytick_9">
     <g id="line2d_35">
      <g>
       <use style="stroke:#000000;stroke-width:0.5;" x="504.574109375" xlink:href="#mcb0005524f" y="225.305714286"/>
      </g>
     </g>
     <g id="text_16">
      <!-- 45 -->
      <defs>
       <path d="
M37.7969 64.3125
L12.8906 25.3906
L37.7969 25.3906
z

M35.2031 72.9062
L47.6094 72.9062
L47.6094 25.3906
L58.0156 25.3906
L58.0156 17.1875
L47.6094 17.1875
L47.6094 0
L37.7969 0
L37.7969 17.1875
L4.89062 17.1875
L4.89062 26.7031
z
" id="BitstreamVeraSans-Roman-34"/>
      </defs>
      <g transform="translate(508.574109375 228.616964286)scale(0.12 -0.12)">
       <use xlink:href="#BitstreamVeraSans-Roman-34"/>
       <use x="63.623046875" xlink:href="#BitstreamVeraSans-Roman-35"/>
      </g>
     </g>
    </g>
    <g id="ytick_10">
     <g id="line2d_36">
      <g>
       <use style="stroke:#000000;stroke-width:0.5;" x="504.574109375" xlink:href="#mcb0005524f" y="173.794285714"/>
      </g>
     </g>
     <g id="text_17">
      <!-- 60 -->
      <defs>
       <path d="
M33.0156 40.375
Q26.375 40.375 22.4844 35.8281
Q18.6094 31.2969 18.6094 23.3906
Q18.6094 15.5312 22.4844 10.9531
Q26.375 6.39062 33.0156 6.39062
Q39.6562 6.39062 43.5312 10.9531
Q47.4062 15.5312 47.4062 23.3906
Q47.4062 31.2969 43.5312 35.8281
Q39.6562 40.375 33.0156 40.375
M52.5938 71.2969
L52.5938 62.3125
Q48.875 64.0625 45.0938 64.9844
Q41.3125 65.9219 37.5938 65.9219
Q27.8281 65.9219 22.6719 59.3281
Q17.5312 52.7344 16.7969 39.4062
Q19.6719 43.6562 24.0156 45.9219
Q28.375 48.1875 33.5938 48.1875
Q44.5781 48.1875 50.9531 41.5156
Q57.3281 34.8594 57.3281 23.3906
Q57.3281 12.1562 50.6875 5.35938
Q44.0469 -1.42188 33.0156 -1.42188
Q20.3594 -1.42188 13.6719 8.26562
Q6.98438 17.9688 6.98438 36.375
Q6.98438 53.6562 15.1875 63.9375
Q23.3906 74.2188 37.2031 74.2188
Q40.9219 74.2188 44.7031 73.4844
Q48.4844 72.75 52.5938 71.2969" id="BitstreamVeraSans-Roman-36"/>
      </defs>
      <g transform="translate(508.574109375 177.105535714)scale(0.12 -0.12)">
       <use xlink:href="#BitstreamVeraSans-Roman-36"/>
       <use x="63.623046875" xlink:href="#BitstreamVeraSans-Roman-30"/>
      </g>
     </g>
    </g>
    <g id="ytick_11">
     <g id="line2d_37">
      <g>
       <use style="stroke:#000000;stroke-width:0.5;" x="504.574109375" xlink:href="#mcb0005524f" y="122.282857143"/>
      </g>
     </g>
     <g id="text_18">
      <!-- 75 -->
      <defs>
       <path d="
M8.20312 72.9062
L55.0781 72.9062
L55.0781 68.7031
L28.6094 0
L18.3125 0
L43.2188 64.5938
L8.20312 64.5938
z
" id="BitstreamVeraSans-Roman-37"/>
      </defs>
      <g transform="translate(508.574109375 125.594107143)scale(0.12 -0.12)">
       <use xlink:href="#BitstreamVeraSans-Roman-37"/>
       <use x="63.623046875" xlink:href="#BitstreamVeraSans-Roman-35"/>
      </g>
     </g>
    </g>
    <g id="ytick_12">
     <g id="line2d_38">
      <g>
       <use style="stroke:#000000;stroke-width:0.5;" x="504.574109375" xlink:href="#mcb0005524f" y="70.7714285714"/>
      </g>
     </g>
     <g id="text_19">
      <!-- 90 -->
      <defs>
       <path d="
M10.9844 1.51562
L10.9844 10.5
Q14.7031 8.73438 18.5 7.8125
Q22.3125 6.89062 25.9844 6.89062
Q35.75 6.89062 40.8906 13.4531
Q46.0469 20.0156 46.7812 33.4062
Q43.9531 29.2031 39.5938 26.9531
Q35.25 24.7031 29.9844 24.7031
Q19.0469 24.7031 12.6719 31.3125
Q6.29688 37.9375 6.29688 49.4219
Q6.29688 60.6406 12.9375 67.4219
Q19.5781 74.2188 30.6094 74.2188
Q43.2656 74.2188 49.9219 64.5156
Q56.5938 54.8281 56.5938 36.375
Q56.5938 19.1406 48.4062 8.85938
Q40.2344 -1.42188 26.4219 -1.42188
Q22.7031 -1.42188 18.8906 -0.6875
Q15.0938 0.046875 10.9844 1.51562
M30.6094 32.4219
Q37.25 32.4219 41.125 36.9531
Q45.0156 41.5 45.0156 49.4219
Q45.0156 57.2812 41.125 61.8438
Q37.25 66.4062 30.6094 66.4062
Q23.9688 66.4062 20.0938 61.8438
Q16.2188 57.2812 16.2188 49.4219
Q16.2188 41.5 20.0938 36.9531
Q23.9688 32.4219 30.6094 32.4219" id="BitstreamVeraSans-Roman-39"/>
      </defs>
      <g transform="translate(508.574109375 74.0826785714)scale(0.12 -0.12)">
       <use xlink:href="#BitstreamVeraSans-Roman-39"/>
       <use x="63.623046875" xlink:href="#BitstreamVeraSans-Roman-30"/>
      </g>
     </g>
    </g>
    <g id="ytick_13">
     <g id="line2d_39">
      <g>
       <use style="stroke:#000000;stroke-width:0.5;" x="504.574109375" xlink:href="#mcb0005524f" y="19.26"/>
      </g>
     </g>
     <g id="text_20">
      <!-- 105 -->
      <g transform="translate(508.574109375 22.57125)scale(0.12 -0.12)">
       <use xlink:href="#BitstreamVeraSans-Roman-31"/>
       <use x="63.623046875" xlink:href="#BitstreamVeraSans-Roman-30"/>
       <use x="127.24609375" xlink:href="#BitstreamVeraSans-Roman-35"/>
      </g>
     </g>
    </g>
   </g>
  </g>
 </g>
 <defs>
  <clipPath id="pc0aa0b088a">
   <rect height="360.58" width="18.029" x="486.545109375" y="19.26"/>
  </clipPath>
  <clipPath id="p148d6a6e19">
   <rect height="360.58" width="407.97275" x="53.0740625" y="19.26"/>
  </clipPath>
 </defs>
</svg>
