<?xml version="1.0" encoding="utf-8" standalone="no"?>
<!DOCTYPE svg PUBLIC "-//W3C//DTD SVG 1.1//EN"
  "http://www.w3.org/Graphics/SVG/1.1/DTD/svg11.dtd">
<!-- Created with matplotlib (http://matplotlib.org/) -->
<svg height="432pt" version="1.1" viewBox="0 0 576 432" width="576pt" xmlns="http://www.w3.org/2000/svg" xmlns:xlink="http://www.w3.org/1999/xlink">
 <defs>
  <style type="text/css">
*{stroke-linecap:butt;stroke-linejoin:round;}
  </style>
 </defs>
 <g id="figure_1">
  <g id="patch_1">
   <path d="
M0 432
L576 432
L576 0
L0 0
z
" style="fill:#ffffff;"/>
  </g>
  <g id="axes_1">
   <g id="patch_2">
    <path d="
M72.7209 379.84
L464.976 379.84
L464.976 19.26
L72.7209 19.26
z
" style="fill:#ffffff;"/>
   </g>
   <g id="PathCollection_1">
    <defs>
     <path d="
M105.409 -284.695
L138.097 -284.859
L149.142 -285.262
L157.723 -288.904
L138.097 -289.721
L105.409 -290.073
L72.7209 -289
L72.7209 -288.904
L72.7209 -288.176
L82.5899 -285.262
L105.409 -284.695" id="C0_0_83b9198e1b"/>
    </defs>
    <g clip-path="url(#pa4674fbac0)">
     <use style="fill:#121212;" x="0.0" xlink:href="#C0_0_83b9198e1b" y="432.0"/>
    </g>
   </g>
   <g id="PathCollection_2">
    <defs>
     <path d="
M236.161 -175.663
L266.399 -175.996
L268.849 -176.023
L301.537 -177.704
L334.224 -176.924
L366.912 -177.037
L399.6 -177.519
L432.288 -177.18
L457.145 -175.996
L464.976 -175.569
L464.976 -175.996
L464.976 -179.638
L464.976 -183.28
L464.976 -183.567
L432.288 -184.232
L399.6 -185.056
L366.912 -185.558
L334.224 -185.597
L301.537 -184.187
L268.849 -183.689
L259.321 -183.28
L236.161 -182.104
L203.473 -182.272
L193.029 -183.28
L170.785 -184.356
L138.097 -185.291
L105.409 -185.028
L77.706 -183.28
L83.6865 -179.638
L105.409 -178.673
L138.097 -177.666
L170.785 -177.071
L203.473 -177.032
L227.015 -175.996
L236.161 -175.663" id="C1_0_39086d1905"/>
     <path d="
M334.224 -212.122
L348.157 -212.418
L338.268 -216.06
L334.224 -216.236
L301.537 -216.595
L288.941 -216.06
L301.537 -215.16
L328.146 -212.418
L334.224 -212.122" id="C1_1_fd94783624"/>
     <path d="
M72.7209 -245.198
L72.7209 -244.162
L105.409 -243.741
L138.097 -243.357
L170.785 -243.608
L192.814 -245.198
L177.354 -248.84
L170.785 -249.108
L138.097 -249.727
L105.409 -250.112
L72.7209 -249.56
L72.7209 -248.84
L72.7209 -245.198" id="C1_2_fdbe8a5d16"/>
     <path d="
M236.161 -244.338
L268.849 -243.963
L283.863 -245.198
L271.906 -248.84
L268.849 -249.021
L260.569 -248.84
L236.161 -246.753
L220.433 -245.198
L236.161 -244.338" id="C1_3_82c7112cba"/>
     <path d="
M72.7209 -285.262
L72.7209 -282.812
L105.409 -282.265
L138.097 -282.297
L170.785 -282.894
L203.473 -284.454
L236.161 -283.4
L268.849 -283.389
L293.913 -285.262
L301.537 -286.008
L334.224 -288.114
L347.934 -288.904
L334.224 -291.591
L301.537 -292.409
L268.849 -292.312
L236.161 -291.184
L203.473 -290.554
L170.785 -291.637
L138.097 -292.543
L137.812 -292.547
L105.409 -292.936
L72.7209 -292.732
L72.7209 -292.547
L72.7209 -289
L105.409 -290.073
L138.097 -289.721
L157.723 -288.904
L149.142 -285.262
L138.097 -284.859
L105.409 -284.695
L82.5899 -285.262
L72.7209 -288.176
L72.7209 -285.262" id="C1_4_83e87cb82b"/>
     <path d="
M105.409 -313.23
L138.097 -313.5
L145.45 -314.4
L138.097 -314.844
L105.409 -314.936
L80.0383 -314.4
L105.409 -313.23" id="C1_5_0189cb4ed6"/>
     <path d="
M105.409 -349.518
L138.097 -349.462
L170.785 -350.498
L175.442 -350.822
L170.785 -351.092
L138.097 -351.991
L105.409 -351.82
L84.1101 -350.822
L105.409 -349.518" id="C1_6_13643e39ba"/>
     <path d="
M268.849 -352.044
L271.464 -354.464
L268.849 -354.918
L259.077 -354.464
L268.849 -352.044" id="C1_7_01972241cd"/>
     <path d="
M72.7209 -379.96
L72.7209 -377.961
L105.409 -377.106
L138.097 -377.547
L170.785 -379.561
L176.452 -379.96
L170.785 -381.89
L156.104 -383.602
L138.097 -384.348
L114.804 -383.602
L105.409 -383.416
L72.7209 -382.012
L72.7209 -379.96" id="C1_8_efd66b60ec"/>
     <path d="
M236.161 -387.116
L268.849 -387.134
L269.568 -387.244
L273.044 -390.887
L268.849 -391.348
L262.15 -390.887
L236.161 -387.385
L235.046 -387.244
L236.161 -387.116" id="C1_9_484ce51a3b"/>
    </defs>
    <g clip-path="url(#pa4674fbac0)">
     <use style="fill:#363636;" x="0.0" xlink:href="#C1_0_39086d1905" y="432.0"/>
    </g>
    <g clip-path="url(#pa4674fbac0)">
     <use style="fill:#363636;" x="0.0" xlink:href="#C1_1_fd94783624" y="432.0"/>
    </g>
    <g clip-path="url(#pa4674fbac0)">
     <use style="fill:#363636;" x="0.0" xlink:href="#C1_2_fdbe8a5d16" y="432.0"/>
    </g>
    <g clip-path="url(#pa4674fbac0)">
     <use style="fill:#363636;" x="0.0" xlink:href="#C1_3_82c7112cba" y="432.0"/>
    </g>
    <g clip-path="url(#pa4674fbac0)">
     <use style="fill:#363636;" x="0.0" xlink:href="#C1_4_83e87cb82b" y="432.0"/>
    </g>
    <g clip-path="url(#pa4674fbac0)">
     <use style="fill:#363636;" x="0.0" xlink:href="#C1_5_0189cb4ed6" y="432.0"/>
    </g>
    <g clip-path="url(#pa4674fbac0)">
     <use style="fill:#363636;" x="0.0" xlink:href="#C1_6_13643e39ba" y="432.0"/>
    </g>
    <g clip-path="url(#pa4674fbac0)">
     <use style="fill:#363636;" x="0.0" xlink:href="#C1_7_01972241cd" y="432.0"/>
    </g>
    <g clip-path="url(#pa4674fbac0)">
     <use style="fill:#363636;" x="0.0" xlink:href="#C1_8_efd66b60ec" y="432.0"/>
    </g>
    <g clip-path="url(#pa4674fbac0)">
     <use style="fill:#363636;" x="0.0" xlink:href="#C1_9_484ce51a3b" y="432.0"/>
    </g>
   </g>
   <g id="PathCollection_3">
    <defs>
     <path d="
M72.7209 -52.16
L105.409 -52.16
L138.097 -52.16
L170.785 -52.16
L203.473 -52.16
L236.161 -52.16
L268.849 -52.16
L301.537 -52.16
L334.224 -52.16
L366.912 -52.16
L399.6 -52.16
L432.288 -52.16
L464.976 -52.16
L464.976 -55.8022
L464.976 -59.4444
L464.976 -63.0867
L464.976 -66.7289
L464.976 -70.3711
L464.976 -74.0133
L464.976 -77.6556
L464.976 -78.8274
L432.288 -80.082
L413.171 -81.2978
L399.6 -83.535
L387.899 -84.94
L372.518 -88.5822
L366.912 -89.0239
L338.711 -92.2244
L334.224 -92.8355
L301.537 -92.9757
L297.791 -92.2244
L285.207 -88.5822
L278.013 -84.94
L274.881 -81.2978
L268.849 -80.0254
L240.153 -77.6556
L236.161 -77.3019
L233.268 -77.6556
L203.473 -79.8648
L179.873 -81.2978
L170.785 -81.9956
L138.097 -83.7574
L108.931 -81.2978
L105.409 -81.0651
L72.7209 -79.0347
L72.7209 -77.6556
L72.7209 -74.0133
L72.7209 -70.3711
L72.7209 -66.7289
L72.7209 -63.0867
L72.7209 -59.4444
L72.7209 -55.8022
L72.7209 -52.16" id="C2_0_2b03c993bd"/>
     <path d="
M464.976 -92.1005
L464.976 -92.2244
L464.976 -95.8667
L464.976 -96.0453
L432.288 -97.9462
L415.535 -95.8667
L432.288 -94.4351
L464.445 -92.2244
L464.976 -92.1005" id="C2_1_1457e5aea6"/>
     <path d="
M72.7209 -106.793
L72.7209 -105.376
L83.002 -106.793
L88.4491 -110.436
L105.409 -111.505
L115.716 -110.436
L138.097 -109.246
L162.912 -106.793
L170.785 -105.994
L203.473 -103.93
L236.161 -104.679
L241.148 -106.793
L236.161 -109.171
L227.088 -110.436
L203.473 -111.903
L190.471 -114.078
L170.785 -116.364
L158.668 -117.72
L138.097 -118.754
L105.409 -119.974
L75.4624 -117.72
L72.7209 -114.477
L72.7209 -114.078
L72.7209 -110.436
L72.7209 -106.793" id="C2_2_82ec32c635"/>
     <path d="
M334.224 -105.069
L342.742 -106.793
L334.224 -107.936
L325.518 -106.793
L334.224 -105.069" id="C2_3_cade921cd9"/>
     <path d="
M301.537 -109.839
L308.005 -110.436
L301.537 -110.779
L295.079 -110.436
L301.537 -109.839" id="C2_4_986e6b2448"/>
     <path d="
M203.473 -131.539
L236.161 -129.262
L256.419 -132.289
L257.038 -135.931
L245.646 -139.573
L236.161 -139.994
L203.473 -141.647
L182.923 -143.216
L170.785 -144.197
L138.192 -146.858
L138.097 -146.872
L120.519 -150.5
L105.409 -152.521
L91.9555 -154.142
L72.7209 -156.615
L72.7209 -154.142
L72.7209 -150.5
L72.7209 -146.858
L72.7209 -144.186
L83.1142 -143.216
L102.366 -139.573
L105.409 -139.38
L127.312 -135.931
L138.097 -135.307
L170.785 -133.439
L191.796 -132.289
L203.473 -131.539" id="C2_5_15ec663f87"/>
     <path d="
M432.288 -131.601
L464.976 -130.73
L464.976 -132.289
L464.976 -135.931
L464.976 -139.573
L464.976 -143.216
L464.976 -145.015
L436.403 -146.858
L432.288 -147.139
L399.6 -149.623
L394.821 -150.5
L366.912 -151.761
L334.807 -154.142
L334.224 -154.268
L317.569 -157.784
L316.984 -161.427
L334.224 -162.795
L364.462 -161.427
L366.912 -161.156
L399.6 -159.436
L430.854 -157.784
L432.288 -157.734
L464.976 -157.326
L464.976 -157.784
L464.976 -161.427
L464.976 -165.069
L464.976 -168.711
L464.976 -172.353
L464.976 -175.569
L457.145 -175.996
L432.288 -177.18
L399.6 -177.519
L366.912 -177.037
L334.224 -176.924
L301.537 -177.704
L268.849 -176.023
L266.399 -175.996
L236.161 -175.663
L227.015 -175.996
L203.473 -177.032
L170.785 -177.071
L138.097 -177.666
L105.409 -178.673
L83.6865 -179.638
L77.706 -183.28
L105.409 -185.028
L138.097 -185.291
L170.785 -184.356
L193.029 -183.28
L203.473 -182.272
L236.161 -182.104
L259.321 -183.28
L268.849 -183.689
L301.537 -184.187
L334.224 -185.597
L366.912 -185.558
L399.6 -185.056
L432.288 -184.232
L464.976 -183.567
L464.976 -186.922
L464.976 -188.305
L432.288 -189.636
L416.439 -190.564
L399.6 -192.734
L376.447 -194.207
L399.6 -195.712
L432.288 -196.968
L464.976 -195.236
L464.976 -197.849
L464.976 -201.491
L464.976 -205.133
L464.976 -208.776
L464.976 -212.418
L464.976 -216.06
L464.976 -219.177
L432.288 -218.653
L399.6 -218.618
L366.912 -218.415
L334.224 -218.92
L312.198 -219.702
L301.537 -221.862
L268.849 -221.19
L252.494 -219.702
L236.161 -218.03
L203.473 -216.505
L170.785 -216.858
L143.339 -216.06
L153.952 -212.418
L138.097 -210.775
L122.018 -208.776
L105.409 -208.35
L72.7209 -205.963
L72.7209 -205.133
L72.7209 -201.491
L72.7209 -197.849
L72.7209 -195.066
L105.409 -195.441
L138.097 -196.157
L170.785 -197.5
L203.473 -195.586
L219.23 -194.207
L236.161 -192.785
L265.103 -190.564
L261.085 -186.922
L236.161 -185.766
L203.473 -186.397
L181.561 -186.922
L170.785 -187.378
L138.097 -188.636
L105.409 -189.092
L72.7209 -188.645
L72.7209 -186.922
L72.7209 -183.28
L72.7209 -179.638
L72.7209 -175.996
L72.7209 -172.353
L72.7209 -168.711
L72.7209 -165.509
L75.7111 -165.069
L72.7209 -163.495
L72.7209 -161.427
L72.7209 -160.954
L105.409 -159.884
L138.097 -158.346
L149.993 -157.784
L170.751 -154.142
L170.785 -154.138
L203.473 -150.664
L208.564 -150.5
L236.161 -149.845
L268.849 -147.31
L276.163 -146.858
L271.56 -143.216
L277.225 -139.573
L301.537 -138.274
L333.365 -135.931
L334.224 -135.872
L366.912 -133.443
L399.6 -132.74
L411.196 -132.289
L432.288 -131.601
M399.6 -200.671
L377.279 -201.491
L366.912 -201.814
L334.224 -203.007
L301.537 -202.475
L268.849 -203.295
L245.331 -205.133
L236.161 -206.048
L203.473 -207.782
L184.405 -208.776
L203.473 -212.121
L206.647 -212.418
L236.161 -213.626
L268.849 -212.89
L274.457 -212.418
L301.537 -210.867
L334.224 -209.252
L351.346 -208.776
L366.912 -207.135
L397.477 -205.133
L399.6 -204.225
L432.288 -201.559
L432.7 -201.491
L432.288 -201.311
L399.6 -200.671
M334.224 -212.122
L328.146 -212.418
L301.537 -215.16
L288.941 -216.06
L301.537 -216.595
L334.224 -216.236
L338.268 -216.06
L348.157 -212.418
L334.224 -212.122
M203.473 -168.208
L185.858 -168.711
L170.785 -169.241
L138.097 -172.168
L136.456 -172.353
L138.097 -172.471
L170.785 -173.182
L203.473 -172.613
L209.735 -172.353
L211.877 -168.711
L203.473 -168.208
M334.224 -146.219
L322.688 -146.858
L334.224 -148.225
L347.639 -146.858
L334.224 -146.219" id="C2_6_e2eab56a87"/>
     <path d="
M105.409 -210.874
L121.115 -212.418
L105.409 -214.05
L98.2191 -212.418
L105.409 -210.874" id="C2_7_e03dea0a74"/>
     <path d="
M72.7209 -223.344
L72.7209 -222.304
L75.6111 -223.344
L72.7209 -224.722
L72.7209 -223.344" id="C2_8_279893baec"/>
     <path d="
M72.7209 -241.556
L72.7209 -240.911
L105.409 -240.904
L138.097 -240.613
L170.785 -239.963
L203.473 -240.033
L236.161 -240.168
L268.849 -241.485
L270.704 -241.556
L301.537 -243.729
L334.224 -243.789
L366.912 -243.278
L380.288 -241.556
L399.6 -240.287
L432.288 -240.062
L464.976 -239.989
L464.976 -241.556
L464.976 -245.198
L464.976 -248.84
L464.976 -250.255
L432.288 -251.145
L399.6 -250.901
L371.177 -248.84
L366.912 -248.097
L334.224 -248.332
L329.488 -248.84
L301.537 -251.04
L268.849 -251.909
L250.459 -252.482
L236.161 -253.264
L203.473 -254.386
L170.785 -253.992
L138.097 -255.162
L124.498 -256.124
L105.409 -257.988
L72.7209 -258.027
L72.7209 -256.124
L72.7209 -252.482
L72.7209 -249.56
L105.409 -250.112
L138.097 -249.727
L170.785 -249.108
L177.354 -248.84
L192.814 -245.198
L170.785 -243.608
L138.097 -243.357
L105.409 -243.741
L72.7209 -244.162
L72.7209 -241.556
M236.161 -244.338
L220.433 -245.198
L236.161 -246.753
L260.569 -248.84
L268.849 -249.021
L271.906 -248.84
L283.863 -245.198
L268.849 -243.963
L236.161 -244.338" id="C2_9_ec00497bdf"/>
     <path d="
M268.849 -259.503
L276.88 -259.767
L301.537 -261.393
L331.162 -263.409
L301.537 -266.122
L291.045 -267.051
L301.537 -268.097
L334.224 -268.689
L366.912 -267.722
L374.962 -267.051
L366.912 -263.425
L366.564 -263.409
L350.31 -259.767
L366.912 -258.688
L385.642 -259.767
L399.6 -260.418
L409.185 -259.767
L432.288 -257.694
L464.976 -256.879
L464.976 -259.767
L464.976 -263.409
L464.976 -267.051
L464.976 -270.693
L464.976 -274.336
L464.976 -277.978
L464.976 -281.62
L464.976 -285.262
L464.976 -288.904
L464.976 -292.547
L464.976 -295.44
L432.288 -295.143
L399.6 -294.782
L366.912 -295.295
L334.224 -296.024
L301.537 -295.516
L268.849 -294.685
L236.161 -294.036
L203.473 -294.605
L170.785 -294.742
L138.097 -294.99
L105.409 -295.397
L72.7209 -295.649
L72.7209 -292.732
L105.409 -292.936
L137.812 -292.547
L138.097 -292.543
L170.785 -291.637
L203.473 -290.554
L236.161 -291.184
L268.849 -292.312
L301.537 -292.409
L334.224 -291.591
L347.934 -288.904
L334.224 -288.114
L301.537 -286.008
L293.913 -285.262
L268.849 -283.389
L236.161 -283.4
L203.473 -284.454
L170.785 -282.894
L138.097 -282.297
L105.409 -282.265
L72.7209 -282.812
L72.7209 -281.62
L72.7209 -279.245
L105.409 -278.5
L138.097 -278.325
L161.723 -277.978
L138.097 -277.349
L105.409 -276.886
L72.7209 -275.008
L72.7209 -274.336
L72.7209 -273.203
L105.409 -271.448
L120.907 -270.693
L105.409 -270.209
L72.7209 -269.955
L72.7209 -267.051
L72.7209 -263.409
L72.7209 -260.78
L105.409 -261.101
L138.097 -261.127
L170.785 -261.465
L203.473 -260.663
L236.161 -260.402
L254.825 -259.767
L268.849 -259.503
M301.537 -277.58
L296.529 -277.978
L296.557 -281.62
L301.537 -281.974
L334.224 -282.38
L366.912 -281.981
L371.765 -281.62
L366.912 -280.873
L334.224 -279.484
L315.651 -277.978
L301.537 -277.58" id="C2_a_0632fc0d8f"/>
     <path d="
M399.6 -303.43
L405.868 -303.473
L432.288 -303.773
L464.976 -305.01
L464.976 -307.116
L464.976 -310.758
L464.976 -314.4
L464.976 -314.711
L457.001 -314.4
L432.288 -313.469
L400.269 -314.4
L407.383 -318.042
L432.288 -319.707
L464.976 -320.767
L464.976 -321.684
L464.976 -325.327
L464.976 -325.785
L432.288 -327.515
L399.6 -327.546
L366.912 -325.72
L357.537 -325.327
L334.224 -324.383
L302.945 -321.684
L301.537 -321.436
L297.766 -321.684
L289.341 -325.327
L268.849 -327.314
L236.161 -325.568
L228.678 -325.327
L203.473 -324.444
L170.785 -323.311
L138.097 -321.991
L122.186 -321.684
L105.409 -321.277
L72.7209 -319.94
L72.7209 -318.042
L72.7209 -314.4
L72.7209 -310.758
L72.7209 -308.911
L105.409 -309.01
L138.097 -309.011
L170.785 -309.427
L203.473 -309.827
L236.161 -308.603
L268.849 -307.428
L301.537 -307.932
L334.224 -308.972
L366.912 -309.38
L399.144 -307.116
L398.14 -303.473
L399.6 -303.43
M105.409 -313.23
L80.0383 -314.4
L105.409 -314.936
L138.097 -314.844
L145.45 -314.4
L138.097 -313.5
L105.409 -313.23
M268.849 -317.462
L261.384 -318.042
L268.849 -319.092
L274.912 -318.042
L268.849 -317.462" id="C2_b_97ff2774f5"/>
     <path d="
M301.537 -328.282
L303.541 -328.969
L334.224 -331.439
L348.698 -332.611
L334.224 -336.126
L301.537 -335.532
L268.849 -333.138
L256.548 -332.611
L268.849 -330.88
L296.879 -328.969
L301.537 -328.282" id="C2_c_838a4d662e"/>
     <path d="
M72.7209 -347.18
L72.7209 -344.934
L105.409 -344.268
L138.097 -343.84
L170.785 -344.05
L203.473 -345.088
L236.161 -346.274
L268.849 -346.972
L277.908 -347.18
L301.537 -348.918
L334.224 -348.059
L366.912 -348.315
L399.6 -347.767
L432.288 -348.263
L464.976 -349.541
L464.976 -350.822
L464.976 -354.464
L464.976 -358.107
L464.976 -358.721
L432.288 -359.635
L399.6 -360.697
L366.912 -358.667
L357.456 -358.107
L334.224 -356.289
L320.818 -358.107
L301.537 -359.968
L268.849 -359.72
L236.161 -360.172
L203.473 -359.858
L170.785 -359.327
L138.097 -358.773
L105.409 -359.247
L72.7209 -360.71
L72.7209 -358.107
L72.7209 -354.464
L72.7209 -350.822
L72.7209 -347.18
M105.409 -349.518
L84.1101 -350.822
L105.409 -351.82
L138.097 -351.991
L170.785 -351.092
L175.442 -350.822
L170.785 -350.498
L138.097 -349.462
L105.409 -349.518
M268.849 -352.044
L259.077 -354.464
L268.849 -354.918
L271.464 -354.464
L268.849 -352.044" id="C2_d_3ed76741cf"/>
     <path d="
M432.288 -368.676
L464.976 -368.153
L464.976 -369.033
L464.976 -372.676
L464.976 -376.318
L464.976 -379.96
L464.976 -383.602
L464.976 -387.244
L464.976 -389.12
L432.288 -389.34
L399.6 -389.589
L373.412 -390.887
L366.912 -392.045
L359.577 -394.529
L363.151 -398.171
L366.912 -398.929
L387.542 -401.813
L380.765 -405.456
L399.6 -408.091
L412.069 -409.098
L405.03 -412.74
L399.6 -412.74
L392.302 -412.74
L366.912 -409.219
L366.553 -409.098
L353.46 -405.456
L334.224 -403.52
L309.337 -401.813
L301.537 -401.41
L268.849 -398.75
L251.121 -398.171
L236.161 -397.578
L203.473 -394.912
L196.873 -394.529
L170.785 -392.98
L138.097 -391.383
L113.632 -390.887
L105.409 -390.725
L72.7209 -389.881
L72.7209 -387.244
L72.7209 -383.602
L72.7209 -382.012
L105.409 -383.416
L114.804 -383.602
L138.097 -384.348
L156.104 -383.602
L170.785 -381.89
L176.452 -379.96
L170.785 -379.561
L138.097 -377.547
L105.409 -377.106
L72.7209 -377.961
L72.7209 -376.318
L72.7209 -372.847
L105.409 -372.928
L138.097 -373.196
L170.785 -373.902
L203.473 -374.647
L236.161 -374.879
L268.849 -375.375
L301.537 -375.342
L334.224 -375.404
L358.428 -372.676
L366.912 -371.736
L399.6 -371.538
L429.033 -369.033
L432.288 -368.676
M236.161 -387.116
L235.046 -387.244
L236.161 -387.385
L262.15 -390.887
L268.849 -391.348
L273.044 -390.887
L269.568 -387.244
L268.849 -387.134
L236.161 -387.116
M366.912 -386.613
L340.521 -387.244
L366.912 -389.98
L376.485 -387.244
L366.912 -386.613" id="C2_e_cd8baf364b"/>
    </defs>
    <g clip-path="url(#pa4674fbac0)">
     <use style="fill:#5b5b5b;" x="0.0" xlink:href="#C2_0_2b03c993bd" y="432.0"/>
    </g>
    <g clip-path="url(#pa4674fbac0)">
     <use style="fill:#5b5b5b;" x="0.0" xlink:href="#C2_1_1457e5aea6" y="432.0"/>
    </g>
    <g clip-path="url(#pa4674fbac0)">
     <use style="fill:#5b5b5b;" x="0.0" xlink:href="#C2_2_82ec32c635" y="432.0"/>
    </g>
    <g clip-path="url(#pa4674fbac0)">
     <use style="fill:#5b5b5b;" x="0.0" xlink:href="#C2_3_cade921cd9" y="432.0"/>
    </g>
    <g clip-path="url(#pa4674fbac0)">
     <use style="fill:#5b5b5b;" x="0.0" xlink:href="#C2_4_986e6b2448" y="432.0"/>
    </g>
    <g clip-path="url(#pa4674fbac0)">
     <use style="fill:#5b5b5b;" x="0.0" xlink:href="#C2_5_15ec663f87" y="432.0"/>
    </g>
    <g clip-path="url(#pa4674fbac0)">
     <use style="fill:#5b5b5b;" x="0.0" xlink:href="#C2_6_e2eab56a87" y="432.0"/>
    </g>
    <g clip-path="url(#pa4674fbac0)">
     <use style="fill:#5b5b5b;" x="0.0" xlink:href="#C2_7_e03dea0a74" y="432.0"/>
    </g>
    <g clip-path="url(#pa4674fbac0)">
     <use style="fill:#5b5b5b;" x="0.0" xlink:href="#C2_8_279893baec" y="432.0"/>
    </g>
    <g clip-path="url(#pa4674fbac0)">
     <use style="fill:#5b5b5b;" x="0.0" xlink:href="#C2_9_ec00497bdf" y="432.0"/>
    </g>
    <g clip-path="url(#pa4674fbac0)">
     <use style="fill:#5b5b5b;" x="0.0" xlink:href="#C2_a_0632fc0d8f" y="432.0"/>
    </g>
    <g clip-path="url(#pa4674fbac0)">
     <use style="fill:#5b5b5b;" x="0.0" xlink:href="#C2_b_97ff2774f5" y="432.0"/>
    </g>
    <g clip-path="url(#pa4674fbac0)">
     <use style="fill:#5b5b5b;" x="0.0" xlink:href="#C2_c_838a4d662e" y="432.0"/>
    </g>
    <g clip-path="url(#pa4674fbac0)">
     <use style="fill:#5b5b5b;" x="0.0" xlink:href="#C2_d_3ed76741cf" y="432.0"/>
    </g>
    <g clip-path="url(#pa4674fbac0)">
     <use style="fill:#5b5b5b;" x="0.0" xlink:href="#C2_e_cd8baf364b" y="432.0"/>
    </g>
   </g>
   <g id="PathCollection_4">
    <defs>
     <path d="
M236.161 -77.3019
L240.153 -77.6556
L268.849 -80.0254
L274.881 -81.2978
L278.013 -84.94
L285.207 -88.5822
L297.791 -92.2244
L301.537 -92.9757
L334.224 -92.8355
L338.711 -92.2244
L366.912 -89.0239
L372.518 -88.5822
L387.899 -84.94
L399.6 -83.535
L413.171 -81.2978
L432.288 -80.082
L464.976 -78.8274
L464.976 -81.2978
L464.976 -84.94
L464.976 -88.5822
L464.976 -92.1005
L464.445 -92.2244
L432.288 -94.4351
L415.535 -95.8667
L432.288 -97.9462
L464.976 -96.0453
L464.976 -99.5089
L464.976 -103.151
L464.976 -106.793
L464.976 -110.436
L464.976 -114.078
L464.976 -117.72
L464.976 -121.362
L464.976 -125.004
L464.976 -128.647
L464.976 -130.73
L432.288 -131.601
L411.196 -132.289
L399.6 -132.74
L366.912 -133.443
L334.224 -135.872
L333.365 -135.931
L301.537 -138.274
L277.225 -139.573
L271.56 -143.216
L276.163 -146.858
L268.849 -147.31
L236.161 -149.845
L208.564 -150.5
L203.473 -150.664
L170.785 -154.138
L170.751 -154.142
L149.993 -157.784
L138.097 -158.346
L105.409 -159.884
L72.7209 -160.954
L72.7209 -157.784
L72.7209 -156.615
L91.9555 -154.142
L105.409 -152.521
L120.519 -150.5
L138.097 -146.872
L138.192 -146.858
L170.785 -144.197
L182.923 -143.216
L203.473 -141.647
L236.161 -139.994
L245.646 -139.573
L257.038 -135.931
L256.419 -132.289
L236.161 -129.262
L203.473 -131.539
L191.796 -132.289
L170.785 -133.439
L138.097 -135.307
L127.312 -135.931
L105.409 -139.38
L102.366 -139.573
L83.1142 -143.216
L72.7209 -144.186
L72.7209 -143.216
L72.7209 -139.573
L72.7209 -135.931
L72.7209 -132.289
L72.7209 -128.647
L72.7209 -125.004
L72.7209 -121.362
L72.7209 -117.72
L72.7209 -114.477
L75.4624 -117.72
L105.409 -119.974
L138.097 -118.754
L158.668 -117.72
L170.785 -116.364
L190.471 -114.078
L203.473 -111.903
L227.088 -110.436
L236.161 -109.171
L241.148 -106.793
L236.161 -104.679
L203.473 -103.93
L170.785 -105.994
L162.912 -106.793
L138.097 -109.246
L115.716 -110.436
L105.409 -111.505
L88.4491 -110.436
L83.002 -106.793
L72.7209 -105.376
L72.7209 -103.151
L72.7209 -99.5089
L72.7209 -95.8667
L72.7209 -92.2244
L72.7209 -88.5822
L72.7209 -84.94
L72.7209 -81.2978
L72.7209 -79.0347
L105.409 -81.0651
L108.931 -81.2978
L138.097 -83.7574
L170.785 -81.9956
L179.873 -81.2978
L203.473 -79.8648
L233.268 -77.6556
L236.161 -77.3019
M301.537 -109.839
L295.079 -110.436
L301.537 -110.779
L308.005 -110.436
L301.537 -109.839
M334.224 -105.069
L325.518 -106.793
L334.224 -107.936
L342.742 -106.793
L334.224 -105.069
M334.224 -120.998
L329.035 -121.362
L301.537 -124.118
L289.515 -125.004
L301.537 -126.127
L334.224 -127.884
L366.912 -126.625
L395.912 -125.004
L382.938 -121.362
L366.912 -120.831
L334.224 -120.998
M138.097 -123.709
L117.156 -125.004
L105.409 -127.116
L96.4403 -128.647
L105.409 -130.663
L138.097 -130.728
L169.415 -128.647
L170.785 -128.442
L194.734 -125.004
L170.785 -122.967
L138.097 -123.709" id="C3_0_e29f5e880d"/>
     <path d="
M334.224 -146.219
L347.639 -146.858
L334.224 -148.225
L322.688 -146.858
L334.224 -146.219" id="C3_1_6a6644fb8b"/>
     <path d="
M464.976 -145.015
L464.976 -146.858
L464.976 -150.5
L464.976 -154.142
L464.976 -157.326
L432.288 -157.734
L430.854 -157.784
L399.6 -159.436
L366.912 -161.156
L364.462 -161.427
L334.224 -162.795
L316.984 -161.427
L317.569 -157.784
L334.224 -154.268
L334.807 -154.142
L366.912 -151.761
L394.821 -150.5
L399.6 -149.623
L432.288 -147.139
L436.403 -146.858
L464.976 -145.015" id="C3_2_67079343e8"/>
     <path d="
M72.7209 -165.069
L72.7209 -163.495
L75.7111 -165.069
L72.7209 -165.509
L72.7209 -165.069" id="C3_3_9e1f5ba0f2"/>
     <path d="
M203.473 -168.208
L211.877 -168.711
L209.735 -172.353
L203.473 -172.613
L170.785 -173.182
L138.097 -172.471
L136.456 -172.353
L138.097 -172.168
L170.785 -169.241
L185.858 -168.711
L203.473 -168.208" id="C3_4_3342075212"/>
     <path d="
M203.473 -186.397
L236.161 -185.766
L261.085 -186.922
L265.103 -190.564
L236.161 -192.785
L219.23 -194.207
L203.473 -195.586
L170.785 -197.5
L138.097 -196.157
L105.409 -195.441
L72.7209 -195.066
L72.7209 -194.207
L72.7209 -190.564
L72.7209 -188.645
L105.409 -189.092
L138.097 -188.636
L170.785 -187.378
L181.561 -186.922
L203.473 -186.397" id="C3_5_796a38636f"/>
     <path d="
M432.288 -189.636
L464.976 -188.305
L464.976 -190.564
L464.976 -194.207
L464.976 -195.236
L432.288 -196.968
L399.6 -195.712
L376.447 -194.207
L399.6 -192.734
L416.439 -190.564
L432.288 -189.636" id="C3_6_7eef3de19a"/>
     <path d="
M399.6 -200.671
L432.288 -201.311
L432.7 -201.491
L432.288 -201.559
L399.6 -204.225
L397.477 -205.133
L366.912 -207.135
L351.346 -208.776
L334.224 -209.252
L301.537 -210.867
L274.457 -212.418
L268.849 -212.89
L236.161 -213.626
L206.647 -212.418
L203.473 -212.121
L184.405 -208.776
L203.473 -207.782
L236.161 -206.048
L245.331 -205.133
L268.849 -203.295
L301.537 -202.475
L334.224 -203.007
L366.912 -201.814
L377.279 -201.491
L399.6 -200.671
M268.849 -207.719
L258.028 -208.776
L268.849 -209.44
L283.022 -208.776
L268.849 -207.719" id="C3_7_209e0b9f8d"/>
     <path d="
M72.7209 -208.776
L72.7209 -205.963
L105.409 -208.35
L122.018 -208.776
L138.097 -210.775
L153.952 -212.418
L143.339 -216.06
L170.785 -216.858
L203.473 -216.505
L236.161 -218.03
L252.494 -219.702
L268.849 -221.19
L301.537 -221.862
L312.198 -219.702
L334.224 -218.92
L366.912 -218.415
L399.6 -218.618
L432.288 -218.653
L464.976 -219.177
L464.976 -219.702
L464.976 -223.344
L464.976 -226.987
L464.976 -230.629
L464.976 -231.327
L432.288 -233.326
L399.6 -231.128
L366.912 -231.726
L335.016 -230.629
L334.224 -230.588
L301.537 -229.459
L268.849 -227.942
L236.161 -228.294
L203.473 -229.752
L170.785 -228.835
L138.097 -229.144
L105.409 -229.325
L72.7209 -229.895
L72.7209 -226.987
L72.7209 -224.722
L75.6111 -223.344
L72.7209 -222.304
L72.7209 -219.702
L72.7209 -216.06
L72.7209 -212.418
L72.7209 -208.776
M105.409 -210.874
L98.2191 -212.418
L105.409 -214.05
L121.115 -212.418
L105.409 -210.874" id="C3_8_9a4b3f7f9a"/>
     <path d="
M170.785 -237.227
L203.473 -236.341
L236.161 -237.584
L239.408 -237.913
L268.849 -239.601
L301.537 -240.676
L334.224 -240.481
L366.912 -238.365
L373.966 -237.913
L399.6 -236.138
L432.288 -234.593
L464.976 -235.402
L464.976 -237.913
L464.976 -239.989
L432.288 -240.062
L399.6 -240.287
L380.288 -241.556
L366.912 -243.278
L334.224 -243.789
L301.537 -243.729
L270.704 -241.556
L268.849 -241.485
L236.161 -240.168
L203.473 -240.033
L170.785 -239.963
L138.097 -240.613
L105.409 -240.904
L72.7209 -240.911
L72.7209 -238.604
L105.409 -238.841
L138.097 -238.552
L157.147 -237.913
L170.785 -237.227" id="C3_9_02d3ae81a9"/>
     <path d="
M334.224 -248.332
L366.912 -248.097
L371.177 -248.84
L399.6 -250.901
L432.288 -251.145
L464.976 -250.255
L464.976 -252.482
L464.976 -256.124
L464.976 -256.879
L432.288 -257.694
L409.185 -259.767
L399.6 -260.418
L385.642 -259.767
L366.912 -258.688
L350.31 -259.767
L366.564 -263.409
L366.912 -263.425
L374.962 -267.051
L366.912 -267.722
L334.224 -268.689
L301.537 -268.097
L291.045 -267.051
L301.537 -266.122
L331.162 -263.409
L301.537 -261.393
L276.88 -259.767
L268.849 -259.503
L254.825 -259.767
L236.161 -260.402
L203.473 -260.663
L170.785 -261.465
L138.097 -261.127
L105.409 -261.101
L72.7209 -260.78
L72.7209 -259.767
L72.7209 -258.027
L105.409 -257.988
L124.498 -256.124
L138.097 -255.162
L170.785 -253.992
L203.473 -254.386
L236.161 -253.264
L250.459 -252.482
L268.849 -251.909
L301.537 -251.04
L329.488 -248.84
L334.224 -248.332" id="C3_a_8be007b794"/>
     <path d="
M72.7209 -270.693
L72.7209 -269.955
L105.409 -270.209
L120.907 -270.693
L105.409 -271.448
L72.7209 -273.203
L72.7209 -270.693" id="C3_b_a13727d32a"/>
     <path d="
M72.7209 -277.978
L72.7209 -275.008
L105.409 -276.886
L138.097 -277.349
L161.723 -277.978
L138.097 -278.325
L105.409 -278.5
L72.7209 -279.245
L72.7209 -277.978" id="C3_c_88832a6a74"/>
     <path d="
M301.537 -277.58
L315.651 -277.978
L334.224 -279.484
L366.912 -280.873
L371.765 -281.62
L366.912 -281.981
L334.224 -282.38
L301.537 -281.974
L296.557 -281.62
L296.529 -277.978
L301.537 -277.58" id="C3_d_e00d60a828"/>
     <path d="
M72.7209 -296.189
L72.7209 -295.649
L105.409 -295.397
L138.097 -294.99
L170.785 -294.742
L203.473 -294.605
L236.161 -294.036
L268.849 -294.685
L301.537 -295.516
L334.224 -296.024
L366.912 -295.295
L399.6 -294.782
L432.288 -295.143
L464.976 -295.44
L464.976 -296.189
L464.976 -299.831
L464.976 -303.473
L464.976 -305.01
L432.288 -303.773
L405.868 -303.473
L399.6 -303.43
L398.14 -303.473
L399.144 -307.116
L366.912 -309.38
L334.224 -308.972
L301.537 -307.932
L268.849 -307.428
L236.161 -308.603
L203.473 -309.827
L170.785 -309.427
L138.097 -309.011
L105.409 -309.01
L72.7209 -308.911
L72.7209 -307.116
L72.7209 -305.691
L105.409 -306.624
L138.097 -306.586
L170.785 -305.592
L192.071 -303.473
L189.184 -299.831
L170.785 -298.97
L138.097 -298.056
L105.409 -298.387
L72.7209 -299.2
L72.7209 -296.189
M236.161 -298.602
L221.233 -299.831
L233.727 -303.473
L236.161 -303.537
L268.849 -303.958
L275.809 -303.473
L283.268 -299.831
L268.849 -298.077
L236.161 -298.602" id="C3_e_b1942d5033"/>
     <path d="
M432.288 -313.469
L457.001 -314.4
L464.976 -314.711
L464.976 -318.042
L464.976 -320.767
L432.288 -319.707
L407.383 -318.042
L400.269 -314.4
L432.288 -313.469" id="C3_f_d755282179"/>
     <path d="
M268.849 -317.462
L274.912 -318.042
L268.849 -319.092
L261.384 -318.042
L268.849 -317.462" id="C3_10_745b68427d"/>
     <path d="
M72.7209 -321.684
L72.7209 -319.94
L105.409 -321.277
L122.186 -321.684
L138.097 -321.991
L170.785 -323.311
L203.473 -324.444
L228.678 -325.327
L236.161 -325.568
L268.849 -327.314
L289.341 -325.327
L297.766 -321.684
L301.537 -321.436
L302.945 -321.684
L334.224 -324.383
L357.537 -325.327
L366.912 -325.72
L399.6 -327.546
L432.288 -327.515
L464.976 -325.785
L464.976 -328.969
L464.976 -332.611
L464.976 -336.253
L464.976 -339.862
L464.451 -339.896
L464.976 -339.931
L464.976 -343.538
L464.976 -347.18
L464.976 -349.541
L432.288 -348.263
L399.6 -347.767
L366.912 -348.315
L334.224 -348.059
L301.537 -348.918
L277.908 -347.18
L268.849 -346.972
L236.161 -346.274
L203.473 -345.088
L170.785 -344.05
L138.097 -343.84
L105.409 -344.268
L72.7209 -344.934
L72.7209 -343.538
L72.7209 -339.896
L72.7209 -336.253
L72.7209 -332.611
L72.7209 -330.915
L105.409 -332.313
L123.802 -332.611
L129.289 -336.253
L138.097 -337.45
L170.785 -338.945
L198.748 -336.253
L170.785 -334.101
L151.712 -332.611
L170.785 -331.601
L190.227 -328.969
L170.785 -327.854
L138.097 -326.175
L117.049 -325.327
L105.409 -324.82
L72.7209 -324.541
L72.7209 -321.684
M236.161 -335.779
L210.656 -336.253
L203.685 -339.896
L236.161 -342.845
L245.973 -343.538
L268.849 -344.265
L301.537 -343.68
L305.128 -343.538
L313.211 -339.896
L301.537 -339.149
L275.896 -336.253
L268.849 -335.689
L236.161 -335.779
M301.537 -328.282
L296.879 -328.969
L268.849 -330.88
L256.548 -332.611
L268.849 -333.138
L301.537 -335.532
L334.224 -336.126
L348.698 -332.611
L334.224 -331.439
L303.541 -328.969
L301.537 -328.282" id="C3_11_b3431b707c"/>
     <path d="
M334.224 -356.289
L357.456 -358.107
L366.912 -358.667
L399.6 -360.697
L432.288 -359.635
L464.976 -358.721
L464.976 -361.749
L464.976 -365.391
L464.976 -368.153
L432.288 -368.676
L429.033 -369.033
L399.6 -371.538
L366.912 -371.736
L358.428 -372.676
L334.224 -375.404
L301.537 -375.342
L268.849 -375.375
L236.161 -374.879
L203.473 -374.647
L170.785 -373.902
L138.097 -373.196
L105.409 -372.928
L72.7209 -372.847
L72.7209 -372.676
L72.7209 -369.033
L72.7209 -365.391
L72.7209 -361.749
L72.7209 -360.71
L105.409 -359.247
L138.097 -358.773
L170.785 -359.327
L203.473 -359.858
L236.161 -360.172
L268.849 -359.72
L301.537 -359.968
L320.818 -358.107
L334.224 -356.289
M268.849 -364.798
L254.66 -365.391
L268.849 -365.772
L273.594 -365.391
L268.849 -364.798" id="C3_12_2fb90beddc"/>
     <path d="
M366.912 -386.613
L376.485 -387.244
L366.912 -389.98
L340.521 -387.244
L366.912 -386.613" id="C3_13_9db6545f7c"/>
     <path d="
M72.7209 -390.887
L72.7209 -389.881
L105.409 -390.725
L113.632 -390.887
L138.097 -391.383
L170.785 -392.98
L196.873 -394.529
L203.473 -394.912
L236.161 -397.578
L251.121 -398.171
L268.849 -398.75
L301.537 -401.41
L309.337 -401.813
L334.224 -403.52
L353.46 -405.456
L366.553 -409.098
L366.912 -409.219
L392.302 -412.74
L366.912 -412.74
L334.224 -412.74
L301.537 -412.74
L268.849 -412.74
L236.161 -412.74
L203.473 -412.74
L170.785 -412.74
L138.097 -412.74
L105.409 -412.74
L72.7209 -412.74
L72.7209 -409.098
L72.7209 -405.456
L72.7209 -401.813
L72.7209 -398.171
L72.7209 -394.529
L72.7209 -390.887" id="C3_14_ae50ae6b86"/>
     <path d="
M399.6 -389.589
L432.288 -389.34
L464.976 -389.12
L464.976 -390.887
L464.976 -394.529
L464.976 -398.171
L464.976 -401.813
L464.976 -405.456
L464.976 -409.098
L464.976 -412.74
L432.288 -412.74
L405.03 -412.74
L412.069 -409.098
L399.6 -408.091
L380.765 -405.456
L387.542 -401.813
L366.912 -398.929
L363.151 -398.171
L359.577 -394.529
L366.912 -392.045
L373.412 -390.887
L399.6 -389.589" id="C3_15_b2ae657373"/>
    </defs>
    <g clip-path="url(#pa4674fbac0)">
     <use style="fill:#808080;" x="0.0" xlink:href="#C3_0_e29f5e880d" y="432.0"/>
    </g>
    <g clip-path="url(#pa4674fbac0)">
     <use style="fill:#808080;" x="0.0" xlink:href="#C3_1_6a6644fb8b" y="432.0"/>
    </g>
    <g clip-path="url(#pa4674fbac0)">
     <use style="fill:#808080;" x="0.0" xlink:href="#C3_2_67079343e8" y="432.0"/>
    </g>
    <g clip-path="url(#pa4674fbac0)">
     <use style="fill:#808080;" x="0.0" xlink:href="#C3_3_9e1f5ba0f2" y="432.0"/>
    </g>
    <g clip-path="url(#pa4674fbac0)">
     <use style="fill:#808080;" x="0.0" xlink:href="#C3_4_3342075212" y="432.0"/>
    </g>
    <g clip-path="url(#pa4674fbac0)">
     <use style="fill:#808080;" x="0.0" xlink:href="#C3_5_796a38636f" y="432.0"/>
    </g>
    <g clip-path="url(#pa4674fbac0)">
     <use style="fill:#808080;" x="0.0" xlink:href="#C3_6_7eef3de19a" y="432.0"/>
    </g>
    <g clip-path="url(#pa4674fbac0)">
     <use style="fill:#808080;" x="0.0" xlink:href="#C3_7_209e0b9f8d" y="432.0"/>
    </g>
    <g clip-path="url(#pa4674fbac0)">
     <use style="fill:#808080;" x="0.0" xlink:href="#C3_8_9a4b3f7f9a" y="432.0"/>
    </g>
    <g clip-path="url(#pa4674fbac0)">
     <use style="fill:#808080;" x="0.0" xlink:href="#C3_9_02d3ae81a9" y="432.0"/>
    </g>
    <g clip-path="url(#pa4674fbac0)">
     <use style="fill:#808080;" x="0.0" xlink:href="#C3_a_8be007b794" y="432.0"/>
    </g>
    <g clip-path="url(#pa4674fbac0)">
     <use style="fill:#808080;" x="0.0" xlink:href="#C3_b_a13727d32a" y="432.0"/>
    </g>
    <g clip-path="url(#pa4674fbac0)">
     <use style="fill:#808080;" x="0.0" xlink:href="#C3_c_88832a6a74" y="432.0"/>
    </g>
    <g clip-path="url(#pa4674fbac0)">
     <use style="fill:#808080;" x="0.0" xlink:href="#C3_d_e00d60a828" y="432.0"/>
    </g>
    <g clip-path="url(#pa4674fbac0)">
     <use style="fill:#808080;" x="0.0" xlink:href="#C3_e_b1942d5033" y="432.0"/>
    </g>
    <g clip-path="url(#pa4674fbac0)">
     <use style="fill:#808080;" x="0.0" xlink:href="#C3_f_d755282179" y="432.0"/>
    </g>
    <g clip-path="url(#pa4674fbac0)">
     <use style="fill:#808080;" x="0.0" xlink:href="#C3_10_745b68427d" y="432.0"/>
    </g>
    <g clip-path="url(#pa4674fbac0)">
     <use style="fill:#808080;" x="0.0" xlink:href="#C3_11_b3431b707c" y="432.0"/>
    </g>
    <g clip-path="url(#pa4674fbac0)">
     <use style="fill:#808080;" x="0.0" xlink:href="#C3_12_2fb90beddc" y="432.0"/>
    </g>
    <g clip-path="url(#pa4674fbac0)">
     <use style="fill:#808080;" x="0.0" xlink:href="#C3_13_9db6545f7c" y="432.0"/>
    </g>
    <g clip-path="url(#pa4674fbac0)">
     <use style="fill:#808080;" x="0.0" xlink:href="#C3_14_ae50ae6b86" y="432.0"/>
    </g>
    <g clip-path="url(#pa4674fbac0)">
     <use style="fill:#808080;" x="0.0" xlink:href="#C3_15_b2ae657373" y="432.0"/>
    </g>
   </g>
   <g id="PathCollection_5">
    <defs>
     <path d="
M334.224 -120.998
L366.912 -120.831
L382.938 -121.362
L395.912 -125.004
L366.912 -126.625
L334.224 -127.884
L301.537 -126.127
L289.515 -125.004
L301.537 -124.118
L329.035 -121.362
L334.224 -120.998" id="C4_0_8917823b4f"/>
     <path d="
M138.097 -123.709
L170.785 -122.967
L194.734 -125.004
L170.785 -128.442
L169.415 -128.647
L138.097 -130.728
L105.409 -130.663
L96.4403 -128.647
L105.409 -127.116
L117.156 -125.004
L138.097 -123.709" id="C4_1_35c2c95dad"/>
     <path d="
M268.849 -207.719
L283.022 -208.776
L268.849 -209.44
L258.028 -208.776
L268.849 -207.719" id="C4_2_df1d117743"/>
     <path d="
M72.7209 -230.629
L72.7209 -229.895
L105.409 -229.325
L138.097 -229.144
L170.785 -228.835
L203.473 -229.752
L236.161 -228.294
L268.849 -227.942
L301.537 -229.459
L334.224 -230.588
L335.016 -230.629
L366.912 -231.726
L399.6 -231.128
L432.288 -233.326
L464.976 -231.327
L464.976 -234.271
L464.976 -235.402
L432.288 -234.593
L399.6 -236.138
L373.966 -237.913
L366.912 -238.365
L334.224 -240.481
L301.537 -240.676
L268.849 -239.601
L239.408 -237.913
L236.161 -237.584
L203.473 -236.341
L170.785 -237.227
L157.147 -237.913
L138.097 -238.552
L105.409 -238.841
L72.7209 -238.604
L72.7209 -237.913
L72.7209 -235.281
L105.409 -235.927
L138.097 -235.357
L166.443 -234.271
L138.097 -233.15
L105.409 -232.708
L72.7209 -233.321
L72.7209 -230.629
M268.849 -230.194
L257.083 -230.629
L236.312 -234.271
L268.849 -237.611
L280.179 -237.913
L301.537 -238.366
L319.237 -237.913
L334.224 -236.778
L355.528 -234.271
L334.224 -233.288
L301.537 -232.27
L276.498 -230.629
L268.849 -230.194" id="C4_3_d10d585669"/>
     <path d="
M72.7209 -299.831
L72.7209 -299.2
L105.409 -298.387
L138.097 -298.056
L170.785 -298.97
L189.184 -299.831
L192.071 -303.473
L170.785 -305.592
L138.097 -306.586
L105.409 -306.624
L72.7209 -305.691
L72.7209 -303.473
L72.7209 -299.831" id="C4_4_8cad08c426"/>
     <path d="
M236.161 -298.602
L268.849 -298.077
L283.268 -299.831
L275.809 -303.473
L268.849 -303.958
L236.161 -303.537
L233.727 -303.473
L221.233 -299.831
L236.161 -298.602" id="C4_5_fdabfa9060"/>
     <path d="
M72.7209 -325.327
L72.7209 -324.541
L105.409 -324.82
L117.049 -325.327
L138.097 -326.175
L170.785 -327.854
L190.227 -328.969
L170.785 -331.601
L151.712 -332.611
L170.785 -334.101
L198.748 -336.253
L170.785 -338.945
L138.097 -337.45
L129.289 -336.253
L123.802 -332.611
L105.409 -332.313
L72.7209 -330.915
L72.7209 -328.969
L72.7209 -325.327
M105.409 -328.356
L92.1918 -328.969
L105.409 -329.459
L125.637 -328.969
L105.409 -328.356" id="C4_6_542e397ecc"/>
     <path d="
M236.161 -335.779
L268.849 -335.689
L275.896 -336.253
L301.537 -339.149
L313.211 -339.896
L305.128 -343.538
L301.537 -343.68
L268.849 -344.265
L245.973 -343.538
L236.161 -342.845
L203.685 -339.896
L210.656 -336.253
L236.161 -335.779" id="C4_7_a256a76c15"/>
     <path d="
M464.976 -339.862
L464.976 -339.896
L464.976 -339.931
L464.451 -339.896
L464.976 -339.862" id="C4_8_3d2dd9ad95"/>
     <path d="
M268.849 -364.798
L273.594 -365.391
L268.849 -365.772
L254.66 -365.391
L268.849 -364.798" id="C4_9_c3114b0186"/>
    </defs>
    <g clip-path="url(#pa4674fbac0)">
     <use style="fill:#a4a4a4;" x="0.0" xlink:href="#C4_0_8917823b4f" y="432.0"/>
    </g>
    <g clip-path="url(#pa4674fbac0)">
     <use style="fill:#a4a4a4;" x="0.0" xlink:href="#C4_1_35c2c95dad" y="432.0"/>
    </g>
    <g clip-path="url(#pa4674fbac0)">
     <use style="fill:#a4a4a4;" x="0.0" xlink:href="#C4_2_df1d117743" y="432.0"/>
    </g>
    <g clip-path="url(#pa4674fbac0)">
     <use style="fill:#a4a4a4;" x="0.0" xlink:href="#C4_3_d10d585669" y="432.0"/>
    </g>
    <g clip-path="url(#pa4674fbac0)">
     <use style="fill:#a4a4a4;" x="0.0" xlink:href="#C4_4_8cad08c426" y="432.0"/>
    </g>
    <g clip-path="url(#pa4674fbac0)">
     <use style="fill:#a4a4a4;" x="0.0" xlink:href="#C4_5_fdabfa9060" y="432.0"/>
    </g>
    <g clip-path="url(#pa4674fbac0)">
     <use style="fill:#a4a4a4;" x="0.0" xlink:href="#C4_6_542e397ecc" y="432.0"/>
    </g>
    <g clip-path="url(#pa4674fbac0)">
     <use style="fill:#a4a4a4;" x="0.0" xlink:href="#C4_7_a256a76c15" y="432.0"/>
    </g>
    <g clip-path="url(#pa4674fbac0)">
     <use style="fill:#a4a4a4;" x="0.0" xlink:href="#C4_8_3d2dd9ad95" y="432.0"/>
    </g>
    <g clip-path="url(#pa4674fbac0)">
     <use style="fill:#a4a4a4;" x="0.0" xlink:href="#C4_9_c3114b0186" y="432.0"/>
    </g>
   </g>
   <g id="PathCollection_6">
    <defs>
     <path d="
M268.849 -230.194
L276.498 -230.629
L301.537 -232.27
L334.224 -233.288
L355.528 -234.271
L334.224 -236.778
L319.237 -237.913
L301.537 -238.366
L280.179 -237.913
L268.849 -237.611
L236.312 -234.271
L257.083 -230.629
L268.849 -230.194
M268.849 -233.701
L264.608 -234.271
L268.849 -234.706
L281.771 -234.271
L268.849 -233.701" id="C5_0_2efb2a6d6d"/>
     <path d="
M72.7209 -234.271
L72.7209 -233.321
L105.409 -232.708
L138.097 -233.15
L166.443 -234.271
L138.097 -235.357
L105.409 -235.927
L72.7209 -235.281
L72.7209 -234.271" id="C5_1_f6c2a34cf5"/>
     <path d="
M105.409 -328.356
L125.637 -328.969
L105.409 -329.459
L92.1918 -328.969
L105.409 -328.356" id="C5_2_2382bbb9a0"/>
    </defs>
    <g clip-path="url(#pa4674fbac0)">
     <use style="fill:#c9c9c9;" x="0.0" xlink:href="#C5_0_2efb2a6d6d" y="432.0"/>
    </g>
    <g clip-path="url(#pa4674fbac0)">
     <use style="fill:#c9c9c9;" x="0.0" xlink:href="#C5_1_f6c2a34cf5" y="432.0"/>
    </g>
    <g clip-path="url(#pa4674fbac0)">
     <use style="fill:#c9c9c9;" x="0.0" xlink:href="#C5_2_2382bbb9a0" y="432.0"/>
    </g>
   </g>
   <g id="PathCollection_7">
    <defs>
     <path d="
M268.849 -233.701
L281.771 -234.271
L268.849 -234.706
L264.608 -234.271
L268.849 -233.701" id="C6_0_b494ec9575"/>
    </defs>
    <g clip-path="url(#pa4674fbac0)">
     <use style="fill:#ededed;" x="0.0" xlink:href="#C6_0_b494ec9575" y="432.0"/>
    </g>
   </g>
   <g id="line2d_1">
    <path clip-path="url(#pa4674fbac0)" d="
M72.7209 197.729
L105.409 197.729
L138.097 197.729
L170.785 197.729
L203.473 197.729
L236.161 197.729
L268.849 197.729
L301.537 197.729
L334.224 197.729
L366.912 197.729
L399.6 197.729
L432.288 197.729
L464.976 197.729" style="fill:none;stroke:#000000;stroke-dasharray:6.000000,6.000000;stroke-dashoffset:0.0;"/>
   </g>
   <g id="patch_3">
    <path d="
M72.7209 19.26
L464.976 19.26" style="fill:none;stroke:#000000;stroke-linecap:square;stroke-linejoin:miter;"/>
   </g>
   <g id="patch_4">
    <path d="
M464.976 379.84
L464.976 19.26" style="fill:none;stroke:#000000;stroke-linecap:square;stroke-linejoin:miter;"/>
   </g>
   <g id="patch_5">
    <path d="
M72.7209 379.84
L464.976 379.84" style="fill:none;stroke:#000000;stroke-linecap:square;stroke-linejoin:miter;"/>
   </g>
   <g id="patch_6">
    <path d="
M72.7209 379.84
L72.7209 19.26" style="fill:none;stroke:#000000;stroke-linecap:square;stroke-linejoin:miter;"/>
   </g>
   <g id="matplotlib.axis_1">
    <g id="xtick_1">
     <g id="line2d_2">
      <path clip-path="url(#pa4674fbac0)" d="
M72.7209 379.84
L72.7209 19.26" style="fill:none;stroke:#000000;stroke-dasharray:1.000000,3.000000;stroke-dashoffset:0.0;stroke-width:0.5;"/>
     </g>
     <g id="line2d_3">
      <defs>
       <path d="
M0 0
L0 -4" id="m93b0483c22" style="stroke:#000000;stroke-width:0.5;"/>
      </defs>
      <g>
       <use style="stroke:#000000;stroke-width:0.5;" x="72.7209375" xlink:href="#m93b0483c22" y="379.84"/>
      </g>
     </g>
     <g id="line2d_4">
      <defs>
       <path d="
M0 0
L0 4" id="m741efc42ff" style="stroke:#000000;stroke-width:0.5;"/>
      </defs>
      <g>
       <use style="stroke:#000000;stroke-width:0.5;" x="72.7209375" xlink:href="#m741efc42ff" y="19.26"/>
      </g>
     </g>
     <g id="text_1">
      <!-- 24 -->
      <defs>
       <path d="
M19.1875 8.29688
L53.6094 8.29688
L53.6094 0
L7.32812 0
L7.32812 8.29688
Q12.9375 14.1094 22.625 23.8906
Q32.3281 33.6875 34.8125 36.5312
Q39.5469 41.8438 41.4219 45.5312
Q43.3125 49.2188 43.3125 52.7812
Q43.3125 58.5938 39.2344 62.25
Q35.1562 65.9219 28.6094 65.9219
Q23.9688 65.9219 18.8125 64.3125
Q13.6719 62.7031 7.8125 59.4219
L7.8125 69.3906
Q13.7656 71.7812 18.9375 73
Q24.125 74.2188 28.4219 74.2188
Q39.75 74.2188 46.4844 68.5469
Q53.2188 62.8906 53.2188 53.4219
Q53.2188 48.9219 51.5312 44.8906
Q49.8594 40.875 45.4062 35.4062
Q44.1875 33.9844 37.6406 27.2188
Q31.1094 20.4531 19.1875 8.29688" id="BitstreamVeraSans-Roman-32"/>
       <path d="
M37.7969 64.3125
L12.8906 25.3906
L37.7969 25.3906
z

M35.2031 72.9062
L47.6094 72.9062
L47.6094 25.3906
L58.0156 25.3906
L58.0156 17.1875
L47.6094 17.1875
L47.6094 0
L37.7969 0
L37.7969 17.1875
L4.89062 17.1875
L4.89062 26.7031
z
" id="BitstreamVeraSans-Roman-34"/>
      </defs>
      <g transform="translate(65.8621875 392.958125)scale(0.12 -0.12)">
       <use xlink:href="#BitstreamVeraSans-Roman-32"/>
       <use x="63.623046875" xlink:href="#BitstreamVeraSans-Roman-34"/>
      </g>
     </g>
    </g>
    <g id="xtick_2">
     <g id="line2d_5">
      <path clip-path="url(#pa4674fbac0)" d="
M138.097 379.84
L138.097 19.26" style="fill:none;stroke:#000000;stroke-dasharray:1.000000,3.000000;stroke-dashoffset:0.0;stroke-width:0.5;"/>
     </g>
     <g id="line2d_6">
      <g>
       <use style="stroke:#000000;stroke-width:0.5;" x="138.0968125" xlink:href="#m93b0483c22" y="379.84"/>
      </g>
     </g>
     <g id="line2d_7">
      <g>
       <use style="stroke:#000000;stroke-width:0.5;" x="138.0968125" xlink:href="#m741efc42ff" y="19.26"/>
      </g>
     </g>
     <g id="text_2">
      <!-- 26 -->
      <defs>
       <path d="
M33.0156 40.375
Q26.375 40.375 22.4844 35.8281
Q18.6094 31.2969 18.6094 23.3906
Q18.6094 15.5312 22.4844 10.9531
Q26.375 6.39062 33.0156 6.39062
Q39.6562 6.39062 43.5312 10.9531
Q47.4062 15.5312 47.4062 23.3906
Q47.4062 31.2969 43.5312 35.8281
Q39.6562 40.375 33.0156 40.375
M52.5938 71.2969
L52.5938 62.3125
Q48.875 64.0625 45.0938 64.9844
Q41.3125 65.9219 37.5938 65.9219
Q27.8281 65.9219 22.6719 59.3281
Q17.5312 52.7344 16.7969 39.4062
Q19.6719 43.6562 24.0156 45.9219
Q28.375 48.1875 33.5938 48.1875
Q44.5781 48.1875 50.9531 41.5156
Q57.3281 34.8594 57.3281 23.3906
Q57.3281 12.1562 50.6875 5.35938
Q44.0469 -1.42188 33.0156 -1.42188
Q20.3594 -1.42188 13.6719 8.26562
Q6.98438 17.9688 6.98438 36.375
Q6.98438 53.6562 15.1875 63.9375
Q23.3906 74.2188 37.2031 74.2188
Q40.9219 74.2188 44.7031 73.4844
Q48.4844 72.75 52.5938 71.2969" id="BitstreamVeraSans-Roman-36"/>
      </defs>
      <g transform="translate(131.2793125 392.958125)scale(0.12 -0.12)">
       <use xlink:href="#BitstreamVeraSans-Roman-32"/>
       <use x="63.623046875" xlink:href="#BitstreamVeraSans-Roman-36"/>
      </g>
     </g>
    </g>
    <g id="xtick_3">
     <g id="line2d_8">
      <path clip-path="url(#pa4674fbac0)" d="
M203.473 379.84
L203.473 19.26" style="fill:none;stroke:#000000;stroke-dasharray:1.000000,3.000000;stroke-dashoffset:0.0;stroke-width:0.5;"/>
     </g>
     <g id="line2d_9">
      <g>
       <use style="stroke:#000000;stroke-width:0.5;" x="203.4726875" xlink:href="#m93b0483c22" y="379.84"/>
      </g>
     </g>
     <g id="line2d_10">
      <g>
       <use style="stroke:#000000;stroke-width:0.5;" x="203.4726875" xlink:href="#m741efc42ff" y="19.26"/>
      </g>
     </g>
     <g id="text_3">
      <!-- 28 -->
      <defs>
       <path d="
M31.7812 34.625
Q24.75 34.625 20.7188 30.8594
Q16.7031 27.0938 16.7031 20.5156
Q16.7031 13.9219 20.7188 10.1562
Q24.75 6.39062 31.7812 6.39062
Q38.8125 6.39062 42.8594 10.1719
Q46.9219 13.9688 46.9219 20.5156
Q46.9219 27.0938 42.8906 30.8594
Q38.875 34.625 31.7812 34.625
M21.9219 38.8125
Q15.5781 40.375 12.0312 44.7188
Q8.5 49.0781 8.5 55.3281
Q8.5 64.0625 14.7188 69.1406
Q20.9531 74.2188 31.7812 74.2188
Q42.6719 74.2188 48.875 69.1406
Q55.0781 64.0625 55.0781 55.3281
Q55.0781 49.0781 51.5312 44.7188
Q48 40.375 41.7031 38.8125
Q48.8281 37.1562 52.7969 32.3125
Q56.7812 27.4844 56.7812 20.5156
Q56.7812 9.90625 50.3125 4.23438
Q43.8438 -1.42188 31.7812 -1.42188
Q19.7344 -1.42188 13.25 4.23438
Q6.78125 9.90625 6.78125 20.5156
Q6.78125 27.4844 10.7812 32.3125
Q14.7969 37.1562 21.9219 38.8125
M18.3125 54.3906
Q18.3125 48.7344 21.8438 45.5625
Q25.3906 42.3906 31.7812 42.3906
Q38.1406 42.3906 41.7188 45.5625
Q45.3125 48.7344 45.3125 54.3906
Q45.3125 60.0625 41.7188 63.2344
Q38.1406 66.4062 31.7812 66.4062
Q25.3906 66.4062 21.8438 63.2344
Q18.3125 60.0625 18.3125 54.3906" id="BitstreamVeraSans-Roman-38"/>
      </defs>
      <g transform="translate(196.688 392.958125)scale(0.12 -0.12)">
       <use xlink:href="#BitstreamVeraSans-Roman-32"/>
       <use x="63.623046875" xlink:href="#BitstreamVeraSans-Roman-38"/>
      </g>
     </g>
    </g>
    <g id="xtick_4">
     <g id="line2d_11">
      <path clip-path="url(#pa4674fbac0)" d="
M268.849 379.84
L268.849 19.26" style="fill:none;stroke:#000000;stroke-dasharray:1.000000,3.000000;stroke-dashoffset:0.0;stroke-width:0.5;"/>
     </g>
     <g id="line2d_12">
      <g>
       <use style="stroke:#000000;stroke-width:0.5;" x="268.8485625" xlink:href="#m93b0483c22" y="379.84"/>
      </g>
     </g>
     <g id="line2d_13">
      <g>
       <use style="stroke:#000000;stroke-width:0.5;" x="268.8485625" xlink:href="#m741efc42ff" y="19.26"/>
      </g>
     </g>
     <g id="text_4">
      <!-- 30 -->
      <defs>
       <path d="
M40.5781 39.3125
Q47.6562 37.7969 51.625 33
Q55.6094 28.2188 55.6094 21.1875
Q55.6094 10.4062 48.1875 4.48438
Q40.7656 -1.42188 27.0938 -1.42188
Q22.5156 -1.42188 17.6562 -0.515625
Q12.7969 0.390625 7.625 2.20312
L7.625 11.7188
Q11.7188 9.32812 16.5938 8.10938
Q21.4844 6.89062 26.8125 6.89062
Q36.0781 6.89062 40.9375 10.5469
Q45.7969 14.2031 45.7969 21.1875
Q45.7969 27.6406 41.2812 31.2656
Q36.7656 34.9062 28.7188 34.9062
L20.2188 34.9062
L20.2188 43.0156
L29.1094 43.0156
Q36.375 43.0156 40.2344 45.9219
Q44.0938 48.8281 44.0938 54.2969
Q44.0938 59.9062 40.1094 62.9062
Q36.1406 65.9219 28.7188 65.9219
Q24.6562 65.9219 20.0156 65.0312
Q15.375 64.1562 9.8125 62.3125
L9.8125 71.0938
Q15.4375 72.6562 20.3438 73.4375
Q25.25 74.2188 29.5938 74.2188
Q40.8281 74.2188 47.3594 69.1094
Q53.9062 64.0156 53.9062 55.3281
Q53.9062 49.2656 50.4375 45.0938
Q46.9688 40.9219 40.5781 39.3125" id="BitstreamVeraSans-Roman-33"/>
       <path d="
M31.7812 66.4062
Q24.1719 66.4062 20.3281 58.9062
Q16.5 51.4219 16.5 36.375
Q16.5 21.3906 20.3281 13.8906
Q24.1719 6.39062 31.7812 6.39062
Q39.4531 6.39062 43.2812 13.8906
Q47.125 21.3906 47.125 36.375
Q47.125 51.4219 43.2812 58.9062
Q39.4531 66.4062 31.7812 66.4062
M31.7812 74.2188
Q44.0469 74.2188 50.5156 64.5156
Q56.9844 54.8281 56.9844 36.375
Q56.9844 17.9688 50.5156 8.26562
Q44.0469 -1.42188 31.7812 -1.42188
Q19.5312 -1.42188 13.0625 8.26562
Q6.59375 17.9688 6.59375 36.375
Q6.59375 54.8281 13.0625 64.5156
Q19.5312 74.2188 31.7812 74.2188" id="BitstreamVeraSans-Roman-30"/>
      </defs>
      <g transform="translate(262.0695 392.958125)scale(0.12 -0.12)">
       <use xlink:href="#BitstreamVeraSans-Roman-33"/>
       <use x="63.623046875" xlink:href="#BitstreamVeraSans-Roman-30"/>
      </g>
     </g>
    </g>
    <g id="xtick_5">
     <g id="line2d_14">
      <path clip-path="url(#pa4674fbac0)" d="
M334.224 379.84
L334.224 19.26" style="fill:none;stroke:#000000;stroke-dasharray:1.000000,3.000000;stroke-dashoffset:0.0;stroke-width:0.5;"/>
     </g>
     <g id="line2d_15">
      <g>
       <use style="stroke:#000000;stroke-width:0.5;" x="334.2244375" xlink:href="#m93b0483c22" y="379.84"/>
      </g>
     </g>
     <g id="line2d_16">
      <g>
       <use style="stroke:#000000;stroke-width:0.5;" x="334.2244375" xlink:href="#m741efc42ff" y="19.26"/>
      </g>
     </g>
     <g id="text_5">
      <!-- 32 -->
      <g transform="translate(327.647875 392.958125)scale(0.12 -0.12)">
       <use xlink:href="#BitstreamVeraSans-Roman-33"/>
       <use x="63.623046875" xlink:href="#BitstreamVeraSans-Roman-32"/>
      </g>
     </g>
    </g>
    <g id="xtick_6">
     <g id="line2d_17">
      <path clip-path="url(#pa4674fbac0)" d="
M399.6 379.84
L399.6 19.26" style="fill:none;stroke:#000000;stroke-dasharray:1.000000,3.000000;stroke-dashoffset:0.0;stroke-width:0.5;"/>
     </g>
     <g id="line2d_18">
      <g>
       <use style="stroke:#000000;stroke-width:0.5;" x="399.6003125" xlink:href="#m93b0483c22" y="379.84"/>
      </g>
     </g>
     <g id="line2d_19">
      <g>
       <use style="stroke:#000000;stroke-width:0.5;" x="399.6003125" xlink:href="#m741efc42ff" y="19.26"/>
      </g>
     </g>
     <g id="text_6">
      <!-- 34 -->
      <g transform="translate(392.759375 392.958125)scale(0.12 -0.12)">
       <use xlink:href="#BitstreamVeraSans-Roman-33"/>
       <use x="63.623046875" xlink:href="#BitstreamVeraSans-Roman-34"/>
      </g>
     </g>
    </g>
    <g id="xtick_7">
     <g id="line2d_20">
      <path clip-path="url(#pa4674fbac0)" d="
M464.976 379.84
L464.976 19.26" style="fill:none;stroke:#000000;stroke-dasharray:1.000000,3.000000;stroke-dashoffset:0.0;stroke-width:0.5;"/>
     </g>
     <g id="line2d_21">
      <g>
       <use style="stroke:#000000;stroke-width:0.5;" x="464.9761875" xlink:href="#m93b0483c22" y="379.84"/>
      </g>
     </g>
     <g id="line2d_22">
      <g>
       <use style="stroke:#000000;stroke-width:0.5;" x="464.9761875" xlink:href="#m741efc42ff" y="19.26"/>
      </g>
     </g>
     <g id="text_7">
      <!-- 36 -->
      <g transform="translate(458.1765 392.958125)scale(0.12 -0.12)">
       <use xlink:href="#BitstreamVeraSans-Roman-33"/>
       <use x="63.623046875" xlink:href="#BitstreamVeraSans-Roman-36"/>
      </g>
     </g>
    </g>
    <g id="text_8">
     <!-- Replay image index # -->
     <defs>
      <path id="BitstreamVeraSans-Roman-20"/>
      <path d="
M51.125 44
L36.9219 44
L32.8125 27.6875
L47.125 27.6875
z

M43.7969 71.7812
L38.7188 51.5156
L52.9844 51.5156
L58.1094 71.7812
L65.9219 71.7812
L60.8906 51.5156
L76.125 51.5156
L76.125 44
L58.9844 44
L54.9844 27.6875
L70.5156 27.6875
L70.5156 20.2188
L53.0781 20.2188
L48 0
L40.1875 0
L45.2188 20.2188
L30.9062 20.2188
L25.875 0
L18.0156 0
L23.0938 20.2188
L7.71875 20.2188
L7.71875 27.6875
L24.9062 27.6875
L29 44
L13.2812 44
L13.2812 51.5156
L30.9062 51.5156
L35.8906 71.7812
z
" id="BitstreamVeraSans-Roman-23"/>
      <path d="
M54.8906 33.0156
L54.8906 0
L45.9062 0
L45.9062 32.7188
Q45.9062 40.4844 42.875 44.3281
Q39.8438 48.1875 33.7969 48.1875
Q26.5156 48.1875 22.3125 43.5469
Q18.1094 38.9219 18.1094 30.9062
L18.1094 0
L9.07812 0
L9.07812 54.6875
L18.1094 54.6875
L18.1094 46.1875
Q21.3438 51.125 25.7031 53.5625
Q30.0781 56 35.7969 56
Q45.2188 56 50.0469 50.1719
Q54.8906 44.3438 54.8906 33.0156" id="BitstreamVeraSans-Roman-6e"/>
      <path d="
M52 44.1875
Q55.375 50.25 60.0625 53.125
Q64.75 56 71.0938 56
Q79.6406 56 84.2812 50.0156
Q88.9219 44.0469 88.9219 33.0156
L88.9219 0
L79.8906 0
L79.8906 32.7188
Q79.8906 40.5781 77.0938 44.375
Q74.3125 48.1875 68.6094 48.1875
Q61.625 48.1875 57.5625 43.5469
Q53.5156 38.9219 53.5156 30.9062
L53.5156 0
L44.4844 0
L44.4844 32.7188
Q44.4844 40.625 41.7031 44.4062
Q38.9219 48.1875 33.1094 48.1875
Q26.2188 48.1875 22.1562 43.5312
Q18.1094 38.875 18.1094 30.9062
L18.1094 0
L9.07812 0
L9.07812 54.6875
L18.1094 54.6875
L18.1094 46.1875
Q21.1875 51.2188 25.4844 53.6094
Q29.7812 56 35.6875 56
Q41.6562 56 45.8281 52.9688
Q50 49.9531 52 44.1875" id="BitstreamVeraSans-Roman-6d"/>
      <path d="
M9.42188 75.9844
L18.4062 75.9844
L18.4062 0
L9.42188 0
z
" id="BitstreamVeraSans-Roman-6c"/>
      <path d="
M44.3906 34.1875
Q47.5625 33.1094 50.5625 29.5938
Q53.5625 26.0781 56.5938 19.9219
L66.6094 0
L56 0
L46.6875 18.7031
Q43.0625 26.0312 39.6719 28.4219
Q36.2812 30.8125 30.4219 30.8125
L19.6719 30.8125
L19.6719 0
L9.8125 0
L9.8125 72.9062
L32.0781 72.9062
Q44.5781 72.9062 50.7344 67.6719
Q56.8906 62.4531 56.8906 51.9062
Q56.8906 45.0156 53.6875 40.4688
Q50.4844 35.9375 44.3906 34.1875
M19.6719 64.7969
L19.6719 38.9219
L32.0781 38.9219
Q39.2031 38.9219 42.8438 42.2188
Q46.4844 45.5156 46.4844 51.9062
Q46.4844 58.2969 42.8438 61.5469
Q39.2031 64.7969 32.0781 64.7969
z
" id="BitstreamVeraSans-Roman-52"/>
      <path d="
M9.42188 54.6875
L18.4062 54.6875
L18.4062 0
L9.42188 0
z

M9.42188 75.9844
L18.4062 75.9844
L18.4062 64.5938
L9.42188 64.5938
z
" id="BitstreamVeraSans-Roman-69"/>
      <path d="
M54.8906 54.6875
L35.1094 28.0781
L55.9062 0
L45.3125 0
L29.3906 21.4844
L13.4844 0
L2.875 0
L24.125 28.6094
L4.6875 54.6875
L15.2812 54.6875
L29.7812 35.2031
L44.2812 54.6875
z
" id="BitstreamVeraSans-Roman-78"/>
      <path d="
M32.1719 -5.07812
Q28.375 -14.8438 24.75 -17.8125
Q21.1406 -20.7969 15.0938 -20.7969
L7.90625 -20.7969
L7.90625 -13.2812
L13.1875 -13.2812
Q16.8906 -13.2812 18.9375 -11.5156
Q21 -9.76562 23.4844 -3.21875
L25.0938 0.875
L2.98438 54.6875
L12.5 54.6875
L29.5938 11.9219
L46.6875 54.6875
L56.2031 54.6875
z
" id="BitstreamVeraSans-Roman-79"/>
      <path d="
M56.2031 29.5938
L56.2031 25.2031
L14.8906 25.2031
Q15.4844 15.9219 20.4844 11.0625
Q25.4844 6.20312 34.4219 6.20312
Q39.5938 6.20312 44.4531 7.46875
Q49.3125 8.73438 54.1094 11.2812
L54.1094 2.78125
Q49.2656 0.734375 44.1875 -0.34375
Q39.1094 -1.42188 33.8906 -1.42188
Q20.7969 -1.42188 13.1562 6.1875
Q5.51562 13.8125 5.51562 26.8125
Q5.51562 40.2344 12.7656 48.1094
Q20.0156 56 32.3281 56
Q43.3594 56 49.7812 48.8906
Q56.2031 41.7969 56.2031 29.5938
M47.2188 32.2344
Q47.125 39.5938 43.0938 43.9844
Q39.0625 48.3906 32.4219 48.3906
Q24.9062 48.3906 20.3906 44.1406
Q15.875 39.8906 15.1875 32.1719
z
" id="BitstreamVeraSans-Roman-65"/>
      <path d="
M45.4062 46.3906
L45.4062 75.9844
L54.3906 75.9844
L54.3906 0
L45.4062 0
L45.4062 8.20312
Q42.5781 3.32812 38.25 0.953125
Q33.9375 -1.42188 27.875 -1.42188
Q17.9688 -1.42188 11.7344 6.48438
Q5.51562 14.4062 5.51562 27.2969
Q5.51562 40.1875 11.7344 48.0938
Q17.9688 56 27.875 56
Q33.9375 56 38.25 53.625
Q42.5781 51.2656 45.4062 46.3906
M14.7969 27.2969
Q14.7969 17.3906 18.875 11.75
Q22.9531 6.10938 30.0781 6.10938
Q37.2031 6.10938 41.2969 11.75
Q45.4062 17.3906 45.4062 27.2969
Q45.4062 37.2031 41.2969 42.8438
Q37.2031 48.4844 30.0781 48.4844
Q22.9531 48.4844 18.875 42.8438
Q14.7969 37.2031 14.7969 27.2969" id="BitstreamVeraSans-Roman-64"/>
      <path d="
M45.4062 27.9844
Q45.4062 37.75 41.375 43.1094
Q37.3594 48.4844 30.0781 48.4844
Q22.8594 48.4844 18.8281 43.1094
Q14.7969 37.75 14.7969 27.9844
Q14.7969 18.2656 18.8281 12.8906
Q22.8594 7.51562 30.0781 7.51562
Q37.3594 7.51562 41.375 12.8906
Q45.4062 18.2656 45.4062 27.9844
M54.3906 6.78125
Q54.3906 -7.17188 48.1875 -13.9844
Q42 -20.7969 29.2031 -20.7969
Q24.4688 -20.7969 20.2656 -20.0938
Q16.0625 -19.3906 12.1094 -17.9219
L12.1094 -9.1875
Q16.0625 -11.3281 19.9219 -12.3438
Q23.7812 -13.375 27.7812 -13.375
Q36.625 -13.375 41.0156 -8.76562
Q45.4062 -4.15625 45.4062 5.17188
L45.4062 9.625
Q42.625 4.78125 38.2812 2.39062
Q33.9375 0 27.875 0
Q17.8281 0 11.6719 7.65625
Q5.51562 15.3281 5.51562 27.9844
Q5.51562 40.6719 11.6719 48.3281
Q17.8281 56 27.875 56
Q33.9375 56 38.2812 53.6094
Q42.625 51.2188 45.4062 46.3906
L45.4062 54.6875
L54.3906 54.6875
z
" id="BitstreamVeraSans-Roman-67"/>
      <path d="
M34.2812 27.4844
Q23.3906 27.4844 19.1875 25
Q14.9844 22.5156 14.9844 16.5
Q14.9844 11.7188 18.1406 8.90625
Q21.2969 6.10938 26.7031 6.10938
Q34.1875 6.10938 38.7031 11.4062
Q43.2188 16.7031 43.2188 25.4844
L43.2188 27.4844
z

M52.2031 31.2031
L52.2031 0
L43.2188 0
L43.2188 8.29688
Q40.1406 3.32812 35.5469 0.953125
Q30.9531 -1.42188 24.3125 -1.42188
Q15.9219 -1.42188 10.9531 3.29688
Q6 8.01562 6 15.9219
Q6 25.1406 12.1719 29.8281
Q18.3594 34.5156 30.6094 34.5156
L43.2188 34.5156
L43.2188 35.4062
Q43.2188 41.6094 39.1406 45
Q35.0625 48.3906 27.6875 48.3906
Q23 48.3906 18.5469 47.2656
Q14.1094 46.1406 10.0156 43.8906
L10.0156 52.2031
Q14.9375 54.1094 19.5781 55.0469
Q24.2188 56 28.6094 56
Q40.4844 56 46.3438 49.8438
Q52.2031 43.7031 52.2031 31.2031" id="BitstreamVeraSans-Roman-61"/>
      <path d="
M18.1094 8.20312
L18.1094 -20.7969
L9.07812 -20.7969
L9.07812 54.6875
L18.1094 54.6875
L18.1094 46.3906
Q20.9531 51.2656 25.2656 53.625
Q29.5938 56 35.5938 56
Q45.5625 56 51.7812 48.0938
Q58.0156 40.1875 58.0156 27.2969
Q58.0156 14.4062 51.7812 6.48438
Q45.5625 -1.42188 35.5938 -1.42188
Q29.5938 -1.42188 25.2656 0.953125
Q20.9531 3.32812 18.1094 8.20312
M48.6875 27.2969
Q48.6875 37.2031 44.6094 42.8438
Q40.5312 48.4844 33.4062 48.4844
Q26.2656 48.4844 22.1875 42.8438
Q18.1094 37.2031 18.1094 27.2969
Q18.1094 17.3906 22.1875 11.75
Q26.2656 6.10938 33.4062 6.10938
Q40.5312 6.10938 44.6094 11.75
Q48.6875 17.3906 48.6875 27.2969" id="BitstreamVeraSans-Roman-70"/>
     </defs>
     <g transform="translate(203.1598125 414.571875)scale(0.12 -0.12)">
      <use xlink:href="#BitstreamVeraSans-Roman-52"/>
      <use x="64.982421875" xlink:href="#BitstreamVeraSans-Roman-65"/>
      <use x="126.505859375" xlink:href="#BitstreamVeraSans-Roman-70"/>
      <use x="189.982421875" xlink:href="#BitstreamVeraSans-Roman-6c"/>
      <use x="217.765625" xlink:href="#BitstreamVeraSans-Roman-61"/>
      <use x="279.044921875" xlink:href="#BitstreamVeraSans-Roman-79"/>
      <use x="338.224609375" xlink:href="#BitstreamVeraSans-Roman-20"/>
      <use x="370.01171875" xlink:href="#BitstreamVeraSans-Roman-69"/>
      <use x="397.794921875" xlink:href="#BitstreamVeraSans-Roman-6d"/>
      <use x="495.20703125" xlink:href="#BitstreamVeraSans-Roman-61"/>
      <use x="556.486328125" xlink:href="#BitstreamVeraSans-Roman-67"/>
      <use x="619.962890625" xlink:href="#BitstreamVeraSans-Roman-65"/>
      <use x="681.486328125" xlink:href="#BitstreamVeraSans-Roman-20"/>
      <use x="713.2734375" xlink:href="#BitstreamVeraSans-Roman-69"/>
      <use x="741.056640625" xlink:href="#BitstreamVeraSans-Roman-6e"/>
      <use x="804.435546875" xlink:href="#BitstreamVeraSans-Roman-64"/>
      <use x="867.912109375" xlink:href="#BitstreamVeraSans-Roman-65"/>
      <use x="927.685546875" xlink:href="#BitstreamVeraSans-Roman-78"/>
      <use x="986.865234375" xlink:href="#BitstreamVeraSans-Roman-20"/>
      <use x="1018.65234375" xlink:href="#BitstreamVeraSans-Roman-23"/>
     </g>
    </g>
   </g>
   <g id="matplotlib.axis_2">
    <g id="ytick_1">
     <g id="line2d_23">
      <path clip-path="url(#pa4674fbac0)" d="
M72.7209 343.418
L464.976 343.418" style="fill:none;stroke:#000000;stroke-dasharray:1.000000,3.000000;stroke-dashoffset:0.0;stroke-width:0.5;"/>
     </g>
     <g id="line2d_24">
      <defs>
       <path d="
M0 0
L4 0" id="m728421d6d4" style="stroke:#000000;stroke-width:0.5;"/>
      </defs>
      <g>
       <use style="stroke:#000000;stroke-width:0.5;" x="72.7209375" xlink:href="#m728421d6d4" y="343.417777778"/>
      </g>
     </g>
     <g id="line2d_25">
      <defs>
       <path d="
M0 0
L-4 0" id="mcb0005524f" style="stroke:#000000;stroke-width:0.5;"/>
      </defs>
      <g>
       <use style="stroke:#000000;stroke-width:0.5;" x="464.9761875" xlink:href="#mcb0005524f" y="343.417777778"/>
      </g>
     </g>
     <g id="text_9">
      <!-- 40 -->
      <defs>
       <path d="
M10.5938 35.5
L73.1875 35.5
L73.1875 27.2031
L10.5938 27.2031
z
" id="BitstreamVeraSans-Roman-2212"/>
      </defs>
      <g transform="translate(45.4634375 346.729027778)scale(0.12 -0.12)">
       <use xlink:href="#BitstreamVeraSans-Roman-2212"/>
       <use x="83.7890625" xlink:href="#BitstreamVeraSans-Roman-34"/>
       <use x="147.412109375" xlink:href="#BitstreamVeraSans-Roman-30"/>
      </g>
     </g>
    </g>
    <g id="ytick_2">
     <g id="line2d_26">
      <path clip-path="url(#pa4674fbac0)" d="
M72.7209 270.573
L464.976 270.573" style="fill:none;stroke:#000000;stroke-dasharray:1.000000,3.000000;stroke-dashoffset:0.0;stroke-width:0.5;"/>
     </g>
     <g id="line2d_27">
      <g>
       <use style="stroke:#000000;stroke-width:0.5;" x="72.7209375" xlink:href="#m728421d6d4" y="270.573333333"/>
      </g>
     </g>
     <g id="line2d_28">
      <g>
       <use style="stroke:#000000;stroke-width:0.5;" x="464.9761875" xlink:href="#mcb0005524f" y="270.573333333"/>
      </g>
     </g>
     <g id="text_10">
      <!-- 20 -->
      <g transform="translate(45.4634375 273.884583333)scale(0.12 -0.12)">
       <use xlink:href="#BitstreamVeraSans-Roman-2212"/>
       <use x="83.7890625" xlink:href="#BitstreamVeraSans-Roman-32"/>
       <use x="147.412109375" xlink:href="#BitstreamVeraSans-Roman-30"/>
      </g>
     </g>
    </g>
    <g id="ytick_3">
     <g id="line2d_29">
      <path clip-path="url(#pa4674fbac0)" d="
M72.7209 197.729
L464.976 197.729" style="fill:none;stroke:#000000;stroke-dasharray:1.000000,3.000000;stroke-dashoffset:0.0;stroke-width:0.5;"/>
     </g>
     <g id="line2d_30">
      <g>
       <use style="stroke:#000000;stroke-width:0.5;" x="72.7209375" xlink:href="#m728421d6d4" y="197.728888889"/>
      </g>
     </g>
     <g id="line2d_31">
      <g>
       <use style="stroke:#000000;stroke-width:0.5;" x="464.9761875" xlink:href="#mcb0005524f" y="197.728888889"/>
      </g>
     </g>
     <g id="text_11">
      <!-- 0 -->
      <g transform="translate(62.6740625 201.040138889)scale(0.12 -0.12)">
       <use xlink:href="#BitstreamVeraSans-Roman-30"/>
      </g>
     </g>
    </g>
    <g id="ytick_4">
     <g id="line2d_32">
      <path clip-path="url(#pa4674fbac0)" d="
M72.7209 124.884
L464.976 124.884" style="fill:none;stroke:#000000;stroke-dasharray:1.000000,3.000000;stroke-dashoffset:0.0;stroke-width:0.5;"/>
     </g>
     <g id="line2d_33">
      <g>
       <use style="stroke:#000000;stroke-width:0.5;" x="72.7209375" xlink:href="#m728421d6d4" y="124.884444444"/>
      </g>
     </g>
     <g id="line2d_34">
      <g>
       <use style="stroke:#000000;stroke-width:0.5;" x="464.9761875" xlink:href="#mcb0005524f" y="124.884444444"/>
      </g>
     </g>
     <g id="text_12">
      <!-- 20 -->
      <g transform="translate(55.1271875 128.195694444)scale(0.12 -0.12)">
       <use xlink:href="#BitstreamVeraSans-Roman-32"/>
       <use x="63.623046875" xlink:href="#BitstreamVeraSans-Roman-30"/>
      </g>
     </g>
    </g>
    <g id="ytick_5">
     <g id="line2d_35">
      <path clip-path="url(#pa4674fbac0)" d="
M72.7209 52.04
L464.976 52.04" style="fill:none;stroke:#000000;stroke-dasharray:1.000000,3.000000;stroke-dashoffset:0.0;stroke-width:0.5;"/>
     </g>
     <g id="line2d_36">
      <g>
       <use style="stroke:#000000;stroke-width:0.5;" x="72.7209375" xlink:href="#m728421d6d4" y="52.04"/>
      </g>
     </g>
     <g id="line2d_37">
      <g>
       <use style="stroke:#000000;stroke-width:0.5;" x="464.9761875" xlink:href="#mcb0005524f" y="52.04"/>
      </g>
     </g>
     <g id="text_13">
      <!-- 40 -->
      <g transform="translate(54.8346875 55.35125)scale(0.12 -0.12)">
       <use xlink:href="#BitstreamVeraSans-Roman-34"/>
       <use x="63.623046875" xlink:href="#BitstreamVeraSans-Roman-30"/>
      </g>
     </g>
    </g>
    <g id="text_14">
     <!-- Shift -->
     <defs>
      <path d="
M18.3125 70.2188
L18.3125 54.6875
L36.8125 54.6875
L36.8125 47.7031
L18.3125 47.7031
L18.3125 18.0156
Q18.3125 11.3281 20.1406 9.42188
Q21.9688 7.51562 27.5938 7.51562
L36.8125 7.51562
L36.8125 0
L27.5938 0
Q17.1875 0 13.2344 3.875
Q9.28125 7.76562 9.28125 18.0156
L9.28125 47.7031
L2.6875 47.7031
L2.6875 54.6875
L9.28125 54.6875
L9.28125 70.2188
z
" id="BitstreamVeraSans-Roman-74"/>
      <path d="
M53.5156 70.5156
L53.5156 60.8906
Q47.9062 63.5781 42.9219 64.8906
Q37.9375 66.2188 33.2969 66.2188
Q25.25 66.2188 20.875 63.0938
Q16.5 59.9688 16.5 54.2031
Q16.5 49.3594 19.4062 46.8906
Q22.3125 44.4375 30.4219 42.9219
L36.375 41.7031
Q47.4062 39.5938 52.6562 34.2969
Q57.9062 29 57.9062 20.125
Q57.9062 9.51562 50.7969 4.04688
Q43.7031 -1.42188 29.9844 -1.42188
Q24.8125 -1.42188 18.9688 -0.25
Q13.1406 0.921875 6.89062 3.21875
L6.89062 13.375
Q12.8906 10.0156 18.6562 8.29688
Q24.4219 6.59375 29.9844 6.59375
Q38.4219 6.59375 43.0156 9.90625
Q47.6094 13.2344 47.6094 19.3906
Q47.6094 24.75 44.3125 27.7812
Q41.0156 30.8125 33.5 32.3281
L27.4844 33.5
Q16.4531 35.6875 11.5156 40.375
Q6.59375 45.0625 6.59375 53.4219
Q6.59375 63.0938 13.4062 68.6562
Q20.2188 74.2188 32.1719 74.2188
Q37.3125 74.2188 42.625 73.2812
Q47.9531 72.3594 53.5156 70.5156" id="BitstreamVeraSans-Roman-53"/>
      <path d="
M37.1094 75.9844
L37.1094 68.5
L28.5156 68.5
Q23.6875 68.5 21.7969 66.5469
Q19.9219 64.5938 19.9219 59.5156
L19.9219 54.6875
L34.7188 54.6875
L34.7188 47.7031
L19.9219 47.7031
L19.9219 0
L10.8906 0
L10.8906 47.7031
L2.29688 47.7031
L2.29688 54.6875
L10.8906 54.6875
L10.8906 58.5
Q10.8906 67.625 15.1406 71.7969
Q19.3906 75.9844 28.6094 75.9844
z
" id="BitstreamVeraSans-Roman-66"/>
      <path d="
M54.8906 33.0156
L54.8906 0
L45.9062 0
L45.9062 32.7188
Q45.9062 40.4844 42.875 44.3281
Q39.8438 48.1875 33.7969 48.1875
Q26.5156 48.1875 22.3125 43.5469
Q18.1094 38.9219 18.1094 30.9062
L18.1094 0
L9.07812 0
L9.07812 75.9844
L18.1094 75.9844
L18.1094 46.1875
Q21.3438 51.125 25.7031 53.5625
Q30.0781 56 35.7969 56
Q45.2188 56 50.0469 50.1719
Q54.8906 44.3438 54.8906 33.0156" id="BitstreamVeraSans-Roman-68"/>
     </defs>
     <g transform="translate(22.9678125 212.64875)rotate(-90.0)scale(0.12 -0.12)">
      <use xlink:href="#BitstreamVeraSans-Roman-53"/>
      <use x="63.4765625" xlink:href="#BitstreamVeraSans-Roman-68"/>
      <use x="126.85546875" xlink:href="#BitstreamVeraSans-Roman-69"/>
      <use x="154.638671875" xlink:href="#BitstreamVeraSans-Roman-66"/>
      <use x="188.09375" xlink:href="#BitstreamVeraSans-Roman-74"/>
     </g>
    </g>
   </g>
  </g>
  <g id="axes_2">
   <g id="patch_7">
    <path clip-path="url(#pf644aa99f1)" d="
M489.492 379.84
L489.492 328.329
L489.492 70.7714
L489.492 19.26
L507.521 19.26
L507.521 70.7714
L507.521 328.329
L507.521 379.84
z
" style="fill:#ffffff;stroke:#ffffff;stroke-linejoin:miter;stroke-width:0.01;"/>
   </g>
   <g id="QuadMesh_1">
    <defs>
     <path d="
M489.492 -52.16
L507.521 -52.16
L507.521 -103.671
L489.492 -103.671
L489.492 -52.16" id="C7_0_8573b19230"/>
     <path d="
M489.492 -103.671
L507.521 -103.671
L507.521 -155.183
L489.492 -155.183
L489.492 -103.671" id="C7_1_5fcf12ca74"/>
     <path d="
M489.492 -155.183
L507.521 -155.183
L507.521 -206.694
L489.492 -206.694
L489.492 -155.183" id="C7_2_9b5c7417a9"/>
     <path d="
M489.492 -206.694
L507.521 -206.694
L507.521 -258.206
L489.492 -258.206
L489.492 -206.694" id="C7_3_9eaeb792a9"/>
     <path d="
M489.492 -258.206
L507.521 -258.206
L507.521 -309.717
L489.492 -309.717
L489.492 -258.206" id="C7_4_358fefc37d"/>
     <path d="
M489.492 -309.717
L507.521 -309.717
L507.521 -361.229
L489.492 -361.229
L489.492 -309.717" id="C7_5_a75b888dd8"/>
     <path d="
M489.492 -361.229
L507.521 -361.229
L507.521 -412.74
L489.492 -412.74
L489.492 -361.229" id="C7_6_c15334515f"/>
    </defs>
    <g clip-path="url(#pf644aa99f1)">
     <use style="fill:#121212;" x="0.0" xlink:href="#C7_0_8573b19230" y="432.0"/>
    </g>
    <g clip-path="url(#pf644aa99f1)">
     <use style="fill:#363636;" x="0.0" xlink:href="#C7_1_5fcf12ca74" y="432.0"/>
    </g>
    <g clip-path="url(#pf644aa99f1)">
     <use style="fill:#5b5b5b;" x="0.0" xlink:href="#C7_2_9b5c7417a9" y="432.0"/>
    </g>
    <g clip-path="url(#pf644aa99f1)">
     <use style="fill:#808080;" x="0.0" xlink:href="#C7_3_9eaeb792a9" y="432.0"/>
    </g>
    <g clip-path="url(#pf644aa99f1)">
     <use style="fill:#a4a4a4;" x="0.0" xlink:href="#C7_4_358fefc37d" y="432.0"/>
    </g>
    <g clip-path="url(#pf644aa99f1)">
     <use style="fill:#c9c9c9;" x="0.0" xlink:href="#C7_5_a75b888dd8" y="432.0"/>
    </g>
    <g clip-path="url(#pf644aa99f1)">
     <use style="fill:#ededed;" x="0.0" xlink:href="#C7_6_c15334515f" y="432.0"/>
    </g>
   </g>
   <g id="patch_8">
    <path d="
M489.492 379.84
L489.492 328.329
L489.492 70.7714
L489.492 19.26
L507.521 19.26
L507.521 70.7714
L507.521 328.329
L507.521 379.84
z
" style="fill:none;stroke:#000000;stroke-linejoin:miter;"/>
   </g>
   <g id="matplotlib.axis_3"/>
   <g id="matplotlib.axis_4">
    <g id="ytick_6">
     <g id="line2d_38">
      <g>
       <use style="stroke:#000000;stroke-width:0.5;" x="507.521140625" xlink:href="#mcb0005524f" y="379.84"/>
      </g>
     </g>
     <g id="text_15">
      <!-- 1200 -->
      <defs>
       <path d="
M12.4062 8.29688
L28.5156 8.29688
L28.5156 63.9219
L10.9844 60.4062
L10.9844 69.3906
L28.4219 72.9062
L38.2812 72.9062
L38.2812 8.29688
L54.3906 8.29688
L54.3906 0
L12.4062 0
z
" id="BitstreamVeraSans-Roman-31"/>
      </defs>
      <g transform="translate(511.521140625 383.15125)scale(0.12 -0.12)">
       <use xlink:href="#BitstreamVeraSans-Roman-2212"/>
       <use x="83.7890625" xlink:href="#BitstreamVeraSans-Roman-31"/>
       <use x="147.412109375" xlink:href="#BitstreamVeraSans-Roman-32"/>
       <use x="211.03515625" xlink:href="#BitstreamVeraSans-Roman-30"/>
       <use x="274.658203125" xlink:href="#BitstreamVeraSans-Roman-30"/>
      </g>
     </g>
    </g>
    <g id="ytick_7">
     <g id="line2d_39">
      <g>
       <use style="stroke:#000000;stroke-width:0.5;" x="507.521140625" xlink:href="#mcb0005524f" y="328.328571429"/>
      </g>
     </g>
     <g id="text_16">
      <!-- 800 -->
      <g transform="translate(511.521140625 331.639821429)scale(0.12 -0.12)">
       <use xlink:href="#BitstreamVeraSans-Roman-2212"/>
       <use x="83.7890625" xlink:href="#BitstreamVeraSans-Roman-38"/>
       <use x="147.412109375" xlink:href="#BitstreamVeraSans-Roman-30"/>
       <use x="211.03515625" xlink:href="#BitstreamVeraSans-Roman-30"/>
      </g>
     </g>
    </g>
    <g id="ytick_8">
     <g id="line2d_40">
      <g>
       <use style="stroke:#000000;stroke-width:0.5;" x="507.521140625" xlink:href="#mcb0005524f" y="276.817142857"/>
      </g>
     </g>
     <g id="text_17">
      <!-- 400 -->
      <g transform="translate(511.521140625 280.128392857)scale(0.12 -0.12)">
       <use xlink:href="#BitstreamVeraSans-Roman-2212"/>
       <use x="83.7890625" xlink:href="#BitstreamVeraSans-Roman-34"/>
       <use x="147.412109375" xlink:href="#BitstreamVeraSans-Roman-30"/>
       <use x="211.03515625" xlink:href="#BitstreamVeraSans-Roman-30"/>
      </g>
     </g>
    </g>
    <g id="ytick_9">
     <g id="line2d_41">
      <g>
       <use style="stroke:#000000;stroke-width:0.5;" x="507.521140625" xlink:href="#mcb0005524f" y="225.305714286"/>
      </g>
     </g>
     <g id="text_18">
      <!-- 0 -->
      <g transform="translate(511.521140625 228.616964286)scale(0.12 -0.12)">
       <use xlink:href="#BitstreamVeraSans-Roman-30"/>
      </g>
     </g>
    </g>
    <g id="ytick_10">
     <g id="line2d_42">
      <g>
       <use style="stroke:#000000;stroke-width:0.5;" x="507.521140625" xlink:href="#mcb0005524f" y="173.794285714"/>
      </g>
     </g>
     <g id="text_19">
      <!-- 400 -->
      <g transform="translate(511.521140625 177.105535714)scale(0.12 -0.12)">
       <use xlink:href="#BitstreamVeraSans-Roman-34"/>
       <use x="63.623046875" xlink:href="#BitstreamVeraSans-Roman-30"/>
       <use x="127.24609375" xlink:href="#BitstreamVeraSans-Roman-30"/>
      </g>
     </g>
    </g>
    <g id="ytick_11">
     <g id="line2d_43">
      <g>
       <use style="stroke:#000000;stroke-width:0.5;" x="507.521140625" xlink:href="#mcb0005524f" y="122.282857143"/>
      </g>
     </g>
     <g id="text_20">
      <!-- 800 -->
      <g transform="translate(511.521140625 125.594107143)scale(0.12 -0.12)">
       <use xlink:href="#BitstreamVeraSans-Roman-38"/>
       <use x="63.623046875" xlink:href="#BitstreamVeraSans-Roman-30"/>
       <use x="127.24609375" xlink:href="#BitstreamVeraSans-Roman-30"/>
      </g>
     </g>
    </g>
    <g id="ytick_12">
     <g id="line2d_44">
      <g>
       <use style="stroke:#000000;stroke-width:0.5;" x="507.521140625" xlink:href="#mcb0005524f" y="70.7714285714"/>
      </g>
     </g>
     <g id="text_21">
      <!-- 1200 -->
      <g transform="translate(511.521140625 74.0826785714)scale(0.12 -0.12)">
       <use xlink:href="#BitstreamVeraSans-Roman-31"/>
       <use x="63.623046875" xlink:href="#BitstreamVeraSans-Roman-32"/>
       <use x="127.24609375" xlink:href="#BitstreamVeraSans-Roman-30"/>
       <use x="190.869140625" xlink:href="#BitstreamVeraSans-Roman-30"/>
      </g>
     </g>
    </g>
    <g id="ytick_13">
     <g id="line2d_45">
      <g>
       <use style="stroke:#000000;stroke-width:0.5;" x="507.521140625" xlink:href="#mcb0005524f" y="19.26"/>
      </g>
     </g>
     <g id="text_22">
      <!-- 1600 -->
      <g transform="translate(511.521140625 22.57125)scale(0.12 -0.12)">
       <use xlink:href="#BitstreamVeraSans-Roman-31"/>
       <use x="63.623046875" xlink:href="#BitstreamVeraSans-Roman-36"/>
       <use x="127.24609375" xlink:href="#BitstreamVeraSans-Roman-30"/>
       <use x="190.869140625" xlink:href="#BitstreamVeraSans-Roman-30"/>
      </g>
     </g>
    </g>
   </g>
  </g>
 </g>
 <defs>
  <clipPath id="pa4674fbac0">
   <rect height="360.58" width="392.25525" x="72.7209375" y="19.26"/>
  </clipPath>
  <clipPath id="pf644aa99f1">
   <rect height="360.58" width="18.029" x="489.492140625" y="19.26"/>
  </clipPath>
 </defs>
</svg>
