<?xml version="1.0" encoding="utf-8" standalone="no"?>
<!DOCTYPE svg PUBLIC "-//W3C//DTD SVG 1.1//EN"
  "http://www.w3.org/Graphics/SVG/1.1/DTD/svg11.dtd">
<!-- Created with matplotlib (http://matplotlib.org/) -->
<svg height="432pt" version="1.1" viewBox="0 0 576 432" width="576pt" xmlns="http://www.w3.org/2000/svg" xmlns:xlink="http://www.w3.org/1999/xlink">
 <defs>
  <style type="text/css">
*{stroke-linecap:butt;stroke-linejoin:round;}
  </style>
 </defs>
 <g id="figure_1">
  <g id="patch_1">
   <path d="
M0 432
L576 432
L576 0
L0 0
z
" style="fill:#ffffff;"/>
  </g>
  <g id="axes_1">
   <g id="patch_2">
    <path d="
M72.7209 379.84
L464.976 379.84
L464.976 19.26
L72.7209 19.26
z
" style="fill:#ffffff;"/>
   </g>
   <g id="PathCollection_1">
    <defs>
     <path d="
M72.7209 -285.262
L72.7209 -284.777
L87.5207 -285.262
L72.7209 -288.404
L72.7209 -285.262" id="C0_0_63dff46e48"/>
    </defs>
    <g clip-path="url(#pa4674fbac0)">
     <use style="fill:#101010;" x="0.0" xlink:href="#C0_0_63dff46e48" y="432.0"/>
    </g>
   </g>
   <g id="PathCollection_2">
    <defs>
     <path d="
M464.976 -179.338
L464.976 -179.638
L464.976 -180.471
L444.525 -179.638
L464.976 -179.338" id="C1_0_96cde0e59f"/>
     <path d="
M72.7209 -241.556
L72.7209 -241.436
L79.2697 -241.556
L72.7209 -241.724
L72.7209 -241.556" id="C1_1_52be87be56"/>
     <path d="
M464.976 -241.296
L464.976 -241.556
L464.976 -242.193
L455.713 -241.556
L464.976 -241.296" id="C1_2_9c2afdb261"/>
     <path d="
M72.7209 -263.409
L72.7209 -261.014
L151.172 -262.247
L229.623 -262.025
L308.074 -261.801
L386.525 -261.91
L464.976 -263.001
L464.976 -263.409
L464.976 -263.727
L386.525 -264.565
L308.074 -264.841
L229.623 -264.356
L151.172 -264.253
L72.7209 -264.967
L72.7209 -263.409" id="C1_3_b8282811ab"/>
     <path d="
M72.7209 -284.777
L72.7209 -282.263
L151.172 -284.74
L229.623 -284.808
L308.074 -284.812
L357.228 -285.262
L386.525 -286.489
L421.585 -288.904
L386.525 -289.702
L308.074 -290.921
L229.623 -290.797
L151.172 -290.13
L72.7209 -291.588
L72.7209 -288.904
L72.7209 -288.404
L87.5207 -285.262
L72.7209 -284.777" id="C1_4_2248f892bd"/>
     <path d="
M72.7209 -379.96
L72.7209 -376.497
L151.172 -379.913
L229.623 -378.997
L308.074 -379.191
L356.335 -379.96
L308.074 -380.544
L229.623 -380.589
L151.172 -379.987
L72.7209 -381.296
L72.7209 -379.96" id="C1_5_67f4357682"/>
    </defs>
    <g clip-path="url(#pa4674fbac0)">
     <use style="fill:#303030;" x="0.0" xlink:href="#C1_0_96cde0e59f" y="432.0"/>
    </g>
    <g clip-path="url(#pa4674fbac0)">
     <use style="fill:#303030;" x="0.0" xlink:href="#C1_1_52be87be56" y="432.0"/>
    </g>
    <g clip-path="url(#pa4674fbac0)">
     <use style="fill:#303030;" x="0.0" xlink:href="#C1_2_9c2afdb261" y="432.0"/>
    </g>
    <g clip-path="url(#pa4674fbac0)">
     <use style="fill:#303030;" x="0.0" xlink:href="#C1_3_b8282811ab" y="432.0"/>
    </g>
    <g clip-path="url(#pa4674fbac0)">
     <use style="fill:#303030;" x="0.0" xlink:href="#C1_4_2248f892bd" y="432.0"/>
    </g>
    <g clip-path="url(#pa4674fbac0)">
     <use style="fill:#303030;" x="0.0" xlink:href="#C1_5_67f4357682" y="432.0"/>
    </g>
   </g>
   <g id="PathCollection_3">
    <defs>
     <path d="
M308.074 -146.797
L386.525 -146.467
L464.976 -145.032
L464.976 -146.858
L464.976 -150.5
L464.976 -151.587
L386.525 -151.878
L343.609 -150.5
L308.074 -147.201
L292.786 -146.858
L308.074 -146.797" id="C2_0_e507a43f17"/>
     <path d="
M72.7209 -157.784
L72.7209 -154.75
L109.607 -157.784
L72.7209 -158.51
L72.7209 -157.784" id="C2_1_091b8d6b61"/>
     <path d="
M308.074 -157.188
L386.525 -157.522
L390.113 -157.784
L386.525 -157.893
L308.074 -158.655
L242.03 -157.784
L308.074 -157.188" id="C2_2_f33303137d"/>
     <path d="
M386.525 -168.695
L464.976 -168.705
L464.976 -168.711
L464.976 -172.353
L464.976 -175.785
L386.525 -174.951
L308.074 -174.111
L229.623 -173.404
L151.172 -175.26
L125.395 -175.996
L151.172 -176.961
L229.623 -178.619
L308.074 -177.423
L386.525 -176.581
L464.976 -176.068
L464.976 -179.338
L444.525 -179.638
L464.976 -180.471
L464.976 -183.28
L464.976 -185.296
L386.525 -185.194
L308.074 -184.684
L237.381 -183.28
L229.623 -182.716
L213.668 -183.28
L151.172 -183.708
L72.7209 -184.611
L72.7209 -183.28
L72.7209 -179.638
L72.7209 -175.996
L72.7209 -172.353
L72.7209 -169.914
L151.172 -170.483
L229.623 -170.563
L308.074 -170.3
L385.299 -168.711
L386.525 -168.695" id="C2_3_03fcd0ecc9"/>
     <path d="
M72.7209 -194.207
L72.7209 -194.201
L75.5459 -194.207
L72.7209 -194.215
L72.7209 -194.207" id="C2_4_a78e130892"/>
     <path d="
M308.074 -193.871
L386.525 -193.439
L464.976 -193.998
L464.976 -194.207
L464.976 -195.086
L415.735 -197.849
L386.525 -198.363
L308.074 -197.994
L292.468 -197.849
L241.88 -194.207
L308.074 -193.871" id="C2_5_d3bd27edb6"/>
     <path d="
M72.7209 -241.436
L72.7209 -239.355
L151.172 -239.948
L224.677 -241.556
L151.172 -243.001
L72.7209 -244.659
L72.7209 -241.724
L79.2697 -241.556
L72.7209 -241.436" id="C2_6_4bdbc6c282"/>
     <path d="
M386.525 -239.809
L464.976 -238.054
L464.976 -241.296
L455.713 -241.556
L464.976 -242.193
L464.976 -245.198
L464.976 -248.34
L428.234 -248.84
L386.525 -249.718
L308.074 -250.795
L229.623 -250.693
L174.485 -248.84
L229.623 -248.184
L308.074 -247.221
L340.814 -245.198
L323.802 -241.556
L386.525 -239.809" id="C2_7_9f96145d65"/>
     <path d="
M72.7209 -248.84
L72.7209 -246.234
L145.098 -248.84
L72.7209 -251.371
L72.7209 -248.84" id="C2_8_7d20f8d119"/>
     <path d="
M72.7209 -259.767
L72.7209 -258.548
L151.172 -258.846
L229.623 -258.748
L308.074 -259.294
L386.525 -259.289
L464.976 -259.675
L464.976 -259.767
L464.976 -263.001
L386.525 -261.91
L308.074 -261.801
L229.623 -262.025
L151.172 -262.247
L72.7209 -261.014
L72.7209 -259.767" id="C2_9_b48ff336c1"/>
     <path d="
M72.7209 -266.668
L72.7209 -264.967
L151.172 -264.253
L229.623 -264.356
L308.074 -264.841
L386.525 -264.565
L464.976 -263.727
L464.976 -266.349
L386.525 -266.777
L313.243 -267.051
L308.074 -267.068
L302.321 -267.051
L229.623 -266.783
L151.172 -266.837
L72.7209 -266.668" id="C2_a_db93dbede6"/>
     <path d="
M72.7209 -281.62
L72.7209 -279.932
L150.214 -281.62
L151.172 -281.648
L229.623 -282.189
L308.074 -282.29
L386.525 -282.8
L464.976 -283.289
L464.976 -285.262
L464.976 -288.904
L464.976 -291.825
L432.008 -292.547
L386.525 -293.761
L308.074 -293.755
L229.623 -293.672
L151.172 -293.476
L72.7209 -293.909
L72.7209 -292.547
L72.7209 -291.588
L151.172 -290.13
L229.623 -290.797
L308.074 -290.921
L386.525 -289.702
L421.585 -288.904
L386.525 -286.489
L357.228 -285.262
L308.074 -284.812
L229.623 -284.808
L151.172 -284.74
L72.7209 -282.263
L72.7209 -281.62" id="C2_b_52215e9000"/>
     <path d="
M72.7209 -310.758
L72.7209 -307.241
L150.03 -310.758
L72.7209 -311.698
L72.7209 -310.758" id="C2_c_a5b86d28ce"/>
     <path d="
M229.623 -310.554
L252.074 -310.758
L229.623 -310.942
L160.712 -310.758
L229.623 -310.554" id="C2_d_25d3d12f1c"/>
     <path d="
M72.7209 -347.18
L72.7209 -346.625
L134.313 -347.18
L151.172 -348.194
L179.979 -347.18
L229.623 -346.834
L308.074 -347.101
L313.869 -347.18
L386.525 -349.014
L455.009 -350.822
L386.525 -353.847
L308.074 -353.961
L229.623 -354.027
L151.172 -353.929
L133.87 -354.464
L72.7209 -357.955
L72.7209 -354.464
L72.7209 -350.822
L72.7209 -347.18" id="C2_e_6261b9c6f4"/>
     <path d="
M72.7209 -372.676
L72.7209 -371.767
L112.122 -372.676
L151.172 -374.491
L229.623 -374.059
L308.074 -374.549
L386.525 -375.124
L437.649 -376.318
L464.976 -377.059
L464.976 -379.96
L464.976 -383.602
L464.976 -384.823
L386.525 -384.28
L308.074 -384.172
L229.623 -383.984
L179.988 -383.602
L151.172 -383.269
L72.7209 -383.242
L72.7209 -381.296
L151.172 -379.987
L229.623 -380.589
L308.074 -380.544
L356.335 -379.96
L308.074 -379.191
L229.623 -378.997
L151.172 -379.913
L72.7209 -376.497
L72.7209 -376.318
L72.7209 -372.676" id="C2_f_d3e34b79fe"/>
    </defs>
    <g clip-path="url(#pa4674fbac0)">
     <use style="fill:#505050;" x="0.0" xlink:href="#C2_0_e507a43f17" y="432.0"/>
    </g>
    <g clip-path="url(#pa4674fbac0)">
     <use style="fill:#505050;" x="0.0" xlink:href="#C2_1_091b8d6b61" y="432.0"/>
    </g>
    <g clip-path="url(#pa4674fbac0)">
     <use style="fill:#505050;" x="0.0" xlink:href="#C2_2_f33303137d" y="432.0"/>
    </g>
    <g clip-path="url(#pa4674fbac0)">
     <use style="fill:#505050;" x="0.0" xlink:href="#C2_3_03fcd0ecc9" y="432.0"/>
    </g>
    <g clip-path="url(#pa4674fbac0)">
     <use style="fill:#505050;" x="0.0" xlink:href="#C2_4_a78e130892" y="432.0"/>
    </g>
    <g clip-path="url(#pa4674fbac0)">
     <use style="fill:#505050;" x="0.0" xlink:href="#C2_5_d3bd27edb6" y="432.0"/>
    </g>
    <g clip-path="url(#pa4674fbac0)">
     <use style="fill:#505050;" x="0.0" xlink:href="#C2_6_4bdbc6c282" y="432.0"/>
    </g>
    <g clip-path="url(#pa4674fbac0)">
     <use style="fill:#505050;" x="0.0" xlink:href="#C2_7_9f96145d65" y="432.0"/>
    </g>
    <g clip-path="url(#pa4674fbac0)">
     <use style="fill:#505050;" x="0.0" xlink:href="#C2_8_7d20f8d119" y="432.0"/>
    </g>
    <g clip-path="url(#pa4674fbac0)">
     <use style="fill:#505050;" x="0.0" xlink:href="#C2_9_b48ff336c1" y="432.0"/>
    </g>
    <g clip-path="url(#pa4674fbac0)">
     <use style="fill:#505050;" x="0.0" xlink:href="#C2_a_db93dbede6" y="432.0"/>
    </g>
    <g clip-path="url(#pa4674fbac0)">
     <use style="fill:#505050;" x="0.0" xlink:href="#C2_b_52215e9000" y="432.0"/>
    </g>
    <g clip-path="url(#pa4674fbac0)">
     <use style="fill:#505050;" x="0.0" xlink:href="#C2_c_a5b86d28ce" y="432.0"/>
    </g>
    <g clip-path="url(#pa4674fbac0)">
     <use style="fill:#505050;" x="0.0" xlink:href="#C2_d_25d3d12f1c" y="432.0"/>
    </g>
    <g clip-path="url(#pa4674fbac0)">
     <use style="fill:#505050;" x="0.0" xlink:href="#C2_e_6261b9c6f4" y="432.0"/>
    </g>
    <g clip-path="url(#pa4674fbac0)">
     <use style="fill:#505050;" x="0.0" xlink:href="#C2_f_d3e34b79fe" y="432.0"/>
    </g>
   </g>
   <g id="PathCollection_4">
    <defs>
     <path d="
M72.7209 -52.16
L151.172 -52.16
L229.623 -52.16
L308.074 -52.16
L386.525 -52.16
L464.976 -52.16
L464.976 -55.8022
L464.976 -59.4444
L464.976 -63.0867
L464.976 -66.7289
L464.976 -70.3711
L464.976 -74.0133
L464.976 -77.6556
L464.976 -79.6768
L436.538 -77.6556
L423.251 -74.0133
L423.569 -70.3711
L386.525 -66.7289
L308.074 -66.7289
L229.623 -66.7289
L151.172 -66.7289
L72.7209 -66.7289
L72.7209 -66.7289
L72.7209 -63.0867
L72.7209 -59.4444
L72.7209 -55.8022
L72.7209 -52.16" id="C3_0_8c4cea3c34"/>
     <path d="
M386.525 -121.225
L464.976 -118.394
L464.976 -121.362
L464.976 -122.106
L397.023 -125.004
L386.525 -125.269
L339.145 -125.004
L381.39 -121.362
L386.525 -121.225" id="C3_1_051aa7916c"/>
     <path d="
M72.7209 -143.216
L72.7209 -141.665
L151.172 -142.482
L229.623 -141.781
L308.074 -141.858
L386.525 -141.775
L464.976 -140.62
L464.976 -143.216
L464.976 -145.032
L386.525 -146.467
L308.074 -146.797
L292.786 -146.858
L308.074 -147.201
L343.609 -150.5
L386.525 -151.878
L464.976 -151.587
L464.976 -154.142
L464.976 -157.784
L464.976 -161.427
L464.976 -165.069
L464.976 -168.705
L386.525 -168.695
L385.299 -168.711
L308.074 -170.3
L229.623 -170.563
L151.172 -170.483
L72.7209 -169.914
L72.7209 -168.711
L72.7209 -165.069
L72.7209 -161.427
L72.7209 -158.51
L109.607 -157.784
L72.7209 -154.75
L72.7209 -154.142
L72.7209 -150.5
L72.7209 -146.858
L72.7209 -143.216
M308.074 -157.188
L242.03 -157.784
L308.074 -158.655
L386.525 -157.893
L390.113 -157.784
L386.525 -157.522
L308.074 -157.188" id="C3_2_daccc6a700"/>
     <path d="
M151.172 -175.26
L229.623 -173.404
L308.074 -174.111
L386.525 -174.951
L464.976 -175.785
L464.976 -175.996
L464.976 -176.068
L386.525 -176.581
L308.074 -177.423
L229.623 -178.619
L151.172 -176.961
L125.395 -175.996
L151.172 -175.26" id="C3_3_b5c2ce8387"/>
     <path d="
M229.623 -182.716
L237.381 -183.28
L308.074 -184.684
L386.525 -185.194
L464.976 -185.296
L464.976 -186.922
L464.976 -189.418
L386.525 -189.557
L308.074 -190.195
L229.623 -190.493
L151.172 -187.807
L72.7209 -189.552
L72.7209 -186.922
L72.7209 -184.611
L151.172 -183.708
L213.668 -183.28
L229.623 -182.716" id="C3_4_fd52a33537"/>
     <path d="
M72.7209 -194.201
L72.7209 -190.78
L151.172 -191.465
L229.623 -190.577
L308.074 -190.76
L386.525 -190.911
L464.976 -191.145
L464.976 -193.998
L386.525 -193.439
L308.074 -193.871
L241.88 -194.207
L292.468 -197.849
L308.074 -197.994
L386.525 -198.363
L415.735 -197.849
L464.976 -195.086
L464.976 -197.849
L464.976 -201.491
L464.976 -205.133
L464.976 -208.776
L464.976 -212.418
L464.976 -216.06
L464.976 -216.613
L413.718 -216.06
L386.525 -215.215
L308.074 -213.298
L268.19 -212.418
L308.074 -210.649
L342.723 -208.776
L386.525 -207.647
L431.547 -205.133
L386.525 -202.628
L308.074 -201.894
L290.834 -201.491
L229.623 -200.689
L151.172 -200.561
L72.7209 -199.388
L72.7209 -197.849
L72.7209 -194.215
L75.5459 -194.207
L72.7209 -194.201" id="C3_5_a3a18c6898"/>
     <path d="
M151.172 -208.696
L154.448 -208.776
L151.172 -208.963
L123.59 -212.418
L73.269 -216.06
L72.7209 -216.082
L72.7209 -216.06
L72.7209 -212.418
L72.7209 -209.042
L129.944 -208.776
L151.172 -208.696" id="C3_6_e388a5ea3d"/>
     <path d="
M72.7209 -237.913
L72.7209 -237.386
L151.172 -236.85
L229.623 -236.401
L308.074 -236.547
L386.525 -236.657
L464.976 -236.268
L464.976 -237.913
L464.976 -238.054
L386.525 -239.809
L323.802 -241.556
L340.814 -245.198
L308.074 -247.221
L229.623 -248.184
L174.485 -248.84
L229.623 -250.693
L308.074 -250.795
L386.525 -249.718
L428.234 -248.84
L464.976 -248.34
L464.976 -248.84
L464.976 -252.482
L464.976 -254.432
L386.525 -254.259
L308.074 -255.255
L245.372 -256.124
L308.074 -256.767
L386.525 -257.404
L464.976 -257.358
L464.976 -259.675
L386.525 -259.289
L308.074 -259.294
L229.623 -258.748
L151.172 -258.846
L72.7209 -258.548
L72.7209 -256.216
L94.0625 -256.124
L72.7209 -255.954
L72.7209 -252.482
L72.7209 -251.371
L145.098 -248.84
L72.7209 -246.234
L72.7209 -245.198
L72.7209 -244.659
L151.172 -243.001
L224.677 -241.556
L151.172 -239.948
L72.7209 -239.355
L72.7209 -237.913" id="C3_7_bb45578eb3"/>
     <path d="
M72.7209 -267.051
L72.7209 -266.668
L151.172 -266.837
L229.623 -266.783
L302.321 -267.051
L308.074 -267.068
L313.243 -267.051
L386.525 -266.777
L464.976 -266.349
L464.976 -267.051
L464.976 -269.615
L386.525 -269.042
L308.074 -269.034
L229.623 -268.888
L151.172 -269.459
L72.7209 -268.859
L72.7209 -267.051" id="C3_8_c80e36a4cc"/>
     <path d="
M72.7209 -277.978
L72.7209 -277.62
L110.653 -277.978
L151.172 -278.452
L229.623 -278.725
L308.074 -278.657
L386.525 -279.121
L464.976 -279.548
L464.976 -281.62
L464.976 -283.289
L386.525 -282.8
L308.074 -282.29
L229.623 -282.189
L151.172 -281.648
L150.214 -281.62
L72.7209 -279.932
L72.7209 -277.978" id="C3_9_57aa1dacda"/>
     <path d="
M464.976 -291.825
L464.976 -292.547
L464.976 -296.189
L464.976 -298.598
L386.525 -297.346
L308.074 -296.455
L239.246 -296.189
L229.623 -296.151
L216.094 -296.189
L151.172 -296.403
L116.943 -296.189
L72.7209 -295.993
L72.7209 -293.909
L151.172 -293.476
L229.623 -293.672
L308.074 -293.755
L386.525 -293.761
L432.008 -292.547
L464.976 -291.825" id="C3_a_8032d43dd3"/>
     <path d="
M72.7209 -307.116
L72.7209 -305.243
L151.172 -306.922
L162.928 -307.116
L229.623 -308.026
L308.074 -308.865
L386.525 -309.624
L442.807 -310.758
L386.525 -311.82
L308.074 -313.101
L229.623 -313.238
L151.172 -312.928
L72.7209 -312.945
L72.7209 -311.698
L150.03 -310.758
L72.7209 -307.241
L72.7209 -307.116
M229.623 -310.554
L160.712 -310.758
L229.623 -310.942
L252.074 -310.758
L229.623 -310.554" id="C3_b_fcf601dd35"/>
     <path d="
M72.7209 -332.611
L72.7209 -331.982
L151.172 -330.843
L229.623 -331.351
L308.074 -331.398
L386.525 -330.851
L464.976 -330.429
L464.976 -332.611
L464.976 -335.127
L386.525 -334.197
L308.074 -333.624
L229.623 -333.246
L151.172 -333.255
L72.7209 -332.871
L72.7209 -332.611" id="C3_c_7f7a0623e7"/>
     <path d="
M72.7209 -346.625
L72.7209 -345.266
L151.172 -345.417
L229.623 -345.042
L308.074 -345.361
L386.525 -346.297
L438.327 -347.18
L464.976 -347.891
L464.976 -350.822
L464.976 -354.464
L464.976 -358.107
L464.976 -358.431
L386.525 -358.587
L308.074 -359.475
L229.623 -359.777
L151.172 -360.361
L72.7209 -359.875
L72.7209 -358.107
L72.7209 -357.955
L133.87 -354.464
L151.172 -353.929
L229.623 -354.027
L308.074 -353.961
L386.525 -353.847
L455.009 -350.822
L386.525 -349.014
L313.869 -347.18
L308.074 -347.101
L229.623 -346.834
L179.979 -347.18
L151.172 -348.194
L134.313 -347.18
L72.7209 -346.625" id="C3_d_ade9532849"/>
     <path d="
M72.7209 -371.767
L72.7209 -369.419
L151.172 -370.402
L229.623 -370.652
L308.074 -371.028
L386.525 -371.627
L464.976 -371.543
L464.976 -372.676
L464.976 -376.318
L464.976 -377.059
L437.649 -376.318
L386.525 -375.124
L308.074 -374.549
L229.623 -374.059
L151.172 -374.491
L112.122 -372.676
L72.7209 -371.767" id="C3_e_382fededd2"/>
     <path d="
M72.7209 -383.602
L72.7209 -383.242
L151.172 -383.269
L179.988 -383.602
L229.623 -383.984
L308.074 -384.172
L386.525 -384.28
L464.976 -384.823
L464.976 -387.244
L464.976 -388.703
L386.525 -387.734
L347.716 -387.244
L308.074 -386.631
L229.623 -386.168
L151.172 -386.561
L72.7209 -386.034
L72.7209 -383.602" id="C3_f_306c6d3122"/>
     <path d="
M72.7209 -398.171
L72.7209 -396.501
L151.172 -397.272
L229.623 -396.747
L308.074 -398.044
L314.687 -398.171
L386.525 -400.16
L434.485 -401.813
L386.525 -402.988
L308.074 -403.569
L229.623 -403.255
L151.172 -403.219
L72.7209 -403.06
L72.7209 -401.813
L72.7209 -398.171" id="C3_10_412c5844be"/>
    </defs>
    <g clip-path="url(#pa4674fbac0)">
     <use style="fill:#707070;" x="0.0" xlink:href="#C3_0_8c4cea3c34" y="432.0"/>
    </g>
    <g clip-path="url(#pa4674fbac0)">
     <use style="fill:#707070;" x="0.0" xlink:href="#C3_1_051aa7916c" y="432.0"/>
    </g>
    <g clip-path="url(#pa4674fbac0)">
     <use style="fill:#707070;" x="0.0" xlink:href="#C3_2_daccc6a700" y="432.0"/>
    </g>
    <g clip-path="url(#pa4674fbac0)">
     <use style="fill:#707070;" x="0.0" xlink:href="#C3_3_b5c2ce8387" y="432.0"/>
    </g>
    <g clip-path="url(#pa4674fbac0)">
     <use style="fill:#707070;" x="0.0" xlink:href="#C3_4_fd52a33537" y="432.0"/>
    </g>
    <g clip-path="url(#pa4674fbac0)">
     <use style="fill:#707070;" x="0.0" xlink:href="#C3_5_a3a18c6898" y="432.0"/>
    </g>
    <g clip-path="url(#pa4674fbac0)">
     <use style="fill:#707070;" x="0.0" xlink:href="#C3_6_e388a5ea3d" y="432.0"/>
    </g>
    <g clip-path="url(#pa4674fbac0)">
     <use style="fill:#707070;" x="0.0" xlink:href="#C3_7_bb45578eb3" y="432.0"/>
    </g>
    <g clip-path="url(#pa4674fbac0)">
     <use style="fill:#707070;" x="0.0" xlink:href="#C3_8_c80e36a4cc" y="432.0"/>
    </g>
    <g clip-path="url(#pa4674fbac0)">
     <use style="fill:#707070;" x="0.0" xlink:href="#C3_9_57aa1dacda" y="432.0"/>
    </g>
    <g clip-path="url(#pa4674fbac0)">
     <use style="fill:#707070;" x="0.0" xlink:href="#C3_a_8032d43dd3" y="432.0"/>
    </g>
    <g clip-path="url(#pa4674fbac0)">
     <use style="fill:#707070;" x="0.0" xlink:href="#C3_b_fcf601dd35" y="432.0"/>
    </g>
    <g clip-path="url(#pa4674fbac0)">
     <use style="fill:#707070;" x="0.0" xlink:href="#C3_c_7f7a0623e7" y="432.0"/>
    </g>
    <g clip-path="url(#pa4674fbac0)">
     <use style="fill:#707070;" x="0.0" xlink:href="#C3_d_ade9532849" y="432.0"/>
    </g>
    <g clip-path="url(#pa4674fbac0)">
     <use style="fill:#707070;" x="0.0" xlink:href="#C3_e_382fededd2" y="432.0"/>
    </g>
    <g clip-path="url(#pa4674fbac0)">
     <use style="fill:#707070;" x="0.0" xlink:href="#C3_f_306c6d3122" y="432.0"/>
    </g>
    <g clip-path="url(#pa4674fbac0)">
     <use style="fill:#707070;" x="0.0" xlink:href="#C3_10_412c5844be" y="432.0"/>
    </g>
   </g>
   <g id="PathCollection_5">
    <defs>
     <path d="
M72.7209 -70.3711
L72.7209 -66.7289
L151.172 -66.7289
L229.623 -66.7289
L308.074 -66.7289
L386.525 -66.7289
L423.569 -70.3711
L423.251 -74.0133
L436.538 -77.6556
L464.976 -79.6768
L464.976 -81.2978
L464.976 -84.94
L464.976 -88.5822
L464.976 -91.6692
L386.525 -92.0931
L308.074 -91.6906
L229.623 -91.4889
L185.71 -92.2244
L229.623 -94.3006
L308.074 -93.199
L386.525 -92.5524
L416.232 -95.8667
L414.401 -99.5089
L386.525 -100.458
L325.109 -103.151
L308.074 -104.252
L262.873 -106.793
L308.074 -108.402
L386.525 -108.279
L464.976 -107.828
L464.976 -110.436
L464.976 -114.078
L464.976 -117.72
L464.976 -118.394
L386.525 -121.225
L381.39 -121.362
L339.145 -125.004
L386.525 -125.269
L397.023 -125.004
L464.976 -122.106
L464.976 -125.004
L464.976 -126.846
L400.406 -128.647
L386.525 -129.382
L308.074 -131.805
L291.768 -132.289
L308.074 -135.32
L318.12 -135.931
L386.525 -136.678
L450.117 -135.931
L464.976 -135.807
L464.976 -135.931
L464.976 -139.573
L464.976 -140.62
L386.525 -141.775
L308.074 -141.858
L229.623 -141.781
L151.172 -142.482
L72.7209 -141.665
L72.7209 -139.573
L72.7209 -137.51
L115.068 -135.931
L116.117 -132.289
L72.7209 -129.324
L72.7209 -128.647
L72.7209 -125.004
L72.7209 -121.362
L72.7209 -117.72
L72.7209 -114.078
L72.7209 -110.436
L72.7209 -106.793
L72.7209 -103.151
L72.7209 -99.5089
L72.7209 -95.8667
L72.7209 -92.2244
L72.7209 -88.5822
L72.7209 -84.94
L72.7209 -81.2978
L72.7209 -77.6556
L72.7209 -74.0133
L72.7209 -70.3711
M151.172 -94.7036
L136.808 -95.8667
L151.172 -96.2011
L176.942 -95.8667
L151.172 -94.7036" id="C4_0_020331ffcc"/>
     <path d="
M72.7209 -190.564
L72.7209 -189.552
L151.172 -187.807
L229.623 -190.493
L308.074 -190.195
L386.525 -189.557
L464.976 -189.418
L464.976 -190.564
L464.976 -191.145
L386.525 -190.911
L308.074 -190.76
L229.623 -190.577
L151.172 -191.465
L72.7209 -190.78
L72.7209 -190.564" id="C4_1_20b107ced9"/>
     <path d="
M72.7209 -201.491
L72.7209 -199.388
L151.172 -200.561
L229.623 -200.689
L290.834 -201.491
L308.074 -201.894
L386.525 -202.628
L431.547 -205.133
L386.525 -207.647
L342.723 -208.776
L308.074 -210.649
L268.19 -212.418
L308.074 -213.298
L386.525 -215.215
L413.718 -216.06
L464.976 -216.613
L464.976 -219.257
L415.403 -219.702
L386.525 -220.452
L308.074 -220.531
L229.623 -221.29
L151.172 -221.537
L72.7209 -220.87
L72.7209 -219.702
L72.7209 -216.082
L73.269 -216.06
L123.59 -212.418
L151.172 -208.963
L154.448 -208.776
L151.172 -208.696
L129.944 -208.776
L72.7209 -209.042
L72.7209 -208.776
L72.7209 -205.133
L72.7209 -201.491" id="C4_2_0674faf73b"/>
     <path d="
M229.623 -233.551
L308.074 -233.363
L364.498 -234.271
L386.525 -234.435
L464.976 -234.548
L464.976 -236.268
L386.525 -236.657
L308.074 -236.547
L229.623 -236.401
L151.172 -236.85
L72.7209 -237.386
L72.7209 -235.669
L151.172 -234.85
L201.348 -234.271
L229.623 -233.551" id="C4_3_0a12ae20a4"/>
     <path d="
M72.7209 -256.124
L72.7209 -255.954
L94.0625 -256.124
L72.7209 -256.216
L72.7209 -256.124" id="C4_4_3484801fd7"/>
     <path d="
M308.074 -255.255
L386.525 -254.259
L464.976 -254.432
L464.976 -256.124
L464.976 -257.358
L386.525 -257.404
L308.074 -256.767
L245.372 -256.124
L308.074 -255.255" id="C4_5_db87c904f3"/>
     <path d="
M72.7209 -270.693
L72.7209 -268.859
L151.172 -269.459
L229.623 -268.888
L308.074 -269.034
L386.525 -269.042
L464.976 -269.615
L464.976 -270.693
L464.976 -274.336
L464.976 -277.978
L464.976 -279.548
L386.525 -279.121
L308.074 -278.657
L229.623 -278.725
L151.172 -278.452
L110.653 -277.978
L72.7209 -277.62
L72.7209 -275.043
L134.305 -274.336
L72.7209 -272.288
L72.7209 -270.693
M229.623 -272.436
L178.984 -274.336
L229.623 -274.869
L262.739 -274.336
L229.623 -272.436" id="C4_6_8358903128"/>
     <path d="
M72.7209 -296.189
L72.7209 -295.993
L116.943 -296.189
L151.172 -296.403
L216.094 -296.189
L229.623 -296.151
L239.246 -296.189
L308.074 -296.455
L386.525 -297.346
L464.976 -298.598
L464.976 -299.831
L464.976 -303.473
L464.976 -307.116
L464.976 -310.758
L464.976 -313.323
L421.53 -314.4
L386.525 -316.909
L308.074 -316.631
L229.623 -316.121
L151.172 -315.687
L99.1281 -314.4
L72.7209 -314.192
L72.7209 -312.945
L151.172 -312.928
L229.623 -313.238
L308.074 -313.101
L386.525 -311.82
L442.807 -310.758
L386.525 -309.624
L308.074 -308.865
L229.623 -308.026
L162.928 -307.116
L151.172 -306.922
L72.7209 -305.243
L72.7209 -303.473
L72.7209 -303.135
L102.36 -303.473
L151.172 -303.875
L229.623 -305.108
L308.074 -306.084
L386.525 -305.224
L461.901 -303.473
L392.993 -299.831
L386.525 -299.68
L308.074 -298.914
L229.623 -298.878
L151.172 -299.347
L72.7209 -298.144
L72.7209 -296.189" id="C4_7_4307f47016"/>
     <path d="
M464.976 -319.117
L464.976 -321.684
L464.976 -323.426
L416.979 -321.684
L464.976 -319.117" id="C4_8_9110c18f12"/>
     <path d="
M151.172 -325.319
L229.623 -324.201
L305.019 -325.327
L308.074 -325.435
L386.525 -325.389
L464.976 -325.614
L464.976 -328.969
L464.976 -330.429
L386.525 -330.851
L308.074 -331.398
L229.623 -331.351
L151.172 -330.843
L72.7209 -331.982
L72.7209 -328.969
L72.7209 -326.767
L150.54 -325.327
L151.172 -325.319" id="C4_9_d10cd3b8ce"/>
     <path d="
M72.7209 -334.587
L72.7209 -332.871
L151.172 -333.255
L229.623 -333.246
L308.074 -333.624
L386.525 -334.197
L464.976 -335.127
L464.976 -336.253
L464.976 -337.77
L386.525 -336.772
L313.922 -336.253
L308.074 -336.211
L229.623 -335.713
L151.172 -335.493
L72.7209 -334.587" id="C4_a_a3ac23ac75"/>
     <path d="
M151.172 -343.375
L229.623 -343.095
L290.018 -343.538
L308.074 -343.621
L386.525 -344.259
L464.976 -345.055
L464.976 -347.18
L464.976 -347.891
L438.327 -347.18
L386.525 -346.297
L308.074 -345.361
L229.623 -345.042
L151.172 -345.417
L72.7209 -345.266
L72.7209 -343.907
L138.397 -343.538
L151.172 -343.375" id="C4_b_0ec661f104"/>
     <path d="
M72.7209 -361.657
L72.7209 -359.875
L151.172 -360.361
L229.623 -359.777
L308.074 -359.475
L386.525 -358.587
L464.976 -358.431
L464.976 -361.749
L464.976 -365.391
L464.976 -369.033
L464.976 -371.543
L386.525 -371.627
L308.074 -371.028
L229.623 -370.652
L151.172 -370.402
L72.7209 -369.419
L72.7209 -369.033
L72.7209 -366.876
L151.172 -366.031
L229.623 -367.015
L308.074 -366.951
L386.525 -365.474
L388.628 -365.391
L386.525 -365.285
L308.074 -363.529
L229.623 -363.124
L151.172 -364.607
L80.1936 -361.749
L72.7209 -361.657" id="C4_c_7863749068"/>
     <path d="
M72.7209 -387.244
L72.7209 -386.034
L151.172 -386.561
L229.623 -386.168
L308.074 -386.631
L347.716 -387.244
L386.525 -387.734
L464.976 -388.703
L464.976 -390.887
L464.976 -391.649
L449.853 -390.887
L386.525 -389.742
L308.074 -388.914
L229.623 -389.191
L151.172 -390.166
L72.7209 -388.999
L72.7209 -387.244" id="C4_d_1360d774d0"/>
     <path d="
M72.7209 -394.529
L72.7209 -393.045
L151.172 -392.176
L229.623 -392.848
L294.157 -394.529
L308.074 -394.794
L386.525 -395.636
L464.976 -397.476
L464.976 -398.171
L464.976 -401.813
L464.976 -405.456
L464.976 -409.098
L464.976 -412.74
L386.525 -412.74
L308.074 -412.74
L229.623 -412.74
L151.172 -412.74
L72.7209 -412.74
L72.7209 -409.573
L97.5607 -409.098
L120.879 -405.456
L72.7209 -404.883
L72.7209 -403.06
L151.172 -403.219
L229.623 -403.255
L308.074 -403.569
L386.525 -402.988
L434.485 -401.813
L386.525 -400.16
L314.687 -398.171
L308.074 -398.044
L229.623 -396.747
L151.172 -397.272
L72.7209 -396.501
L72.7209 -394.529" id="C4_e_63e5bdb006"/>
    </defs>
    <g clip-path="url(#pa4674fbac0)">
     <use style="fill:#909090;" x="0.0" xlink:href="#C4_0_020331ffcc" y="432.0"/>
    </g>
    <g clip-path="url(#pa4674fbac0)">
     <use style="fill:#909090;" x="0.0" xlink:href="#C4_1_20b107ced9" y="432.0"/>
    </g>
    <g clip-path="url(#pa4674fbac0)">
     <use style="fill:#909090;" x="0.0" xlink:href="#C4_2_0674faf73b" y="432.0"/>
    </g>
    <g clip-path="url(#pa4674fbac0)">
     <use style="fill:#909090;" x="0.0" xlink:href="#C4_3_0a12ae20a4" y="432.0"/>
    </g>
    <g clip-path="url(#pa4674fbac0)">
     <use style="fill:#909090;" x="0.0" xlink:href="#C4_4_3484801fd7" y="432.0"/>
    </g>
    <g clip-path="url(#pa4674fbac0)">
     <use style="fill:#909090;" x="0.0" xlink:href="#C4_5_db87c904f3" y="432.0"/>
    </g>
    <g clip-path="url(#pa4674fbac0)">
     <use style="fill:#909090;" x="0.0" xlink:href="#C4_6_8358903128" y="432.0"/>
    </g>
    <g clip-path="url(#pa4674fbac0)">
     <use style="fill:#909090;" x="0.0" xlink:href="#C4_7_4307f47016" y="432.0"/>
    </g>
    <g clip-path="url(#pa4674fbac0)">
     <use style="fill:#909090;" x="0.0" xlink:href="#C4_8_9110c18f12" y="432.0"/>
    </g>
    <g clip-path="url(#pa4674fbac0)">
     <use style="fill:#909090;" x="0.0" xlink:href="#C4_9_d10cd3b8ce" y="432.0"/>
    </g>
    <g clip-path="url(#pa4674fbac0)">
     <use style="fill:#909090;" x="0.0" xlink:href="#C4_a_a3ac23ac75" y="432.0"/>
    </g>
    <g clip-path="url(#pa4674fbac0)">
     <use style="fill:#909090;" x="0.0" xlink:href="#C4_b_0ec661f104" y="432.0"/>
    </g>
    <g clip-path="url(#pa4674fbac0)">
     <use style="fill:#909090;" x="0.0" xlink:href="#C4_c_7863749068" y="432.0"/>
    </g>
    <g clip-path="url(#pa4674fbac0)">
     <use style="fill:#909090;" x="0.0" xlink:href="#C4_d_1360d774d0" y="432.0"/>
    </g>
    <g clip-path="url(#pa4674fbac0)">
     <use style="fill:#909090;" x="0.0" xlink:href="#C4_e_63e5bdb006" y="432.0"/>
    </g>
   </g>
   <g id="PathCollection_6">
    <defs>
     <path d="
M229.623 -91.4889
L308.074 -91.6906
L386.525 -92.0931
L464.976 -91.6692
L464.976 -92.2244
L464.976 -95.8667
L464.976 -99.5089
L464.976 -103.151
L464.976 -106.793
L464.976 -107.828
L386.525 -108.279
L308.074 -108.402
L262.873 -106.793
L308.074 -104.252
L325.109 -103.151
L386.525 -100.458
L414.401 -99.5089
L416.232 -95.8667
L386.525 -92.5524
L308.074 -93.199
L229.623 -94.3006
L185.71 -92.2244
L229.623 -91.4889" id="C5_0_bde09edff4"/>
     <path d="
M151.172 -94.7036
L176.942 -95.8667
L151.172 -96.2011
L136.808 -95.8667
L151.172 -94.7036" id="C5_1_60d1237b44"/>
     <path d="
M464.976 -126.846
L464.976 -128.647
L464.976 -132.289
L464.976 -135.807
L450.117 -135.931
L386.525 -136.678
L318.12 -135.931
L308.074 -135.32
L291.768 -132.289
L308.074 -131.805
L386.525 -129.382
L400.406 -128.647
L464.976 -126.846" id="C5_2_034df8d21e"/>
     <path d="
M72.7209 -132.289
L72.7209 -129.324
L116.117 -132.289
L115.068 -135.931
L72.7209 -137.51
L72.7209 -135.931
L72.7209 -132.289" id="C5_3_8eedb04f17"/>
     <path d="
M464.976 -219.257
L464.976 -219.702
L464.976 -223.344
L464.976 -226.987
L464.976 -230.629
L464.976 -234.271
L464.976 -234.548
L386.525 -234.435
L364.498 -234.271
L308.074 -233.363
L229.623 -233.551
L201.348 -234.271
L151.172 -234.85
L72.7209 -235.669
L72.7209 -234.271
L72.7209 -233.815
L151.172 -231.063
L168.522 -230.629
L151.172 -228.885
L144.524 -226.987
L87.2056 -223.344
L72.7209 -223.055
L72.7209 -220.87
L151.172 -221.537
L229.623 -221.29
L308.074 -220.531
L386.525 -220.452
L415.403 -219.702
L464.976 -219.257" id="C5_4_150a4f082b"/>
     <path d="
M72.7209 -274.336
L72.7209 -272.288
L134.305 -274.336
L72.7209 -275.043
L72.7209 -274.336" id="C5_5_dc8e6ec054"/>
     <path d="
M229.623 -272.436
L262.739 -274.336
L229.623 -274.869
L178.984 -274.336
L229.623 -272.436" id="C5_6_45ad2fb5a4"/>
     <path d="
M72.7209 -299.831
L72.7209 -298.144
L151.172 -299.347
L229.623 -298.878
L308.074 -298.914
L386.525 -299.68
L392.993 -299.831
L461.901 -303.473
L386.525 -305.224
L308.074 -306.084
L229.623 -305.108
L151.172 -303.875
L102.36 -303.473
L72.7209 -303.135
L72.7209 -299.831" id="C5_7_e8a1195f34"/>
     <path d="
M72.7209 -314.4
L72.7209 -314.192
L99.1281 -314.4
L151.172 -315.687
L229.623 -316.121
L308.074 -316.631
L386.525 -316.909
L421.53 -314.4
L464.976 -313.323
L464.976 -314.4
L464.976 -318.042
L464.976 -319.117
L416.979 -321.684
L464.976 -323.426
L464.976 -325.327
L464.976 -325.614
L386.525 -325.389
L308.074 -325.435
L305.019 -325.327
L229.623 -324.201
L151.172 -325.319
L150.54 -325.327
L72.7209 -326.767
L72.7209 -325.327
L72.7209 -322.695
L111.521 -321.684
L125.459 -318.042
L72.7209 -316.24
L72.7209 -314.4" id="C5_8_b8236851e5"/>
     <path d="
M72.7209 -336.253
L72.7209 -334.587
L151.172 -335.493
L229.623 -335.713
L308.074 -336.211
L313.922 -336.253
L386.525 -336.772
L464.976 -337.77
L464.976 -339.896
L464.976 -343.538
L464.976 -345.055
L386.525 -344.259
L308.074 -343.621
L290.018 -343.538
L229.623 -343.095
L151.172 -343.375
L138.397 -343.538
L72.7209 -343.907
L72.7209 -343.538
L72.7209 -342.11
L151.172 -340.289
L229.623 -340.34
L308.074 -340.666
L386.525 -340.824
L428.702 -339.896
L386.525 -339.33
L308.074 -339.145
L229.623 -339.273
L151.172 -339.306
L72.7209 -336.347
L72.7209 -336.253" id="C5_9_b3c07fe47a"/>
     <path d="
M72.7209 -361.749
L72.7209 -361.657
L80.1936 -361.749
L151.172 -364.607
L229.623 -363.124
L308.074 -363.529
L386.525 -365.285
L388.628 -365.391
L386.525 -365.474
L308.074 -366.951
L229.623 -367.015
L151.172 -366.031
L72.7209 -366.876
L72.7209 -365.391
L72.7209 -361.749" id="C5_a_52503a28eb"/>
     <path d="
M72.7209 -390.887
L72.7209 -388.999
L151.172 -390.166
L229.623 -389.191
L308.074 -388.914
L386.525 -389.742
L449.853 -390.887
L464.976 -391.649
L464.976 -394.529
L464.976 -397.476
L386.525 -395.636
L308.074 -394.794
L294.157 -394.529
L229.623 -392.848
L151.172 -392.176
L72.7209 -393.045
L72.7209 -390.887" id="C5_b_629375fbb9"/>
     <path d="
M72.7209 -405.456
L72.7209 -404.883
L120.879 -405.456
L97.5607 -409.098
L72.7209 -409.573
L72.7209 -409.098
L72.7209 -405.456" id="C5_c_373aa80cea"/>
    </defs>
    <g clip-path="url(#pa4674fbac0)">
     <use style="fill:#b0b0b0;" x="0.0" xlink:href="#C5_0_bde09edff4" y="432.0"/>
    </g>
    <g clip-path="url(#pa4674fbac0)">
     <use style="fill:#b0b0b0;" x="0.0" xlink:href="#C5_1_60d1237b44" y="432.0"/>
    </g>
    <g clip-path="url(#pa4674fbac0)">
     <use style="fill:#b0b0b0;" x="0.0" xlink:href="#C5_2_034df8d21e" y="432.0"/>
    </g>
    <g clip-path="url(#pa4674fbac0)">
     <use style="fill:#b0b0b0;" x="0.0" xlink:href="#C5_3_8eedb04f17" y="432.0"/>
    </g>
    <g clip-path="url(#pa4674fbac0)">
     <use style="fill:#b0b0b0;" x="0.0" xlink:href="#C5_4_150a4f082b" y="432.0"/>
    </g>
    <g clip-path="url(#pa4674fbac0)">
     <use style="fill:#b0b0b0;" x="0.0" xlink:href="#C5_5_dc8e6ec054" y="432.0"/>
    </g>
    <g clip-path="url(#pa4674fbac0)">
     <use style="fill:#b0b0b0;" x="0.0" xlink:href="#C5_6_45ad2fb5a4" y="432.0"/>
    </g>
    <g clip-path="url(#pa4674fbac0)">
     <use style="fill:#b0b0b0;" x="0.0" xlink:href="#C5_7_e8a1195f34" y="432.0"/>
    </g>
    <g clip-path="url(#pa4674fbac0)">
     <use style="fill:#b0b0b0;" x="0.0" xlink:href="#C5_8_b8236851e5" y="432.0"/>
    </g>
    <g clip-path="url(#pa4674fbac0)">
     <use style="fill:#b0b0b0;" x="0.0" xlink:href="#C5_9_b3c07fe47a" y="432.0"/>
    </g>
    <g clip-path="url(#pa4674fbac0)">
     <use style="fill:#b0b0b0;" x="0.0" xlink:href="#C5_a_52503a28eb" y="432.0"/>
    </g>
    <g clip-path="url(#pa4674fbac0)">
     <use style="fill:#b0b0b0;" x="0.0" xlink:href="#C5_b_629375fbb9" y="432.0"/>
    </g>
    <g clip-path="url(#pa4674fbac0)">
     <use style="fill:#b0b0b0;" x="0.0" xlink:href="#C5_c_373aa80cea" y="432.0"/>
    </g>
   </g>
   <g id="PathCollection_7">
    <defs>
     <path d="
M72.7209 -223.344
L72.7209 -223.055
L87.2056 -223.344
L144.524 -226.987
L151.172 -228.885
L168.522 -230.629
L151.172 -231.063
L72.7209 -233.815
L72.7209 -231.361
L92.1971 -230.629
L80.9965 -226.987
L72.7209 -226.511
L72.7209 -223.344" id="C6_0_0a66efb341"/>
     <path d="
M72.7209 -318.042
L72.7209 -316.24
L125.459 -318.042
L111.521 -321.684
L72.7209 -322.695
L72.7209 -321.684
L72.7209 -318.042" id="C6_1_28510c29a2"/>
     <path d="
M72.7209 -339.487
L72.7209 -336.347
L151.172 -339.306
L229.623 -339.273
L308.074 -339.145
L386.525 -339.33
L428.702 -339.896
L386.525 -340.824
L308.074 -340.666
L229.623 -340.34
L151.172 -340.289
L72.7209 -342.11
L72.7209 -340.15
L82.8947 -339.896
L72.7209 -339.487" id="C6_2_ef8e49ab83"/>
    </defs>
    <g clip-path="url(#pa4674fbac0)">
     <use style="fill:#d0d0d0;" x="0.0" xlink:href="#C6_0_0a66efb341" y="432.0"/>
    </g>
    <g clip-path="url(#pa4674fbac0)">
     <use style="fill:#d0d0d0;" x="0.0" xlink:href="#C6_1_28510c29a2" y="432.0"/>
    </g>
    <g clip-path="url(#pa4674fbac0)">
     <use style="fill:#d0d0d0;" x="0.0" xlink:href="#C6_2_ef8e49ab83" y="432.0"/>
    </g>
   </g>
   <g id="PathCollection_8">
    <defs>
     <path d="
M72.7209 -226.987
L72.7209 -226.511
L80.9965 -226.987
L92.1971 -230.629
L72.7209 -231.361
L72.7209 -230.629
L72.7209 -226.987" id="C7_0_4338016aa1"/>
     <path d="
M72.7209 -339.896
L72.7209 -339.487
L82.8947 -339.896
L72.7209 -340.15
L72.7209 -339.896" id="C7_1_4f023eb610"/>
    </defs>
    <g clip-path="url(#pa4674fbac0)">
     <use style="fill:#f0f0f0;" x="0.0" xlink:href="#C7_0_4338016aa1" y="432.0"/>
    </g>
    <g clip-path="url(#pa4674fbac0)">
     <use style="fill:#f0f0f0;" x="0.0" xlink:href="#C7_1_4f023eb610" y="432.0"/>
    </g>
   </g>
   <g id="line2d_1">
    <path clip-path="url(#pa4674fbac0)" d="
M72.7209 201.371
L151.172 201.371
L229.623 205.013
L308.074 205.013
L386.525 205.013
L464.976 208.656" style="fill:none;stroke:#000000;stroke-dasharray:6.000000,6.000000;stroke-dashoffset:0.0;"/>
   </g>
   <g id="patch_3">
    <path d="
M72.7209 19.26
L464.976 19.26" style="fill:none;stroke:#000000;stroke-linecap:square;stroke-linejoin:miter;"/>
   </g>
   <g id="patch_4">
    <path d="
M464.976 379.84
L464.976 19.26" style="fill:none;stroke:#000000;stroke-linecap:square;stroke-linejoin:miter;"/>
   </g>
   <g id="patch_5">
    <path d="
M72.7209 379.84
L464.976 379.84" style="fill:none;stroke:#000000;stroke-linecap:square;stroke-linejoin:miter;"/>
   </g>
   <g id="patch_6">
    <path d="
M72.7209 379.84
L72.7209 19.26" style="fill:none;stroke:#000000;stroke-linecap:square;stroke-linejoin:miter;"/>
   </g>
   <g id="matplotlib.axis_1">
    <g id="xtick_1">
     <g id="line2d_2">
      <path clip-path="url(#pa4674fbac0)" d="
M72.7209 379.84
L72.7209 19.26" style="fill:none;stroke:#000000;stroke-dasharray:1.000000,3.000000;stroke-dashoffset:0.0;stroke-width:0.5;"/>
     </g>
     <g id="line2d_3">
      <defs>
       <path d="
M0 0
L0 -4" id="m93b0483c22" style="stroke:#000000;stroke-width:0.5;"/>
      </defs>
      <g>
       <use style="stroke:#000000;stroke-width:0.5;" x="72.7209375" xlink:href="#m93b0483c22" y="379.84"/>
      </g>
     </g>
     <g id="line2d_4">
      <defs>
       <path d="
M0 0
L0 4" id="m741efc42ff" style="stroke:#000000;stroke-width:0.5;"/>
      </defs>
      <g>
       <use style="stroke:#000000;stroke-width:0.5;" x="72.7209375" xlink:href="#m741efc42ff" y="19.26"/>
      </g>
     </g>
     <g id="text_1">
      <!-- 24 -->
      <defs>
       <path d="
M19.1875 8.29688
L53.6094 8.29688
L53.6094 0
L7.32812 0
L7.32812 8.29688
Q12.9375 14.1094 22.625 23.8906
Q32.3281 33.6875 34.8125 36.5312
Q39.5469 41.8438 41.4219 45.5312
Q43.3125 49.2188 43.3125 52.7812
Q43.3125 58.5938 39.2344 62.25
Q35.1562 65.9219 28.6094 65.9219
Q23.9688 65.9219 18.8125 64.3125
Q13.6719 62.7031 7.8125 59.4219
L7.8125 69.3906
Q13.7656 71.7812 18.9375 73
Q24.125 74.2188 28.4219 74.2188
Q39.75 74.2188 46.4844 68.5469
Q53.2188 62.8906 53.2188 53.4219
Q53.2188 48.9219 51.5312 44.8906
Q49.8594 40.875 45.4062 35.4062
Q44.1875 33.9844 37.6406 27.2188
Q31.1094 20.4531 19.1875 8.29688" id="BitstreamVeraSans-Roman-32"/>
       <path d="
M37.7969 64.3125
L12.8906 25.3906
L37.7969 25.3906
z

M35.2031 72.9062
L47.6094 72.9062
L47.6094 25.3906
L58.0156 25.3906
L58.0156 17.1875
L47.6094 17.1875
L47.6094 0
L37.7969 0
L37.7969 17.1875
L4.89062 17.1875
L4.89062 26.7031
z
" id="BitstreamVeraSans-Roman-34"/>
      </defs>
      <g transform="translate(65.8621875 392.958125)scale(0.12 -0.12)">
       <use xlink:href="#BitstreamVeraSans-Roman-32"/>
       <use x="63.623046875" xlink:href="#BitstreamVeraSans-Roman-34"/>
      </g>
     </g>
    </g>
    <g id="xtick_2">
     <g id="line2d_5">
      <path clip-path="url(#pa4674fbac0)" d="
M151.172 379.84
L151.172 19.26" style="fill:none;stroke:#000000;stroke-dasharray:1.000000,3.000000;stroke-dashoffset:0.0;stroke-width:0.5;"/>
     </g>
     <g id="line2d_6">
      <g>
       <use style="stroke:#000000;stroke-width:0.5;" x="151.1719875" xlink:href="#m93b0483c22" y="379.84"/>
      </g>
     </g>
     <g id="line2d_7">
      <g>
       <use style="stroke:#000000;stroke-width:0.5;" x="151.1719875" xlink:href="#m741efc42ff" y="19.26"/>
      </g>
     </g>
     <g id="text_2">
      <!-- 25 -->
      <defs>
       <path d="
M10.7969 72.9062
L49.5156 72.9062
L49.5156 64.5938
L19.8281 64.5938
L19.8281 46.7344
Q21.9688 47.4688 24.1094 47.8281
Q26.2656 48.1875 28.4219 48.1875
Q40.625 48.1875 47.75 41.5
Q54.8906 34.8125 54.8906 23.3906
Q54.8906 11.625 47.5625 5.09375
Q40.2344 -1.42188 26.9062 -1.42188
Q22.3125 -1.42188 17.5469 -0.640625
Q12.7969 0.140625 7.71875 1.70312
L7.71875 11.625
Q12.1094 9.23438 16.7969 8.0625
Q21.4844 6.89062 26.7031 6.89062
Q35.1562 6.89062 40.0781 11.3281
Q45.0156 15.7656 45.0156 23.3906
Q45.0156 31 40.0781 35.4375
Q35.1562 39.8906 26.7031 39.8906
Q22.75 39.8906 18.8125 39.0156
Q14.8906 38.1406 10.7969 36.2812
z
" id="BitstreamVeraSans-Roman-35"/>
      </defs>
      <g transform="translate(144.5007375 392.958125)scale(0.12 -0.12)">
       <use xlink:href="#BitstreamVeraSans-Roman-32"/>
       <use x="63.623046875" xlink:href="#BitstreamVeraSans-Roman-35"/>
      </g>
     </g>
    </g>
    <g id="xtick_3">
     <g id="line2d_8">
      <path clip-path="url(#pa4674fbac0)" d="
M229.623 379.84
L229.623 19.26" style="fill:none;stroke:#000000;stroke-dasharray:1.000000,3.000000;stroke-dashoffset:0.0;stroke-width:0.5;"/>
     </g>
     <g id="line2d_9">
      <g>
       <use style="stroke:#000000;stroke-width:0.5;" x="229.6230375" xlink:href="#m93b0483c22" y="379.84"/>
      </g>
     </g>
     <g id="line2d_10">
      <g>
       <use style="stroke:#000000;stroke-width:0.5;" x="229.6230375" xlink:href="#m741efc42ff" y="19.26"/>
      </g>
     </g>
     <g id="text_3">
      <!-- 26 -->
      <defs>
       <path d="
M33.0156 40.375
Q26.375 40.375 22.4844 35.8281
Q18.6094 31.2969 18.6094 23.3906
Q18.6094 15.5312 22.4844 10.9531
Q26.375 6.39062 33.0156 6.39062
Q39.6562 6.39062 43.5312 10.9531
Q47.4062 15.5312 47.4062 23.3906
Q47.4062 31.2969 43.5312 35.8281
Q39.6562 40.375 33.0156 40.375
M52.5938 71.2969
L52.5938 62.3125
Q48.875 64.0625 45.0938 64.9844
Q41.3125 65.9219 37.5938 65.9219
Q27.8281 65.9219 22.6719 59.3281
Q17.5312 52.7344 16.7969 39.4062
Q19.6719 43.6562 24.0156 45.9219
Q28.375 48.1875 33.5938 48.1875
Q44.5781 48.1875 50.9531 41.5156
Q57.3281 34.8594 57.3281 23.3906
Q57.3281 12.1562 50.6875 5.35938
Q44.0469 -1.42188 33.0156 -1.42188
Q20.3594 -1.42188 13.6719 8.26562
Q6.98438 17.9688 6.98438 36.375
Q6.98438 53.6562 15.1875 63.9375
Q23.3906 74.2188 37.2031 74.2188
Q40.9219 74.2188 44.7031 73.4844
Q48.4844 72.75 52.5938 71.2969" id="BitstreamVeraSans-Roman-36"/>
      </defs>
      <g transform="translate(222.8055375 392.958125)scale(0.12 -0.12)">
       <use xlink:href="#BitstreamVeraSans-Roman-32"/>
       <use x="63.623046875" xlink:href="#BitstreamVeraSans-Roman-36"/>
      </g>
     </g>
    </g>
    <g id="xtick_4">
     <g id="line2d_11">
      <path clip-path="url(#pa4674fbac0)" d="
M308.074 379.84
L308.074 19.26" style="fill:none;stroke:#000000;stroke-dasharray:1.000000,3.000000;stroke-dashoffset:0.0;stroke-width:0.5;"/>
     </g>
     <g id="line2d_12">
      <g>
       <use style="stroke:#000000;stroke-width:0.5;" x="308.0740875" xlink:href="#m93b0483c22" y="379.84"/>
      </g>
     </g>
     <g id="line2d_13">
      <g>
       <use style="stroke:#000000;stroke-width:0.5;" x="308.0740875" xlink:href="#m741efc42ff" y="19.26"/>
      </g>
     </g>
     <g id="text_4">
      <!-- 27 -->
      <defs>
       <path d="
M8.20312 72.9062
L55.0781 72.9062
L55.0781 68.7031
L28.6094 0
L18.3125 0
L43.2188 64.5938
L8.20312 64.5938
z
" id="BitstreamVeraSans-Roman-37"/>
      </defs>
      <g transform="translate(301.3915875 392.958125)scale(0.12 -0.12)">
       <use xlink:href="#BitstreamVeraSans-Roman-32"/>
       <use x="63.623046875" xlink:href="#BitstreamVeraSans-Roman-37"/>
      </g>
     </g>
    </g>
    <g id="xtick_5">
     <g id="line2d_14">
      <path clip-path="url(#pa4674fbac0)" d="
M386.525 379.84
L386.525 19.26" style="fill:none;stroke:#000000;stroke-dasharray:1.000000,3.000000;stroke-dashoffset:0.0;stroke-width:0.5;"/>
     </g>
     <g id="line2d_15">
      <g>
       <use style="stroke:#000000;stroke-width:0.5;" x="386.5251375" xlink:href="#m93b0483c22" y="379.84"/>
      </g>
     </g>
     <g id="line2d_16">
      <g>
       <use style="stroke:#000000;stroke-width:0.5;" x="386.5251375" xlink:href="#m741efc42ff" y="19.26"/>
      </g>
     </g>
     <g id="text_5">
      <!-- 28 -->
      <defs>
       <path d="
M31.7812 34.625
Q24.75 34.625 20.7188 30.8594
Q16.7031 27.0938 16.7031 20.5156
Q16.7031 13.9219 20.7188 10.1562
Q24.75 6.39062 31.7812 6.39062
Q38.8125 6.39062 42.8594 10.1719
Q46.9219 13.9688 46.9219 20.5156
Q46.9219 27.0938 42.8906 30.8594
Q38.875 34.625 31.7812 34.625
M21.9219 38.8125
Q15.5781 40.375 12.0312 44.7188
Q8.5 49.0781 8.5 55.3281
Q8.5 64.0625 14.7188 69.1406
Q20.9531 74.2188 31.7812 74.2188
Q42.6719 74.2188 48.875 69.1406
Q55.0781 64.0625 55.0781 55.3281
Q55.0781 49.0781 51.5312 44.7188
Q48 40.375 41.7031 38.8125
Q48.8281 37.1562 52.7969 32.3125
Q56.7812 27.4844 56.7812 20.5156
Q56.7812 9.90625 50.3125 4.23438
Q43.8438 -1.42188 31.7812 -1.42188
Q19.7344 -1.42188 13.25 4.23438
Q6.78125 9.90625 6.78125 20.5156
Q6.78125 27.4844 10.7812 32.3125
Q14.7969 37.1562 21.9219 38.8125
M18.3125 54.3906
Q18.3125 48.7344 21.8438 45.5625
Q25.3906 42.3906 31.7812 42.3906
Q38.1406 42.3906 41.7188 45.5625
Q45.3125 48.7344 45.3125 54.3906
Q45.3125 60.0625 41.7188 63.2344
Q38.1406 66.4062 31.7812 66.4062
Q25.3906 66.4062 21.8438 63.2344
Q18.3125 60.0625 18.3125 54.3906" id="BitstreamVeraSans-Roman-38"/>
      </defs>
      <g transform="translate(379.74045 392.958125)scale(0.12 -0.12)">
       <use xlink:href="#BitstreamVeraSans-Roman-32"/>
       <use x="63.623046875" xlink:href="#BitstreamVeraSans-Roman-38"/>
      </g>
     </g>
    </g>
    <g id="xtick_6">
     <g id="line2d_17">
      <path clip-path="url(#pa4674fbac0)" d="
M464.976 379.84
L464.976 19.26" style="fill:none;stroke:#000000;stroke-dasharray:1.000000,3.000000;stroke-dashoffset:0.0;stroke-width:0.5;"/>
     </g>
     <g id="line2d_18">
      <g>
       <use style="stroke:#000000;stroke-width:0.5;" x="464.9761875" xlink:href="#m93b0483c22" y="379.84"/>
      </g>
     </g>
     <g id="line2d_19">
      <g>
       <use style="stroke:#000000;stroke-width:0.5;" x="464.9761875" xlink:href="#m741efc42ff" y="19.26"/>
      </g>
     </g>
     <g id="text_6">
      <!-- 29 -->
      <defs>
       <path d="
M10.9844 1.51562
L10.9844 10.5
Q14.7031 8.73438 18.5 7.8125
Q22.3125 6.89062 25.9844 6.89062
Q35.75 6.89062 40.8906 13.4531
Q46.0469 20.0156 46.7812 33.4062
Q43.9531 29.2031 39.5938 26.9531
Q35.25 24.7031 29.9844 24.7031
Q19.0469 24.7031 12.6719 31.3125
Q6.29688 37.9375 6.29688 49.4219
Q6.29688 60.6406 12.9375 67.4219
Q19.5781 74.2188 30.6094 74.2188
Q43.2656 74.2188 49.9219 64.5156
Q56.5938 54.8281 56.5938 36.375
Q56.5938 19.1406 48.4062 8.85938
Q40.2344 -1.42188 26.4219 -1.42188
Q22.7031 -1.42188 18.8906 -0.6875
Q15.0938 0.046875 10.9844 1.51562
M30.6094 32.4219
Q37.25 32.4219 41.125 36.9531
Q45.0156 41.5 45.0156 49.4219
Q45.0156 57.2812 41.125 61.8438
Q37.25 66.4062 30.6094 66.4062
Q23.9688 66.4062 20.0938 61.8438
Q16.2188 57.2812 16.2188 49.4219
Q16.2188 41.5 20.0938 36.9531
Q23.9688 32.4219 30.6094 32.4219" id="BitstreamVeraSans-Roman-39"/>
      </defs>
      <g transform="translate(458.20275 392.958125)scale(0.12 -0.12)">
       <use xlink:href="#BitstreamVeraSans-Roman-32"/>
       <use x="63.623046875" xlink:href="#BitstreamVeraSans-Roman-39"/>
      </g>
     </g>
    </g>
    <g id="text_7">
     <!-- Replay image index # -->
     <defs>
      <path id="BitstreamVeraSans-Roman-20"/>
      <path d="
M51.125 44
L36.9219 44
L32.8125 27.6875
L47.125 27.6875
z

M43.7969 71.7812
L38.7188 51.5156
L52.9844 51.5156
L58.1094 71.7812
L65.9219 71.7812
L60.8906 51.5156
L76.125 51.5156
L76.125 44
L58.9844 44
L54.9844 27.6875
L70.5156 27.6875
L70.5156 20.2188
L53.0781 20.2188
L48 0
L40.1875 0
L45.2188 20.2188
L30.9062 20.2188
L25.875 0
L18.0156 0
L23.0938 20.2188
L7.71875 20.2188
L7.71875 27.6875
L24.9062 27.6875
L29 44
L13.2812 44
L13.2812 51.5156
L30.9062 51.5156
L35.8906 71.7812
z
" id="BitstreamVeraSans-Roman-23"/>
      <path d="
M54.8906 33.0156
L54.8906 0
L45.9062 0
L45.9062 32.7188
Q45.9062 40.4844 42.875 44.3281
Q39.8438 48.1875 33.7969 48.1875
Q26.5156 48.1875 22.3125 43.5469
Q18.1094 38.9219 18.1094 30.9062
L18.1094 0
L9.07812 0
L9.07812 54.6875
L18.1094 54.6875
L18.1094 46.1875
Q21.3438 51.125 25.7031 53.5625
Q30.0781 56 35.7969 56
Q45.2188 56 50.0469 50.1719
Q54.8906 44.3438 54.8906 33.0156" id="BitstreamVeraSans-Roman-6e"/>
      <path d="
M52 44.1875
Q55.375 50.25 60.0625 53.125
Q64.75 56 71.0938 56
Q79.6406 56 84.2812 50.0156
Q88.9219 44.0469 88.9219 33.0156
L88.9219 0
L79.8906 0
L79.8906 32.7188
Q79.8906 40.5781 77.0938 44.375
Q74.3125 48.1875 68.6094 48.1875
Q61.625 48.1875 57.5625 43.5469
Q53.5156 38.9219 53.5156 30.9062
L53.5156 0
L44.4844 0
L44.4844 32.7188
Q44.4844 40.625 41.7031 44.4062
Q38.9219 48.1875 33.1094 48.1875
Q26.2188 48.1875 22.1562 43.5312
Q18.1094 38.875 18.1094 30.9062
L18.1094 0
L9.07812 0
L9.07812 54.6875
L18.1094 54.6875
L18.1094 46.1875
Q21.1875 51.2188 25.4844 53.6094
Q29.7812 56 35.6875 56
Q41.6562 56 45.8281 52.9688
Q50 49.9531 52 44.1875" id="BitstreamVeraSans-Roman-6d"/>
      <path d="
M9.42188 75.9844
L18.4062 75.9844
L18.4062 0
L9.42188 0
z
" id="BitstreamVeraSans-Roman-6c"/>
      <path d="
M44.3906 34.1875
Q47.5625 33.1094 50.5625 29.5938
Q53.5625 26.0781 56.5938 19.9219
L66.6094 0
L56 0
L46.6875 18.7031
Q43.0625 26.0312 39.6719 28.4219
Q36.2812 30.8125 30.4219 30.8125
L19.6719 30.8125
L19.6719 0
L9.8125 0
L9.8125 72.9062
L32.0781 72.9062
Q44.5781 72.9062 50.7344 67.6719
Q56.8906 62.4531 56.8906 51.9062
Q56.8906 45.0156 53.6875 40.4688
Q50.4844 35.9375 44.3906 34.1875
M19.6719 64.7969
L19.6719 38.9219
L32.0781 38.9219
Q39.2031 38.9219 42.8438 42.2188
Q46.4844 45.5156 46.4844 51.9062
Q46.4844 58.2969 42.8438 61.5469
Q39.2031 64.7969 32.0781 64.7969
z
" id="BitstreamVeraSans-Roman-52"/>
      <path d="
M9.42188 54.6875
L18.4062 54.6875
L18.4062 0
L9.42188 0
z

M9.42188 75.9844
L18.4062 75.9844
L18.4062 64.5938
L9.42188 64.5938
z
" id="BitstreamVeraSans-Roman-69"/>
      <path d="
M54.8906 54.6875
L35.1094 28.0781
L55.9062 0
L45.3125 0
L29.3906 21.4844
L13.4844 0
L2.875 0
L24.125 28.6094
L4.6875 54.6875
L15.2812 54.6875
L29.7812 35.2031
L44.2812 54.6875
z
" id="BitstreamVeraSans-Roman-78"/>
      <path d="
M32.1719 -5.07812
Q28.375 -14.8438 24.75 -17.8125
Q21.1406 -20.7969 15.0938 -20.7969
L7.90625 -20.7969
L7.90625 -13.2812
L13.1875 -13.2812
Q16.8906 -13.2812 18.9375 -11.5156
Q21 -9.76562 23.4844 -3.21875
L25.0938 0.875
L2.98438 54.6875
L12.5 54.6875
L29.5938 11.9219
L46.6875 54.6875
L56.2031 54.6875
z
" id="BitstreamVeraSans-Roman-79"/>
      <path d="
M56.2031 29.5938
L56.2031 25.2031
L14.8906 25.2031
Q15.4844 15.9219 20.4844 11.0625
Q25.4844 6.20312 34.4219 6.20312
Q39.5938 6.20312 44.4531 7.46875
Q49.3125 8.73438 54.1094 11.2812
L54.1094 2.78125
Q49.2656 0.734375 44.1875 -0.34375
Q39.1094 -1.42188 33.8906 -1.42188
Q20.7969 -1.42188 13.1562 6.1875
Q5.51562 13.8125 5.51562 26.8125
Q5.51562 40.2344 12.7656 48.1094
Q20.0156 56 32.3281 56
Q43.3594 56 49.7812 48.8906
Q56.2031 41.7969 56.2031 29.5938
M47.2188 32.2344
Q47.125 39.5938 43.0938 43.9844
Q39.0625 48.3906 32.4219 48.3906
Q24.9062 48.3906 20.3906 44.1406
Q15.875 39.8906 15.1875 32.1719
z
" id="BitstreamVeraSans-Roman-65"/>
      <path d="
M45.4062 46.3906
L45.4062 75.9844
L54.3906 75.9844
L54.3906 0
L45.4062 0
L45.4062 8.20312
Q42.5781 3.32812 38.25 0.953125
Q33.9375 -1.42188 27.875 -1.42188
Q17.9688 -1.42188 11.7344 6.48438
Q5.51562 14.4062 5.51562 27.2969
Q5.51562 40.1875 11.7344 48.0938
Q17.9688 56 27.875 56
Q33.9375 56 38.25 53.625
Q42.5781 51.2656 45.4062 46.3906
M14.7969 27.2969
Q14.7969 17.3906 18.875 11.75
Q22.9531 6.10938 30.0781 6.10938
Q37.2031 6.10938 41.2969 11.75
Q45.4062 17.3906 45.4062 27.2969
Q45.4062 37.2031 41.2969 42.8438
Q37.2031 48.4844 30.0781 48.4844
Q22.9531 48.4844 18.875 42.8438
Q14.7969 37.2031 14.7969 27.2969" id="BitstreamVeraSans-Roman-64"/>
      <path d="
M45.4062 27.9844
Q45.4062 37.75 41.375 43.1094
Q37.3594 48.4844 30.0781 48.4844
Q22.8594 48.4844 18.8281 43.1094
Q14.7969 37.75 14.7969 27.9844
Q14.7969 18.2656 18.8281 12.8906
Q22.8594 7.51562 30.0781 7.51562
Q37.3594 7.51562 41.375 12.8906
Q45.4062 18.2656 45.4062 27.9844
M54.3906 6.78125
Q54.3906 -7.17188 48.1875 -13.9844
Q42 -20.7969 29.2031 -20.7969
Q24.4688 -20.7969 20.2656 -20.0938
Q16.0625 -19.3906 12.1094 -17.9219
L12.1094 -9.1875
Q16.0625 -11.3281 19.9219 -12.3438
Q23.7812 -13.375 27.7812 -13.375
Q36.625 -13.375 41.0156 -8.76562
Q45.4062 -4.15625 45.4062 5.17188
L45.4062 9.625
Q42.625 4.78125 38.2812 2.39062
Q33.9375 0 27.875 0
Q17.8281 0 11.6719 7.65625
Q5.51562 15.3281 5.51562 27.9844
Q5.51562 40.6719 11.6719 48.3281
Q17.8281 56 27.875 56
Q33.9375 56 38.2812 53.6094
Q42.625 51.2188 45.4062 46.3906
L45.4062 54.6875
L54.3906 54.6875
z
" id="BitstreamVeraSans-Roman-67"/>
      <path d="
M34.2812 27.4844
Q23.3906 27.4844 19.1875 25
Q14.9844 22.5156 14.9844 16.5
Q14.9844 11.7188 18.1406 8.90625
Q21.2969 6.10938 26.7031 6.10938
Q34.1875 6.10938 38.7031 11.4062
Q43.2188 16.7031 43.2188 25.4844
L43.2188 27.4844
z

M52.2031 31.2031
L52.2031 0
L43.2188 0
L43.2188 8.29688
Q40.1406 3.32812 35.5469 0.953125
Q30.9531 -1.42188 24.3125 -1.42188
Q15.9219 -1.42188 10.9531 3.29688
Q6 8.01562 6 15.9219
Q6 25.1406 12.1719 29.8281
Q18.3594 34.5156 30.6094 34.5156
L43.2188 34.5156
L43.2188 35.4062
Q43.2188 41.6094 39.1406 45
Q35.0625 48.3906 27.6875 48.3906
Q23 48.3906 18.5469 47.2656
Q14.1094 46.1406 10.0156 43.8906
L10.0156 52.2031
Q14.9375 54.1094 19.5781 55.0469
Q24.2188 56 28.6094 56
Q40.4844 56 46.3438 49.8438
Q52.2031 43.7031 52.2031 31.2031" id="BitstreamVeraSans-Roman-61"/>
      <path d="
M18.1094 8.20312
L18.1094 -20.7969
L9.07812 -20.7969
L9.07812 54.6875
L18.1094 54.6875
L18.1094 46.3906
Q20.9531 51.2656 25.2656 53.625
Q29.5938 56 35.5938 56
Q45.5625 56 51.7812 48.0938
Q58.0156 40.1875 58.0156 27.2969
Q58.0156 14.4062 51.7812 6.48438
Q45.5625 -1.42188 35.5938 -1.42188
Q29.5938 -1.42188 25.2656 0.953125
Q20.9531 3.32812 18.1094 8.20312
M48.6875 27.2969
Q48.6875 37.2031 44.6094 42.8438
Q40.5312 48.4844 33.4062 48.4844
Q26.2656 48.4844 22.1875 42.8438
Q18.1094 37.2031 18.1094 27.2969
Q18.1094 17.3906 22.1875 11.75
Q26.2656 6.10938 33.4062 6.10938
Q40.5312 6.10938 44.6094 11.75
Q48.6875 17.3906 48.6875 27.2969" id="BitstreamVeraSans-Roman-70"/>
     </defs>
     <g transform="translate(203.1598125 414.571875)scale(0.12 -0.12)">
      <use xlink:href="#BitstreamVeraSans-Roman-52"/>
      <use x="64.982421875" xlink:href="#BitstreamVeraSans-Roman-65"/>
      <use x="126.505859375" xlink:href="#BitstreamVeraSans-Roman-70"/>
      <use x="189.982421875" xlink:href="#BitstreamVeraSans-Roman-6c"/>
      <use x="217.765625" xlink:href="#BitstreamVeraSans-Roman-61"/>
      <use x="279.044921875" xlink:href="#BitstreamVeraSans-Roman-79"/>
      <use x="338.224609375" xlink:href="#BitstreamVeraSans-Roman-20"/>
      <use x="370.01171875" xlink:href="#BitstreamVeraSans-Roman-69"/>
      <use x="397.794921875" xlink:href="#BitstreamVeraSans-Roman-6d"/>
      <use x="495.20703125" xlink:href="#BitstreamVeraSans-Roman-61"/>
      <use x="556.486328125" xlink:href="#BitstreamVeraSans-Roman-67"/>
      <use x="619.962890625" xlink:href="#BitstreamVeraSans-Roman-65"/>
      <use x="681.486328125" xlink:href="#BitstreamVeraSans-Roman-20"/>
      <use x="713.2734375" xlink:href="#BitstreamVeraSans-Roman-69"/>
      <use x="741.056640625" xlink:href="#BitstreamVeraSans-Roman-6e"/>
      <use x="804.435546875" xlink:href="#BitstreamVeraSans-Roman-64"/>
      <use x="867.912109375" xlink:href="#BitstreamVeraSans-Roman-65"/>
      <use x="927.685546875" xlink:href="#BitstreamVeraSans-Roman-78"/>
      <use x="986.865234375" xlink:href="#BitstreamVeraSans-Roman-20"/>
      <use x="1018.65234375" xlink:href="#BitstreamVeraSans-Roman-23"/>
     </g>
    </g>
   </g>
   <g id="matplotlib.axis_2">
    <g id="ytick_1">
     <g id="line2d_20">
      <path clip-path="url(#pa4674fbac0)" d="
M72.7209 343.418
L464.976 343.418" style="fill:none;stroke:#000000;stroke-dasharray:1.000000,3.000000;stroke-dashoffset:0.0;stroke-width:0.5;"/>
     </g>
     <g id="line2d_21">
      <defs>
       <path d="
M0 0
L4 0" id="m728421d6d4" style="stroke:#000000;stroke-width:0.5;"/>
      </defs>
      <g>
       <use style="stroke:#000000;stroke-width:0.5;" x="72.7209375" xlink:href="#m728421d6d4" y="343.417777778"/>
      </g>
     </g>
     <g id="line2d_22">
      <defs>
       <path d="
M0 0
L-4 0" id="mcb0005524f" style="stroke:#000000;stroke-width:0.5;"/>
      </defs>
      <g>
       <use style="stroke:#000000;stroke-width:0.5;" x="464.9761875" xlink:href="#mcb0005524f" y="343.417777778"/>
      </g>
     </g>
     <g id="text_8">
      <!-- 40 -->
      <defs>
       <path d="
M10.5938 35.5
L73.1875 35.5
L73.1875 27.2031
L10.5938 27.2031
z
" id="BitstreamVeraSans-Roman-2212"/>
       <path d="
M31.7812 66.4062
Q24.1719 66.4062 20.3281 58.9062
Q16.5 51.4219 16.5 36.375
Q16.5 21.3906 20.3281 13.8906
Q24.1719 6.39062 31.7812 6.39062
Q39.4531 6.39062 43.2812 13.8906
Q47.125 21.3906 47.125 36.375
Q47.125 51.4219 43.2812 58.9062
Q39.4531 66.4062 31.7812 66.4062
M31.7812 74.2188
Q44.0469 74.2188 50.5156 64.5156
Q56.9844 54.8281 56.9844 36.375
Q56.9844 17.9688 50.5156 8.26562
Q44.0469 -1.42188 31.7812 -1.42188
Q19.5312 -1.42188 13.0625 8.26562
Q6.59375 17.9688 6.59375 36.375
Q6.59375 54.8281 13.0625 64.5156
Q19.5312 74.2188 31.7812 74.2188" id="BitstreamVeraSans-Roman-30"/>
      </defs>
      <g transform="translate(45.4634375 346.729027778)scale(0.12 -0.12)">
       <use xlink:href="#BitstreamVeraSans-Roman-2212"/>
       <use x="83.7890625" xlink:href="#BitstreamVeraSans-Roman-34"/>
       <use x="147.412109375" xlink:href="#BitstreamVeraSans-Roman-30"/>
      </g>
     </g>
    </g>
    <g id="ytick_2">
     <g id="line2d_23">
      <path clip-path="url(#pa4674fbac0)" d="
M72.7209 270.573
L464.976 270.573" style="fill:none;stroke:#000000;stroke-dasharray:1.000000,3.000000;stroke-dashoffset:0.0;stroke-width:0.5;"/>
     </g>
     <g id="line2d_24">
      <g>
       <use style="stroke:#000000;stroke-width:0.5;" x="72.7209375" xlink:href="#m728421d6d4" y="270.573333333"/>
      </g>
     </g>
     <g id="line2d_25">
      <g>
       <use style="stroke:#000000;stroke-width:0.5;" x="464.9761875" xlink:href="#mcb0005524f" y="270.573333333"/>
      </g>
     </g>
     <g id="text_9">
      <!-- 20 -->
      <g transform="translate(45.4634375 273.884583333)scale(0.12 -0.12)">
       <use xlink:href="#BitstreamVeraSans-Roman-2212"/>
       <use x="83.7890625" xlink:href="#BitstreamVeraSans-Roman-32"/>
       <use x="147.412109375" xlink:href="#BitstreamVeraSans-Roman-30"/>
      </g>
     </g>
    </g>
    <g id="ytick_3">
     <g id="line2d_26">
      <path clip-path="url(#pa4674fbac0)" d="
M72.7209 197.729
L464.976 197.729" style="fill:none;stroke:#000000;stroke-dasharray:1.000000,3.000000;stroke-dashoffset:0.0;stroke-width:0.5;"/>
     </g>
     <g id="line2d_27">
      <g>
       <use style="stroke:#000000;stroke-width:0.5;" x="72.7209375" xlink:href="#m728421d6d4" y="197.728888889"/>
      </g>
     </g>
     <g id="line2d_28">
      <g>
       <use style="stroke:#000000;stroke-width:0.5;" x="464.9761875" xlink:href="#mcb0005524f" y="197.728888889"/>
      </g>
     </g>
     <g id="text_10">
      <!-- 0 -->
      <g transform="translate(62.6740625 201.040138889)scale(0.12 -0.12)">
       <use xlink:href="#BitstreamVeraSans-Roman-30"/>
      </g>
     </g>
    </g>
    <g id="ytick_4">
     <g id="line2d_29">
      <path clip-path="url(#pa4674fbac0)" d="
M72.7209 124.884
L464.976 124.884" style="fill:none;stroke:#000000;stroke-dasharray:1.000000,3.000000;stroke-dashoffset:0.0;stroke-width:0.5;"/>
     </g>
     <g id="line2d_30">
      <g>
       <use style="stroke:#000000;stroke-width:0.5;" x="72.7209375" xlink:href="#m728421d6d4" y="124.884444444"/>
      </g>
     </g>
     <g id="line2d_31">
      <g>
       <use style="stroke:#000000;stroke-width:0.5;" x="464.9761875" xlink:href="#mcb0005524f" y="124.884444444"/>
      </g>
     </g>
     <g id="text_11">
      <!-- 20 -->
      <g transform="translate(55.1271875 128.195694444)scale(0.12 -0.12)">
       <use xlink:href="#BitstreamVeraSans-Roman-32"/>
       <use x="63.623046875" xlink:href="#BitstreamVeraSans-Roman-30"/>
      </g>
     </g>
    </g>
    <g id="ytick_5">
     <g id="line2d_32">
      <path clip-path="url(#pa4674fbac0)" d="
M72.7209 52.04
L464.976 52.04" style="fill:none;stroke:#000000;stroke-dasharray:1.000000,3.000000;stroke-dashoffset:0.0;stroke-width:0.5;"/>
     </g>
     <g id="line2d_33">
      <g>
       <use style="stroke:#000000;stroke-width:0.5;" x="72.7209375" xlink:href="#m728421d6d4" y="52.04"/>
      </g>
     </g>
     <g id="line2d_34">
      <g>
       <use style="stroke:#000000;stroke-width:0.5;" x="464.9761875" xlink:href="#mcb0005524f" y="52.04"/>
      </g>
     </g>
     <g id="text_12">
      <!-- 40 -->
      <g transform="translate(54.8346875 55.35125)scale(0.12 -0.12)">
       <use xlink:href="#BitstreamVeraSans-Roman-34"/>
       <use x="63.623046875" xlink:href="#BitstreamVeraSans-Roman-30"/>
      </g>
     </g>
    </g>
    <g id="text_13">
     <!-- Shift -->
     <defs>
      <path d="
M18.3125 70.2188
L18.3125 54.6875
L36.8125 54.6875
L36.8125 47.7031
L18.3125 47.7031
L18.3125 18.0156
Q18.3125 11.3281 20.1406 9.42188
Q21.9688 7.51562 27.5938 7.51562
L36.8125 7.51562
L36.8125 0
L27.5938 0
Q17.1875 0 13.2344 3.875
Q9.28125 7.76562 9.28125 18.0156
L9.28125 47.7031
L2.6875 47.7031
L2.6875 54.6875
L9.28125 54.6875
L9.28125 70.2188
z
" id="BitstreamVeraSans-Roman-74"/>
      <path d="
M53.5156 70.5156
L53.5156 60.8906
Q47.9062 63.5781 42.9219 64.8906
Q37.9375 66.2188 33.2969 66.2188
Q25.25 66.2188 20.875 63.0938
Q16.5 59.9688 16.5 54.2031
Q16.5 49.3594 19.4062 46.8906
Q22.3125 44.4375 30.4219 42.9219
L36.375 41.7031
Q47.4062 39.5938 52.6562 34.2969
Q57.9062 29 57.9062 20.125
Q57.9062 9.51562 50.7969 4.04688
Q43.7031 -1.42188 29.9844 -1.42188
Q24.8125 -1.42188 18.9688 -0.25
Q13.1406 0.921875 6.89062 3.21875
L6.89062 13.375
Q12.8906 10.0156 18.6562 8.29688
Q24.4219 6.59375 29.9844 6.59375
Q38.4219 6.59375 43.0156 9.90625
Q47.6094 13.2344 47.6094 19.3906
Q47.6094 24.75 44.3125 27.7812
Q41.0156 30.8125 33.5 32.3281
L27.4844 33.5
Q16.4531 35.6875 11.5156 40.375
Q6.59375 45.0625 6.59375 53.4219
Q6.59375 63.0938 13.4062 68.6562
Q20.2188 74.2188 32.1719 74.2188
Q37.3125 74.2188 42.625 73.2812
Q47.9531 72.3594 53.5156 70.5156" id="BitstreamVeraSans-Roman-53"/>
      <path d="
M37.1094 75.9844
L37.1094 68.5
L28.5156 68.5
Q23.6875 68.5 21.7969 66.5469
Q19.9219 64.5938 19.9219 59.5156
L19.9219 54.6875
L34.7188 54.6875
L34.7188 47.7031
L19.9219 47.7031
L19.9219 0
L10.8906 0
L10.8906 47.7031
L2.29688 47.7031
L2.29688 54.6875
L10.8906 54.6875
L10.8906 58.5
Q10.8906 67.625 15.1406 71.7969
Q19.3906 75.9844 28.6094 75.9844
z
" id="BitstreamVeraSans-Roman-66"/>
      <path d="
M54.8906 33.0156
L54.8906 0
L45.9062 0
L45.9062 32.7188
Q45.9062 40.4844 42.875 44.3281
Q39.8438 48.1875 33.7969 48.1875
Q26.5156 48.1875 22.3125 43.5469
Q18.1094 38.9219 18.1094 30.9062
L18.1094 0
L9.07812 0
L9.07812 75.9844
L18.1094 75.9844
L18.1094 46.1875
Q21.3438 51.125 25.7031 53.5625
Q30.0781 56 35.7969 56
Q45.2188 56 50.0469 50.1719
Q54.8906 44.3438 54.8906 33.0156" id="BitstreamVeraSans-Roman-68"/>
     </defs>
     <g transform="translate(22.9678125 212.64875)rotate(-90.0)scale(0.12 -0.12)">
      <use xlink:href="#BitstreamVeraSans-Roman-53"/>
      <use x="63.4765625" xlink:href="#BitstreamVeraSans-Roman-68"/>
      <use x="126.85546875" xlink:href="#BitstreamVeraSans-Roman-69"/>
      <use x="154.638671875" xlink:href="#BitstreamVeraSans-Roman-66"/>
      <use x="188.09375" xlink:href="#BitstreamVeraSans-Roman-74"/>
     </g>
    </g>
   </g>
  </g>
  <g id="axes_2">
   <g id="patch_7">
    <path clip-path="url(#pf644aa99f1)" d="
M489.492 379.84
L489.492 334.768
L489.492 64.3325
L489.492 19.26
L507.521 19.26
L507.521 64.3325
L507.521 334.768
L507.521 379.84
z
" style="fill:#ffffff;stroke:#ffffff;stroke-linejoin:miter;stroke-width:0.01;"/>
   </g>
   <g id="QuadMesh_1">
    <defs>
     <path d="
M489.492 -52.16
L507.521 -52.16
L507.521 -97.2325
L489.492 -97.2325
L489.492 -52.16" id="C8_0_5ca3333f60"/>
     <path d="
M489.492 -97.2325
L507.521 -97.2325
L507.521 -142.305
L489.492 -142.305
L489.492 -97.2325" id="C8_1_9172dad72a"/>
     <path d="
M489.492 -142.305
L507.521 -142.305
L507.521 -187.377
L489.492 -187.377
L489.492 -142.305" id="C8_2_6ff2d07e12"/>
     <path d="
M489.492 -187.377
L507.521 -187.377
L507.521 -232.45
L489.492 -232.45
L489.492 -187.377" id="C8_3_d08d0d23a1"/>
     <path d="
M489.492 -232.45
L507.521 -232.45
L507.521 -277.523
L489.492 -277.523
L489.492 -232.45" id="C8_4_9f03056b11"/>
     <path d="
M489.492 -277.523
L507.521 -277.523
L507.521 -322.595
L489.492 -322.595
L489.492 -277.523" id="C8_5_707953e575"/>
     <path d="
M489.492 -322.595
L507.521 -322.595
L507.521 -367.668
L489.492 -367.668
L489.492 -322.595" id="C8_6_af53122c34"/>
     <path d="
M489.492 -367.668
L507.521 -367.668
L507.521 -412.74
L489.492 -412.74
L489.492 -367.668" id="C8_7_cb6c022475"/>
    </defs>
    <g clip-path="url(#pf644aa99f1)">
     <use style="fill:#101010;" x="0.0" xlink:href="#C8_0_5ca3333f60" y="432.0"/>
    </g>
    <g clip-path="url(#pf644aa99f1)">
     <use style="fill:#303030;" x="0.0" xlink:href="#C8_1_9172dad72a" y="432.0"/>
    </g>
    <g clip-path="url(#pf644aa99f1)">
     <use style="fill:#505050;" x="0.0" xlink:href="#C8_2_6ff2d07e12" y="432.0"/>
    </g>
    <g clip-path="url(#pf644aa99f1)">
     <use style="fill:#707070;" x="0.0" xlink:href="#C8_3_d08d0d23a1" y="432.0"/>
    </g>
    <g clip-path="url(#pf644aa99f1)">
     <use style="fill:#909090;" x="0.0" xlink:href="#C8_4_9f03056b11" y="432.0"/>
    </g>
    <g clip-path="url(#pf644aa99f1)">
     <use style="fill:#b0b0b0;" x="0.0" xlink:href="#C8_5_707953e575" y="432.0"/>
    </g>
    <g clip-path="url(#pf644aa99f1)">
     <use style="fill:#d0d0d0;" x="0.0" xlink:href="#C8_6_af53122c34" y="432.0"/>
    </g>
    <g clip-path="url(#pf644aa99f1)">
     <use style="fill:#f0f0f0;" x="0.0" xlink:href="#C8_7_cb6c022475" y="432.0"/>
    </g>
   </g>
   <g id="patch_8">
    <path d="
M489.492 379.84
L489.492 334.768
L489.492 64.3325
L489.492 19.26
L507.521 19.26
L507.521 64.3325
L507.521 334.768
L507.521 379.84
z
" style="fill:none;stroke:#000000;stroke-linejoin:miter;"/>
   </g>
   <g id="matplotlib.axis_3"/>
   <g id="matplotlib.axis_4">
    <g id="ytick_6">
     <g id="line2d_35">
      <g>
       <use style="stroke:#000000;stroke-width:0.5;" x="507.521140625" xlink:href="#mcb0005524f" y="379.84"/>
      </g>
     </g>
     <g id="text_14">
      <!-- 800 -->
      <g transform="translate(511.521140625 383.15125)scale(0.12 -0.12)">
       <use xlink:href="#BitstreamVeraSans-Roman-2212"/>
       <use x="83.7890625" xlink:href="#BitstreamVeraSans-Roman-38"/>
       <use x="147.412109375" xlink:href="#BitstreamVeraSans-Roman-30"/>
       <use x="211.03515625" xlink:href="#BitstreamVeraSans-Roman-30"/>
      </g>
     </g>
    </g>
    <g id="ytick_7">
     <g id="line2d_36">
      <g>
       <use style="stroke:#000000;stroke-width:0.5;" x="507.521140625" xlink:href="#mcb0005524f" y="334.7675"/>
      </g>
     </g>
     <g id="text_15">
      <!-- 600 -->
      <g transform="translate(511.521140625 338.07875)scale(0.12 -0.12)">
       <use xlink:href="#BitstreamVeraSans-Roman-2212"/>
       <use x="83.7890625" xlink:href="#BitstreamVeraSans-Roman-36"/>
       <use x="147.412109375" xlink:href="#BitstreamVeraSans-Roman-30"/>
       <use x="211.03515625" xlink:href="#BitstreamVeraSans-Roman-30"/>
      </g>
     </g>
    </g>
    <g id="ytick_8">
     <g id="line2d_37">
      <g>
       <use style="stroke:#000000;stroke-width:0.5;" x="507.521140625" xlink:href="#mcb0005524f" y="289.695"/>
      </g>
     </g>
     <g id="text_16">
      <!-- 400 -->
      <g transform="translate(511.521140625 293.00625)scale(0.12 -0.12)">
       <use xlink:href="#BitstreamVeraSans-Roman-2212"/>
       <use x="83.7890625" xlink:href="#BitstreamVeraSans-Roman-34"/>
       <use x="147.412109375" xlink:href="#BitstreamVeraSans-Roman-30"/>
       <use x="211.03515625" xlink:href="#BitstreamVeraSans-Roman-30"/>
      </g>
     </g>
    </g>
    <g id="ytick_9">
     <g id="line2d_38">
      <g>
       <use style="stroke:#000000;stroke-width:0.5;" x="507.521140625" xlink:href="#mcb0005524f" y="244.6225"/>
      </g>
     </g>
     <g id="text_17">
      <!-- 200 -->
      <g transform="translate(511.521140625 247.93375)scale(0.12 -0.12)">
       <use xlink:href="#BitstreamVeraSans-Roman-2212"/>
       <use x="83.7890625" xlink:href="#BitstreamVeraSans-Roman-32"/>
       <use x="147.412109375" xlink:href="#BitstreamVeraSans-Roman-30"/>
       <use x="211.03515625" xlink:href="#BitstreamVeraSans-Roman-30"/>
      </g>
     </g>
    </g>
    <g id="ytick_10">
     <g id="line2d_39">
      <g>
       <use style="stroke:#000000;stroke-width:0.5;" x="507.521140625" xlink:href="#mcb0005524f" y="199.55"/>
      </g>
     </g>
     <g id="text_18">
      <!-- 0 -->
      <g transform="translate(511.521140625 202.86125)scale(0.12 -0.12)">
       <use xlink:href="#BitstreamVeraSans-Roman-30"/>
      </g>
     </g>
    </g>
    <g id="ytick_11">
     <g id="line2d_40">
      <g>
       <use style="stroke:#000000;stroke-width:0.5;" x="507.521140625" xlink:href="#mcb0005524f" y="154.4775"/>
      </g>
     </g>
     <g id="text_19">
      <!-- 200 -->
      <g transform="translate(511.521140625 157.78875)scale(0.12 -0.12)">
       <use xlink:href="#BitstreamVeraSans-Roman-32"/>
       <use x="63.623046875" xlink:href="#BitstreamVeraSans-Roman-30"/>
       <use x="127.24609375" xlink:href="#BitstreamVeraSans-Roman-30"/>
      </g>
     </g>
    </g>
    <g id="ytick_12">
     <g id="line2d_41">
      <g>
       <use style="stroke:#000000;stroke-width:0.5;" x="507.521140625" xlink:href="#mcb0005524f" y="109.405"/>
      </g>
     </g>
     <g id="text_20">
      <!-- 400 -->
      <g transform="translate(511.521140625 112.71625)scale(0.12 -0.12)">
       <use xlink:href="#BitstreamVeraSans-Roman-34"/>
       <use x="63.623046875" xlink:href="#BitstreamVeraSans-Roman-30"/>
       <use x="127.24609375" xlink:href="#BitstreamVeraSans-Roman-30"/>
      </g>
     </g>
    </g>
    <g id="ytick_13">
     <g id="line2d_42">
      <g>
       <use style="stroke:#000000;stroke-width:0.5;" x="507.521140625" xlink:href="#mcb0005524f" y="64.3325"/>
      </g>
     </g>
     <g id="text_21">
      <!-- 600 -->
      <g transform="translate(511.521140625 67.64375)scale(0.12 -0.12)">
       <use xlink:href="#BitstreamVeraSans-Roman-36"/>
       <use x="63.623046875" xlink:href="#BitstreamVeraSans-Roman-30"/>
       <use x="127.24609375" xlink:href="#BitstreamVeraSans-Roman-30"/>
      </g>
     </g>
    </g>
    <g id="ytick_14">
     <g id="line2d_43">
      <g>
       <use style="stroke:#000000;stroke-width:0.5;" x="507.521140625" xlink:href="#mcb0005524f" y="19.26"/>
      </g>
     </g>
     <g id="text_22">
      <!-- 800 -->
      <g transform="translate(511.521140625 22.57125)scale(0.12 -0.12)">
       <use xlink:href="#BitstreamVeraSans-Roman-38"/>
       <use x="63.623046875" xlink:href="#BitstreamVeraSans-Roman-30"/>
       <use x="127.24609375" xlink:href="#BitstreamVeraSans-Roman-30"/>
      </g>
     </g>
    </g>
   </g>
  </g>
 </g>
 <defs>
  <clipPath id="pa4674fbac0">
   <rect height="360.58" width="392.25525" x="72.7209375" y="19.26"/>
  </clipPath>
  <clipPath id="pf644aa99f1">
   <rect height="360.58" width="18.029" x="489.492140625" y="19.26"/>
  </clipPath>
 </defs>
</svg>
