<?xml version="1.0" encoding="utf-8" standalone="no"?>
<!DOCTYPE svg PUBLIC "-//W3C//DTD SVG 1.1//EN"
  "http://www.w3.org/Graphics/SVG/1.1/DTD/svg11.dtd">
<!-- Created with matplotlib (http://matplotlib.org/) -->
<svg height="403pt" version="1.1" viewBox="0 0 595 403" width="595pt" xmlns="http://www.w3.org/2000/svg" xmlns:xlink="http://www.w3.org/1999/xlink">
 <defs>
  <style type="text/css">
*{stroke-linecap:butt;stroke-linejoin:round;}
  </style>
 </defs>
 <g id="figure_1">
  <g id="patch_1">
   <path d="
M0 403.034
L595.942 403.034
L595.942 0
L0 0
z
" style="fill:#ffffff;"/>
  </g>
  <g id="axes_1">
   <g id="patch_2">
    <path d="
M57.3938 358.607
L503.794 358.607
L503.794 13.0069
L57.3938 13.0069
z
" style="fill:#ffffff;"/>
   </g>
   <g id="line2d_1">
    <path clip-path="url(#p47c151f4e0)" d="
M57.3938 159.887
L65.5101 159.887
L73.6265 159.887
L81.7428 159.887
L89.8592 159.887
L97.9756 159.887
L106.092 159.887
L114.208 159.887
L122.325 159.887
L130.441 159.887
L138.557 159.887
L146.674 159.887
L154.79 159.887
L162.906 159.887
L171.023 159.887
L179.139 159.887
L187.256 159.887
L195.372 159.887
L203.488 159.887
L211.605 159.887
L219.721 159.887
L227.837 159.887
L235.954 159.887
L244.07 159.887
L252.186 159.887
L260.303 159.887
L268.419 159.887
L276.536 159.887
L284.652 159.887
L292.768 159.887
L300.885 159.887
L309.001 159.887
L317.117 159.887
L325.234 159.887
L333.35 159.887
L341.466 159.887
L349.583 159.887
L357.699 159.887
L365.816 159.887
L373.932 159.887
L382.048 159.887
L390.165 159.887
L398.281 159.887
L406.397 159.887
L414.514 159.887
L422.63 159.887
L430.746 159.887
L438.863 159.887
L446.979 159.887
L455.096 159.887
L463.212 159.887
L471.328 159.887
L479.445 159.887
L487.561 159.887
L495.677 159.887" style="fill:none;stroke:#000000;stroke-linecap:square;"/>
   </g>
   <g id="line2d_2">
    <path clip-path="url(#p47c151f4e0)" d="
M57.3938 151.247
L65.5101 151.247
L73.6265 151.247
L81.7428 151.247
L89.8592 151.247
L97.9756 151.247
L106.092 151.247
L114.208 151.247
L122.325 151.247
L130.441 151.247
L138.557 151.247
L146.674 151.247
L154.79 151.247
L162.906 151.247
L171.023 151.247
L179.139 151.247
L187.256 151.247
L195.372 151.247
L203.488 151.247
L211.605 151.247
L219.721 151.247
L227.837 151.247
L235.954 151.247
L244.07 151.247
L252.186 151.247
L260.303 151.247
L268.419 151.247
L276.536 151.247
L284.652 151.247
L292.768 151.247
L300.885 151.247
L309.001 151.247
L317.117 151.247
L325.234 151.247
L333.35 151.247
L341.466 151.247
L349.583 151.247
L357.699 151.247
L365.816 151.247
L373.932 151.247
L382.048 151.247
L390.165 151.247
L398.281 151.247
L406.397 151.247
L414.514 151.247
L422.63 151.247
L430.746 151.247
L438.863 151.247
L446.979 151.247
L455.096 151.247
L463.212 151.247
L471.328 151.247
L479.445 151.247
L487.561 151.247
L495.677 151.247" style="fill:none;stroke:#000000;stroke-dasharray:6.000000,6.000000;stroke-dashoffset:0.0;"/>
   </g>
   <g id="line2d_3">
    <path clip-path="url(#p47c151f4e0)" d="
M57.3938 99.4069
L65.5101 99.4069
L73.6265 99.4069
L81.7428 99.4069
L89.8592 99.4069
L97.9756 99.4069
L106.092 99.4069
L114.208 99.4069
L122.325 99.4069
L130.441 99.4069
L138.557 99.4069
L146.674 99.4069
L154.79 99.4069
L162.906 99.4069
L171.023 99.4069
L179.139 99.4069
L187.256 99.4069
L195.372 99.4069
L203.488 99.4069
L211.605 99.4069
L219.721 99.4069
L227.837 99.4069
L235.954 99.4069
L244.07 99.4069
L252.186 99.4069
L260.303 99.4069
L268.419 99.4069
L276.536 99.4069
L284.652 99.4069
L292.768 99.4069
L300.885 99.4069
L309.001 99.4069
L317.117 99.4069
L325.234 99.4069
L333.35 99.4069
L341.466 99.4069
L349.583 99.4069
L357.699 99.4069
L365.816 90.7669
L373.932 90.7669
L382.048 90.7669
L390.165 90.7669
L398.281 90.7669
L406.397 90.7669
L414.514 90.7669
L422.63 90.7669
L430.746 90.7669
L438.863 90.7669
L446.979 90.7669
L455.096 90.7669
L463.212 90.7669
L471.328 90.7669
L479.445 90.7669
L487.561 90.7669
L495.677 90.7669" style="fill:none;stroke:#000000;stroke-linecap:square;stroke-width:2;"/>
   </g>
   <g id="line2d_4">
    <path clip-path="url(#p47c151f4e0)" d="
M57.3938 220.367
L65.5101 220.367
L73.6265 220.367
L81.7428 220.367
L89.8592 220.367
L97.9756 220.367
L106.092 220.367
L114.208 220.367
L122.325 220.367
L130.441 220.367
L138.557 220.367
L146.674 220.367
L154.79 220.367
L162.906 220.367
L171.023 220.367
L179.139 220.367
L187.256 220.367
L195.372 220.367
L203.488 220.367
L211.605 220.367
L219.721 220.367
L227.837 220.367
L235.954 220.367
L244.07 220.367
L252.186 220.367
L260.303 220.367
L268.419 220.367
L276.536 220.367
L284.652 220.367
L292.768 220.367
L300.885 220.367
L309.001 220.367
L317.117 220.367
L325.234 220.367
L333.35 220.367
L341.466 220.367
L349.583 220.367
L357.699 220.367
L365.816 220.367
L373.932 220.367
L382.048 220.367
L390.165 220.367
L398.281 220.367
L406.397 220.367
L414.514 220.367
L422.63 220.367
L430.746 220.367
L438.863 220.367
L446.979 220.367
L455.096 220.367
L463.212 220.367
L471.328 220.367
L479.445 220.367
L487.561 220.367
L495.677 220.367" style="fill:none;stroke:#000000;stroke-dasharray:6.000000,6.000000;stroke-dashoffset:0.0;stroke-width:2;"/>
   </g>
   <g id="line2d_5">
    <path clip-path="url(#p47c151f4e0)" d="
M57.3938 246.287
L65.5101 246.287
L73.6265 254.927
L81.7428 254.927
L89.8592 254.927
L97.9756 254.927
L106.092 254.927
L114.208 254.927
L122.325 254.927
L130.441 254.927
L138.557 254.927
L146.674 254.927
L154.79 254.927
L162.906 254.927
L171.023 254.927
L179.139 254.927
L187.256 254.927
L195.372 254.927
L203.488 254.927
L211.605 254.927
L219.721 254.927
L227.837 254.927
L235.954 254.927
L244.07 254.927
L252.186 254.927
L260.303 254.927
L268.419 254.927
L276.536 254.927
L284.652 254.927
L292.768 254.927
L300.885 254.927
L309.001 254.927
L317.117 254.927
L325.234 254.927
L333.35 254.927
L341.466 254.927
L349.583 254.927
L357.699 254.927
L365.816 254.927
L373.932 263.567
L382.048 263.567
L390.165 263.567
L398.281 263.567
L406.397 263.567
L414.514 263.567
L422.63 263.567
L430.746 263.567
L438.863 263.567
L446.979 263.567
L455.096 263.567
L463.212 263.567
L471.328 263.567
L479.445 263.567
L487.561 263.567
L495.677 263.567" style="fill:none;stroke:#000000;stroke-linecap:square;stroke-width:3;"/>
   </g>
   <g id="line2d_6">
    <path clip-path="url(#p47c151f4e0)" d="
M57.3938 298.127
L65.5101 298.127
L73.6265 298.127
L81.7428 298.127
L89.8592 298.127
L97.9756 298.127
L106.092 298.127
L114.208 298.127
L122.325 298.127
L130.441 298.127
L138.557 298.127
L146.674 298.127
L154.79 298.127
L162.906 298.127
L171.023 306.767
L179.139 306.767
L187.256 306.767
L195.372 306.767
L203.488 306.767
L211.605 306.767
L219.721 306.767
L227.837 306.767
L235.954 306.767
L244.07 306.767
L252.186 306.767
L260.303 306.767
L268.419 306.767
L276.536 306.767
L284.652 306.767
L292.768 306.767
L300.885 306.767
L309.001 306.767
L317.117 306.767
L325.234 306.767
L333.35 315.407
L341.466 315.407
L349.583 315.407
L357.699 315.407
L365.816 315.407
L373.932 315.407
L382.048 315.407
L390.165 315.407
L398.281 315.407
L406.397 315.407
L414.514 315.407
L422.63 315.407
L430.746 315.407
L438.863 315.407
L446.979 315.407
L455.096 315.407
L463.212 315.407
L471.328 324.047
L479.445 324.047
L487.561 324.047
L495.677 324.047" style="fill:none;stroke:#000000;stroke-dasharray:6.000000,6.000000;stroke-dashoffset:0.0;stroke-width:3;"/>
   </g>
   <g id="matplotlib.axis_1">
    <g id="xtick_1">
     <g id="line2d_7">
      <defs>
       <path d="
M0 0
L0 -4" id="m93b0483c22" style="stroke:#000000;stroke-width:0.5;"/>
      </defs>
      <g>
       <use style="stroke:#000000;stroke-width:0.5;" x="57.39375" xlink:href="#m93b0483c22" y="358.606875"/>
      </g>
     </g>
     <g id="line2d_8">
      <defs>
       <path d="
M0 0
L0 4" id="m741efc42ff" style="stroke:#000000;stroke-width:0.5;"/>
      </defs>
      <g>
       <use style="stroke:#000000;stroke-width:0.5;" x="57.39375" xlink:href="#m741efc42ff" y="13.006875"/>
      </g>
     </g>
     <g id="text_1">
      <!-- 0 -->
      <defs>
       <path d="
M31.7812 66.4062
Q24.1719 66.4062 20.3281 58.9062
Q16.5 51.4219 16.5 36.375
Q16.5 21.3906 20.3281 13.8906
Q24.1719 6.39062 31.7812 6.39062
Q39.4531 6.39062 43.2812 13.8906
Q47.125 21.3906 47.125 36.375
Q47.125 51.4219 43.2812 58.9062
Q39.4531 66.4062 31.7812 66.4062
M31.7812 74.2188
Q44.0469 74.2188 50.5156 64.5156
Q56.9844 54.8281 56.9844 36.375
Q56.9844 17.9688 50.5156 8.26562
Q44.0469 -1.42188 31.7812 -1.42188
Q19.5312 -1.42188 13.0625 8.26562
Q6.59375 17.9688 6.59375 36.375
Q6.59375 54.8281 13.0625 64.5156
Q19.5312 74.2188 31.7812 74.2188" id="DejaVuSans-30"/>
      </defs>
      <g transform="translate(54.3703125 371.725)scale(0.12 -0.12)">
       <use xlink:href="#DejaVuSans-30"/>
      </g>
     </g>
    </g>
    <g id="xtick_2">
     <g id="line2d_9">
      <g>
       <use style="stroke:#000000;stroke-width:0.5;" x="138.557386364" xlink:href="#m93b0483c22" y="358.606875"/>
      </g>
     </g>
     <g id="line2d_10">
      <g>
       <use style="stroke:#000000;stroke-width:0.5;" x="138.557386364" xlink:href="#m741efc42ff" y="13.006875"/>
      </g>
     </g>
     <g id="text_2">
      <!-- 10 -->
      <defs>
       <path d="
M12.4062 8.29688
L28.5156 8.29688
L28.5156 63.9219
L10.9844 60.4062
L10.9844 69.3906
L28.4219 72.9062
L38.2812 72.9062
L38.2812 8.29688
L54.3906 8.29688
L54.3906 0
L12.4062 0
z
" id="DejaVuSans-31"/>
      </defs>
      <g transform="translate(131.979886364 371.725)scale(0.12 -0.12)">
       <use xlink:href="#DejaVuSans-31"/>
       <use x="63.623046875" xlink:href="#DejaVuSans-30"/>
      </g>
     </g>
    </g>
    <g id="xtick_3">
     <g id="line2d_11">
      <g>
       <use style="stroke:#000000;stroke-width:0.5;" x="219.721022727" xlink:href="#m93b0483c22" y="358.606875"/>
      </g>
     </g>
     <g id="line2d_12">
      <g>
       <use style="stroke:#000000;stroke-width:0.5;" x="219.721022727" xlink:href="#m741efc42ff" y="13.006875"/>
      </g>
     </g>
     <g id="text_3">
      <!-- 20 -->
      <defs>
       <path d="
M19.1875 8.29688
L53.6094 8.29688
L53.6094 0
L7.32812 0
L7.32812 8.29688
Q12.9375 14.1094 22.625 23.8906
Q32.3281 33.6875 34.8125 36.5312
Q39.5469 41.8438 41.4219 45.5312
Q43.3125 49.2188 43.3125 52.7812
Q43.3125 58.5938 39.2344 62.25
Q35.1562 65.9219 28.6094 65.9219
Q23.9688 65.9219 18.8125 64.3125
Q13.6719 62.7031 7.8125 59.4219
L7.8125 69.3906
Q13.7656 71.7812 18.9375 73
Q24.125 74.2188 28.4219 74.2188
Q39.75 74.2188 46.4844 68.5469
Q53.2188 62.8906 53.2188 53.4219
Q53.2188 48.9219 51.5312 44.8906
Q49.8594 40.875 45.4062 35.4062
Q44.1875 33.9844 37.6406 27.2188
Q31.1094 20.4531 19.1875 8.29688" id="DejaVuSans-32"/>
      </defs>
      <g transform="translate(212.924147727 371.725)scale(0.12 -0.12)">
       <use xlink:href="#DejaVuSans-32"/>
       <use x="63.623046875" xlink:href="#DejaVuSans-30"/>
      </g>
     </g>
    </g>
    <g id="xtick_4">
     <g id="line2d_13">
      <g>
       <use style="stroke:#000000;stroke-width:0.5;" x="300.884659091" xlink:href="#m93b0483c22" y="358.606875"/>
      </g>
     </g>
     <g id="line2d_14">
      <g>
       <use style="stroke:#000000;stroke-width:0.5;" x="300.884659091" xlink:href="#m741efc42ff" y="13.006875"/>
      </g>
     </g>
     <g id="text_4">
      <!-- 30 -->
      <defs>
       <path d="
M40.5781 39.3125
Q47.6562 37.7969 51.625 33
Q55.6094 28.2188 55.6094 21.1875
Q55.6094 10.4062 48.1875 4.48438
Q40.7656 -1.42188 27.0938 -1.42188
Q22.5156 -1.42188 17.6562 -0.515625
Q12.7969 0.390625 7.625 2.20312
L7.625 11.7188
Q11.7188 9.32812 16.5938 8.10938
Q21.4844 6.89062 26.8125 6.89062
Q36.0781 6.89062 40.9375 10.5469
Q45.7969 14.2031 45.7969 21.1875
Q45.7969 27.6406 41.2812 31.2656
Q36.7656 34.9062 28.7188 34.9062
L20.2188 34.9062
L20.2188 43.0156
L29.1094 43.0156
Q36.375 43.0156 40.2344 45.9219
Q44.0938 48.8281 44.0938 54.2969
Q44.0938 59.9062 40.1094 62.9062
Q36.1406 65.9219 28.7188 65.9219
Q24.6562 65.9219 20.0156 65.0312
Q15.375 64.1562 9.8125 62.3125
L9.8125 71.0938
Q15.4375 72.6562 20.3438 73.4375
Q25.25 74.2188 29.5938 74.2188
Q40.8281 74.2188 47.3594 69.1094
Q53.9062 64.0156 53.9062 55.3281
Q53.9062 49.2656 50.4375 45.0938
Q46.9688 40.9219 40.5781 39.3125" id="DejaVuSans-33"/>
      </defs>
      <g transform="translate(294.105596591 371.725)scale(0.12 -0.12)">
       <use xlink:href="#DejaVuSans-33"/>
       <use x="63.623046875" xlink:href="#DejaVuSans-30"/>
      </g>
     </g>
    </g>
    <g id="xtick_5">
     <g id="line2d_15">
      <g>
       <use style="stroke:#000000;stroke-width:0.5;" x="382.048295455" xlink:href="#m93b0483c22" y="358.606875"/>
      </g>
     </g>
     <g id="line2d_16">
      <g>
       <use style="stroke:#000000;stroke-width:0.5;" x="382.048295455" xlink:href="#m741efc42ff" y="13.006875"/>
      </g>
     </g>
     <g id="text_5">
      <!-- 40 -->
      <defs>
       <path d="
M37.7969 64.3125
L12.8906 25.3906
L37.7969 25.3906
z

M35.2031 72.9062
L47.6094 72.9062
L47.6094 25.3906
L58.0156 25.3906
L58.0156 17.1875
L47.6094 17.1875
L47.6094 0
L37.7969 0
L37.7969 17.1875
L4.89062 17.1875
L4.89062 26.7031
z
" id="DejaVuSans-34"/>
      </defs>
      <g transform="translate(375.105170455 371.725)scale(0.12 -0.12)">
       <use xlink:href="#DejaVuSans-34"/>
       <use x="63.623046875" xlink:href="#DejaVuSans-30"/>
      </g>
     </g>
    </g>
    <g id="xtick_6">
     <g id="line2d_17">
      <g>
       <use style="stroke:#000000;stroke-width:0.5;" x="463.211931818" xlink:href="#m93b0483c22" y="358.606875"/>
      </g>
     </g>
     <g id="line2d_18">
      <g>
       <use style="stroke:#000000;stroke-width:0.5;" x="463.211931818" xlink:href="#m741efc42ff" y="13.006875"/>
      </g>
     </g>
     <g id="text_6">
      <!-- 50 -->
      <defs>
       <path d="
M10.7969 72.9062
L49.5156 72.9062
L49.5156 64.5938
L19.8281 64.5938
L19.8281 46.7344
Q21.9688 47.4688 24.1094 47.8281
Q26.2656 48.1875 28.4219 48.1875
Q40.625 48.1875 47.75 41.5
Q54.8906 34.8125 54.8906 23.3906
Q54.8906 11.625 47.5625 5.09375
Q40.2344 -1.42188 26.9062 -1.42188
Q22.3125 -1.42188 17.5469 -0.640625
Q12.7969 0.140625 7.71875 1.70312
L7.71875 11.625
Q12.1094 9.23438 16.7969 8.0625
Q21.4844 6.89062 26.7031 6.89062
Q35.1562 6.89062 40.0781 11.3281
Q45.0156 15.7656 45.0156 23.3906
Q45.0156 31 40.0781 35.4375
Q35.1562 39.8906 26.7031 39.8906
Q22.75 39.8906 18.8125 39.0156
Q14.8906 38.1406 10.7969 36.2812
z
" id="DejaVuSans-35"/>
      </defs>
      <g transform="translate(456.438494318 371.725)scale(0.12 -0.12)">
       <use xlink:href="#DejaVuSans-35"/>
       <use x="63.623046875" xlink:href="#DejaVuSans-30"/>
      </g>
     </g>
    </g>
    <g id="text_7">
     <!-- k -->
     <defs>
      <path d="
M9.07812 75.9844
L18.1094 75.9844
L18.1094 31.1094
L44.9219 54.6875
L56.3906 54.6875
L27.3906 29.1094
L57.625 0
L45.9062 0
L18.1094 26.7031
L18.1094 0
L9.07812 0
z
" id="DejaVuSans-6b"/>
     </defs>
     <g transform="translate(277.6809375 393.33875)scale(0.12 -0.12)">
      <use xlink:href="#DejaVuSans-6b"/>
     </g>
    </g>
   </g>
   <g id="matplotlib.axis_2">
    <g id="ytick_1">
     <g id="line2d_19">
      <defs>
       <path d="
M0 0
L4 0" id="m728421d6d4" style="stroke:#000000;stroke-width:0.5;"/>
      </defs>
      <g>
       <use style="stroke:#000000;stroke-width:0.5;" x="57.39375" xlink:href="#m728421d6d4" y="358.606875"/>
      </g>
     </g>
     <g id="line2d_20">
      <defs>
       <path d="
M0 0
L-4 0" id="mcb0005524f" style="stroke:#000000;stroke-width:0.5;"/>
      </defs>
      <g>
       <use style="stroke:#000000;stroke-width:0.5;" x="503.79375" xlink:href="#mcb0005524f" y="358.606875"/>
      </g>
     </g>
     <g id="text_8">
      <!-- −20 -->
      <defs>
       <path d="
M10.5938 35.5
L73.1875 35.5
L73.1875 27.2031
L10.5938 27.2031
z
" id="DejaVuSans-2212"/>
      </defs>
      <g transform="translate(30.13625 361.918125)scale(0.12 -0.12)">
       <use xlink:href="#DejaVuSans-2212"/>
       <use x="83.7890625" xlink:href="#DejaVuSans-32"/>
       <use x="147.412109375" xlink:href="#DejaVuSans-30"/>
      </g>
     </g>
    </g>
    <g id="ytick_2">
     <g id="line2d_21">
      <g>
       <use style="stroke:#000000;stroke-width:0.5;" x="57.39375" xlink:href="#m728421d6d4" y="315.406875"/>
      </g>
     </g>
     <g id="line2d_22">
      <g>
       <use style="stroke:#000000;stroke-width:0.5;" x="503.79375" xlink:href="#mcb0005524f" y="315.406875"/>
      </g>
     </g>
     <g id="text_9">
      <!-- −15 -->
      <g transform="translate(30.3875 318.718125)scale(0.12 -0.12)">
       <use xlink:href="#DejaVuSans-2212"/>
       <use x="83.7890625" xlink:href="#DejaVuSans-31"/>
       <use x="147.412109375" xlink:href="#DejaVuSans-35"/>
      </g>
     </g>
    </g>
    <g id="ytick_3">
     <g id="line2d_23">
      <g>
       <use style="stroke:#000000;stroke-width:0.5;" x="57.39375" xlink:href="#m728421d6d4" y="272.206875"/>
      </g>
     </g>
     <g id="line2d_24">
      <g>
       <use style="stroke:#000000;stroke-width:0.5;" x="503.79375" xlink:href="#mcb0005524f" y="272.206875"/>
      </g>
     </g>
     <g id="text_10">
      <!-- −10 -->
      <g transform="translate(30.13625 275.518125)scale(0.12 -0.12)">
       <use xlink:href="#DejaVuSans-2212"/>
       <use x="83.7890625" xlink:href="#DejaVuSans-31"/>
       <use x="147.412109375" xlink:href="#DejaVuSans-30"/>
      </g>
     </g>
    </g>
    <g id="ytick_4">
     <g id="line2d_25">
      <g>
       <use style="stroke:#000000;stroke-width:0.5;" x="57.39375" xlink:href="#m728421d6d4" y="229.006875"/>
      </g>
     </g>
     <g id="line2d_26">
      <g>
       <use style="stroke:#000000;stroke-width:0.5;" x="503.79375" xlink:href="#mcb0005524f" y="229.006875"/>
      </g>
     </g>
     <g id="text_11">
      <!-- −5 -->
      <g transform="translate(38.0225 232.318125)scale(0.12 -0.12)">
       <use xlink:href="#DejaVuSans-2212"/>
       <use x="83.7890625" xlink:href="#DejaVuSans-35"/>
      </g>
     </g>
    </g>
    <g id="ytick_5">
     <g id="line2d_27">
      <g>
       <use style="stroke:#000000;stroke-width:0.5;" x="57.39375" xlink:href="#m728421d6d4" y="185.806875"/>
      </g>
     </g>
     <g id="line2d_28">
      <g>
       <use style="stroke:#000000;stroke-width:0.5;" x="503.79375" xlink:href="#mcb0005524f" y="185.806875"/>
      </g>
     </g>
     <g id="text_12">
      <!-- 0 -->
      <g transform="translate(47.346875 189.118125)scale(0.12 -0.12)">
       <use xlink:href="#DejaVuSans-30"/>
      </g>
     </g>
    </g>
    <g id="ytick_6">
     <g id="line2d_29">
      <g>
       <use style="stroke:#000000;stroke-width:0.5;" x="57.39375" xlink:href="#m728421d6d4" y="142.606875"/>
      </g>
     </g>
     <g id="line2d_30">
      <g>
       <use style="stroke:#000000;stroke-width:0.5;" x="503.79375" xlink:href="#mcb0005524f" y="142.606875"/>
      </g>
     </g>
     <g id="text_13">
      <!-- 5 -->
      <g transform="translate(47.733125 145.918125)scale(0.12 -0.12)">
       <use xlink:href="#DejaVuSans-35"/>
      </g>
     </g>
    </g>
    <g id="ytick_7">
     <g id="line2d_31">
      <g>
       <use style="stroke:#000000;stroke-width:0.5;" x="57.39375" xlink:href="#m728421d6d4" y="99.406875"/>
      </g>
     </g>
     <g id="line2d_32">
      <g>
       <use style="stroke:#000000;stroke-width:0.5;" x="503.79375" xlink:href="#mcb0005524f" y="99.406875"/>
      </g>
     </g>
     <g id="text_14">
      <!-- 10 -->
      <g transform="translate(40.23875 102.718125)scale(0.12 -0.12)">
       <use xlink:href="#DejaVuSans-31"/>
       <use x="63.623046875" xlink:href="#DejaVuSans-30"/>
      </g>
     </g>
    </g>
    <g id="ytick_8">
     <g id="line2d_33">
      <g>
       <use style="stroke:#000000;stroke-width:0.5;" x="57.39375" xlink:href="#m728421d6d4" y="56.206875"/>
      </g>
     </g>
     <g id="line2d_34">
      <g>
       <use style="stroke:#000000;stroke-width:0.5;" x="503.79375" xlink:href="#mcb0005524f" y="56.206875"/>
      </g>
     </g>
     <g id="text_15">
      <!-- 15 -->
      <g transform="translate(40.49 59.518125)scale(0.12 -0.12)">
       <use xlink:href="#DejaVuSans-31"/>
       <use x="63.623046875" xlink:href="#DejaVuSans-35"/>
      </g>
     </g>
    </g>
    <g id="ytick_9">
     <g id="line2d_35">
      <g>
       <use style="stroke:#000000;stroke-width:0.5;" x="57.39375" xlink:href="#m728421d6d4" y="13.006875"/>
      </g>
     </g>
     <g id="line2d_36">
      <g>
       <use style="stroke:#000000;stroke-width:0.5;" x="503.79375" xlink:href="#mcb0005524f" y="13.006875"/>
      </g>
     </g>
     <g id="text_16">
      <!-- 20 -->
      <g transform="translate(39.8 16.318125)scale(0.12 -0.12)">
       <use xlink:href="#DejaVuSans-32"/>
       <use x="63.623046875" xlink:href="#DejaVuSans-30"/>
      </g>
     </g>
    </g>
    <g id="text_17">
     <!-- p -->
     <defs>
      <path d="
M18.1094 8.20312
L18.1094 -20.7969
L9.07812 -20.7969
L9.07812 54.6875
L18.1094 54.6875
L18.1094 46.3906
Q20.9531 51.2656 25.2656 53.625
Q29.5938 56 35.5938 56
Q45.5625 56 51.7812 48.0938
Q58.0156 40.1875 58.0156 27.2969
Q58.0156 14.4062 51.7812 6.48438
Q45.5625 -1.42188 35.5938 -1.42188
Q29.5938 -1.42188 25.2656 0.953125
Q20.9531 3.32812 18.1094 8.20312
M48.6875 27.2969
Q48.6875 37.2031 44.6094 42.8438
Q40.5312 48.4844 33.4062 48.4844
Q26.2656 48.4844 22.1875 42.8438
Q18.1094 37.2031 18.1094 27.2969
Q18.1094 17.3906 22.1875 11.75
Q26.2656 6.10938 33.4062 6.10938
Q40.5312 6.10938 44.6094 11.75
Q48.6875 17.3906 48.6875 27.2969" id="DejaVuSans-70"/>
     </defs>
     <g transform="translate(7.2 183.31125)scale(0.12 -0.12)">
      <use xlink:href="#DejaVuSans-70"/>
     </g>
    </g>
   </g>
   <g id="patch_3">
    <path d="
M57.3938 13.0069
L503.794 13.0069" style="fill:none;stroke:#000000;"/>
   </g>
   <g id="patch_4">
    <path d="
M503.794 358.607
L503.794 13.0069" style="fill:none;stroke:#000000;"/>
   </g>
   <g id="patch_5">
    <path d="
M57.3938 358.607
L503.794 358.607" style="fill:none;stroke:#000000;"/>
   </g>
   <g id="patch_6">
    <path d="
M57.3938 358.607
L57.3938 13.0069" style="fill:none;stroke:#000000;"/>
   </g>
   <g id="legend_1">
    <g id="patch_7">
     <path d="
M508.258 142.607
L588.742 142.607
L588.742 11.4679
L508.258 11.4679
L508.258 142.607
z
" style="fill:#ffffff;stroke:#000000;"/>
    </g>
    <g id="line2d_37">
     <path d="
M518.338 23.1296
L538.498 23.1296" style="fill:none;stroke:#000000;stroke-linecap:square;"/>
    </g>
    <g id="line2d_38"/>
    <g id="text_18">
     <!-- 2° -->
     <defs>
      <path d="
M25 67.9219
Q21.0938 67.9219 18.4062 65.2031
Q15.7188 62.5 15.7188 58.5938
Q15.7188 54.7344 18.4062 52.0781
Q21.0938 49.4219 25 49.4219
Q28.9062 49.4219 31.5938 52.0781
Q34.2812 54.7344 34.2812 58.5938
Q34.2812 62.4531 31.5625 65.1875
Q28.8594 67.9219 25 67.9219
M25 74.2188
Q28.125 74.2188 31 73.0156
Q33.8906 71.8281 35.9844 69.5781
Q38.2344 67.3906 39.3594 64.5938
Q40.4844 61.8125 40.4844 58.5938
Q40.4844 52.1562 35.9688 47.6875
Q31.4531 43.2188 24.9062 43.2188
Q18.3125 43.2188 13.9062 47.6094
Q9.51562 52 9.51562 58.5938
Q9.51562 65.1406 14 69.6719
Q18.5 74.2188 25 74.2188" id="DejaVuSans-b0"/>
     </defs>
     <g transform="translate(554.33775 28.169625)scale(0.144 -0.144)">
      <use xlink:href="#DejaVuSans-32"/>
      <use x="63.623046875" xlink:href="#DejaVuSans-b0"/>
     </g>
    </g>
    <g id="line2d_39">
     <path d="
M518.338 44.2661
L538.498 44.2661" style="fill:none;stroke:#000000;stroke-dasharray:6.000000,6.000000;stroke-dashoffset:0.0;"/>
    </g>
    <g id="line2d_40"/>
    <g id="text_19">
     <!-- 5° -->
     <g transform="translate(554.33775 49.306125)scale(0.144 -0.144)">
      <use xlink:href="#DejaVuSans-35"/>
      <use x="63.623046875" xlink:href="#DejaVuSans-b0"/>
     </g>
    </g>
    <g id="line2d_41">
     <path d="
M518.338 65.4026
L538.498 65.4026" style="fill:none;stroke:#000000;stroke-linecap:square;stroke-width:2;"/>
    </g>
    <g id="line2d_42"/>
    <g id="text_20">
     <!-- 10° -->
     <g transform="translate(554.33775 70.442625)scale(0.144 -0.144)">
      <use xlink:href="#DejaVuSans-31"/>
      <use x="63.623046875" xlink:href="#DejaVuSans-30"/>
      <use x="127.24609375" xlink:href="#DejaVuSans-b0"/>
     </g>
    </g>
    <g id="line2d_43">
     <path d="
M518.338 86.5391
L538.498 86.5391" style="fill:none;stroke:#000000;stroke-dasharray:6.000000,6.000000;stroke-dashoffset:0.0;stroke-width:2;"/>
    </g>
    <g id="line2d_44"/>
    <g id="text_21">
     <!-- -2° -->
     <defs>
      <path d="
M4.89062 31.3906
L31.2031 31.3906
L31.2031 23.3906
L4.89062 23.3906
z
" id="DejaVuSans-2d"/>
     </defs>
     <g transform="translate(554.33775 91.579125)scale(0.144 -0.144)">
      <use xlink:href="#DejaVuSans-2d"/>
      <use x="36.083984375" xlink:href="#DejaVuSans-32"/>
      <use x="99.70703125" xlink:href="#DejaVuSans-b0"/>
     </g>
    </g>
    <g id="line2d_45">
     <path d="
M518.338 107.676
L538.498 107.676" style="fill:none;stroke:#000000;stroke-linecap:square;stroke-width:3;"/>
    </g>
    <g id="line2d_46"/>
    <g id="text_22">
     <!-- -5° -->
     <g transform="translate(554.33775 112.715625)scale(0.144 -0.144)">
      <use xlink:href="#DejaVuSans-2d"/>
      <use x="36.083984375" xlink:href="#DejaVuSans-35"/>
      <use x="99.70703125" xlink:href="#DejaVuSans-b0"/>
     </g>
    </g>
    <g id="line2d_47">
     <path d="
M518.338 128.812
L538.498 128.812" style="fill:none;stroke:#000000;stroke-dasharray:6.000000,6.000000;stroke-dashoffset:0.0;stroke-width:3;"/>
    </g>
    <g id="line2d_48"/>
    <g id="text_23">
     <!-- -10° -->
     <g transform="translate(554.33775 133.852125)scale(0.144 -0.144)">
      <use xlink:href="#DejaVuSans-2d"/>
      <use x="36.083984375" xlink:href="#DejaVuSans-31"/>
      <use x="99.70703125" xlink:href="#DejaVuSans-30"/>
      <use x="163.330078125" xlink:href="#DejaVuSans-b0"/>
     </g>
    </g>
   </g>
  </g>
 </g>
 <defs>
  <clipPath id="p47c151f4e0">
   <rect height="345.6" width="446.4" x="57.39375" y="13.006875"/>
  </clipPath>
 </defs>
</svg>
