<?xml version="1.0" encoding="utf-8" standalone="no"?>
<!DOCTYPE svg PUBLIC "-//W3C//DTD SVG 1.1//EN"
  "http://www.w3.org/Graphics/SVG/1.1/DTD/svg11.dtd">
<!-- Created with matplotlib (http://matplotlib.org/) -->
<svg height="230pt" version="1.1" viewBox="0 0 544 230" width="544pt" xmlns="http://www.w3.org/2000/svg" xmlns:xlink="http://www.w3.org/1999/xlink">
 <defs>
  <style type="text/css">
*{stroke-linecap:butt;stroke-linejoin:round;}
  </style>
 </defs>
 <g id="figure_1">
  <g id="patch_1">
   <path d="
M0 230.234
L544.157 230.234
L544.157 0
L0 0
z
" style="fill:#ffffff;"/>
  </g>
  <g id="axes_1">
   <g id="patch_2">
    <path d="
M63.0619 185.807
L397.862 185.807
L397.862 13.0069
L63.0619 13.0069
z
" style="fill:#ffffff;"/>
   </g>
   <g id="line2d_1">
    <path clip-path="url(#p73f45b0eee)" d="
M63.1119 99.3947
L63.424 99.3144
L63.7068 99.2403
L64.5053 99.0405
L66.8351 98.4563
L67.4556 98.2982
L75.9669 96.2848
L82.1043 94.913
L85.3543 94.179
L94.7517 92.0298
L101.362 90.5088
L109.549 88.6162
L120.168 86.1492
L125.083 85.0175
L132.437 83.3066
L133.327 83.0977
L134.637 82.7886
L139.617 81.6419
L143.734 80.6899
L151.031 78.9835
L152.675 78.6025
L153.387 78.4351
L158.289 77.3048
L162.349 76.3644
L173.104 73.8667
L190.465 74.4483
L192.551 74.7812
L193.48 74.9273
L194.429 75.0698
L209.345 76.3908
L211.44 76.4425
L217.781 76.5265
L221.986 76.5227
L223.314 76.5107
L226.322 76.4849
L235.168 76.4313
L236.869 76.4266
L237.907 76.4246
L238.626 76.4236
L239.438 76.4234
L240.179 76.4226
L240.914 76.4239
L245.407 76.4264
L250.546 76.4228
L252.269 76.4277
L255.533 76.4374
L260.198 76.4512
L260.767 76.4518
L263.601 76.461
L270.059 76.4787
L276.794 76.4983
L277.736 76.5008
L278.666 76.5034
L279.444 76.5061
L280.215 76.5082
L280.987 76.5121
L281.772 76.515
L282.557 76.5165
L283.781 76.5207
L296.805 76.5531
L302.539 76.5763
L303.504 76.5795
L309.004 76.5912
L310.291 76.5977
L310.946 76.6006
L311.784 76.6054
L314.601 76.6092
L316.911 76.6168
L318.487 76.6225
L319.147 76.6259
L319.885 76.6283
L324.353 76.6401
L328.728 76.6607
L330.106 76.6661
L334.543 76.6789
L339.224 76.6899
L340.137 76.6934
L345.832 76.7118
L353.417 76.7284
L357.985 76.7429
L366.742 76.7751
L377.894 76.8151
L378.86 76.8181
L380.224 76.8263
L381.214 76.8279
L382.289 76.8294
L383.001 76.8297
L383.791 76.8306
L387.825 76.8397
L388.852 76.8438
L392.495 76.8586
L393.51 76.86" style="fill:none;stroke:#000000;stroke-linecap:square;"/>
   </g>
   <g id="line2d_2">
    <path clip-path="url(#p73f45b0eee)" d="
M63.2493 99.4517
L63.7521 99.5901
L64.6566 99.8632
L66.8299 100.505
L67.3387 100.647
L74.9882 102.512
L75.9303 102.724
L84.5438 104.601
L85.4838 104.805
L86.0779 104.933
L86.9061 105.108
L87.6847 105.272
L90.0636 105.789
L104.519 109.046
L110.685 110.469
L114.427 111.331
L127.507 114.365
L128.024 114.484
L128.893 114.685
L133.978 115.869
L141.348 117.574
L141.883 117.696
L142.525 117.839
L147.749 119.051
L148.663 119.265
L171.295 118.284
L172.208 118.178
L173.13 118.08
L173.671 118.024
L174.235 117.97
L177.95 117.658
L184.731 117.335
L190.966 117.238
L197.198 117.243
L201.397 117.258
L201.947 117.259
L202.778 117.262
L205.99 117.283
L209.548 117.297
L211.348 117.306
L212.47 117.31
L226.262 117.328
L231.705 117.321
L241.32 117.314
L243.529 117.325
L244.452 117.322
L245.394 117.319
L249.974 117.32
L250.579 117.323
L251.435 117.324
L252.186 117.322
L252.946 117.32
L253.738 117.322
L254.482 117.322
L255.286 117.317
L256.052 117.311
L256.826 117.31
L274.452 116.388
L288.578 115.509
L289.97 115.431
L296.169 115.124
L297.912 115.03
L298.394 115.005
L299.742 114.942
L302.393 114.816
L307.631 114.569
L309.38 114.486
L312.982 114.313
L316.502 114.156
L318.362 114.074
L320.699 113.957
L323.49 113.813
L324.959 113.748
L326.594 113.675
L328.956 113.567
L332.491 113.402
L333.546 113.353
L334.318 113.317
L338.772 113.118
L340.916 113.019
L344.09 112.868
L350.869 112.55
L357.116 112.257
L364.108 111.952
L368.218 111.749
L369.667 111.678
L370.392 111.642
L371.195 111.602
L375.258 111.405
L375.824 111.381
L377.906 111.287
L378.609 111.256
L380.185 111.187
L380.967 111.15" style="fill:none;stroke:#000000;stroke-linecap:square;stroke-width:2;"/>
   </g>
   <g id="line2d_3">
    <path clip-path="url(#p73f45b0eee)" d="
M63.0619 99.4069
L95.8854 99.4069
L128.709 99.4069
L161.532 99.4069
L194.356 99.4069
L227.18 99.4069
L260.003 99.4069
L292.827 99.4069
L325.65 99.4069
L358.474 99.4069
L391.297 99.4069" style="fill:none;stroke:#000000;stroke-dasharray:6.000000,6.000000;stroke-dashoffset:0.0;"/>
   </g>
   <g id="matplotlib.axis_1">
    <g id="xtick_1">
     <g id="line2d_4">
      <defs>
       <path d="
M0 0
L0 -4" id="m93b0483c22" style="stroke:#000000;stroke-width:0.5;"/>
      </defs>
      <g>
       <use style="stroke:#000000;stroke-width:0.5;" x="63.061875" xlink:href="#m93b0483c22" y="185.806875"/>
      </g>
     </g>
     <g id="line2d_5">
      <defs>
       <path d="
M0 0
L0 4" id="m741efc42ff" style="stroke:#000000;stroke-width:0.5;"/>
      </defs>
      <g>
       <use style="stroke:#000000;stroke-width:0.5;" x="63.061875" xlink:href="#m741efc42ff" y="13.006875"/>
      </g>
     </g>
     <g id="text_1">
      <!-- 0 -->
      <defs>
       <path d="
M31.7812 66.4062
Q24.1719 66.4062 20.3281 58.9062
Q16.5 51.4219 16.5 36.375
Q16.5 21.3906 20.3281 13.8906
Q24.1719 6.39062 31.7812 6.39062
Q39.4531 6.39062 43.2812 13.8906
Q47.125 21.3906 47.125 36.375
Q47.125 51.4219 43.2812 58.9062
Q39.4531 66.4062 31.7812 66.4062
M31.7812 74.2188
Q44.0469 74.2188 50.5156 64.5156
Q56.9844 54.8281 56.9844 36.375
Q56.9844 17.9688 50.5156 8.26562
Q44.0469 -1.42188 31.7812 -1.42188
Q19.5312 -1.42188 13.0625 8.26562
Q6.59375 17.9688 6.59375 36.375
Q6.59375 54.8281 13.0625 64.5156
Q19.5312 74.2188 31.7812 74.2188" id="DejaVuSans-30"/>
      </defs>
      <g transform="translate(60.0384375 198.925)scale(0.12 -0.12)">
       <use xlink:href="#DejaVuSans-30"/>
      </g>
     </g>
    </g>
    <g id="xtick_2">
     <g id="line2d_6">
      <g>
       <use style="stroke:#000000;stroke-width:0.5;" x="128.708933824" xlink:href="#m93b0483c22" y="185.806875"/>
      </g>
     </g>
     <g id="line2d_7">
      <g>
       <use style="stroke:#000000;stroke-width:0.5;" x="128.708933824" xlink:href="#m741efc42ff" y="13.006875"/>
      </g>
     </g>
     <g id="text_2">
      <!-- 2 -->
      <defs>
       <path d="
M19.1875 8.29688
L53.6094 8.29688
L53.6094 0
L7.32812 0
L7.32812 8.29688
Q12.9375 14.1094 22.625 23.8906
Q32.3281 33.6875 34.8125 36.5312
Q39.5469 41.8438 41.4219 45.5312
Q43.3125 49.2188 43.3125 52.7812
Q43.3125 58.5938 39.2344 62.25
Q35.1562 65.9219 28.6094 65.9219
Q23.9688 65.9219 18.8125 64.3125
Q13.6719 62.7031 7.8125 59.4219
L7.8125 69.3906
Q13.7656 71.7812 18.9375 73
Q24.125 74.2188 28.4219 74.2188
Q39.75 74.2188 46.4844 68.5469
Q53.2188 62.8906 53.2188 53.4219
Q53.2188 48.9219 51.5312 44.8906
Q49.8594 40.875 45.4062 35.4062
Q44.1875 33.9844 37.6406 27.2188
Q31.1094 20.4531 19.1875 8.29688" id="DejaVuSans-32"/>
      </defs>
      <g transform="translate(125.932058824 198.925)scale(0.12 -0.12)">
       <use xlink:href="#DejaVuSans-32"/>
      </g>
     </g>
    </g>
    <g id="xtick_3">
     <g id="line2d_8">
      <g>
       <use style="stroke:#000000;stroke-width:0.5;" x="194.355992647" xlink:href="#m93b0483c22" y="185.806875"/>
      </g>
     </g>
     <g id="line2d_9">
      <g>
       <use style="stroke:#000000;stroke-width:0.5;" x="194.355992647" xlink:href="#m741efc42ff" y="13.006875"/>
      </g>
     </g>
     <g id="text_3">
      <!-- 4 -->
      <defs>
       <path d="
M37.7969 64.3125
L12.8906 25.3906
L37.7969 25.3906
z

M35.2031 72.9062
L47.6094 72.9062
L47.6094 25.3906
L58.0156 25.3906
L58.0156 17.1875
L47.6094 17.1875
L47.6094 0
L37.7969 0
L37.7969 17.1875
L4.89062 17.1875
L4.89062 26.7031
z
" id="DejaVuSans-34"/>
      </defs>
      <g transform="translate(191.168492647 198.925)scale(0.12 -0.12)">
       <use xlink:href="#DejaVuSans-34"/>
      </g>
     </g>
    </g>
    <g id="xtick_4">
     <g id="line2d_10">
      <g>
       <use style="stroke:#000000;stroke-width:0.5;" x="260.003051471" xlink:href="#m93b0483c22" y="185.806875"/>
      </g>
     </g>
     <g id="line2d_11">
      <g>
       <use style="stroke:#000000;stroke-width:0.5;" x="260.003051471" xlink:href="#m741efc42ff" y="13.006875"/>
      </g>
     </g>
     <g id="text_4">
      <!-- 6 -->
      <defs>
       <path d="
M33.0156 40.375
Q26.375 40.375 22.4844 35.8281
Q18.6094 31.2969 18.6094 23.3906
Q18.6094 15.5312 22.4844 10.9531
Q26.375 6.39062 33.0156 6.39062
Q39.6562 6.39062 43.5312 10.9531
Q47.4062 15.5312 47.4062 23.3906
Q47.4062 31.2969 43.5312 35.8281
Q39.6562 40.375 33.0156 40.375
M52.5938 71.2969
L52.5938 62.3125
Q48.875 64.0625 45.0938 64.9844
Q41.3125 65.9219 37.5938 65.9219
Q27.8281 65.9219 22.6719 59.3281
Q17.5312 52.7344 16.7969 39.4062
Q19.6719 43.6562 24.0156 45.9219
Q28.375 48.1875 33.5938 48.1875
Q44.5781 48.1875 50.9531 41.5156
Q57.3281 34.8594 57.3281 23.3906
Q57.3281 12.1562 50.6875 5.35938
Q44.0469 -1.42188 33.0156 -1.42188
Q20.3594 -1.42188 13.6719 8.26562
Q6.98438 17.9688 6.98438 36.375
Q6.98438 53.6562 15.1875 63.9375
Q23.3906 74.2188 37.2031 74.2188
Q40.9219 74.2188 44.7031 73.4844
Q48.4844 72.75 52.5938 71.2969" id="DejaVuSans-36"/>
      </defs>
      <g transform="translate(256.982426471 198.925)scale(0.12 -0.12)">
       <use xlink:href="#DejaVuSans-36"/>
      </g>
     </g>
    </g>
    <g id="xtick_5">
     <g id="line2d_12">
      <g>
       <use style="stroke:#000000;stroke-width:0.5;" x="325.650110294" xlink:href="#m93b0483c22" y="185.806875"/>
      </g>
     </g>
     <g id="line2d_13">
      <g>
       <use style="stroke:#000000;stroke-width:0.5;" x="325.650110294" xlink:href="#m741efc42ff" y="13.006875"/>
      </g>
     </g>
     <g id="text_5">
      <!-- 8 -->
      <defs>
       <path d="
M31.7812 34.625
Q24.75 34.625 20.7188 30.8594
Q16.7031 27.0938 16.7031 20.5156
Q16.7031 13.9219 20.7188 10.1562
Q24.75 6.39062 31.7812 6.39062
Q38.8125 6.39062 42.8594 10.1719
Q46.9219 13.9688 46.9219 20.5156
Q46.9219 27.0938 42.8906 30.8594
Q38.875 34.625 31.7812 34.625
M21.9219 38.8125
Q15.5781 40.375 12.0312 44.7188
Q8.5 49.0781 8.5 55.3281
Q8.5 64.0625 14.7188 69.1406
Q20.9531 74.2188 31.7812 74.2188
Q42.6719 74.2188 48.875 69.1406
Q55.0781 64.0625 55.0781 55.3281
Q55.0781 49.0781 51.5312 44.7188
Q48 40.375 41.7031 38.8125
Q48.8281 37.1562 52.7969 32.3125
Q56.7812 27.4844 56.7812 20.5156
Q56.7812 9.90625 50.3125 4.23438
Q43.8438 -1.42188 31.7812 -1.42188
Q19.7344 -1.42188 13.25 4.23438
Q6.78125 9.90625 6.78125 20.5156
Q6.78125 27.4844 10.7812 32.3125
Q14.7969 37.1562 21.9219 38.8125
M18.3125 54.3906
Q18.3125 48.7344 21.8438 45.5625
Q25.3906 42.3906 31.7812 42.3906
Q38.1406 42.3906 41.7188 45.5625
Q45.3125 48.7344 45.3125 54.3906
Q45.3125 60.0625 41.7188 63.2344
Q38.1406 66.4062 31.7812 66.4062
Q25.3906 66.4062 21.8438 63.2344
Q18.3125 60.0625 18.3125 54.3906" id="DejaVuSans-38"/>
      </defs>
      <g transform="translate(322.650110294 198.925)scale(0.12 -0.12)">
       <use xlink:href="#DejaVuSans-38"/>
      </g>
     </g>
    </g>
    <g id="xtick_6">
     <g id="line2d_14">
      <g>
       <use style="stroke:#000000;stroke-width:0.5;" x="391.297169118" xlink:href="#m93b0483c22" y="185.806875"/>
      </g>
     </g>
     <g id="line2d_15">
      <g>
       <use style="stroke:#000000;stroke-width:0.5;" x="391.297169118" xlink:href="#m741efc42ff" y="13.006875"/>
      </g>
     </g>
     <g id="text_6">
      <!-- 10 -->
      <defs>
       <path d="
M12.4062 8.29688
L28.5156 8.29688
L28.5156 63.9219
L10.9844 60.4062
L10.9844 69.3906
L28.4219 72.9062
L38.2812 72.9062
L38.2812 8.29688
L54.3906 8.29688
L54.3906 0
L12.4062 0
z
" id="DejaVuSans-31"/>
      </defs>
      <g transform="translate(384.719669118 198.925)scale(0.12 -0.12)">
       <use xlink:href="#DejaVuSans-31"/>
       <use x="63.623046875" xlink:href="#DejaVuSans-30"/>
      </g>
     </g>
    </g>
    <g id="text_7">
     <!-- m -->
     <defs>
      <path d="
M52 44.1875
Q55.375 50.25 60.0625 53.125
Q64.75 56 71.0938 56
Q79.6406 56 84.2812 50.0156
Q88.9219 44.0469 88.9219 33.0156
L88.9219 0
L79.8906 0
L79.8906 32.7188
Q79.8906 40.5781 77.0938 44.375
Q74.3125 48.1875 68.6094 48.1875
Q61.625 48.1875 57.5625 43.5469
Q53.5156 38.9219 53.5156 30.9062
L53.5156 0
L44.4844 0
L44.4844 32.7188
Q44.4844 40.625 41.7031 44.4062
Q38.9219 48.1875 33.1094 48.1875
Q26.2188 48.1875 22.1562 43.5312
Q18.1094 38.875 18.1094 30.9062
L18.1094 0
L9.07812 0
L9.07812 54.6875
L18.1094 54.6875
L18.1094 46.1875
Q21.1875 51.2188 25.4844 53.6094
Q29.7812 56 35.6875 56
Q41.6562 56 45.8281 52.9688
Q50 49.9531 52 44.1875" id="DejaVuSans-6d"/>
     </defs>
     <g transform="translate(225.67125 220.53875)scale(0.12 -0.12)">
      <use xlink:href="#DejaVuSans-6d"/>
     </g>
    </g>
   </g>
   <g id="matplotlib.axis_2">
    <g id="ytick_1">
     <g id="line2d_16">
      <defs>
       <path d="
M0 0
L4 0" id="m728421d6d4" style="stroke:#000000;stroke-width:0.5;"/>
      </defs>
      <g>
       <use style="stroke:#000000;stroke-width:0.5;" x="63.061875" xlink:href="#m728421d6d4" y="185.806875"/>
      </g>
     </g>
     <g id="line2d_17">
      <defs>
       <path d="
M0 0
L-4 0" id="mcb0005524f" style="stroke:#000000;stroke-width:0.5;"/>
      </defs>
      <g>
       <use style="stroke:#000000;stroke-width:0.5;" x="397.861875" xlink:href="#mcb0005524f" y="185.806875"/>
      </g>
     </g>
     <g id="text_8">
      <!-- −2.0 -->
      <defs>
       <path d="
M10.6875 12.4062
L21 12.4062
L21 0
L10.6875 0
z
" id="DejaVuSans-2e"/>
       <path d="
M10.5938 35.5
L73.1875 35.5
L73.1875 27.2031
L10.5938 27.2031
z
" id="DejaVuSans-2212"/>
      </defs>
      <g transform="translate(31.990625 189.118125)scale(0.12 -0.12)">
       <use xlink:href="#DejaVuSans-2212"/>
       <use x="83.7890625" xlink:href="#DejaVuSans-32"/>
       <use x="147.412109375" xlink:href="#DejaVuSans-2e"/>
       <use x="179.19921875" xlink:href="#DejaVuSans-30"/>
      </g>
     </g>
    </g>
    <g id="ytick_2">
     <g id="line2d_18">
      <g>
       <use style="stroke:#000000;stroke-width:0.5;" x="63.061875" xlink:href="#m728421d6d4" y="164.206875"/>
      </g>
     </g>
     <g id="line2d_19">
      <g>
       <use style="stroke:#000000;stroke-width:0.5;" x="397.861875" xlink:href="#mcb0005524f" y="164.206875"/>
      </g>
     </g>
     <g id="text_9">
      <!-- −1.5 -->
      <defs>
       <path d="
M10.7969 72.9062
L49.5156 72.9062
L49.5156 64.5938
L19.8281 64.5938
L19.8281 46.7344
Q21.9688 47.4688 24.1094 47.8281
Q26.2656 48.1875 28.4219 48.1875
Q40.625 48.1875 47.75 41.5
Q54.8906 34.8125 54.8906 23.3906
Q54.8906 11.625 47.5625 5.09375
Q40.2344 -1.42188 26.9062 -1.42188
Q22.3125 -1.42188 17.5469 -0.640625
Q12.7969 0.140625 7.71875 1.70312
L7.71875 11.625
Q12.1094 9.23438 16.7969 8.0625
Q21.4844 6.89062 26.7031 6.89062
Q35.1562 6.89062 40.0781 11.3281
Q45.0156 15.7656 45.0156 23.3906
Q45.0156 31 40.0781 35.4375
Q35.1562 39.8906 26.7031 39.8906
Q22.75 39.8906 18.8125 39.0156
Q14.8906 38.1406 10.7969 36.2812
z
" id="DejaVuSans-35"/>
      </defs>
      <g transform="translate(32.241875 167.518125)scale(0.12 -0.12)">
       <use xlink:href="#DejaVuSans-2212"/>
       <use x="83.7890625" xlink:href="#DejaVuSans-31"/>
       <use x="147.412109375" xlink:href="#DejaVuSans-2e"/>
       <use x="179.19921875" xlink:href="#DejaVuSans-35"/>
      </g>
     </g>
    </g>
    <g id="ytick_3">
     <g id="line2d_20">
      <g>
       <use style="stroke:#000000;stroke-width:0.5;" x="63.061875" xlink:href="#m728421d6d4" y="142.606875"/>
      </g>
     </g>
     <g id="line2d_21">
      <g>
       <use style="stroke:#000000;stroke-width:0.5;" x="397.861875" xlink:href="#mcb0005524f" y="142.606875"/>
      </g>
     </g>
     <g id="text_10">
      <!-- −1.0 -->
      <g transform="translate(31.990625 145.918125)scale(0.12 -0.12)">
       <use xlink:href="#DejaVuSans-2212"/>
       <use x="83.7890625" xlink:href="#DejaVuSans-31"/>
       <use x="147.412109375" xlink:href="#DejaVuSans-2e"/>
       <use x="179.19921875" xlink:href="#DejaVuSans-30"/>
      </g>
     </g>
    </g>
    <g id="ytick_4">
     <g id="line2d_22">
      <g>
       <use style="stroke:#000000;stroke-width:0.5;" x="63.061875" xlink:href="#m728421d6d4" y="121.006875"/>
      </g>
     </g>
     <g id="line2d_23">
      <g>
       <use style="stroke:#000000;stroke-width:0.5;" x="397.861875" xlink:href="#mcb0005524f" y="121.006875"/>
      </g>
     </g>
     <g id="text_11">
      <!-- −0.5 -->
      <g transform="translate(32.241875 124.318125)scale(0.12 -0.12)">
       <use xlink:href="#DejaVuSans-2212"/>
       <use x="83.7890625" xlink:href="#DejaVuSans-30"/>
       <use x="147.412109375" xlink:href="#DejaVuSans-2e"/>
       <use x="179.19921875" xlink:href="#DejaVuSans-35"/>
      </g>
     </g>
    </g>
    <g id="ytick_5">
     <g id="line2d_24">
      <g>
       <use style="stroke:#000000;stroke-width:0.5;" x="63.061875" xlink:href="#m728421d6d4" y="99.406875"/>
      </g>
     </g>
     <g id="line2d_25">
      <g>
       <use style="stroke:#000000;stroke-width:0.5;" x="397.861875" xlink:href="#mcb0005524f" y="99.406875"/>
      </g>
     </g>
     <g id="text_12">
      <!-- 0.0 -->
      <g transform="translate(41.56625 102.718125)scale(0.12 -0.12)">
       <use xlink:href="#DejaVuSans-30"/>
       <use x="63.623046875" xlink:href="#DejaVuSans-2e"/>
       <use x="95.41015625" xlink:href="#DejaVuSans-30"/>
      </g>
     </g>
    </g>
    <g id="ytick_6">
     <g id="line2d_26">
      <g>
       <use style="stroke:#000000;stroke-width:0.5;" x="63.061875" xlink:href="#m728421d6d4" y="77.806875"/>
      </g>
     </g>
     <g id="line2d_27">
      <g>
       <use style="stroke:#000000;stroke-width:0.5;" x="397.861875" xlink:href="#mcb0005524f" y="77.806875"/>
      </g>
     </g>
     <g id="text_13">
      <!-- 0.5 -->
      <g transform="translate(41.8175 81.118125)scale(0.12 -0.12)">
       <use xlink:href="#DejaVuSans-30"/>
       <use x="63.623046875" xlink:href="#DejaVuSans-2e"/>
       <use x="95.41015625" xlink:href="#DejaVuSans-35"/>
      </g>
     </g>
    </g>
    <g id="ytick_7">
     <g id="line2d_28">
      <g>
       <use style="stroke:#000000;stroke-width:0.5;" x="63.061875" xlink:href="#m728421d6d4" y="56.206875"/>
      </g>
     </g>
     <g id="line2d_29">
      <g>
       <use style="stroke:#000000;stroke-width:0.5;" x="397.861875" xlink:href="#mcb0005524f" y="56.206875"/>
      </g>
     </g>
     <g id="text_14">
      <!-- 1.0 -->
      <g transform="translate(42.093125 59.518125)scale(0.12 -0.12)">
       <use xlink:href="#DejaVuSans-31"/>
       <use x="63.623046875" xlink:href="#DejaVuSans-2e"/>
       <use x="95.41015625" xlink:href="#DejaVuSans-30"/>
      </g>
     </g>
    </g>
    <g id="ytick_8">
     <g id="line2d_30">
      <g>
       <use style="stroke:#000000;stroke-width:0.5;" x="63.061875" xlink:href="#m728421d6d4" y="34.606875"/>
      </g>
     </g>
     <g id="line2d_31">
      <g>
       <use style="stroke:#000000;stroke-width:0.5;" x="397.861875" xlink:href="#mcb0005524f" y="34.606875"/>
      </g>
     </g>
     <g id="text_15">
      <!-- 1.5 -->
      <g transform="translate(42.344375 37.918125)scale(0.12 -0.12)">
       <use xlink:href="#DejaVuSans-31"/>
       <use x="63.623046875" xlink:href="#DejaVuSans-2e"/>
       <use x="95.41015625" xlink:href="#DejaVuSans-35"/>
      </g>
     </g>
    </g>
    <g id="ytick_9">
     <g id="line2d_32">
      <g>
       <use style="stroke:#000000;stroke-width:0.5;" x="63.061875" xlink:href="#m728421d6d4" y="13.006875"/>
      </g>
     </g>
     <g id="line2d_33">
      <g>
       <use style="stroke:#000000;stroke-width:0.5;" x="397.861875" xlink:href="#mcb0005524f" y="13.006875"/>
      </g>
     </g>
     <g id="text_16">
      <!-- 2.0 -->
      <g transform="translate(41.654375 16.318125)scale(0.12 -0.12)">
       <use xlink:href="#DejaVuSans-32"/>
       <use x="63.623046875" xlink:href="#DejaVuSans-2e"/>
       <use x="95.41015625" xlink:href="#DejaVuSans-30"/>
      </g>
     </g>
    </g>
    <g id="text_17">
     <!-- m -->
     <g transform="translate(7.2 96.91125)scale(0.12 -0.12)">
      <use xlink:href="#DejaVuSans-6d"/>
     </g>
    </g>
   </g>
   <g id="patch_3">
    <path d="
M63.0619 13.0069
L397.862 13.0069" style="fill:none;stroke:#000000;"/>
   </g>
   <g id="patch_4">
    <path d="
M397.862 185.807
L397.862 13.0069" style="fill:none;stroke:#000000;"/>
   </g>
   <g id="patch_5">
    <path d="
M63.0619 185.807
L397.862 185.807" style="fill:none;stroke:#000000;"/>
   </g>
   <g id="patch_6">
    <path d="
M63.0619 185.807
L63.0619 13.0069" style="fill:none;stroke:#000000;"/>
   </g>
   <g id="legend_1">
    <g id="patch_7">
     <path d="
M407.906 85.5829
L536.957 85.5829
L536.957 17.8534
L407.906 17.8534
L407.906 85.5829
z
" style="fill:#ffffff;stroke:#000000;"/>
    </g>
    <g id="line2d_34">
     <path d="
M417.986 29.5151
L438.146 29.5151" style="fill:none;stroke:#000000;stroke-linecap:square;"/>
    </g>
    <g id="line2d_35"/>
    <g id="text_18">
     <!-- 10.0° -->
     <defs>
      <path d="
M25 67.9219
Q21.0938 67.9219 18.4062 65.2031
Q15.7188 62.5 15.7188 58.5938
Q15.7188 54.7344 18.4062 52.0781
Q21.0938 49.4219 25 49.4219
Q28.9062 49.4219 31.5938 52.0781
Q34.2812 54.7344 34.2812 58.5938
Q34.2812 62.4531 31.5625 65.1875
Q28.8594 67.9219 25 67.9219
M25 74.2188
Q28.125 74.2188 31 73.0156
Q33.8906 71.8281 35.9844 69.5781
Q38.2344 67.3906 39.3594 64.5938
Q40.4844 61.8125 40.4844 58.5938
Q40.4844 52.1562 35.9688 47.6875
Q31.4531 43.2188 24.9062 43.2188
Q18.3125 43.2188 13.9062 47.6094
Q9.51562 52 9.51562 58.5938
Q9.51562 65.1406 14 69.6719
Q18.5 74.2188 25 74.2188" id="DejaVuSans-b0"/>
     </defs>
     <g transform="translate(453.985875 34.555125)scale(0.144 -0.144)">
      <use xlink:href="#DejaVuSans-31"/>
      <use x="63.623046875" xlink:href="#DejaVuSans-30"/>
      <use x="127.24609375" xlink:href="#DejaVuSans-2e"/>
      <use x="159.033203125" xlink:href="#DejaVuSans-30"/>
      <use x="222.65625" xlink:href="#DejaVuSans-b0"/>
     </g>
    </g>
    <g id="line2d_36">
     <path d="
M417.986 50.6516
L438.146 50.6516" style="fill:none;stroke:#000000;stroke-linecap:square;stroke-width:2;"/>
    </g>
    <g id="line2d_37"/>
    <g id="text_19">
     <!-- -10.0° -->
     <defs>
      <path d="
M4.89062 31.3906
L31.2031 31.3906
L31.2031 23.3906
L4.89062 23.3906
z
" id="DejaVuSans-2d"/>
     </defs>
     <g transform="translate(453.985875 55.691625)scale(0.144 -0.144)">
      <use xlink:href="#DejaVuSans-2d"/>
      <use x="36.083984375" xlink:href="#DejaVuSans-31"/>
      <use x="99.70703125" xlink:href="#DejaVuSans-30"/>
      <use x="163.330078125" xlink:href="#DejaVuSans-2e"/>
      <use x="195.1171875" xlink:href="#DejaVuSans-30"/>
      <use x="258.740234375" xlink:href="#DejaVuSans-b0"/>
     </g>
    </g>
    <g id="line2d_38">
     <path d="
M417.986 71.7881
L438.146 71.7881" style="fill:none;stroke:#000000;stroke-dasharray:6.000000,6.000000;stroke-dashoffset:0.0;"/>
    </g>
    <g id="line2d_39"/>
    <g id="text_20">
     <!-- Teach path -->
     <defs>
      <path d="
M-0.296875 72.9062
L61.375 72.9062
L61.375 64.5938
L35.5 64.5938
L35.5 0
L25.5938 0
L25.5938 64.5938
L-0.296875 64.5938
z
" id="DejaVuSans-54"/>
      <path d="
M18.1094 8.20312
L18.1094 -20.7969
L9.07812 -20.7969
L9.07812 54.6875
L18.1094 54.6875
L18.1094 46.3906
Q20.9531 51.2656 25.2656 53.625
Q29.5938 56 35.5938 56
Q45.5625 56 51.7812 48.0938
Q58.0156 40.1875 58.0156 27.2969
Q58.0156 14.4062 51.7812 6.48438
Q45.5625 -1.42188 35.5938 -1.42188
Q29.5938 -1.42188 25.2656 0.953125
Q20.9531 3.32812 18.1094 8.20312
M48.6875 27.2969
Q48.6875 37.2031 44.6094 42.8438
Q40.5312 48.4844 33.4062 48.4844
Q26.2656 48.4844 22.1875 42.8438
Q18.1094 37.2031 18.1094 27.2969
Q18.1094 17.3906 22.1875 11.75
Q26.2656 6.10938 33.4062 6.10938
Q40.5312 6.10938 44.6094 11.75
Q48.6875 17.3906 48.6875 27.2969" id="DejaVuSans-70"/>
      <path id="DejaVuSans-20"/>
      <path d="
M54.8906 33.0156
L54.8906 0
L45.9062 0
L45.9062 32.7188
Q45.9062 40.4844 42.875 44.3281
Q39.8438 48.1875 33.7969 48.1875
Q26.5156 48.1875 22.3125 43.5469
Q18.1094 38.9219 18.1094 30.9062
L18.1094 0
L9.07812 0
L9.07812 75.9844
L18.1094 75.9844
L18.1094 46.1875
Q21.3438 51.125 25.7031 53.5625
Q30.0781 56 35.7969 56
Q45.2188 56 50.0469 50.1719
Q54.8906 44.3438 54.8906 33.0156" id="DejaVuSans-68"/>
      <path d="
M18.3125 70.2188
L18.3125 54.6875
L36.8125 54.6875
L36.8125 47.7031
L18.3125 47.7031
L18.3125 18.0156
Q18.3125 11.3281 20.1406 9.42188
Q21.9688 7.51562 27.5938 7.51562
L36.8125 7.51562
L36.8125 0
L27.5938 0
Q17.1875 0 13.2344 3.875
Q9.28125 7.76562 9.28125 18.0156
L9.28125 47.7031
L2.6875 47.7031
L2.6875 54.6875
L9.28125 54.6875
L9.28125 70.2188
z
" id="DejaVuSans-74"/>
      <path d="
M56.2031 29.5938
L56.2031 25.2031
L14.8906 25.2031
Q15.4844 15.9219 20.4844 11.0625
Q25.4844 6.20312 34.4219 6.20312
Q39.5938 6.20312 44.4531 7.46875
Q49.3125 8.73438 54.1094 11.2812
L54.1094 2.78125
Q49.2656 0.734375 44.1875 -0.34375
Q39.1094 -1.42188 33.8906 -1.42188
Q20.7969 -1.42188 13.1562 6.1875
Q5.51562 13.8125 5.51562 26.8125
Q5.51562 40.2344 12.7656 48.1094
Q20.0156 56 32.3281 56
Q43.3594 56 49.7812 48.8906
Q56.2031 41.7969 56.2031 29.5938
M47.2188 32.2344
Q47.125 39.5938 43.0938 43.9844
Q39.0625 48.3906 32.4219 48.3906
Q24.9062 48.3906 20.3906 44.1406
Q15.875 39.8906 15.1875 32.1719
z
" id="DejaVuSans-65"/>
      <path d="
M48.7812 52.5938
L48.7812 44.1875
Q44.9688 46.2969 41.1406 47.3438
Q37.3125 48.3906 33.4062 48.3906
Q24.6562 48.3906 19.8125 42.8438
Q14.9844 37.3125 14.9844 27.2969
Q14.9844 17.2812 19.8125 11.7344
Q24.6562 6.20312 33.4062 6.20312
Q37.3125 6.20312 41.1406 7.25
Q44.9688 8.29688 48.7812 10.4062
L48.7812 2.09375
Q45.0156 0.34375 40.9844 -0.53125
Q36.9688 -1.42188 32.4219 -1.42188
Q20.0625 -1.42188 12.7812 6.34375
Q5.51562 14.1094 5.51562 27.2969
Q5.51562 40.6719 12.8594 48.3281
Q20.2188 56 33.0156 56
Q37.1562 56 41.1094 55.1406
Q45.0625 54.2969 48.7812 52.5938" id="DejaVuSans-63"/>
      <path d="
M34.2812 27.4844
Q23.3906 27.4844 19.1875 25
Q14.9844 22.5156 14.9844 16.5
Q14.9844 11.7188 18.1406 8.90625
Q21.2969 6.10938 26.7031 6.10938
Q34.1875 6.10938 38.7031 11.4062
Q43.2188 16.7031 43.2188 25.4844
L43.2188 27.4844
z

M52.2031 31.2031
L52.2031 0
L43.2188 0
L43.2188 8.29688
Q40.1406 3.32812 35.5469 0.953125
Q30.9531 -1.42188 24.3125 -1.42188
Q15.9219 -1.42188 10.9531 3.29688
Q6 8.01562 6 15.9219
Q6 25.1406 12.1719 29.8281
Q18.3594 34.5156 30.6094 34.5156
L43.2188 34.5156
L43.2188 35.4062
Q43.2188 41.6094 39.1406 45
Q35.0625 48.3906 27.6875 48.3906
Q23 48.3906 18.5469 47.2656
Q14.1094 46.1406 10.0156 43.8906
L10.0156 52.2031
Q14.9375 54.1094 19.5781 55.0469
Q24.2188 56 28.6094 56
Q40.4844 56 46.3438 49.8438
Q52.2031 43.7031 52.2031 31.2031" id="DejaVuSans-61"/>
     </defs>
     <g transform="translate(453.985875 76.828125)scale(0.144 -0.144)">
      <use xlink:href="#DejaVuSans-54"/>
      <use x="44.083984375" xlink:href="#DejaVuSans-65"/>
      <use x="105.607421875" xlink:href="#DejaVuSans-61"/>
      <use x="166.88671875" xlink:href="#DejaVuSans-63"/>
      <use x="221.8671875" xlink:href="#DejaVuSans-68"/>
      <use x="285.24609375" xlink:href="#DejaVuSans-20"/>
      <use x="317.033203125" xlink:href="#DejaVuSans-70"/>
      <use x="380.509765625" xlink:href="#DejaVuSans-61"/>
      <use x="441.7890625" xlink:href="#DejaVuSans-74"/>
      <use x="480.998046875" xlink:href="#DejaVuSans-68"/>
     </g>
    </g>
   </g>
  </g>
 </g>
 <defs>
  <clipPath id="p73f45b0eee">
   <rect height="172.8" width="334.8" x="63.061875" y="13.006875"/>
  </clipPath>
 </defs>
</svg>
